<svg xmlns="http://www.w3.org/2000/svg" width="2100" height="1363" viewBox="0 0 2100 1363" role="img" aria-label="OCS R300 Manufacturing Knowledge Object Map" data-style="accent-blueprint" data-diagram-type="layered_knowledge_topology">
<defs>
  <pattern id="blueprint-grid-small" width="16.8" height="16.8" patternUnits="userSpaceOnUse"><path d="M 16.8 0 H 0 V 16.8" fill="none" stroke="#FFFFFF" stroke-opacity="0.08" stroke-width="0.98"/></pattern>
  <pattern id="blueprint-grid" width="84" height="84" patternUnits="userSpaceOnUse"><rect width="84" height="84" fill="url(#blueprint-grid-small)"/><path d="M 84 0 H 0 V 84" fill="none" stroke="#FFFFFF" stroke-opacity="0.14" stroke-width="1.4"/> </pattern>
  <marker id="arrow" markerWidth="10" markerHeight="10" refX="8.5" refY="3" orient="auto" markerUnits="strokeWidth"><path d="M0,0 L0,6 L9,3 z" fill="context-stroke"/></marker>
  <marker id="arrow-fanout" markerWidth="10" markerHeight="10" refX="8.5" refY="3" orient="auto" markerUnits="strokeWidth"><path d="M0,0 L0,6 L9,3 z" fill="context-stroke"/></marker>
  <marker id="arrow-fanin" markerWidth="10" markerHeight="10" refX="8.5" refY="3" orient="auto" markerUnits="strokeWidth"><path d="M0,0 L0,6 L9,3 z" fill="context-stroke"/></marker>
  <style>
    [data-style="accent-blueprint"] .title{font:700 27px IBM Plex Mono,JetBrains Mono,Consolas,monospace;fill:#F4F8FF;letter-spacing:.04em;text-transform:uppercase}
    [data-style="accent-blueprint"] .subtitle{font:400 13px IBM Plex Sans,Inter,Roboto Condensed,DIN,Segoe UI,Aptos,Arial,sans-serif;fill:#C9DAF5}
    [data-style="accent-blueprint"] .group-label{font:700 15px IBM Plex Mono,JetBrains Mono,Consolas,monospace;fill:#C9DAF5;letter-spacing:.08em;text-transform:uppercase}
    [data-style="accent-blueprint"] .card-title{font:700 17px IBM Plex Sans,Inter,Roboto Condensed,DIN,Segoe UI,Aptos,Arial,sans-serif;fill:#F4F8FF}
    [data-style="accent-blueprint"] .card-sub{font:500 13px IBM Plex Sans,Inter,Roboto Condensed,DIN,Segoe UI,Aptos,Arial,sans-serif;fill:#C9DAF5}
    [data-style="accent-blueprint"] .edge{fill:none;stroke:#F4F8FF;stroke-width:1.5;stroke-linecap:round;stroke-linejoin:round;opacity:0.88}
    [data-style="accent-blueprint"] .fanout{stroke:#FF9F2E;opacity:0.9}
    [data-style="accent-blueprint"] .fanin{stroke:#6EE66E;opacity:0.9}
    [data-style="accent-blueprint"] .route-shared{marker-end:none}
    [data-style="accent-blueprint"] .edge-dashed{stroke-dasharray:6 5;opacity:0.68}
    [data-style="accent-blueprint"] .note{font:500 14px IBM Plex Sans,Inter,Roboto Condensed,DIN,Segoe UI,Aptos,Arial,sans-serif;fill:#C9DAF5}
    [data-style="accent-blueprint"] .mono{font-family:IBM Plex Mono,JetBrains Mono,Consolas,monospace}
    [data-style="accent-blueprint"] .table-header{font:700 15.5px IBM Plex Mono,JetBrains Mono,Consolas,monospace;fill:#F4F8FF;letter-spacing:.08em;text-transform:uppercase}
    [data-style="accent-blueprint"] .table-cell{font:500 17px IBM Plex Sans,Inter,Roboto Condensed,DIN,Segoe UI,Aptos,Arial,sans-serif;fill:#F4F8FF}
    [data-style="accent-blueprint"] .table-cell-secondary{font:500 17px IBM Plex Sans,Inter,Roboto Condensed,DIN,Segoe UI,Aptos,Arial,sans-serif;fill:#C9DAF5}
    [data-style="accent-blueprint"] .info-panel-title{font:700 15px IBM Plex Mono,JetBrains Mono,Consolas,monospace;fill:#F4F8FF;letter-spacing:.08em;text-transform:uppercase}
    [data-style="accent-blueprint"] .info-panel-item{font:500 14px IBM Plex Sans,Inter,Roboto Condensed,DIN,Segoe UI,Aptos,Arial,sans-serif;fill:#C9DAF5}
    [data-style="accent-blueprint"] .tree-level-label{font:700 15px IBM Plex Mono,JetBrains Mono,Consolas,monospace;fill:#C9DAF5;letter-spacing:.08em;text-transform:uppercase}
    [data-style="accent-blueprint"] .hub-label{font:700 15px IBM Plex Mono,JetBrains Mono,Consolas,monospace;fill:#C9DAF5;letter-spacing:.08em;text-transform:uppercase}
    [data-style="accent-blueprint"] .icon-line{fill:none;stroke-width:1.3;stroke-linecap:round;stroke-linejoin:round}
  </style>
</defs>
<rect x="0" y="0" width="2100" height="1363" rx="0" fill="#062B5F"/>
<rect x="0" y="0" width="2100" height="1363" rx="0" fill="url(#blueprint-grid)" opacity="1"/>
<text x="1050.0" y="54" text-anchor="middle" class="title">OCS R300 Manufacturing Knowledge Object Map</text>
<text x="1050.0" y="80.0" text-anchor="middle" class="subtitle">Navigation and synthesis objects over source-bound WI sub-knowledgebases and controlled-source authority</text>
<rect x="70" y="115" width="1960" height="204" class="group-panel" rx="8" fill="#FFFFFF" fill-opacity="0.03" stroke="#F4F8FF" stroke-opacity="0.7" stroke-width="1"/>
<rect x="70" y="351" width="1960" height="246" class="group-panel" rx="8" fill="#FFFFFF" fill-opacity="0.03" stroke="#F4F8FF" stroke-opacity="0.7" stroke-width="1"/>
<rect x="70" y="629" width="1960" height="426" class="group-panel" rx="8" fill="#FFFFFF" fill-opacity="0.03" stroke="#F4F8FF" stroke-opacity="0.7" stroke-width="1"/>
<rect x="70" y="1087" width="1960" height="204" class="group-panel" rx="8" fill="#FFFFFF" fill-opacity="0.03" stroke="#F4F8FF" stroke-opacity="0.7" stroke-width="1"/>
<path d="M 838.0 287.0 L 838.0 402.0 Q 838.0 409.0 831.0 409.0 L 824.0 409.0" class="edge fanout route-shared branch" style="stroke:#16D9FF" data-route-family="0" data-route-color="#16D9FF" data-source-id="knowledge-map" data-source-lane="0" data-lane-shift="0.0"/>
<path d="M 838.0 287.0 L 838.0 402.0 Q 838.0 409.0 845.0 409.0 L 852.0 409.0" class="edge fanout route-shared branch" style="stroke:#16D9FF" data-route-family="0" data-route-color="#16D9FF" data-source-id="knowledge-map" data-source-lane="0" data-lane-shift="0.0"/>
<path d="M 426.0 409.0 L 1241.0 409.0" class="edge fanout route-shared bus" style="stroke:#16D9FF" data-route-family="0" data-route-color="#16D9FF" data-source-id="knowledge-map" data-source-lane="0" data-lane-shift="0.0"/>
<path d="M 428.0 409.0 L 421.0 409.0 Q 414.0 409.0 414.0 416.0 L 414.0 457.0" class="edge fanout terminal" marker-end="url(#arrow-fanout)" style="stroke:#16D9FF" data-route-family="0" data-route-color="#16D9FF" data-source-id="knowledge-map" data-source-lane="0" data-lane-shift="0.0" data-target-id="e2e-process"/>
<path d="M 843.0 409.0 L 836.0 409.0 Q 829.0 409.0 829.0 416.0 L 829.0 457.0" class="edge fanout terminal" marker-end="url(#arrow-fanout)" style="stroke:#16D9FF" data-route-family="0" data-route-color="#16D9FF" data-source-id="knowledge-map" data-source-lane="0" data-lane-shift="0.0" data-target-id="ctq-parameter" data-target-anchor-lane="0" data-target-anchor-count="2" data-target-anchor-shift="-9.0"/>
<path d="M 1239.0 409.0 L 1246.0 409.0 Q 1253.0 409.0 1253.0 416.0 L 1253.0 457.0" class="edge fanout terminal" marker-end="url(#arrow-fanout)" style="stroke:#16D9FF" data-route-family="0" data-route-color="#16D9FF" data-source-id="knowledge-map" data-source-lane="0" data-lane-shift="0.0" data-target-id="risk-taxonomy" data-target-anchor-lane="0" data-target-anchor-count="2" data-target-anchor-shift="-9.0"/>
<path d="M 1686.0 287.0 L 1686.0 386.0 Q 1686.0 393.0 1679.0 393.0 L 1672.0 393.0" class="edge edge-dashed fanout route-shared branch" style="stroke:#6EE66E" data-route-family="1" data-route-color="#6EE66E" data-source-id="glossary-ontology" data-source-lane="2" data-lane-shift="-16.0"/>
<path d="M 859.0 393.0 L 1674.0 393.0" class="edge edge-dashed fanout route-shared bus" style="stroke:#6EE66E" data-route-family="1" data-route-color="#6EE66E" data-source-id="glossary-ontology" data-source-lane="2" data-lane-shift="-16.0"/>
<path d="M 861.0 393.0 L 854.0 393.0 Q 847.0 393.0 847.0 400.0 L 847.0 457.0" class="edge edge-dashed fanout terminal" marker-end="url(#arrow-fanout)" style="stroke:#6EE66E" data-route-family="1" data-route-color="#6EE66E" data-source-id="glossary-ontology" data-source-lane="2" data-lane-shift="-16.0" data-target-id="ctq-parameter" data-target-anchor-lane="1" data-target-anchor-count="2" data-target-anchor-shift="9.0"/>
<path d="M 1285.0 393.0 L 1278.0 393.0 Q 1271.0 393.0 1271.0 400.0 L 1271.0 457.0" class="edge edge-dashed fanout terminal" marker-end="url(#arrow-fanout)" style="stroke:#6EE66E" data-route-family="1" data-route-color="#6EE66E" data-source-id="glossary-ontology" data-source-lane="2" data-lane-shift="-16.0" data-target-id="risk-taxonomy" data-target-anchor-lane="1" data-target-anchor-count="2" data-target-anchor-shift="9.0"/>
<path d="M 414.0 565.0 L 414.0 664.0 Q 414.0 671.0 421.0 671.0 L 428.0 671.0" class="edge fanout route-shared branch" style="stroke:#FFD84D" data-route-family="2" data-route-color="#FFD84D"/>
<path d="M 1921.0 671.0 L 1928.0 671.0 Q 1935.0 671.0 1935.0 678.0 L 1935.0 876.0 Q 1935.0 883.0 1928.0 883.0 L 1921.0 883.0" class="edge fanout route-shared trunk" style="stroke:#FFD84D" data-route-family="2" data-route-color="#FFD84D"/>
<path d="M 417.5 671.0 L 1923.0 671.0" class="edge fanout route-shared bus" style="stroke:#FFD84D" data-route-family="2" data-route-color="#FFD84D"/>
<path d="M 419.5 671.0 L 426.5 671.0 Q 433.5 671.0 433.5 678.0 L 433.5 703.0" class="edge fanout terminal" marker-end="url(#arrow-fanout)" style="stroke:#FFD84D" data-route-family="2" data-route-color="#FFD84D" data-target-id="mems-package"/>
<path d="M 830.5 671.0 L 837.5 671.0 Q 844.5 671.0 844.5 678.0 L 844.5 703.0" class="edge fanout terminal" marker-end="url(#arrow-fanout)" style="stroke:#FFD84D" data-route-family="2" data-route-color="#FFD84D" data-target-id="mca-package"/>
<path d="M 1241.5 671.0 L 1248.5 671.0 Q 1255.5 671.0 1255.5 678.0 L 1255.5 703.0" class="edge fanout terminal" marker-end="url(#arrow-fanout)" style="stroke:#FFD84D" data-route-family="2" data-route-color="#FFD84D" data-target-id="obm-assy"/>
<path d="M 1652.5 671.0 L 1659.5 671.0 Q 1666.5 671.0 1666.5 678.0 L 1666.5 703.0" class="edge fanout terminal" marker-end="url(#arrow-fanout)" style="stroke:#FFD84D" data-route-family="2" data-route-color="#FFD84D" data-target-id="pob"/>
<path d="M 445.5 883.0 L 1923.0 883.0" class="edge fanout route-shared bus" style="stroke:#FFD84D" data-route-family="2" data-route-color="#FFD84D"/>
<path d="M 447.5 883.0 L 440.5 883.0 Q 433.5 883.0 433.5 890.0 L 433.5 915.0" class="edge fanout terminal" marker-end="url(#arrow-fanout)" style="stroke:#FFD84D" data-route-family="2" data-route-color="#FFD84D" data-target-id="faceplate"/>
<path d="M 858.5 883.0 L 851.5 883.0 Q 844.5 883.0 844.5 890.0 L 844.5 915.0" class="edge fanout terminal" marker-end="url(#arrow-fanout)" style="stroke:#FFD84D" data-route-family="2" data-route-color="#FFD84D" data-target-id="fru"/>
<path d="M 1269.5 883.0 L 1262.5 883.0 Q 1255.5 883.0 1255.5 890.0 L 1255.5 915.0" class="edge fanout terminal" marker-end="url(#arrow-fanout)" style="stroke:#FFD84D" data-route-family="2" data-route-color="#FFD84D" data-target-id="mech-assy"/>
<path d="M 1680.5 883.0 L 1673.5 883.0 Q 1666.5 883.0 1666.5 890.0 L 1666.5 915.0" class="edge fanout terminal" marker-end="url(#arrow-fanout)" style="stroke:#FFD84D" data-route-family="2" data-route-color="#FFD84D" data-target-id="final"/>
<path d="M 594.0 233.0 L 658.0 233.0" class="edge" marker-end="url(#arrow)"/>
<path d="M 1262.0 287 L 1262.0 346.0 Q 1262.0 360.0 1276.0 360.0 L 1672.0 360.0 Q 1686.0 360.0 1686.0 374.0 L 1686.0 457" class="edge direct-link" marker-end="url(#arrow)" style="stroke:#FFD84D" data-route-color="#FFD84D" data-direct-corridor="down:287:457" data-direct-lane="1" data-lane-shift="-12.0"/>
<path d="M 1255.5 1023 L 1255.5 1073.0 Q 1255.5 1087.0 1241.5 1087.0 L 1064.0 1087.0 Q 1050.0 1087.0 1050.0 1101.0 L 1050.0 1151" class="edge edge-dashed" marker-end="url(#arrow)"/>
<g class="group-label-wrap"><rect x="88" y="121" width="259.20000000000005" height="30" rx="7" fill="#062B5F" fill-opacity="0.78"/><text x="98" y="141" class="group-label">ENTRY AND NAVIGATION OBJECTS</text></g>
<g class="group-label-wrap"><rect x="88" y="357" width="284.40000000000003" height="30" rx="7" fill="#062B5F" fill-opacity="0.78"/><text x="98" y="377" class="group-label">PRODUCT-LEVEL SYNTHESIS OBJECTS</text></g>
<g class="group-label-wrap"><rect x="88" y="635" width="309.6" height="30" rx="7" fill="#062B5F" fill-opacity="0.78"/><text x="98" y="655" class="group-label">SOURCE-BOUND WI SUB-KNOWLEDGEBASES</text></g>
<g class="group-label-wrap"><rect x="88" y="1093" width="326.40000000000003" height="30" rx="7" fill="#062B5F" fill-opacity="0.78"/><text x="98" y="1113" class="group-label">CONTROLLED-SOURCE AUTHORITY BOUNDARY</text></g>
<g id="node-manufacturing-moc" class="card node-card"><rect x="234.0" y="179" width="360" height="108" rx="6" fill="#FFFFFF" fill-opacity="0.03" stroke="#16D9FF" stroke-width="1.3"/><rect x="252.0" y="223.0" width="18" height="20" rx="3" fill="none" stroke="#16D9FF" stroke-width="1.2"/><path d="M256.0,229.0 H266.0 M256.0,234.0 H266.0 M256.0,239.0 H263.0" class="icon-line" stroke="#16D9FF"/><text x="288.0" y="232.0874" text-anchor="start" class="card-title" style="font-size:23.2px">MOC</text><text x="288.0" y="255.4046" text-anchor="start" class="card-sub" style="font-size:17.3px">landing page</text></g>
<g id="node-knowledge-map" class="card node-card"><rect x="658.0" y="179" width="360" height="108" rx="6" fill="#FFFFFF" fill-opacity="0.03" stroke="#16D9FF" stroke-width="1.3"/><rect x="676.0" y="226.0" width="20" height="16" rx="3" fill="none" stroke="#16D9FF" stroke-width="1.2"/><path d="M676.0,231.0 H696.0 M686.0,226.0 V242.0" class="icon-line" stroke="#16D9FF"/><text x="712.0" y="232.0874" text-anchor="start" class="card-title" style="font-size:23.2px">Knowledge Map</text><text x="712.0" y="255.4046" text-anchor="start" class="card-sub" style="font-size:17.3px">object topology</text></g>
<g id="node-query-guide" class="card node-card"><rect x="1082.0" y="179" width="360" height="108" rx="6" fill="#FFFFFF" fill-opacity="0.03" stroke="#16D9FF" stroke-width="1.3"/><circle cx="1108.0" cy="231.0" r="7" fill="none" stroke="#16D9FF" stroke-width="1.2"/><path d="M1114.0,237.0 L1120.0,243.0" class="icon-line" stroke="#16D9FF"/><text x="1136.0" y="232.0874" text-anchor="start" class="card-title" style="font-size:23.2px">Query Guide</text><text x="1136.0" y="255.4046" text-anchor="start" class="card-sub" style="font-size:17.3px">where to look</text></g>
<g id="node-glossary-ontology" class="card node-card"><rect x="1506.0" y="179" width="360" height="108" rx="6" fill="#FFFFFF" fill-opacity="0.03" stroke="#B56CFF" stroke-width="1.3"/><path d="M1524.0,223.0 H1540.0 Q1544.0,223.0 1544.0,227.0 V242.0 H1524.0 Z" fill="none" stroke="#B56CFF" stroke-width="1.2"/><path d="M1529.0,229.0 H1538.0 M1529.0,235.0 H1538.0" class="icon-line" stroke="#B56CFF"/><text x="1560.0" y="232.0874" text-anchor="start" class="card-title" style="font-size:23.2px">Glossary / Ontology</text><text x="1560.0" y="255.4046" text-anchor="start" class="card-sub" style="font-size:17.3px">shared language</text></g>
<g id="node-e2e-process" class="card node-card"><rect x="234.0" y="457" width="360" height="108" rx="6" fill="#FFFFFF" fill-opacity="0.03" stroke="#FF9F2E" stroke-width="1.3"/><circle cx="256.0" cy="512.0" r="4" fill="none" stroke="#FF9F2E" stroke-width="1.6"/><circle cx="270.0" cy="505.0" r="4" fill="none" stroke="#FF9F2E" stroke-width="1.6"/><circle cx="270.0" cy="519.0" r="4" fill="none" stroke="#FF9F2E" stroke-width="1.6"/><path d="M260.0,512.0 H264.0 M266.0,508.0 L264.0,512.0 L266.0,516.0" class="icon-line" stroke="#FF9F2E"/><text x="288.0" y="510.0874" text-anchor="start" class="card-title" style="font-size:23.2px">End-to-End Process</text><text x="288.0" y="533.4046" text-anchor="start" class="card-sub" style="font-size:17.3px">group flow view</text></g>
<g id="node-ctq-parameter" class="card node-card"><rect x="658.0" y="457" width="360" height="108" rx="6" fill="#FFFFFF" fill-opacity="0.03" stroke="#FFD84D" stroke-width="1.3"/><path d="M686.0,501.0 L696.0,519.0 H676.0 Z" fill="none" stroke="#FFD84D" stroke-width="1.2"/><path d="M686.0,508.0 V514.0 M686.0,518.0 V518.0" class="icon-line" stroke="#FFD84D"/><text x="712.0" y="510.0874" text-anchor="start" class="card-title" style="font-size:23.2px">CTQ / Parameter</text><text x="712.0" y="533.4046" text-anchor="start" class="card-sub" style="font-size:17.3px">quality lookup</text></g>
<g id="node-risk-taxonomy" class="card node-card"><rect x="1082.0" y="457" width="360" height="108" rx="6" fill="#FFFFFF" fill-opacity="0.03" stroke="#FFD84D" stroke-width="1.3"/><path d="M1110.0,501.0 L1119.0,506.0 V516.0 L1110.0,521.0 L1101.0,516.0 V506.0 Z" fill="none" stroke="#FFD84D" stroke-width="1.2"/><path d="M1106.0,511.0 L1109.0,515.0 L1115.0,507.0" class="icon-line" stroke="#FFD84D"/><text x="1136.0" y="510.0874" text-anchor="start" class="card-title" style="font-size:23.2px">Defect / Risk</text><text x="1136.0" y="533.4046" text-anchor="start" class="card-sub" style="font-size:17.3px">risk lookup</text></g>
<g id="node-source-inventory" class="card node-card"><rect x="1506.0" y="457" width="360" height="108" rx="6" fill="#FFFFFF" fill-opacity="0.03" stroke="#FFD84D" stroke-width="1.3"/><path d="M1534.0,501.0 L1544.0,519.0 H1524.0 Z" fill="none" stroke="#FFD84D" stroke-width="1.2"/><path d="M1534.0,508.0 V514.0 M1534.0,518.0 V518.0" class="icon-line" stroke="#FFD84D"/><text x="1560.0" y="510.0874" text-anchor="start" class="card-title" style="font-size:23.2px">Source Inventory</text><text x="1560.0" y="533.4046" text-anchor="start" class="card-sub" style="font-size:17.3px">WI source index</text></g>
<g id="node-mems-package" class="card node-card"><rect x="260.0" y="703" width="347.0" height="108" rx="6" fill="#FFFFFF" fill-opacity="0.03" stroke="#6EE66E" stroke-width="1.3"/><rect x="278.0" y="750.0" width="20" height="16" rx="3" fill="none" stroke="#6EE66E" stroke-width="1.2"/><path d="M278.0,755.0 H298.0 M288.0,750.0 V766.0" class="icon-line" stroke="#6EE66E"/><text x="314.0" y="756.0874" text-anchor="start" class="card-title" style="font-size:23.2px">MEMS Package</text><text x="314.0" y="779.4046" text-anchor="start" class="card-sub" style="font-size:17.3px">package build</text></g>
<g id="node-mca-package" class="card node-card"><rect x="671.0" y="703" width="347.0" height="108" rx="6" fill="#FFFFFF" fill-opacity="0.03" stroke="#6EE66E" stroke-width="1.3"/><rect x="689.0" y="750.0" width="20" height="16" rx="3" fill="none" stroke="#6EE66E" stroke-width="1.2"/><path d="M689.0,755.0 H709.0 M699.0,750.0 V766.0" class="icon-line" stroke="#6EE66E"/><text x="725.0" y="756.0874" text-anchor="start" class="card-title" style="font-size:23.2px">MCA Package</text><text x="725.0" y="779.4046" text-anchor="start" class="card-sub" style="font-size:17.3px">FAU / ribbon / ILU</text></g>
<g id="node-obm-assy" class="card node-card"><rect x="1082.0" y="703" width="347.0" height="108" rx="6" fill="#FFFFFF" fill-opacity="0.03" stroke="#6EE66E" stroke-width="1.3"/><rect x="1100.0" y="750.0" width="20" height="16" rx="3" fill="none" stroke="#6EE66E" stroke-width="1.2"/><path d="M1100.0,755.0 H1120.0 M1110.0,750.0 V766.0" class="icon-line" stroke="#6EE66E"/><text x="1136.0" y="756.0874" text-anchor="start" class="card-title" style="font-size:23.2px">OBM Assy</text><text x="1136.0" y="779.4046" text-anchor="start" class="card-sub" style="font-size:17.3px">optical bench</text></g>
<g id="node-pob" class="card node-card"><rect x="1493.0" y="703" width="347.0" height="108" rx="6" fill="#FFFFFF" fill-opacity="0.03" stroke="#6EE66E" stroke-width="1.3"/><rect x="1511.0" y="750.0" width="20" height="16" rx="3" fill="none" stroke="#6EE66E" stroke-width="1.2"/><path d="M1511.0,755.0 H1531.0 M1521.0,750.0 V766.0" class="icon-line" stroke="#6EE66E"/><text x="1547.0" y="756.0874" text-anchor="start" class="card-title" style="font-size:23.2px">POB</text><text x="1547.0" y="779.4046" text-anchor="start" class="card-sub" style="font-size:17.3px">align / package</text></g>
<g id="node-faceplate" class="card node-card"><rect x="260.0" y="915" width="347.0" height="108" rx="6" fill="#FFFFFF" fill-opacity="0.03" stroke="#6EE66E" stroke-width="1.3"/><rect x="278.0" y="962.0" width="20" height="16" rx="3" fill="none" stroke="#6EE66E" stroke-width="1.2"/><path d="M278.0,967.0 H298.0 M288.0,962.0 V978.0" class="icon-line" stroke="#6EE66E"/><text x="314.0" y="968.0874" text-anchor="start" class="card-title" style="font-size:23.2px">Faceplate</text><text x="314.0" y="991.4046" text-anchor="start" class="card-sub" style="font-size:17.3px">panels / LC / OFDR</text></g>
<g id="node-fru" class="card node-card"><rect x="671.0" y="915" width="347.0" height="108" rx="6" fill="#FFFFFF" fill-opacity="0.03" stroke="#6EE66E" stroke-width="1.3"/><rect x="689.0" y="962.0" width="20" height="16" rx="3" fill="none" stroke="#6EE66E" stroke-width="1.2"/><path d="M689.0,967.0 H709.0 M699.0,962.0 V978.0" class="icon-line" stroke="#6EE66E"/><text x="725.0" y="968.0874" text-anchor="start" class="card-title" style="font-size:23.2px">FRU</text><text x="725.0" y="991.4046" text-anchor="start" class="card-sub" style="font-size:17.3px">field modules</text></g>
<g id="node-mech-assy" class="card node-card"><rect x="1082.0" y="915" width="347.0" height="108" rx="6" fill="#FFFFFF" fill-opacity="0.03" stroke="#6EE66E" stroke-width="1.3"/><rect x="1100.0" y="962.0" width="20" height="16" rx="3" fill="none" stroke="#6EE66E" stroke-width="1.2"/><path d="M1100.0,967.0 H1120.0 M1110.0,962.0 V978.0" class="icon-line" stroke="#6EE66E"/><text x="1136.0" y="968.0874" text-anchor="start" class="card-title" style="font-size:23.2px">MECH Assy</text><text x="1136.0" y="991.4046" text-anchor="start" class="card-sub" style="font-size:17.3px">ribbon / OEI</text></g>
<g id="node-final" class="card node-card"><rect x="1493.0" y="915" width="347.0" height="108" rx="6" fill="#FFFFFF" fill-opacity="0.03" stroke="#6EE66E" stroke-width="1.3"/><rect x="1511.0" y="962.0" width="20" height="16" rx="3" fill="none" stroke="#6EE66E" stroke-width="1.2"/><path d="M1511.0,967.0 H1531.0 M1521.0,962.0 V978.0" class="icon-line" stroke="#6EE66E"/><text x="1547.0" y="968.0874" text-anchor="start" class="card-title" style="font-size:23.2px">Final</text><text x="1547.0" y="991.4046" text-anchor="start" class="card-sub" style="font-size:17.3px">test / packing</text></g>
<g id="node-controlled-source" class="card node-card"><rect x="870.0" y="1151" width="360" height="108" rx="6" fill="#FFFFFF" fill-opacity="0.03" stroke="#F4F8FF" stroke-width="1.3"/><path d="M888.0,1195.0 H902.0 L908.0,1201.0 V1215.0 H888.0 Z" fill="none" stroke="#F4F8FF" stroke-width="1.2"/><path d="M902.0,1195.0 V1201.0 H908.0" class="icon-line" stroke="#F4F8FF"/><text x="924.0" y="1204.0874000000001" text-anchor="start" class="card-title" style="font-size:23.2px">Controlled Sources</text><text x="924.0" y="1227.4046" text-anchor="start" class="card-sub" style="font-size:17.3px">WI / PLM / MES authority</text></g>
<text x="1050.0" y="1318" text-anchor="middle" class="note">Knowledge Map fan-out opens the core synthesis notes. Query Guide routes to Source Inventory; Glossary/Ontology normalizes CTQ and risk terms on separate lanes.</text>
<text x="1050.0" y="1335" text-anchor="middle" class="note">E2E Process maps the eight source-bound WI sub-knowledgebases; controlled WI / PLM / MES records remain authoritative.</text>
</svg>
