<svg xmlns="http://www.w3.org/2000/svg" width="1600" height="1307" viewBox="0 0 1600 1307" role="img" aria-label="Layered Knowledge Topology Reference" data-style="modern-tech" data-diagram-type="layered_knowledge_topology">
<defs>
  <filter id="shadow" x="-20%" y="-30%" width="140%" height="170%"><feDropShadow dx="0" dy="8" stdDeviation="8" flood-color="#0F172A" flood-opacity="0.1"/></filter>
  <marker id="arrow" markerWidth="10" markerHeight="10" refX="8.5" refY="3" orient="auto" markerUnits="strokeWidth"><path d="M0,0 L0,6 L9,3 z" fill="context-stroke"/></marker>
  <marker id="arrow-fanout" markerWidth="10" markerHeight="10" refX="8.5" refY="3" orient="auto" markerUnits="strokeWidth"><path d="M0,0 L0,6 L9,3 z" fill="context-stroke"/></marker>
  <marker id="arrow-fanin" markerWidth="10" markerHeight="10" refX="8.5" refY="3" orient="auto" markerUnits="strokeWidth"><path d="M0,0 L0,6 L9,3 z" fill="context-stroke"/></marker>
  <style>
    [data-style="modern-tech"] .title{font:700 30px Inter,Segoe UI,Aptos,Arial,sans-serif;fill:#0F172A;letter-spacing:0;text-transform:none}
    [data-style="modern-tech"] .subtitle{font:400 14px Inter,Segoe UI,Aptos,Arial,sans-serif;fill:#64748B}
    [data-style="modern-tech"] .group-label{font:700 15.5px Inter,Segoe UI,Aptos,Arial,sans-serif;fill:#64748B;letter-spacing:.06em;text-transform:uppercase}
    [data-style="modern-tech"] .card-title{font:700 18px Inter,Segoe UI,Aptos,Arial,sans-serif;fill:#0F172A}
    [data-style="modern-tech"] .card-sub{font:500 13.5px Inter,Segoe UI,Aptos,Arial,sans-serif;fill:#64748B}
    [data-style="modern-tech"] .edge{fill:none;stroke:#334155;stroke-width:2;stroke-linecap:round;stroke-linejoin:round;opacity:0.76}
    [data-style="modern-tech"] .fanout{stroke:#2563EB;opacity:0.74}
    [data-style="modern-tech"] .fanin{stroke:#16A34A;opacity:0.74}
    [data-style="modern-tech"] .route-shared{marker-end:none}
    [data-style="modern-tech"] .edge-dashed{stroke-dasharray:8 8;opacity:0.66}
    [data-style="modern-tech"] .note{font:500 14px Inter,Segoe UI,Aptos,Arial,sans-serif;fill:#64748B}
    [data-style="modern-tech"] .mono{font-family:Inter,Segoe UI,Aptos,Arial,sans-serif}
    [data-style="modern-tech"] .table-header{font:700 15.5px Inter,Segoe UI,Aptos,Arial,sans-serif;fill:#0F172A;letter-spacing:.06em;text-transform:uppercase}
    [data-style="modern-tech"] .table-cell{font:500 17px Inter,Segoe UI,Aptos,Arial,sans-serif;fill:#0F172A}
    [data-style="modern-tech"] .table-cell-secondary{font:500 17px Inter,Segoe UI,Aptos,Arial,sans-serif;fill:#64748B}
    [data-style="modern-tech"] .info-panel-title{font:700 15.5px Inter,Segoe UI,Aptos,Arial,sans-serif;fill:#0F172A;letter-spacing:.06em;text-transform:uppercase}
    [data-style="modern-tech"] .info-panel-item{font:500 14px Inter,Segoe UI,Aptos,Arial,sans-serif;fill:#64748B}
    [data-style="modern-tech"] .tree-level-label{font:700 15.5px Inter,Segoe UI,Aptos,Arial,sans-serif;fill:#64748B;letter-spacing:.06em;text-transform:uppercase}
    [data-style="modern-tech"] .hub-label{font:700 15.5px Inter,Segoe UI,Aptos,Arial,sans-serif;fill:#64748B;letter-spacing:.06em;text-transform:uppercase}
    [data-style="modern-tech"] .icon-line{fill:none;stroke-width:1.8;stroke-linecap:round;stroke-linejoin:round}
  </style>
</defs>
<rect x="0" y="0" width="1600" height="1307" rx="28" fill="#F8FBFF"/>
<text x="800.0" y="54" text-anchor="middle" class="title">Layered Knowledge Topology Reference</text>
<text x="800.0" y="80.0" text-anchor="middle" class="subtitle">Reference contract with multi-row fan-out and fan-in</text>
<rect x="70" y="115" width="1460" height="196" class="group-panel" rx="26" fill="#EEF6FF" fill-opacity="0.58"/>
<rect x="70" y="343" width="1460" height="196" class="group-panel" rx="26" fill="#EEF6FF" fill-opacity="0.58"/>
<rect x="70" y="571" width="1460" height="436" class="group-panel" rx="26" fill="#EEF6FF" fill-opacity="0.58"/>
<rect x="70" y="1039" width="1460" height="196" class="group-panel" rx="26" fill="#EEF6FF" fill-opacity="0.58"/>
<path d="M 592.0 507.0 L 592.0 606.0 Q 592.0 613.0 585.0 613.0 L 578.0 613.0" class="edge fanout route-shared branch"/>
<path d="M 592.0 507.0 L 592.0 606.0 Q 592.0 613.0 599.0 613.0 L 606.0 613.0" class="edge fanout route-shared branch"/>
<path d="M 1441.0 613.0 L 1448.0 613.0 Q 1455.0 613.0 1455.0 620.0 L 1455.0 818.0 Q 1455.0 825.0 1448.0 825.0 L 1441.0 825.0" class="edge fanout route-shared trunk"/>
<path d="M 408.67 613.0 L 1441.0 613.0" class="edge fanout route-shared bus"/>
<path d="M 408.67 613.0 L 401.67 613.0 Q 394.67 613.0 394.67 620.0 L 394.67 645.0" class="edge fanout terminal" marker-end="url(#arrow-fanout)"/>
<path d="M 786.0 613.0 L 793.0 613.0 Q 800.0 613.0 800.0 620.0 L 800.0 645.0" class="edge fanout terminal" marker-end="url(#arrow-fanout)"/>
<path d="M 1191.33 613.0 L 1198.33 613.0 Q 1205.33 613.0 1205.33 620.0 L 1205.33 645.0" class="edge fanout terminal" marker-end="url(#arrow-fanout)"/>
<path d="M 814.0 825.0 L 1441.0 825.0" class="edge fanout route-shared bus"/>
<path d="M 814.0 825.0 L 807.0 825.0 Q 800.0 825.0 800.0 832.0 L 800.0 857.0" class="edge fanout terminal" marker-end="url(#arrow-fanout)"/>
<path d="M 1219.33 825.0 L 1212.33 825.0 Q 1205.33 825.0 1205.33 832.0 L 1205.33 857.0" class="edge fanout terminal" marker-end="url(#arrow-fanout)"/>
<path d="M 1441.0 777.0 L 1448.0 777.0 Q 1455.0 777.0 1455.0 784.0 L 1455.0 982.0 Q 1455.0 989.0 1448.0 989.0 L 1441.0 989.0" class="edge fanin route-shared trunk"/>
<path d="M 394.67 745.0 L 394.67 770.0 Q 394.67 777.0 401.67 777.0 L 408.67 777.0" class="edge fanin route-shared branch"/>
<path d="M 800.0 745.0 L 800.0 770.0 Q 800.0 777.0 807.0 777.0 L 814.0 777.0" class="edge fanin route-shared branch"/>
<path d="M 1205.33 745.0 L 1205.33 770.0 Q 1205.33 777.0 1212.33 777.0 L 1219.33 777.0" class="edge fanin route-shared branch"/>
<path d="M 408.67 777.0 L 1441.0 777.0" class="edge fanin route-shared bus"/>
<path d="M 1205.33 957.0 L 1205.33 982.0 Q 1205.33 989.0 1198.33 989.0 L 1191.33 989.0" class="edge fanin route-shared branch"/>
<path d="M 814.0 989.0 L 1191.33 989.0" class="edge fanin route-shared bus"/>
<path d="M 814.0 989.0 L 807.0 989.0 Q 800.0 989.0 800.0 996.0 L 800.0 1103.0" class="edge fanin route-shared merge"/>
<path d="M 800.0 957.0 L 800.0 1103.0" class="edge fanin terminal" marker-end="url(#arrow-fanin)"/>
<path d="M 772.0 229.0 L 828.0 229.0" class="edge edge-dashed" marker-end="url(#arrow)"/>
<path d="M 592.0 279 L 592.0 407" class="edge" marker-end="url(#arrow)"/>
<path d="M 592.0 279 L 592.0 329.0 Q 592.0 343.0 606.0 343.0 L 994.0 343.0 Q 1008.0 343.0 1008.0 357.0 L 1008.0 407" class="edge" marker-end="url(#arrow)"/>
<g class="group-label-wrap"><rect x="88" y="121" width="158.4" height="30" rx="7" fill="#F8FBFF" fill-opacity="0.78"/><text x="98" y="141" class="group-label">Navigation layer</text></g>
<g class="group-label-wrap"><rect x="88" y="349" width="150.0" height="30" rx="7" fill="#F8FBFF" fill-opacity="0.78"/><text x="98" y="369" class="group-label">Synthesis layer</text></g>
<g class="group-label-wrap"><rect x="88" y="577" width="242.4" height="30" rx="7" fill="#F8FBFF" fill-opacity="0.78"/><text x="98" y="597" class="group-label">Reusable knowledge modules</text></g>
<g class="group-label-wrap"><rect x="88" y="1045" width="150.0" height="30" rx="7" fill="#F8FBFF" fill-opacity="0.78"/><text x="98" y="1065" class="group-label">Authority layer</text></g>
<g id="node-portal" class="card node-card"><rect x="412.0" y="179" width="360" height="100" rx="20" fill="#FFFFFF" stroke="#2F7DFF" stroke-width="2.2" filter="url(#shadow)"/><rect x="430.0" y="219.0" width="18" height="20" rx="3" fill="#EFF6FF" stroke="#2F7DFF" stroke-width="1.7"/><path d="M434.0,225.0 H444.0 M434.0,230.0 H444.0 M434.0,235.0 H441.0" class="icon-line" stroke="#2F7DFF"/><text x="466.0" y="228.09866666666667" text-anchor="start" class="card-title" style="font-size:22.9px">Knowledge Portal</text><text x="466.0" y="251.128" text-anchor="start" class="card-sub" style="font-size:17.1px">entry point</text></g>
<g id="node-registry" class="card node-card"><rect x="828.0" y="179" width="360" height="100" rx="20" fill="#FFFFFF" stroke="#F97316" stroke-width="2.2" filter="url(#shadow)"/><path d="M856.0,219.0 L866.0,237.0 H846.0 Z" fill="#FFF7ED" stroke="#F97316" stroke-width="1.7"/><path d="M856.0,226.0 V232.0 M856.0,236.0 V236.0" class="icon-line" stroke="#F97316"/><text x="882.0" y="228.09866666666667" text-anchor="start" class="card-title" style="font-size:22.9px">Registry</text><text x="882.0" y="251.128" text-anchor="start" class="card-sub" style="font-size:17.1px">controlled terms</text></g>
<g id="node-domain_map" class="card node-card"><rect x="412.0" y="407" width="360" height="100" rx="20" fill="#FFFFFF" stroke="#0EA5E9" stroke-width="2.2" filter="url(#shadow)"/><rect x="430.0" y="450.0" width="20" height="16" rx="3" fill="#F0F9FF" stroke="#0EA5E9" stroke-width="1.7"/><path d="M430.0,455.0 H450.0 M440.0,450.0 V466.0" class="icon-line" stroke="#0EA5E9"/><text x="466.0" y="456.09866666666665" text-anchor="start" class="card-title" style="font-size:22.9px">Domain Map</text><text x="466.0" y="479.12799999999993" text-anchor="start" class="card-sub" style="font-size:17.1px">system view</text></g>
<g id="node-rules" class="card node-card"><rect x="828.0" y="407" width="360" height="100" rx="20" fill="#FFFFFF" stroke="#F97316" stroke-width="2.2" filter="url(#shadow)"/><path d="M856.0,447.0 L866.0,465.0 H846.0 Z" fill="#FFF7ED" stroke="#F97316" stroke-width="1.7"/><path d="M856.0,454.0 V460.0 M856.0,464.0 V464.0" class="icon-line" stroke="#F97316"/><text x="882.0" y="456.09866666666665" text-anchor="start" class="card-title" style="font-size:22.9px">Governance Rules</text><text x="882.0" y="479.12799999999993" text-anchor="start" class="card-sub" style="font-size:17.1px">constraints</text></g>
<g id="node-module_a" class="card node-card"><rect x="220.0" y="645" width="349.3333333333333" height="100" rx="20" fill="#FFFFFF" stroke="#22C55E" stroke-width="2.2" filter="url(#shadow)"/><rect x="238.0" y="688.0" width="20" height="16" rx="3" fill="#ECFDF5" stroke="#22C55E" stroke-width="1.7"/><path d="M238.0,693.0 H258.0 M248.0,688.0 V704.0" class="icon-line" stroke="#22C55E"/><text x="274.0" y="694.0986666666666" text-anchor="start" class="card-title" style="font-size:22.9px">Module A</text><text x="274.0" y="717.1280000000002" text-anchor="start" class="card-sub" style="font-size:17.1px">approved asset</text></g>
<g id="node-module_b" class="card node-card"><rect x="625.3333333333333" y="645" width="349.3333333333333" height="100" rx="20" fill="#FFFFFF" stroke="#22C55E" stroke-width="2.2" filter="url(#shadow)"/><rect x="643.3333333333333" y="688.0" width="20" height="16" rx="3" fill="#ECFDF5" stroke="#22C55E" stroke-width="1.7"/><path d="M643.3333333333333,693.0 H663.3333333333333 M653.3333333333333,688.0 V704.0" class="icon-line" stroke="#22C55E"/><text x="679.3333333333333" y="694.0986666666666" text-anchor="start" class="card-title" style="font-size:22.9px">Module B</text><text x="679.3333333333333" y="717.1280000000002" text-anchor="start" class="card-sub" style="font-size:17.1px">approved asset</text></g>
<g id="node-module_c" class="card node-card"><rect x="1030.6666666666665" y="645" width="349.3333333333333" height="100" rx="20" fill="#FFFFFF" stroke="#7C3AED" stroke-width="2.2" filter="url(#shadow)"/><path d="M1048.6666666666665,685.0 H1064.6666666666665 Q1068.6666666666665,685.0 1068.6666666666665,689.0 V704.0 H1048.6666666666665 Z" fill="#F5F3FF" stroke="#7C3AED" stroke-width="1.7"/><path d="M1053.6666666666665,691.0 H1062.6666666666665 M1053.6666666666665,697.0 H1062.6666666666665" class="icon-line" stroke="#7C3AED"/><text x="1084.6666666666665" y="694.0986666666666" text-anchor="start" class="card-title" style="font-size:22.9px">Module C</text><text x="1084.6666666666665" y="717.1280000000002" text-anchor="start" class="card-sub" style="font-size:17.1px">optional link</text></g>
<g id="node-module_d" class="card node-card"><rect x="625.3333333333333" y="857" width="349.3333333333333" height="100" rx="20" fill="#FFFFFF" stroke="#22C55E" stroke-width="2.2" filter="url(#shadow)"/><rect x="643.3333333333333" y="900.0" width="20" height="16" rx="3" fill="#ECFDF5" stroke="#22C55E" stroke-width="1.7"/><path d="M643.3333333333333,905.0 H663.3333333333333 M653.3333333333333,900.0 V916.0" class="icon-line" stroke="#22C55E"/><text x="679.3333333333333" y="906.0986666666666" text-anchor="start" class="card-title" style="font-size:22.9px">Module D</text><text x="679.3333333333333" y="929.1280000000002" text-anchor="start" class="card-sub" style="font-size:17.1px">reusable asset</text></g>
<g id="node-module_e" class="card node-card"><rect x="1030.6666666666665" y="857" width="349.3333333333333" height="100" rx="20" fill="#FFFFFF" stroke="#2F7DFF" stroke-width="2.2" filter="url(#shadow)"/><circle cx="1052.6666666666665" cy="908.0" r="4" fill="#EFF6FF" stroke="#2F7DFF" stroke-width="1.6"/><circle cx="1066.6666666666665" cy="901.0" r="4" fill="#EFF6FF" stroke="#2F7DFF" stroke-width="1.6"/><circle cx="1066.6666666666665" cy="915.0" r="4" fill="#EFF6FF" stroke="#2F7DFF" stroke-width="1.6"/><path d="M1056.6666666666665,908.0 H1060.6666666666665 M1062.6666666666665,904.0 L1060.6666666666665,908.0 L1062.6666666666665,912.0" class="icon-line" stroke="#2F7DFF"/><text x="1084.6666666666665" y="906.0986666666666" text-anchor="start" class="card-title" style="font-size:22.9px">Module E</text><text x="1084.6666666666665" y="929.1280000000002" text-anchor="start" class="card-sub" style="font-size:17.1px">transformation path</text></g>
<g id="node-source_doc" class="card node-card"><rect x="620.0" y="1103" width="360" height="100" rx="20" fill="#FFFFFF" stroke="#334155" stroke-width="2.2" filter="url(#shadow)"/><path d="M638.0,1143.0 H652.0 L658.0,1149.0 V1163.0 H638.0 Z" fill="#F8FAFC" stroke="#334155" stroke-width="1.7"/><path d="M652.0,1143.0 V1149.0 H658.0" class="icon-line" stroke="#334155"/><text x="674.0" y="1152.0986666666668" text-anchor="start" class="card-title" style="font-size:22.9px">Controlled Source</text><text x="674.0" y="1175.128" text-anchor="start" class="card-sub" style="font-size:17.1px">authoritative record</text></g>
<text x="800.0" y="1279" text-anchor="middle" class="note">Reference template: use row and col to stabilize multi-row sibling placement.</text>
</svg>
