<svg xmlns="http://www.w3.org/2000/svg" width="1900" height="1349" viewBox="0 0 1900 1349" role="img" aria-label="Layered Knowledge Topology Stress" data-style="accent-blueprint" data-diagram-type="layered_knowledge_topology">
<defs>
  <pattern id="blueprint-grid-small" width="15.2" height="15.2" patternUnits="userSpaceOnUse"><path d="M 15.2 0 H 0 V 15.2" fill="none" stroke="#FFFFFF" stroke-opacity="0.08" stroke-width="0.89"/></pattern>
  <pattern id="blueprint-grid" width="76" height="76" patternUnits="userSpaceOnUse"><rect width="76" height="76" fill="url(#blueprint-grid-small)"/><path d="M 76 0 H 0 V 76" fill="none" stroke="#FFFFFF" stroke-opacity="0.14" stroke-width="1.27"/> </pattern>
  <marker id="arrow" markerWidth="10" markerHeight="10" refX="8.5" refY="3" orient="auto" markerUnits="strokeWidth"><path d="M0,0 L0,6 L9,3 z" fill="context-stroke"/></marker>
  <marker id="arrow-fanout" markerWidth="10" markerHeight="10" refX="8.5" refY="3" orient="auto" markerUnits="strokeWidth"><path d="M0,0 L0,6 L9,3 z" fill="context-stroke"/></marker>
  <marker id="arrow-fanin" markerWidth="10" markerHeight="10" refX="8.5" refY="3" orient="auto" markerUnits="strokeWidth"><path d="M0,0 L0,6 L9,3 z" fill="context-stroke"/></marker>
  <style>
    [data-style="accent-blueprint"] .title{font:700 27px IBM Plex Mono,JetBrains Mono,Consolas,monospace;fill:#F4F8FF;letter-spacing:.04em;text-transform:uppercase}
    [data-style="accent-blueprint"] .subtitle{font:400 13px IBM Plex Sans,Inter,Roboto Condensed,DIN,Segoe UI,Aptos,Arial,sans-serif;fill:#C9DAF5}
    [data-style="accent-blueprint"] .group-label{font:700 15px IBM Plex Mono,JetBrains Mono,Consolas,monospace;fill:#C9DAF5;letter-spacing:.08em;text-transform:uppercase}
    [data-style="accent-blueprint"] .card-title{font:700 17px IBM Plex Sans,Inter,Roboto Condensed,DIN,Segoe UI,Aptos,Arial,sans-serif;fill:#F4F8FF}
    [data-style="accent-blueprint"] .card-sub{font:500 13px IBM Plex Sans,Inter,Roboto Condensed,DIN,Segoe UI,Aptos,Arial,sans-serif;fill:#C9DAF5}
    [data-style="accent-blueprint"] .edge{fill:none;stroke:#F4F8FF;stroke-width:1.5;stroke-linecap:round;stroke-linejoin:round;opacity:0.88}
    [data-style="accent-blueprint"] .fanout{stroke:#FF9F2E;opacity:0.9}
    [data-style="accent-blueprint"] .fanin{stroke:#6EE66E;opacity:0.9}
    [data-style="accent-blueprint"] .route-shared{marker-end:none}
    [data-style="accent-blueprint"] .edge-dashed{stroke-dasharray:6 5;opacity:0.68}
    [data-style="accent-blueprint"] .note{font:500 14px IBM Plex Sans,Inter,Roboto Condensed,DIN,Segoe UI,Aptos,Arial,sans-serif;fill:#C9DAF5}
    [data-style="accent-blueprint"] .mono{font-family:IBM Plex Mono,JetBrains Mono,Consolas,monospace}
    [data-style="accent-blueprint"] .table-header{font:700 15.5px IBM Plex Mono,JetBrains Mono,Consolas,monospace;fill:#F4F8FF;letter-spacing:.08em;text-transform:uppercase}
    [data-style="accent-blueprint"] .table-cell{font:500 17px IBM Plex Sans,Inter,Roboto Condensed,DIN,Segoe UI,Aptos,Arial,sans-serif;fill:#F4F8FF}
    [data-style="accent-blueprint"] .table-cell-secondary{font:500 17px IBM Plex Sans,Inter,Roboto Condensed,DIN,Segoe UI,Aptos,Arial,sans-serif;fill:#C9DAF5}
    [data-style="accent-blueprint"] .info-panel-title{font:700 15px IBM Plex Mono,JetBrains Mono,Consolas,monospace;fill:#F4F8FF;letter-spacing:.08em;text-transform:uppercase}
    [data-style="accent-blueprint"] .info-panel-item{font:500 14px IBM Plex Sans,Inter,Roboto Condensed,DIN,Segoe UI,Aptos,Arial,sans-serif;fill:#C9DAF5}
    [data-style="accent-blueprint"] .tree-level-label{font:700 15px IBM Plex Mono,JetBrains Mono,Consolas,monospace;fill:#C9DAF5;letter-spacing:.08em;text-transform:uppercase}
    [data-style="accent-blueprint"] .hub-label{font:700 15px IBM Plex Mono,JetBrains Mono,Consolas,monospace;fill:#C9DAF5;letter-spacing:.08em;text-transform:uppercase}
    [data-style="accent-blueprint"] .icon-line{fill:none;stroke-width:1.3;stroke-linecap:round;stroke-linejoin:round}
  </style>
</defs>
<rect x="0" y="0" width="1900" height="1349" rx="0" fill="#062B5F"/>
<rect x="0" y="0" width="1900" height="1349" rx="0" fill="url(#blueprint-grid)" opacity="1"/>
<text x="950.0" y="54" text-anchor="middle" class="title">Layered Knowledge Topology Stress</text>
<text x="950.0" y="80.0" text-anchor="middle" class="subtitle">Stress contract with multi-source fan-out, dashed source lanes, and dense package routing</text>
<rect x="70" y="115" width="1760" height="196" class="group-panel" rx="8" fill="#FFFFFF" fill-opacity="0.03" stroke="#F4F8FF" stroke-opacity="0.7" stroke-width="1"/>
<rect x="70" y="343" width="1760" height="238" class="group-panel" rx="8" fill="#FFFFFF" fill-opacity="0.03" stroke="#F4F8FF" stroke-opacity="0.7" stroke-width="1"/>
<rect x="70" y="613" width="1760" height="436" class="group-panel" rx="8" fill="#FFFFFF" fill-opacity="0.03" stroke="#F4F8FF" stroke-opacity="0.7" stroke-width="1"/>
<rect x="70" y="1081" width="1760" height="196" class="group-panel" rx="8" fill="#FFFFFF" fill-opacity="0.03" stroke="#F4F8FF" stroke-opacity="0.7" stroke-width="1"/>
<path d="M 742.0 279.0 L 742.0 394.0 Q 742.0 401.0 735.0 401.0 L 728.0 401.0" class="edge fanout route-shared branch" style="stroke:#16D9FF" data-route-family="0" data-route-color="#16D9FF" data-source-id="knowledge_map" data-source-lane="0" data-lane-shift="0.0"/>
<path d="M 742.0 279.0 L 742.0 394.0 Q 742.0 401.0 749.0 401.0 L 756.0 401.0" class="edge fanout route-shared branch" style="stroke:#16D9FF" data-route-family="0" data-route-color="#16D9FF" data-source-id="knowledge_map" data-source-lane="0" data-lane-shift="0.0"/>
<path d="M 393.5 401.0 L 1118.5 401.0" class="edge fanout route-shared bus" style="stroke:#16D9FF" data-route-family="0" data-route-color="#16D9FF" data-source-id="knowledge_map" data-source-lane="0" data-lane-shift="0.0"/>
<path d="M 395.5 401.0 L 388.5 401.0 Q 381.5 401.0 381.5 408.0 L 381.5 449.0" class="edge fanout terminal" marker-end="url(#arrow-fanout)" style="stroke:#16D9FF" data-route-family="0" data-route-color="#16D9FF" data-source-id="knowledge_map" data-source-lane="0" data-lane-shift="0.0" data-target-id="process"/>
<path d="M 737.5 401.0 L 744.5 401.0 Q 751.5 401.0 751.5 408.0 L 751.5 449.0" class="edge fanout terminal" marker-end="url(#arrow-fanout)" style="stroke:#16D9FF" data-route-family="0" data-route-color="#16D9FF" data-source-id="knowledge_map" data-source-lane="0" data-lane-shift="0.0" data-target-id="parameter_master" data-target-anchor-lane="0" data-target-anchor-count="2" data-target-anchor-shift="-9.0"/>
<path d="M 1116.5 401.0 L 1123.5 401.0 Q 1130.5 401.0 1130.5 408.0 L 1130.5 449.0" class="edge fanout terminal" marker-end="url(#arrow-fanout)" style="stroke:#16D9FF" data-route-family="0" data-route-color="#16D9FF" data-source-id="knowledge_map" data-source-lane="0" data-lane-shift="0.0" data-target-id="risk_model" data-target-anchor-lane="0" data-target-anchor-count="2" data-target-anchor-shift="-9.0"/>
<path d="M 1574.0 279.0 L 1574.0 378.0 Q 1574.0 385.0 1567.0 385.0 L 1560.0 385.0" class="edge edge-dashed fanout route-shared branch" style="stroke:#6EE66E" data-route-family="1" data-route-color="#6EE66E" data-source-id="glossary" data-source-lane="2" data-lane-shift="-16.0"/>
<path d="M 781.5 385.0 L 1562.0 385.0" class="edge edge-dashed fanout route-shared bus" style="stroke:#6EE66E" data-route-family="1" data-route-color="#6EE66E" data-source-id="glossary" data-source-lane="2" data-lane-shift="-16.0"/>
<path d="M 783.5 385.0 L 776.5 385.0 Q 769.5 385.0 769.5 392.0 L 769.5 449.0" class="edge edge-dashed fanout terminal" marker-end="url(#arrow-fanout)" style="stroke:#6EE66E" data-route-family="1" data-route-color="#6EE66E" data-source-id="glossary" data-source-lane="2" data-lane-shift="-16.0" data-target-id="parameter_master" data-target-anchor-lane="1" data-target-anchor-count="2" data-target-anchor-shift="9.0"/>
<path d="M 1162.5 385.0 L 1155.5 385.0 Q 1148.5 385.0 1148.5 392.0 L 1148.5 449.0" class="edge edge-dashed fanout terminal" marker-end="url(#arrow-fanout)" style="stroke:#6EE66E" data-route-family="1" data-route-color="#6EE66E" data-source-id="glossary" data-source-lane="2" data-lane-shift="-16.0" data-target-id="risk_model" data-target-anchor-lane="1" data-target-anchor-count="2" data-target-anchor-shift="9.0"/>
<path d="M 381.5 549.0 L 381.5 648.0 Q 381.5 655.0 388.5 655.0 L 395.5 655.0" class="edge fanout route-shared branch" style="stroke:#FFD84D" data-route-family="2" data-route-color="#FFD84D"/>
<path d="M 1731.0 655.0 L 1738.0 655.0 Q 1745.0 655.0 1745.0 662.0 L 1745.0 860.0 Q 1745.0 867.0 1738.0 867.0 L 1731.0 867.0" class="edge fanout route-shared trunk" style="stroke:#FFD84D" data-route-family="2" data-route-color="#FFD84D"/>
<path d="M 380.5 655.0 L 1733.0 655.0" class="edge fanout route-shared bus" style="stroke:#FFD84D" data-route-family="2" data-route-color="#FFD84D"/>
<path d="M 382.5 655.0 L 389.5 655.0 Q 396.5 655.0 396.5 662.0 L 396.5 687.0" class="edge fanout terminal" marker-end="url(#arrow-fanout)" style="stroke:#FFD84D" data-route-family="2" data-route-color="#FFD84D" data-target-id="package_a"/>
<path d="M 751.5 655.0 L 758.5 655.0 Q 765.5 655.0 765.5 662.0 L 765.5 687.0" class="edge fanout terminal" marker-end="url(#arrow-fanout)" style="stroke:#FFD84D" data-route-family="2" data-route-color="#FFD84D" data-target-id="package_b"/>
<path d="M 1120.5 655.0 L 1127.5 655.0 Q 1134.5 655.0 1134.5 662.0 L 1134.5 687.0" class="edge fanout terminal" marker-end="url(#arrow-fanout)" style="stroke:#FFD84D" data-route-family="2" data-route-color="#FFD84D" data-target-id="package_c"/>
<path d="M 1489.5 655.0 L 1496.5 655.0 Q 1503.5 655.0 1503.5 662.0 L 1503.5 687.0" class="edge fanout terminal" marker-end="url(#arrow-fanout)" style="stroke:#FFD84D" data-route-family="2" data-route-color="#FFD84D" data-target-id="package_d"/>
<path d="M 408.5 867.0 L 1733.0 867.0" class="edge fanout route-shared bus" style="stroke:#FFD84D" data-route-family="2" data-route-color="#FFD84D"/>
<path d="M 410.5 867.0 L 403.5 867.0 Q 396.5 867.0 396.5 874.0 L 396.5 899.0" class="edge fanout terminal" marker-end="url(#arrow-fanout)" style="stroke:#FFD84D" data-route-family="2" data-route-color="#FFD84D" data-target-id="package_e"/>
<path d="M 779.5 867.0 L 772.5 867.0 Q 765.5 867.0 765.5 874.0 L 765.5 899.0" class="edge fanout terminal" marker-end="url(#arrow-fanout)" style="stroke:#FFD84D" data-route-family="2" data-route-color="#FFD84D" data-target-id="package_f"/>
<path d="M 1148.5 867.0 L 1141.5 867.0 Q 1134.5 867.0 1134.5 874.0 L 1134.5 899.0" class="edge fanout terminal" marker-end="url(#arrow-fanout)" style="stroke:#FFD84D" data-route-family="2" data-route-color="#FFD84D" data-target-id="package_g"/>
<path d="M 1517.5 867.0 L 1510.5 867.0 Q 1503.5 867.0 1503.5 874.0 L 1503.5 899.0" class="edge fanout terminal" marker-end="url(#arrow-fanout)" style="stroke:#FFD84D" data-route-family="2" data-route-color="#FFD84D" data-target-id="package_h"/>
<path d="M 169.0 819.0 L 162.0 819.0 Q 155.0 819.0 155.0 826.0 L 155.0 1024.0 Q 155.0 1031.0 162.0 1031.0 L 169.0 1031.0" class="edge fanin route-shared trunk" style="stroke:#6EE66E" data-route-family="0" data-route-color="#6EE66E"/>
<path d="M 396.5 787.0 L 396.5 812.0 Q 396.5 819.0 389.5 819.0 L 382.5 819.0" class="edge fanin route-shared branch" style="stroke:#6EE66E" data-route-family="0" data-route-color="#6EE66E"/>
<path d="M 765.5 787.0 L 765.5 812.0 Q 765.5 819.0 758.5 819.0 L 751.5 819.0" class="edge fanin route-shared branch" style="stroke:#6EE66E" data-route-family="0" data-route-color="#6EE66E"/>
<path d="M 1134.5 787.0 L 1134.5 812.0 Q 1134.5 819.0 1127.5 819.0 L 1120.5 819.0" class="edge fanin route-shared branch" style="stroke:#6EE66E" data-route-family="0" data-route-color="#6EE66E"/>
<path d="M 1503.5 787.0 L 1503.5 812.0 Q 1503.5 819.0 1496.5 819.0 L 1489.5 819.0" class="edge fanin route-shared branch" style="stroke:#6EE66E" data-route-family="0" data-route-color="#6EE66E"/>
<path d="M 167.0 819.0 L 1491.5 819.0" class="edge fanin route-shared bus" style="stroke:#6EE66E" data-route-family="0" data-route-color="#6EE66E"/>
<path d="M 396.5 999.0 L 396.5 1024.0 Q 396.5 1031.0 403.5 1031.0 L 410.5 1031.0" class="edge fanin route-shared branch" style="stroke:#6EE66E" data-route-family="0" data-route-color="#6EE66E"/>
<path d="M 765.5 999.0 L 765.5 1024.0 Q 765.5 1031.0 758.5 1031.0 L 751.5 1031.0" class="edge fanin route-shared branch" style="stroke:#6EE66E" data-route-family="0" data-route-color="#6EE66E"/>
<path d="M 167.0 1031.0 L 730.0 1031.0" class="edge fanin route-shared bus" style="stroke:#6EE66E" data-route-family="0" data-route-color="#6EE66E"/>
<path d="M 749.5 1031.0 L 758.0 1031.0" class="edge fanin route-shared bus" style="stroke:#6EE66E" data-route-family="0" data-route-color="#6EE66E"/>
<path d="M 728.0 1031.0 L 735.0 1031.0 Q 742.0 1031.0 742.0 1038.0 L 742.0 1045.0" class="edge fanin route-shared merge" style="stroke:#6EE66E" data-route-family="0" data-route-color="#6EE66E"/>
<path d="M 756.0 1031.0 L 749.0 1031.0 Q 742.0 1031.0 742.0 1038.0 L 742.0 1045.0" class="edge fanin route-shared merge" style="stroke:#6EE66E" data-route-family="0" data-route-color="#6EE66E"/>
<path d="M 742.0 1045.0 L 742.0 1145.0" class="edge fanin terminal" marker-end="url(#arrow-fanin)" style="stroke:#6EE66E" data-route-family="0" data-route-color="#6EE66E"/>
<path d="M 1134.5 999.0 L 1134.5 1040.0 Q 1134.5 1047.0 1141.5 1047.0 L 1148.5 1047.0" class="edge fanin route-shared branch" style="stroke:#B56CFF" data-route-family="1" data-route-color="#B56CFF"/>
<path d="M 1503.5 999.0 L 1503.5 1040.0 Q 1503.5 1047.0 1496.5 1047.0 L 1489.5 1047.0" class="edge fanin route-shared branch" style="stroke:#B56CFF" data-route-family="1" data-route-color="#B56CFF"/>
<path d="M 1142.0 1047.0 L 1150.5 1047.0" class="edge fanin route-shared bus" style="stroke:#B56CFF" data-route-family="1" data-route-color="#B56CFF"/>
<path d="M 1170.0 1047.0 L 1491.5 1047.0" class="edge fanin route-shared bus" style="stroke:#B56CFF" data-route-family="1" data-route-color="#B56CFF"/>
<path d="M 1144.0 1047.0 L 1151.0 1047.0 Q 1158.0 1047.0 1158.0 1054.0 L 1158.0 1061.0" class="edge fanin route-shared merge" style="stroke:#B56CFF" data-route-family="1" data-route-color="#B56CFF"/>
<path d="M 1172.0 1047.0 L 1165.0 1047.0 Q 1158.0 1047.0 1158.0 1054.0 L 1158.0 1061.0" class="edge fanin route-shared merge" style="stroke:#B56CFF" data-route-family="1" data-route-color="#B56CFF"/>
<path d="M 1158.0 1061.0 L 1158.0 1145.0" class="edge fanin terminal" marker-end="url(#arrow-fanin)" style="stroke:#B56CFF" data-route-family="1" data-route-color="#B56CFF"/>
<path d="M 506.0 229.0 L 562.0 229.0" class="edge direct-link" marker-end="url(#arrow)" data-from="moc" data-to="knowledge_map" data-source-id="moc" data-target-id="knowledge_map"/>
<path d="M 1158.0 279 L 1158.0 338.0 Q 1158.0 352.0 1172.0 352.0 L 1504.5 352.0 Q 1518.5 352.0 1518.5 366.0 L 1518.5 449" class="edge direct-link" marker-end="url(#arrow)" data-from="query" data-to="source_inventory" data-source-id="query" data-target-id="source_inventory" style="stroke:#FFD84D" data-route-color="#FFD84D" data-direct-corridor="down:279:449" data-direct-lane="1" data-lane-shift="-12.0"/>
<g class="group-label-wrap"><rect x="88" y="121" width="242.4" height="30" rx="7" fill="#062B5F" fill-opacity="0.78"/><text x="98" y="141" class="group-label">Entry and navigation layer</text></g>
<g class="group-label-wrap"><rect x="88" y="349" width="284.40000000000003" height="30" rx="7" fill="#062B5F" fill-opacity="0.78"/><text x="98" y="369" class="group-label">Product-level synthesis objects</text></g>
<g class="group-label-wrap"><rect x="88" y="619" width="343.2" height="30" rx="7" fill="#062B5F" fill-opacity="0.78"/><text x="98" y="639" class="group-label">WI-derived reusable knowledge packages</text></g>
<g class="group-label-wrap"><rect x="88" y="1087" width="267.6" height="30" rx="7" fill="#062B5F" fill-opacity="0.78"/><text x="98" y="1107" class="group-label">Controlled authority boundary</text></g>
<g id="node-moc" class="card node-card"><rect x="146.0" y="179" width="360" height="100" rx="6" fill="#FFFFFF" fill-opacity="0.03" stroke="#16D9FF" stroke-width="1.3"/><rect x="164.0" y="219.0" width="18" height="20" rx="3" fill="none" stroke="#16D9FF" stroke-width="1.2"/><path d="M168.0,225.0 H178.0 M168.0,230.0 H178.0 M168.0,235.0 H175.0" class="icon-line" stroke="#16D9FF"/><text x="200.0" y="228.0874" text-anchor="start" class="card-title" style="font-size:23.2px">Manufacturing MOC</text><text x="200.0" y="251.4046" text-anchor="start" class="card-sub" style="font-size:17.3px">entry point</text></g>
<g id="node-knowledge_map" class="card node-card"><rect x="562.0" y="179" width="360" height="100" rx="6" fill="#FFFFFF" fill-opacity="0.03" stroke="#16D9FF" stroke-width="1.3"/><rect x="580.0" y="222.0" width="20" height="16" rx="3" fill="none" stroke="#16D9FF" stroke-width="1.2"/><path d="M580.0,227.0 H600.0 M590.0,222.0 V238.0" class="icon-line" stroke="#16D9FF"/><text x="616.0" y="228.0874" text-anchor="start" class="card-title" style="font-size:23.2px">Knowledge Map</text><text x="616.0" y="251.4046" text-anchor="start" class="card-sub" style="font-size:17.3px">object topology</text></g>
<g id="node-query" class="card node-card"><rect x="978.0" y="179" width="360" height="100" rx="6" fill="#FFFFFF" fill-opacity="0.03" stroke="#16D9FF" stroke-width="1.3"/><circle cx="1004.0" cy="227.0" r="7" fill="none" stroke="#16D9FF" stroke-width="1.2"/><path d="M1010.0,233.0 L1016.0,239.0" class="icon-line" stroke="#16D9FF"/><text x="1032.0" y="228.0874" text-anchor="start" class="card-title" style="font-size:23.2px">Query Guide</text><text x="1032.0" y="251.4046" text-anchor="start" class="card-sub" style="font-size:17.3px">where to look</text></g>
<g id="node-glossary" class="card node-card"><rect x="1394.0" y="179" width="360" height="100" rx="6" fill="#FFFFFF" fill-opacity="0.03" stroke="#B56CFF" stroke-width="1.3"/><path d="M1412.0,219.0 H1428.0 Q1432.0,219.0 1432.0,223.0 V238.0 H1412.0 Z" fill="none" stroke="#B56CFF" stroke-width="1.2"/><path d="M1417.0,225.0 H1426.0 M1417.0,231.0 H1426.0" class="icon-line" stroke="#B56CFF"/><text x="1448.0" y="228.0874" text-anchor="start" class="card-title" style="font-size:23.2px">Glossary / Ontology</text><text x="1448.0" y="251.4046" text-anchor="start" class="card-sub" style="font-size:17.3px">shared language</text></g>
<g id="node-process" class="card node-card"><rect x="220.0" y="449" width="323.0" height="100" rx="6" fill="#FFFFFF" fill-opacity="0.03" stroke="#FF9F2E" stroke-width="1.3"/><circle cx="242.0" cy="500.0" r="4" fill="none" stroke="#FF9F2E" stroke-width="1.6"/><circle cx="256.0" cy="493.0" r="4" fill="none" stroke="#FF9F2E" stroke-width="1.6"/><circle cx="256.0" cy="507.0" r="4" fill="none" stroke="#FF9F2E" stroke-width="1.6"/><path d="M246.0,500.0 H250.0 M252.0,496.0 L250.0,500.0 L252.0,504.0" class="icon-line" stroke="#FF9F2E"/><text x="274.0" y="485.5486" text-anchor="start" class="card-title" style="font-size:23.2px">End-to-End Process</text><text x="274.0" y="510.62620000000004" text-anchor="start" class="card-title" style="font-size:23.2px">Overview</text><text x="274.0" y="533.9434" text-anchor="start" class="card-sub" style="font-size:17.3px">product-level flow</text></g>
<g id="node-parameter_master" class="card node-card"><rect x="599.0" y="449" width="323.0" height="100" rx="6" fill="#FFFFFF" fill-opacity="0.03" stroke="#FFD84D" stroke-width="1.3"/><path d="M627.0,489.0 L637.0,507.0 H617.0 Z" fill="none" stroke="#FFD84D" stroke-width="1.2"/><path d="M627.0,496.0 V502.0 M627.0,506.0 V506.0" class="icon-line" stroke="#FFD84D"/><text x="653.0" y="485.5486" text-anchor="start" class="card-title" style="font-size:23.2px">CTQ and Parameter</text><text x="653.0" y="510.62620000000004" text-anchor="start" class="card-title" style="font-size:23.2px">Master Register</text><text x="653.0" y="533.9434" text-anchor="start" class="card-sub" style="font-size:17.3px">quality families</text></g>
<g id="node-risk_model" class="card node-card"><rect x="978.0" y="449" width="323.0" height="100" rx="6" fill="#FFFFFF" fill-opacity="0.03" stroke="#FFD84D" stroke-width="1.3"/><path d="M1006.0,489.0 L1015.0,494.0 V504.0 L1006.0,509.0 L997.0,504.0 V494.0 Z" fill="none" stroke="#FFD84D" stroke-width="1.2"/><path d="M1002.0,499.0 L1005.0,503.0 L1011.0,495.0" class="icon-line" stroke="#FFD84D"/><text x="1032.0" y="485.5486" text-anchor="start" class="card-title" style="font-size:23.2px">Defect and Risk</text><text x="1032.0" y="510.62620000000004" text-anchor="start" class="card-title" style="font-size:23.2px">Taxonomy</text><text x="1032.0" y="533.9434" text-anchor="start" class="card-sub" style="font-size:17.3px">cross-group risks</text></g>
<g id="node-source_inventory" class="card node-card"><rect x="1357.0" y="449" width="323.0" height="100" rx="6" fill="#FFFFFF" fill-opacity="0.03" stroke="#FFD84D" stroke-width="1.3"/><path d="M1385.0,489.0 L1395.0,507.0 H1375.0 Z" fill="none" stroke="#FFD84D" stroke-width="1.2"/><path d="M1385.0,496.0 V502.0 M1385.0,506.0 V506.0" class="icon-line" stroke="#FFD84D"/><text x="1411.0" y="498.0874" text-anchor="start" class="card-title" style="font-size:23.2px">Source Inventory</text><text x="1411.0" y="521.4046" text-anchor="start" class="card-sub" style="font-size:17.3px">WI source index</text></g>
<g id="node-package_a" class="card node-card"><rect x="240.0" y="687" width="313.0" height="100" rx="6" fill="#FFFFFF" fill-opacity="0.03" stroke="#6EE66E" stroke-width="1.3"/><rect x="258.0" y="730.0" width="20" height="16" rx="3" fill="none" stroke="#6EE66E" stroke-width="1.2"/><path d="M258.0,735.0 H278.0 M268.0,730.0 V746.0" class="icon-line" stroke="#6EE66E"/><text x="294.0" y="736.0874" text-anchor="start" class="card-title" style="font-size:23.2px">MEMS Package</text><text x="294.0" y="759.4046" text-anchor="start" class="card-sub" style="font-size:17.3px">source-bound sub-KB</text></g>
<g id="node-package_b" class="card node-card"><rect x="609.0" y="687" width="313.0" height="100" rx="6" fill="#FFFFFF" fill-opacity="0.03" stroke="#6EE66E" stroke-width="1.3"/><rect x="627.0" y="730.0" width="20" height="16" rx="3" fill="none" stroke="#6EE66E" stroke-width="1.2"/><path d="M627.0,735.0 H647.0 M637.0,730.0 V746.0" class="icon-line" stroke="#6EE66E"/><text x="663.0" y="736.0874" text-anchor="start" class="card-title" style="font-size:23.2px">MCA Package</text><text x="663.0" y="759.4046" text-anchor="start" class="card-sub" style="font-size:17.3px">source-bound sub-KB</text></g>
<g id="node-package_c" class="card node-card"><rect x="978.0" y="687" width="313.0" height="100" rx="6" fill="#FFFFFF" fill-opacity="0.03" stroke="#6EE66E" stroke-width="1.3"/><rect x="996.0" y="730.0" width="20" height="16" rx="3" fill="none" stroke="#6EE66E" stroke-width="1.2"/><path d="M996.0,735.0 H1016.0 M1006.0,730.0 V746.0" class="icon-line" stroke="#6EE66E"/><text x="1032.0" y="736.0874" text-anchor="start" class="card-title" style="font-size:23.2px">OBM Assembly</text><text x="1032.0" y="759.4046" text-anchor="start" class="card-sub" style="font-size:17.3px">source-bound sub-KB</text></g>
<g id="node-package_d" class="card node-card"><rect x="1347.0" y="687" width="313.0" height="100" rx="6" fill="#FFFFFF" fill-opacity="0.03" stroke="#6EE66E" stroke-width="1.3"/><rect x="1365.0" y="730.0" width="20" height="16" rx="3" fill="none" stroke="#6EE66E" stroke-width="1.2"/><path d="M1365.0,735.0 H1385.0 M1375.0,730.0 V746.0" class="icon-line" stroke="#6EE66E"/><text x="1401.0" y="723.5486000000001" text-anchor="start" class="card-title" style="font-size:23.2px">POB Knowledge</text><text x="1401.0" y="748.6262" text-anchor="start" class="card-title" style="font-size:23.2px">Package</text><text x="1401.0" y="771.9434000000001" text-anchor="start" class="card-sub" style="font-size:17.3px">source-bound sub-KB</text></g>
<g id="node-package_e" class="card node-card"><rect x="240.0" y="899" width="313.0" height="100" rx="6" fill="#FFFFFF" fill-opacity="0.03" stroke="#6EE66E" stroke-width="1.3"/><rect x="258.0" y="942.0" width="20" height="16" rx="3" fill="none" stroke="#6EE66E" stroke-width="1.2"/><path d="M258.0,947.0 H278.0 M268.0,942.0 V958.0" class="icon-line" stroke="#6EE66E"/><text x="294.0" y="935.5486000000001" text-anchor="start" class="card-title" style="font-size:23.2px">Faceplate</text><text x="294.0" y="960.6262" text-anchor="start" class="card-title" style="font-size:23.2px">Alignment Package</text><text x="294.0" y="983.9434000000001" text-anchor="start" class="card-sub" style="font-size:17.3px">fixture + inspection r...</text></g>
<g id="node-package_f" class="card node-card"><rect x="609.0" y="899" width="313.0" height="100" rx="6" fill="#FFFFFF" fill-opacity="0.03" stroke="#6EE66E" stroke-width="1.3"/><rect x="627.0" y="942.0" width="20" height="16" rx="3" fill="none" stroke="#6EE66E" stroke-width="1.2"/><path d="M627.0,947.0 H647.0 M637.0,942.0 V958.0" class="icon-line" stroke="#6EE66E"/><text x="663.0" y="935.5486000000001" text-anchor="start" class="card-title" style="font-size:23.2px">MECH Assembly</text><text x="663.0" y="960.6262" text-anchor="start" class="card-title" style="font-size:23.2px">Package</text><text x="663.0" y="983.9434000000001" text-anchor="start" class="card-sub" style="font-size:17.3px">approved work module</text></g>
<g id="node-package_g" class="card node-card"><rect x="978.0" y="899" width="313.0" height="100" rx="6" fill="#FFFFFF" fill-opacity="0.03" stroke="#FFD84D" stroke-width="1.3"/><path d="M1006.0,939.0 L1015.0,944.0 V954.0 L1006.0,959.0 L997.0,954.0 V944.0 Z" fill="none" stroke="#FFD84D" stroke-width="1.2"/><path d="M1002.0,949.0 L1005.0,953.0 L1011.0,945.0" class="icon-line" stroke="#FFD84D"/><text x="1032.0" y="935.5486000000001" text-anchor="start" class="card-title" style="font-size:23.2px">Yield Excursion</text><text x="1032.0" y="960.6262" text-anchor="start" class="card-title" style="font-size:23.2px">Playbook</text><text x="1032.0" y="983.9434000000001" text-anchor="start" class="card-sub" style="font-size:17.3px">risk response</text></g>
<g id="node-package_h" class="card node-card"><rect x="1347.0" y="899" width="313.0" height="100" rx="6" fill="#FFFFFF" fill-opacity="0.03" stroke="#FF9F2E" stroke-width="1.3"/><circle cx="1369.0" cy="950.0" r="4" fill="none" stroke="#FF9F2E" stroke-width="1.6"/><circle cx="1383.0" cy="943.0" r="4" fill="none" stroke="#FF9F2E" stroke-width="1.6"/><circle cx="1383.0" cy="957.0" r="4" fill="none" stroke="#FF9F2E" stroke-width="1.6"/><path d="M1373.0,950.0 H1377.0 M1379.0,946.0 L1377.0,950.0 L1379.0,954.0" class="icon-line" stroke="#FF9F2E"/><text x="1401.0" y="935.5486000000001" text-anchor="start" class="card-title" style="font-size:23.2px">Transformation</text><text x="1401.0" y="960.6262" text-anchor="start" class="card-title" style="font-size:23.2px">Checklist</text><text x="1401.0" y="983.9434000000001" text-anchor="start" class="card-sub" style="font-size:17.3px">handoff path</text></g>
<g id="node-plm_docs" class="card node-card"><rect x="562.0" y="1145" width="360" height="100" rx="6" fill="#FFFFFF" fill-opacity="0.03" stroke="#F4F8FF" stroke-width="1.3"/><path d="M580.0,1185.0 H594.0 L600.0,1191.0 V1205.0 H580.0 Z" fill="none" stroke="#F4F8FF" stroke-width="1.2"/><path d="M594.0,1185.0 V1191.0 H600.0" class="icon-line" stroke="#F4F8FF"/><text x="616.0" y="1181.5486" text-anchor="start" class="card-title" style="font-size:23.2px">Controlled WI / PLM</text><text x="616.0" y="1206.6262000000002" text-anchor="start" class="card-title" style="font-size:23.2px">Source Documents</text><text x="616.0" y="1229.9433999999999" text-anchor="start" class="card-sub" style="font-size:17.3px">revision authority</text></g>
<g id="node-quality_records" class="card node-card"><rect x="978.0" y="1145" width="360" height="100" rx="6" fill="#FFFFFF" fill-opacity="0.03" stroke="#C9DAF5" stroke-width="1.3"/><path d="M996.0,1185.0 H1010.0 L1016.0,1191.0 V1205.0 H996.0 Z" fill="none" stroke="#C9DAF5" stroke-width="1.2"/><path d="M1010.0,1185.0 V1191.0 H1016.0" class="icon-line" stroke="#C9DAF5"/><text x="1032.0" y="1194.0874000000001" text-anchor="start" class="card-title" style="font-size:23.2px">Quality Record System</text><text x="1032.0" y="1217.4046" text-anchor="start" class="card-sub" style="font-size:17.3px">evidence authority</text></g>
<text x="950.0" y="1304" text-anchor="middle" class="note">Stress template: different entry-layer sources should receive distinct lanes, while same-source fan-out stays grouped.</text>
<text x="950.0" y="1321" text-anchor="middle" class="note">Dense package fan-out and fan-in should remain inside the package layer.</text>
</svg>
