<svg xmlns="http://www.w3.org/2000/svg" width="1900" height="1307" viewBox="0 0 1900 1307" role="img" aria-label="Layered Knowledge Topology Stress" data-style="accent-blueprint" data-diagram-type="layered_knowledge_topology">
<defs>
  <pattern id="blueprint-grid-small" width="12" height="12" patternUnits="userSpaceOnUse"><path d="M 12 0 H 0 V 12" fill="none" stroke="#FFFFFF" stroke-opacity="0.08" stroke-width="0.7"/></pattern>
  <pattern id="blueprint-grid" width="60" height="60" patternUnits="userSpaceOnUse"><rect width="60" height="60" fill="url(#blueprint-grid-small)"/><path d="M 60 0 H 0 V 60" fill="none" stroke="#FFFFFF" stroke-opacity="0.14" stroke-width="1"/> </pattern>
  <marker id="arrow" markerWidth="10" markerHeight="10" refX="8.5" refY="3" orient="auto" markerUnits="strokeWidth"><path d="M0,0 L0,6 L9,3 z" fill="context-stroke"/></marker>
  <marker id="arrow-fanout" markerWidth="10" markerHeight="10" refX="8.5" refY="3" orient="auto" markerUnits="strokeWidth"><path d="M0,0 L0,6 L9,3 z" fill="context-stroke"/></marker>
  <marker id="arrow-fanin" markerWidth="10" markerHeight="10" refX="8.5" refY="3" orient="auto" markerUnits="strokeWidth"><path d="M0,0 L0,6 L9,3 z" fill="context-stroke"/></marker>
  <style>
    [data-style="accent-blueprint"] .title{font:700 27px IBM Plex Mono,JetBrains Mono,Consolas,monospace;fill:#F4F8FF;letter-spacing:.04em;text-transform:uppercase}
    [data-style="accent-blueprint"] .subtitle{font:400 13px IBM Plex Sans,Inter,Roboto Condensed,DIN,Segoe UI,Aptos,Arial,sans-serif;fill:#C9DAF5}
    [data-style="accent-blueprint"] .group-label{font:700 15px IBM Plex Mono,JetBrains Mono,Consolas,monospace;fill:#C9DAF5;letter-spacing:.08em;text-transform:uppercase}
    [data-style="accent-blueprint"] .card-title{font:700 17px IBM Plex Sans,Inter,Roboto Condensed,DIN,Segoe UI,Aptos,Arial,sans-serif;fill:#F4F8FF}
    [data-style="accent-blueprint"] .card-sub{font:500 13px IBM Plex Sans,Inter,Roboto Condensed,DIN,Segoe UI,Aptos,Arial,sans-serif;fill:#C9DAF5}
    [data-style="accent-blueprint"] .edge{fill:none;stroke:#F4F8FF;stroke-width:1.5;stroke-linecap:round;stroke-linejoin:round;opacity:0.88}
    [data-style="accent-blueprint"] .fanout{stroke:#FF9F2E;opacity:0.9}
    [data-style="accent-blueprint"] .fanin{stroke:#6EE66E;opacity:0.9}
    [data-style="accent-blueprint"] .route-shared{marker-end:none}
    [data-style="accent-blueprint"] .edge-dashed{stroke-dasharray:6 5;opacity:0.68}
    [data-style="accent-blueprint"] .note{font:500 14px IBM Plex Sans,Inter,Roboto Condensed,DIN,Segoe UI,Aptos,Arial,sans-serif;fill:#C9DAF5}
    [data-style="accent-blueprint"] .mono{font-family:IBM Plex Mono,JetBrains Mono,Consolas,monospace}
    [data-style="accent-blueprint"] .table-header{font:700 15.5px IBM Plex Mono,JetBrains Mono,Consolas,monospace;fill:#F4F8FF;letter-spacing:.08em;text-transform:uppercase}
    [data-style="accent-blueprint"] .table-cell{font:500 17px IBM Plex Sans,Inter,Roboto Condensed,DIN,Segoe UI,Aptos,Arial,sans-serif;fill:#F4F8FF}
    [data-style="accent-blueprint"] .table-cell-secondary{font:500 17px IBM Plex Sans,Inter,Roboto Condensed,DIN,Segoe UI,Aptos,Arial,sans-serif;fill:#C9DAF5}
    [data-style="accent-blueprint"] .info-panel-title{font:700 15px IBM Plex Mono,JetBrains Mono,Consolas,monospace;fill:#F4F8FF;letter-spacing:.08em;text-transform:uppercase}
    [data-style="accent-blueprint"] .info-panel-item{font:500 14px IBM Plex Sans,Inter,Roboto Condensed,DIN,Segoe UI,Aptos,Arial,sans-serif;fill:#C9DAF5}
    [data-style="accent-blueprint"] .tree-level-label{font:700 15px IBM Plex Mono,JetBrains Mono,Consolas,monospace;fill:#C9DAF5;letter-spacing:.08em;text-transform:uppercase}
    [data-style="accent-blueprint"] .hub-label{font:700 15px IBM Plex Mono,JetBrains Mono,Consolas,monospace;fill:#C9DAF5;letter-spacing:.08em;text-transform:uppercase}
    [data-style="accent-blueprint"] .icon-line{fill:none;stroke-width:1.3;stroke-linecap:round;stroke-linejoin:round}
  </style>
</defs>
<rect x="0" y="0" width="1900" height="1307" rx="0" fill="#062B5F"/>
<rect x="0" y="0" width="1900" height="1307" rx="0" fill="url(#blueprint-grid)" opacity="1"/>
<text x="950.0" y="54" text-anchor="middle" class="title">Layered Knowledge Topology Stress</text>
<text x="950.0" y="80.0" text-anchor="middle" class="subtitle">Stress contract with dense multi-row fan-out and fan-in routing</text>
<rect x="70" y="115" width="1760" height="196" class="group-panel" rx="8" fill="#FFFFFF" fill-opacity="0.03" stroke="#F4F8FF" stroke-opacity="0.7" stroke-width="1"/>
<rect x="70" y="343" width="1760" height="196" class="group-panel" rx="8" fill="#FFFFFF" fill-opacity="0.03" stroke="#F4F8FF" stroke-opacity="0.7" stroke-width="1"/>
<rect x="70" y="571" width="1760" height="436" class="group-panel" rx="8" fill="#FFFFFF" fill-opacity="0.03" stroke="#F4F8FF" stroke-opacity="0.7" stroke-width="1"/>
<rect x="70" y="1039" width="1760" height="196" class="group-panel" rx="8" fill="#FFFFFF" fill-opacity="0.03" stroke="#F4F8FF" stroke-opacity="0.7" stroke-width="1"/>
<path d="M 742.0 507.0 L 742.0 606.0 Q 742.0 613.0 735.0 613.0 L 728.0 613.0" class="edge fanout route-shared branch"/>
<path d="M 742.0 507.0 L 742.0 606.0 Q 742.0 613.0 749.0 613.0 L 756.0 613.0" class="edge fanout route-shared branch"/>
<path d="M 1731.0 613.0 L 1738.0 613.0 Q 1745.0 613.0 1745.0 620.0 L 1745.0 818.0 Q 1745.0 825.0 1738.0 825.0 L 1731.0 825.0" class="edge fanout route-shared trunk"/>
<path d="M 410.5 613.0 L 728.0 613.0" class="edge fanout route-shared bus"/>
<path d="M 756.0 613.0 L 1731.0 613.0" class="edge fanout route-shared bus"/>
<path d="M 410.5 613.0 L 403.5 613.0 Q 396.5 613.0 396.5 620.0 L 396.5 645.0" class="edge fanout terminal" marker-end="url(#arrow-fanout)"/>
<path d="M 751.5 613.0 L 758.5 613.0 Q 765.5 613.0 765.5 620.0 L 765.5 645.0" class="edge fanout terminal" marker-end="url(#arrow-fanout)"/>
<path d="M 1120.5 613.0 L 1127.5 613.0 Q 1134.5 613.0 1134.5 620.0 L 1134.5 645.0" class="edge fanout terminal" marker-end="url(#arrow-fanout)"/>
<path d="M 1489.5 613.0 L 1496.5 613.0 Q 1503.5 613.0 1503.5 620.0 L 1503.5 645.0" class="edge fanout terminal" marker-end="url(#arrow-fanout)"/>
<path d="M 410.5 825.0 L 1731.0 825.0" class="edge fanout route-shared bus"/>
<path d="M 410.5 825.0 L 403.5 825.0 Q 396.5 825.0 396.5 832.0 L 396.5 857.0" class="edge fanout terminal" marker-end="url(#arrow-fanout)"/>
<path d="M 779.5 825.0 L 772.5 825.0 Q 765.5 825.0 765.5 832.0 L 765.5 857.0" class="edge fanout terminal" marker-end="url(#arrow-fanout)"/>
<path d="M 1148.5 825.0 L 1141.5 825.0 Q 1134.5 825.0 1134.5 832.0 L 1134.5 857.0" class="edge fanout terminal" marker-end="url(#arrow-fanout)"/>
<path d="M 1517.5 825.0 L 1510.5 825.0 Q 1503.5 825.0 1503.5 832.0 L 1503.5 857.0" class="edge fanout terminal" marker-end="url(#arrow-fanout)"/>
<path d="M 169.0 777.0 L 162.0 777.0 Q 155.0 777.0 155.0 784.0 L 155.0 982.0 Q 155.0 989.0 162.0 989.0 L 169.0 989.0" class="edge fanin route-shared trunk"/>
<path d="M 396.5 745.0 L 396.5 770.0 Q 396.5 777.0 389.5 777.0 L 382.5 777.0" class="edge fanin route-shared branch"/>
<path d="M 765.5 745.0 L 765.5 770.0 Q 765.5 777.0 758.5 777.0 L 751.5 777.0" class="edge fanin route-shared branch"/>
<path d="M 1134.5 745.0 L 1134.5 770.0 Q 1134.5 777.0 1127.5 777.0 L 1120.5 777.0" class="edge fanin route-shared branch"/>
<path d="M 1503.5 745.0 L 1503.5 770.0 Q 1503.5 777.0 1496.5 777.0 L 1489.5 777.0" class="edge fanin route-shared branch"/>
<path d="M 169.0 777.0 L 1489.5 777.0" class="edge fanin route-shared bus"/>
<path d="M 396.5 957.0 L 396.5 982.0 Q 396.5 989.0 389.5 989.0 L 382.5 989.0" class="edge fanin route-shared branch"/>
<path d="M 765.5 957.0 L 765.5 982.0 Q 765.5 989.0 758.5 989.0 L 751.5 989.0" class="edge fanin route-shared branch"/>
<path d="M 169.0 989.0 L 728.0 989.0" class="edge fanin route-shared bus"/>
<path d="M 728.0 989.0 L 735.0 989.0 Q 742.0 989.0 742.0 996.0 L 742.0 1003.0" class="edge fanin route-shared merge"/>
<path d="M 756.0 989.0 L 749.0 989.0 Q 742.0 989.0 742.0 996.0 L 742.0 1003.0" class="edge fanin route-shared merge"/>
<path d="M 742.0 1003.0 L 742.0 1103.0" class="edge fanin terminal" marker-end="url(#arrow-fanin)"/>
<path d="M 1134.5 957.0 L 1134.5 982.0 Q 1134.5 989.0 1127.5 989.0 L 1120.5 989.0" class="edge fanin route-shared branch"/>
<path d="M 1503.5 957.0 L 1503.5 982.0 Q 1503.5 989.0 1496.5 989.0 L 1489.5 989.0" class="edge fanin route-shared branch"/>
<path d="M 169.0 989.0 L 1144.0 989.0" class="edge fanin route-shared bus"/>
<path d="M 1172.0 989.0 L 1489.5 989.0" class="edge fanin route-shared bus"/>
<path d="M 1144.0 989.0 L 1151.0 989.0 Q 1158.0 989.0 1158.0 996.0 L 1158.0 1003.0" class="edge fanin route-shared merge"/>
<path d="M 1172.0 989.0 L 1165.0 989.0 Q 1158.0 989.0 1158.0 996.0 L 1158.0 1003.0" class="edge fanin route-shared merge"/>
<path d="M 1158.0 1003.0 L 1158.0 1103.0" class="edge fanin terminal" marker-end="url(#arrow-fanin)"/>
<path d="M 714.0 229.0 L 770.0 229.0" class="edge edge-dashed" marker-end="url(#arrow)"/>
<path d="M 1130.0 229.0 L 1186.0 229.0" class="edge edge-dashed" marker-end="url(#arrow)"/>
<path d="M 950.0 279 L 950.0 329.0 Q 950.0 343.0 936.0 343.0 L 340.0 343.0 Q 326.0 343.0 326.0 357.0 L 326.0 407" class="edge" marker-end="url(#arrow)"/>
<path d="M 950.0 279 L 950.0 329.0 Q 950.0 343.0 936.0 343.0 L 756.0 343.0 Q 742.0 343.0 742.0 357.0 L 742.0 407" class="edge" marker-end="url(#arrow)"/>
<path d="M 950.0 279 L 950.0 329.0 Q 950.0 343.0 964.0 343.0 L 1144.0 343.0 Q 1158.0 343.0 1158.0 357.0 L 1158.0 407" class="edge" marker-end="url(#arrow)"/>
<path d="M 950.0 279 L 950.0 329.0 Q 950.0 343.0 964.0 343.0 L 1560.0 343.0 Q 1574.0 343.0 1574.0 357.0 L 1574.0 407" class="edge" marker-end="url(#arrow)"/>
<g class="group-label-wrap"><rect x="88" y="121" width="242.4" height="30" rx="7" fill="#062B5F" fill-opacity="0.78"/><text x="98" y="141" class="group-label">Entry and navigation layer</text></g>
<g class="group-label-wrap"><rect x="88" y="349" width="276.0" height="30" rx="7" fill="#062B5F" fill-opacity="0.78"/><text x="98" y="369" class="group-label">Synthesis and governance layer</text></g>
<g class="group-label-wrap"><rect x="88" y="577" width="343.2" height="30" rx="7" fill="#062B5F" fill-opacity="0.78"/><text x="98" y="597" class="group-label">WI-derived reusable knowledge packages</text></g>
<g class="group-label-wrap"><rect x="88" y="1045" width="267.6" height="30" rx="7" fill="#062B5F" fill-opacity="0.78"/><text x="98" y="1065" class="group-label">Controlled authority boundary</text></g>
<g id="node-moc" class="card node-card"><rect x="354.0" y="179" width="360" height="100" rx="6" fill="#FFFFFF" fill-opacity="0.03" stroke="#16D9FF" stroke-width="1.3"/><rect x="372.0" y="219.0" width="18" height="20" rx="3" fill="none" stroke="#16D9FF" stroke-width="1.2"/><path d="M376.0,225.0 H386.0 M376.0,230.0 H386.0 M376.0,235.0 H383.0" class="icon-line" stroke="#16D9FF"/><text x="408.0" y="228.0874" text-anchor="start" class="card-title" style="font-size:23.2px">Manufacturing MOC</text><text x="408.0" y="251.4046" text-anchor="start" class="card-sub" style="font-size:17.3px">entry point</text></g>
<g id="node-query" class="card node-card"><rect x="770.0" y="179" width="360" height="100" rx="6" fill="#FFFFFF" fill-opacity="0.03" stroke="#16D9FF" stroke-width="1.3"/><circle cx="796.0" cy="227.0" r="7" fill="none" stroke="#16D9FF" stroke-width="1.2"/><path d="M802.0,233.0 L808.0,239.0" class="icon-line" stroke="#16D9FF"/><text x="824.0" y="228.0874" text-anchor="start" class="card-title" style="font-size:23.2px">Query Guide</text><text x="824.0" y="251.4046" text-anchor="start" class="card-sub" style="font-size:17.3px">where to look</text></g>
<g id="node-glossary" class="card node-card"><rect x="1186.0" y="179" width="360" height="100" rx="6" fill="#FFFFFF" fill-opacity="0.03" stroke="#B56CFF" stroke-width="1.3"/><path d="M1204.0,219.0 H1220.0 Q1224.0,219.0 1224.0,223.0 V238.0 H1204.0 Z" fill="none" stroke="#B56CFF" stroke-width="1.2"/><path d="M1209.0,225.0 H1218.0 M1209.0,231.0 H1218.0" class="icon-line" stroke="#B56CFF"/><text x="1240.0" y="228.0874" text-anchor="start" class="card-title" style="font-size:23.2px">Glossary / Ontology</text><text x="1240.0" y="251.4046" text-anchor="start" class="card-sub" style="font-size:17.3px">shared language</text></g>
<g id="node-process" class="card node-card"><rect x="146.0" y="407" width="360" height="100" rx="6" fill="#FFFFFF" fill-opacity="0.03" stroke="#FF9F2E" stroke-width="1.3"/><circle cx="168.0" cy="458.0" r="4" fill="none" stroke="#FF9F2E" stroke-width="1.6"/><circle cx="182.0" cy="451.0" r="4" fill="none" stroke="#FF9F2E" stroke-width="1.6"/><circle cx="182.0" cy="465.0" r="4" fill="none" stroke="#FF9F2E" stroke-width="1.6"/><path d="M172.0,458.0 H176.0 M178.0,454.0 L176.0,458.0 L178.0,462.0" class="icon-line" stroke="#FF9F2E"/><text x="200.0" y="443.5486" text-anchor="start" class="card-title" style="font-size:23.2px">End-to-End Process</text><text x="200.0" y="468.62620000000004" text-anchor="start" class="card-title" style="font-size:23.2px">Overview</text><text x="200.0" y="491.9434" text-anchor="start" class="card-sub" style="font-size:17.3px">product-level flow</text></g>
<g id="node-parameter_master" class="card node-card"><rect x="562.0" y="407" width="360" height="100" rx="6" fill="#FFFFFF" fill-opacity="0.03" stroke="#FFD84D" stroke-width="1.3"/><path d="M590.0,447.0 L600.0,465.0 H580.0 Z" fill="none" stroke="#FFD84D" stroke-width="1.2"/><path d="M590.0,454.0 V460.0 M590.0,464.0 V464.0" class="icon-line" stroke="#FFD84D"/><text x="616.0" y="443.5486" text-anchor="start" class="card-title" style="font-size:23.2px">CTQ and Parameter</text><text x="616.0" y="468.62620000000004" text-anchor="start" class="card-title" style="font-size:23.2px">Master Register</text><text x="616.0" y="491.9434" text-anchor="start" class="card-sub" style="font-size:17.3px">quality families</text></g>
<g id="node-risk_model" class="card node-card"><rect x="978.0" y="407" width="360" height="100" rx="6" fill="#FFFFFF" fill-opacity="0.03" stroke="#FFD84D" stroke-width="1.3"/><path d="M1006.0,447.0 L1015.0,452.0 V462.0 L1006.0,467.0 L997.0,462.0 V452.0 Z" fill="none" stroke="#FFD84D" stroke-width="1.2"/><path d="M1002.0,457.0 L1005.0,461.0 L1011.0,453.0" class="icon-line" stroke="#FFD84D"/><text x="1032.0" y="443.5486" text-anchor="start" class="card-title" style="font-size:23.2px">Defect and Risk</text><text x="1032.0" y="468.62620000000004" text-anchor="start" class="card-title" style="font-size:23.2px">Taxonomy</text><text x="1032.0" y="491.9434" text-anchor="start" class="card-sub" style="font-size:17.3px">cross-group risks</text></g>
<g id="node-governance" class="card node-card"><rect x="1394.0" y="407" width="360" height="100" rx="6" fill="#FFFFFF" fill-opacity="0.03" stroke="#FFD84D" stroke-width="1.3"/><path d="M1422.0,447.0 L1432.0,465.0 H1412.0 Z" fill="none" stroke="#FFD84D" stroke-width="1.2"/><path d="M1422.0,454.0 V460.0 M1422.0,464.0 V464.0" class="icon-line" stroke="#FFD84D"/><text x="1448.0" y="456.0874" text-anchor="start" class="card-title" style="font-size:23.2px">Governance Rules</text><text x="1448.0" y="479.40459999999996" text-anchor="start" class="card-sub" style="font-size:17.3px">reuse constraints</text></g>
<g id="node-package_a" class="card node-card"><rect x="240.0" y="645" width="313.0" height="100" rx="6" fill="#FFFFFF" fill-opacity="0.03" stroke="#6EE66E" stroke-width="1.3"/><rect x="258.0" y="688.0" width="20" height="16" rx="3" fill="none" stroke="#6EE66E" stroke-width="1.2"/><path d="M258.0,693.0 H278.0 M268.0,688.0 V704.0" class="icon-line" stroke="#6EE66E"/><text x="294.0" y="694.0874" text-anchor="start" class="card-title" style="font-size:23.2px">MEMS Package</text><text x="294.0" y="717.4046" text-anchor="start" class="card-sub" style="font-size:17.3px">source-bound sub-KB</text></g>
<g id="node-package_b" class="card node-card"><rect x="609.0" y="645" width="313.0" height="100" rx="6" fill="#FFFFFF" fill-opacity="0.03" stroke="#6EE66E" stroke-width="1.3"/><rect x="627.0" y="688.0" width="20" height="16" rx="3" fill="none" stroke="#6EE66E" stroke-width="1.2"/><path d="M627.0,693.0 H647.0 M637.0,688.0 V704.0" class="icon-line" stroke="#6EE66E"/><text x="663.0" y="694.0874" text-anchor="start" class="card-title" style="font-size:23.2px">MCA Package</text><text x="663.0" y="717.4046" text-anchor="start" class="card-sub" style="font-size:17.3px">source-bound sub-KB</text></g>
<g id="node-package_c" class="card node-card"><rect x="978.0" y="645" width="313.0" height="100" rx="6" fill="#FFFFFF" fill-opacity="0.03" stroke="#6EE66E" stroke-width="1.3"/><rect x="996.0" y="688.0" width="20" height="16" rx="3" fill="none" stroke="#6EE66E" stroke-width="1.2"/><path d="M996.0,693.0 H1016.0 M1006.0,688.0 V704.0" class="icon-line" stroke="#6EE66E"/><text x="1032.0" y="694.0874" text-anchor="start" class="card-title" style="font-size:23.2px">OBM Assembly</text><text x="1032.0" y="717.4046" text-anchor="start" class="card-sub" style="font-size:17.3px">source-bound sub-KB</text></g>
<g id="node-package_d" class="card node-card"><rect x="1347.0" y="645" width="313.0" height="100" rx="6" fill="#FFFFFF" fill-opacity="0.03" stroke="#6EE66E" stroke-width="1.3"/><rect x="1365.0" y="688.0" width="20" height="16" rx="3" fill="none" stroke="#6EE66E" stroke-width="1.2"/><path d="M1365.0,693.0 H1385.0 M1375.0,688.0 V704.0" class="icon-line" stroke="#6EE66E"/><text x="1401.0" y="681.5486000000001" text-anchor="start" class="card-title" style="font-size:23.2px">POB Knowledge</text><text x="1401.0" y="706.6262" text-anchor="start" class="card-title" style="font-size:23.2px">Package</text><text x="1401.0" y="729.9434000000001" text-anchor="start" class="card-sub" style="font-size:17.3px">source-bound sub-KB</text></g>
<g id="node-package_e" class="card node-card"><rect x="240.0" y="857" width="313.0" height="100" rx="6" fill="#FFFFFF" fill-opacity="0.03" stroke="#6EE66E" stroke-width="1.3"/><rect x="258.0" y="900.0" width="20" height="16" rx="3" fill="none" stroke="#6EE66E" stroke-width="1.2"/><path d="M258.0,905.0 H278.0 M268.0,900.0 V916.0" class="icon-line" stroke="#6EE66E"/><text x="294.0" y="893.5486000000001" text-anchor="start" class="card-title" style="font-size:23.2px">Faceplate</text><text x="294.0" y="918.6262" text-anchor="start" class="card-title" style="font-size:23.2px">Alignment Package</text><text x="294.0" y="941.9434000000001" text-anchor="start" class="card-sub" style="font-size:17.3px">fixture + inspection r...</text></g>
<g id="node-package_f" class="card node-card"><rect x="609.0" y="857" width="313.0" height="100" rx="6" fill="#FFFFFF" fill-opacity="0.03" stroke="#6EE66E" stroke-width="1.3"/><rect x="627.0" y="900.0" width="20" height="16" rx="3" fill="none" stroke="#6EE66E" stroke-width="1.2"/><path d="M627.0,905.0 H647.0 M637.0,900.0 V916.0" class="icon-line" stroke="#6EE66E"/><text x="663.0" y="893.5486000000001" text-anchor="start" class="card-title" style="font-size:23.2px">MECH Assembly</text><text x="663.0" y="918.6262" text-anchor="start" class="card-title" style="font-size:23.2px">Package</text><text x="663.0" y="941.9434000000001" text-anchor="start" class="card-sub" style="font-size:17.3px">approved work module</text></g>
<g id="node-package_g" class="card node-card"><rect x="978.0" y="857" width="313.0" height="100" rx="6" fill="#FFFFFF" fill-opacity="0.03" stroke="#FFD84D" stroke-width="1.3"/><path d="M1006.0,897.0 L1015.0,902.0 V912.0 L1006.0,917.0 L997.0,912.0 V902.0 Z" fill="none" stroke="#FFD84D" stroke-width="1.2"/><path d="M1002.0,907.0 L1005.0,911.0 L1011.0,903.0" class="icon-line" stroke="#FFD84D"/><text x="1032.0" y="893.5486000000001" text-anchor="start" class="card-title" style="font-size:23.2px">Yield Excursion</text><text x="1032.0" y="918.6262" text-anchor="start" class="card-title" style="font-size:23.2px">Playbook</text><text x="1032.0" y="941.9434000000001" text-anchor="start" class="card-sub" style="font-size:17.3px">risk response</text></g>
<g id="node-package_h" class="card node-card"><rect x="1347.0" y="857" width="313.0" height="100" rx="6" fill="#FFFFFF" fill-opacity="0.03" stroke="#FF9F2E" stroke-width="1.3"/><circle cx="1369.0" cy="908.0" r="4" fill="none" stroke="#FF9F2E" stroke-width="1.6"/><circle cx="1383.0" cy="901.0" r="4" fill="none" stroke="#FF9F2E" stroke-width="1.6"/><circle cx="1383.0" cy="915.0" r="4" fill="none" stroke="#FF9F2E" stroke-width="1.6"/><path d="M1373.0,908.0 H1377.0 M1379.0,904.0 L1377.0,908.0 L1379.0,912.0" class="icon-line" stroke="#FF9F2E"/><text x="1401.0" y="893.5486000000001" text-anchor="start" class="card-title" style="font-size:23.2px">Transformation</text><text x="1401.0" y="918.6262" text-anchor="start" class="card-title" style="font-size:23.2px">Checklist</text><text x="1401.0" y="941.9434000000001" text-anchor="start" class="card-sub" style="font-size:17.3px">handoff path</text></g>
<g id="node-plm_docs" class="card node-card"><rect x="562.0" y="1103" width="360" height="100" rx="6" fill="#FFFFFF" fill-opacity="0.03" stroke="#F4F8FF" stroke-width="1.3"/><path d="M580.0,1143.0 H594.0 L600.0,1149.0 V1163.0 H580.0 Z" fill="none" stroke="#F4F8FF" stroke-width="1.2"/><path d="M594.0,1143.0 V1149.0 H600.0" class="icon-line" stroke="#F4F8FF"/><text x="616.0" y="1139.5486" text-anchor="start" class="card-title" style="font-size:23.2px">Controlled WI / PLM</text><text x="616.0" y="1164.6262000000002" text-anchor="start" class="card-title" style="font-size:23.2px">Source Documents</text><text x="616.0" y="1187.9433999999999" text-anchor="start" class="card-sub" style="font-size:17.3px">revision authority</text></g>
<g id="node-quality_records" class="card node-card"><rect x="978.0" y="1103" width="360" height="100" rx="6" fill="#FFFFFF" fill-opacity="0.03" stroke="#C9DAF5" stroke-width="1.3"/><path d="M996.0,1143.0 H1010.0 L1016.0,1149.0 V1163.0 H996.0 Z" fill="none" stroke="#C9DAF5" stroke-width="1.2"/><path d="M1010.0,1143.0 V1149.0 H1016.0" class="icon-line" stroke="#C9DAF5"/><text x="1032.0" y="1152.0874000000001" text-anchor="start" class="card-title" style="font-size:23.2px">Quality Record System</text><text x="1032.0" y="1175.4046" text-anchor="start" class="card-sub" style="font-size:17.3px">evidence authority</text></g>
<text x="950.0" y="1279" text-anchor="middle" class="note">Stress template: dense fan-out and fan-in should remain inside the package layer.</text>
</svg>
