<svg xmlns="http://www.w3.org/2000/svg" width="1800" height="1269" viewBox="0 0 1800 1269" role="img" aria-label="Hub Spoke Stress" data-style="accent-blueprint" data-diagram-type="hub_spoke">
<defs>
  <pattern id="blueprint-grid-small" width="12" height="12" patternUnits="userSpaceOnUse"><path d="M 12 0 H 0 V 12" fill="none" stroke="#FFFFFF" stroke-opacity="0.08" stroke-width="0.7"/></pattern>
  <pattern id="blueprint-grid" width="60" height="60" patternUnits="userSpaceOnUse"><rect width="60" height="60" fill="url(#blueprint-grid-small)"/><path d="M 60 0 H 0 V 60" fill="none" stroke="#FFFFFF" stroke-opacity="0.14" stroke-width="1"/> </pattern>
  <marker id="arrow" markerWidth="10" markerHeight="10" refX="8.5" refY="3" orient="auto" markerUnits="strokeWidth"><path d="M0,0 L0,6 L9,3 z" fill="context-stroke"/></marker>
  <marker id="arrow-fanout" markerWidth="10" markerHeight="10" refX="8.5" refY="3" orient="auto" markerUnits="strokeWidth"><path d="M0,0 L0,6 L9,3 z" fill="context-stroke"/></marker>
  <marker id="arrow-fanin" markerWidth="10" markerHeight="10" refX="8.5" refY="3" orient="auto" markerUnits="strokeWidth"><path d="M0,0 L0,6 L9,3 z" fill="context-stroke"/></marker>
  <style>
    [data-style="accent-blueprint"] .title{font:700 27px IBM Plex Mono,JetBrains Mono,Consolas,monospace;fill:#F4F8FF;letter-spacing:.04em;text-transform:uppercase}
    [data-style="accent-blueprint"] .subtitle{font:400 13px IBM Plex Sans,Inter,Roboto Condensed,DIN,Segoe UI,Aptos,Arial,sans-serif;fill:#C9DAF5}
    [data-style="accent-blueprint"] .group-label{font:700 15px IBM Plex Mono,JetBrains Mono,Consolas,monospace;fill:#C9DAF5;letter-spacing:.08em;text-transform:uppercase}
    [data-style="accent-blueprint"] .card-title{font:700 17px IBM Plex Sans,Inter,Roboto Condensed,DIN,Segoe UI,Aptos,Arial,sans-serif;fill:#F4F8FF}
    [data-style="accent-blueprint"] .card-sub{font:500 13px IBM Plex Sans,Inter,Roboto Condensed,DIN,Segoe UI,Aptos,Arial,sans-serif;fill:#C9DAF5}
    [data-style="accent-blueprint"] .edge{fill:none;stroke:#F4F8FF;stroke-width:1.5;stroke-linecap:round;stroke-linejoin:round;opacity:0.88}
    [data-style="accent-blueprint"] .fanout{stroke:#FF9F2E;opacity:0.9}
    [data-style="accent-blueprint"] .fanin{stroke:#6EE66E;opacity:0.9}
    [data-style="accent-blueprint"] .route-shared{marker-end:none}
    [data-style="accent-blueprint"] .edge-dashed{stroke-dasharray:6 5;opacity:0.68}
    [data-style="accent-blueprint"] .note{font:500 14px IBM Plex Sans,Inter,Roboto Condensed,DIN,Segoe UI,Aptos,Arial,sans-serif;fill:#C9DAF5}
    [data-style="accent-blueprint"] .mono{font-family:IBM Plex Mono,JetBrains Mono,Consolas,monospace}
    [data-style="accent-blueprint"] .table-header{font:700 15.5px IBM Plex Mono,JetBrains Mono,Consolas,monospace;fill:#F4F8FF;letter-spacing:.08em;text-transform:uppercase}
    [data-style="accent-blueprint"] .table-cell{font:500 17px IBM Plex Sans,Inter,Roboto Condensed,DIN,Segoe UI,Aptos,Arial,sans-serif;fill:#F4F8FF}
    [data-style="accent-blueprint"] .table-cell-secondary{font:500 17px IBM Plex Sans,Inter,Roboto Condensed,DIN,Segoe UI,Aptos,Arial,sans-serif;fill:#C9DAF5}
    [data-style="accent-blueprint"] .info-panel-title{font:700 15px IBM Plex Mono,JetBrains Mono,Consolas,monospace;fill:#F4F8FF;letter-spacing:.08em;text-transform:uppercase}
    [data-style="accent-blueprint"] .info-panel-item{font:500 14px IBM Plex Sans,Inter,Roboto Condensed,DIN,Segoe UI,Aptos,Arial,sans-serif;fill:#C9DAF5}
    [data-style="accent-blueprint"] .tree-level-label{font:700 15px IBM Plex Mono,JetBrains Mono,Consolas,monospace;fill:#C9DAF5;letter-spacing:.08em;text-transform:uppercase}
    [data-style="accent-blueprint"] .hub-label{font:700 15px IBM Plex Mono,JetBrains Mono,Consolas,monospace;fill:#C9DAF5;letter-spacing:.08em;text-transform:uppercase}
    [data-style="accent-blueprint"] .icon-line{fill:none;stroke-width:1.3;stroke-linecap:round;stroke-linejoin:round}
  </style>
</defs>
<rect x="0" y="0" width="1800" height="1269" rx="0" fill="#062B5F"/>
<rect x="0" y="0" width="1800" height="1269" rx="0" fill="url(#blueprint-grid)" opacity="1"/>
<text x="900.0" y="54" text-anchor="middle" class="title">Hub Spoke Stress</text>
<text x="900.0" y="80.0" text-anchor="middle" class="subtitle">Designed hub-spoke map with many spokes, external links, governance controls, and operating notes</text>
<circle cx="900.0" cy="564" r="152.0" fill="none" stroke="#16D9FF" stroke-opacity="0.16" stroke-width="1.4"/>
<path d="M 801.95 475.63 L 495.0 199.0" class="edge hub-spoke-link" marker-end="url(#arrow)"/>
<path d="M 783.89 501.21 L 495.0 345.0" class="edge hub-spoke-link" marker-end="url(#arrow)"/>
<path d="M 770.09 540.58 L 495.0 491.0" class="edge hub-spoke-link" marker-end="url(#arrow)"/>
<path d="M 770.09 587.42 L 495.0 637.0" class="edge hub-spoke-link" marker-end="url(#arrow)"/>
<path d="M 783.89 626.79 L 495.0 783.0" class="edge edge-dashed hub-spoke-link" marker-end="url(#arrow)"/>
<path d="M 801.95 652.37 L 495.0 929.0" class="edge hub-spoke-link" marker-end="url(#arrow)"/>
<path d="M 998.05 475.63 L 1305.0 199.0" class="edge hub-spoke-link" marker-end="url(#arrow)"/>
<path d="M 1016.11 501.21 L 1305.0 345.0" class="edge hub-spoke-link" marker-end="url(#arrow)"/>
<path d="M 1029.91 540.58 L 1305.0 491.0" class="edge hub-spoke-link" marker-end="url(#arrow)"/>
<path d="M 1029.91 587.42 L 1305.0 637.0" class="edge edge-dashed hub-spoke-link" marker-end="url(#arrow)"/>
<path d="M 1016.11 626.79 L 1305.0 783.0" class="edge hub-spoke-link" marker-end="url(#arrow)"/>
<path d="M 998.05 652.37 L 1305.0 929.0" class="edge hub-spoke-link" marker-end="url(#arrow)"/>
<g id="node-hub" class="hub-core card"><rect x="768.0" y="432.0" width="264.0" height="264.0" fill="none" stroke="none"/><circle cx="900.0" cy="564" r="132.0" fill="#FFFFFF" fill-opacity="0.03" stroke="#16D9FF" stroke-width="3.2"/><circle cx="900.0" cy="564" r="120.0" fill="none" stroke="#16D9FF" stroke-opacity="0.32" stroke-width="1.3"/><text x="900.0" y="541.0" text-anchor="middle" class="card-title" style="font-size:23.8px">Knowledge</text><text x="900.0" y="566.76" text-anchor="middle" class="card-title" style="font-size:23.8px">Integration Hub</text><text x="900.0" y="592.76" text-anchor="middle" class="card-sub" style="font-size:16px">routing + orchestration +</text><text x="900.0" y="610.76" text-anchor="middle" class="card-sub" style="font-size:16px">monitoring</text></g>
<g id="node-portal" class="hub-spoke-node spoke-block card"><rect x="165" y="143.0" width="330.0" height="112.0" rx="6.0" fill="#FFFFFF" fill-opacity="0.03" stroke="#16D9FF" stroke-width="1.4"/><rect x="189" y="189.0" width="18" height="20" rx="3" fill="none" stroke="#16D9FF" stroke-width="1.2"/><path d="M193,195.0 H203 M193,200.0 H203 M193,205.0 H200" class="icon-line" stroke="#16D9FF"/><text x="231" y="198.0" text-anchor="start" class="card-title" style="font-size:20.5px">Knowledge Portal</text><text x="231" y="220.5" text-anchor="start" class="card-sub" style="font-size:15.5px">request intake + navigation</text></g>
<g id="node-domain" class="hub-spoke-node spoke-block card"><rect x="165" y="289.0" width="330.0" height="112.0" rx="6.0" fill="#FFFFFF" fill-opacity="0.03" stroke="#16D9FF" stroke-width="1.4"/><rect x="189" y="338.0" width="20" height="16" rx="3" fill="none" stroke="#16D9FF" stroke-width="1.2"/><path d="M189,343.0 H209 M199,338.0 V354.0" class="icon-line" stroke="#16D9FF"/><text x="231" y="344.0" text-anchor="start" class="card-title" style="font-size:20.5px">Domain Boundary Maps</text><text x="231" y="366.5" text-anchor="start" class="card-sub" style="font-size:15.5px">systems + ownership corridors</text></g>
<g id="node-registry" class="hub-spoke-node spoke-block card"><rect x="165" y="435.0" width="330.0" height="112.0" rx="6.0" fill="#FFFFFF" fill-opacity="0.03" stroke="#FFD84D" stroke-width="1.4"/><path d="M199,481.0 L209,499.0 H189 Z" fill="none" stroke="#FFD84D" stroke-width="1.2"/><path d="M199,488.0 V494.0 M199,498.0 V498.0" class="icon-line" stroke="#FFD84D"/><text x="231" y="490.0" text-anchor="start" class="card-title" style="font-size:20.5px">Semantic Registers</text><text x="231" y="512.5" text-anchor="start" class="card-sub" style="font-size:15.5px">terms + parameters + CTQs</text></g>
<g id="node-taxonomy" class="hub-spoke-node spoke-block card"><rect x="165" y="581.0" width="330.0" height="112.0" rx="6.0" fill="#FFFFFF" fill-opacity="0.03" stroke="#FFD84D" stroke-width="1.4"/><path d="M199,627.0 L208,632.0 V642.0 L199,647.0 L190,642.0 V632.0 Z" fill="none" stroke="#FFD84D" stroke-width="1.2"/><path d="M195,637.0 L198,641.0 L204,633.0" class="icon-line" stroke="#FFD84D"/><text x="231" y="624.75" text-anchor="start" class="card-title" style="font-size:20.5px">Risk and Defect</text><text x="231" y="647.25" text-anchor="start" class="card-title" style="font-size:20.5px">Taxonomy</text><text x="231" y="669.75" text-anchor="start" class="card-sub" style="font-size:15.5px">classification + constraints</text></g>
<g id="node-playbooks" class="hub-spoke-node spoke-block card"><rect x="165" y="727.0" width="330.0" height="112.0" rx="6.0" fill="#FFFFFF" fill-opacity="0.03" stroke="#FF9F2E" stroke-width="1.4"/><circle cx="193" cy="784.0" r="4" fill="none" stroke="#FF9F2E" stroke-width="1.6"/><circle cx="207" cy="777.0" r="4" fill="none" stroke="#FF9F2E" stroke-width="1.6"/><circle cx="207" cy="791.0" r="4" fill="none" stroke="#FF9F2E" stroke-width="1.6"/><path d="M197,784.0 H201 M203,780.0 L201,784.0 L203,788.0" class="icon-line" stroke="#FF9F2E"/><text x="231" y="782.0" text-anchor="start" class="card-title" style="font-size:20.5px">Exception Playbooks</text><text x="231" y="804.5" text-anchor="start" class="card-sub" style="font-size:15.5px">known deviations + mitigations</text></g>
<g id="node-analytics" class="hub-spoke-node spoke-block card"><rect x="165" y="873.0" width="330.0" height="112.0" rx="6.0" fill="#FFFFFF" fill-opacity="0.03" stroke="#16D9FF" stroke-width="1.4"/><circle cx="197" cy="927.0" r="7" fill="none" stroke="#16D9FF" stroke-width="1.2"/><path d="M203,933.0 L209,939.0" class="icon-line" stroke="#16D9FF"/><text x="231" y="916.75" text-anchor="start" class="card-title" style="font-size:20.5px">Analytics and Review</text><text x="231" y="939.25" text-anchor="start" class="card-title" style="font-size:20.5px">Views</text><text x="231" y="961.75" text-anchor="start" class="card-sub" style="font-size:15.5px">readiness + decision support</text></g>
<g id="node-packages" class="hub-spoke-node spoke-block card"><rect x="1305.0" y="143.0" width="330.0" height="112.0" rx="6.0" fill="#FFFFFF" fill-opacity="0.03" stroke="#6EE66E" stroke-width="1.4"/><rect x="1329.0" y="192.0" width="20" height="16" rx="3" fill="none" stroke="#6EE66E" stroke-width="1.2"/><path d="M1329.0,197.0 H1349.0 M1339.0,192.0 V208.0" class="icon-line" stroke="#6EE66E"/><text x="1371.0" y="186.75" text-anchor="start" class="card-title" style="font-size:20.5px">Reusable Knowledge</text><text x="1371.0" y="209.25" text-anchor="start" class="card-title" style="font-size:20.5px">Packages</text><text x="1371.0" y="231.75" text-anchor="start" class="card-sub" style="font-size:15.5px">approved modules + instances</text></g>
<g id="node-sources" class="hub-spoke-node spoke-block card"><rect x="1305.0" y="289.0" width="330.0" height="112.0" rx="6.0" fill="#FFFFFF" fill-opacity="0.03" stroke="#F4F8FF" stroke-width="1.4"/><path d="M1329.0,335.0 H1343.0 L1349.0,341.0 V355.0 H1329.0 Z" fill="none" stroke="#F4F8FF" stroke-width="1.2"/><path d="M1343.0,335.0 V341.0 H1349.0" class="icon-line" stroke="#F4F8FF"/><text x="1371.0" y="332.75" text-anchor="start" class="card-title" style="font-size:20.5px">Controlled Source</text><text x="1371.0" y="355.25" text-anchor="start" class="card-title" style="font-size:20.5px">Library</text><text x="1371.0" y="377.75" text-anchor="start" class="card-sub" style="font-size:15.5px">WI / PLM / MOC authority</text></g>
<g id="node-governance" class="hub-spoke-node spoke-block card"><rect x="1305.0" y="435.0" width="330.0" height="112.0" rx="6.0" fill="#FFFFFF" fill-opacity="0.03" stroke="#FFD84D" stroke-width="1.4"/><path d="M1339.0,481.0 L1349.0,499.0 H1329.0 Z" fill="none" stroke="#FFD84D" stroke-width="1.2"/><path d="M1339.0,488.0 V494.0 M1339.0,498.0 V498.0" class="icon-line" stroke="#FFD84D"/><text x="1371.0" y="478.75" text-anchor="start" class="card-title" style="font-size:20.5px">Governance and</text><text x="1371.0" y="501.25" text-anchor="start" class="card-title" style="font-size:20.5px">Approval Rules</text><text x="1371.0" y="523.75" text-anchor="start" class="card-sub" style="font-size:15.5px">ownership + reuse permissions</text></g>
<g id="node-external" class="hub-spoke-node spoke-block card"><rect x="1305.0" y="581.0" width="330.0" height="112.0" rx="6.0" fill="#FFFFFF" fill-opacity="0.03" stroke="#B56CFF" stroke-width="1.4"/><path d="M1329.0,627.0 H1345.0 Q1349.0,627.0 1349.0,631.0 V646.0 H1329.0 Z" fill="none" stroke="#B56CFF" stroke-width="1.2"/><path d="M1334.0,633.0 H1343.0 M1334.0,639.0 H1343.0" class="icon-line" stroke="#B56CFF"/><text x="1371.0" y="624.75" text-anchor="start" class="card-title" style="font-size:20.5px">External Provider</text><text x="1371.0" y="647.25" text-anchor="start" class="card-title" style="font-size:20.5px">Interfaces</text><text x="1371.0" y="669.75" text-anchor="start" class="card-sub" style="font-size:15.5px">optional out-of-scope links</text></g>
<g id="node-monitoring" class="hub-spoke-node spoke-block card"><rect x="1305.0" y="727.0" width="330.0" height="112.0" rx="6.0" fill="#FFFFFF" fill-opacity="0.03" stroke="#FF9F2E" stroke-width="1.4"/><circle cx="1333.0" cy="784.0" r="4" fill="none" stroke="#FF9F2E" stroke-width="1.6"/><circle cx="1347.0" cy="777.0" r="4" fill="none" stroke="#FF9F2E" stroke-width="1.6"/><circle cx="1347.0" cy="791.0" r="4" fill="none" stroke="#FF9F2E" stroke-width="1.6"/><path d="M1337.0,784.0 H1341.0 M1343.0,780.0 L1341.0,784.0 L1343.0,788.0" class="icon-line" stroke="#FF9F2E"/><text x="1371.0" y="770.75" text-anchor="start" class="card-title" style="font-size:20.5px">Monitoring and Audit</text><text x="1371.0" y="793.25" text-anchor="start" class="card-title" style="font-size:20.5px">Trail</text><text x="1371.0" y="815.75" text-anchor="start" class="card-sub" style="font-size:15.5px">health signals + trace logs</text></g>
<g id="node-automation" class="hub-spoke-node spoke-block card"><rect x="1305.0" y="873.0" width="330.0" height="112.0" rx="6.0" fill="#FFFFFF" fill-opacity="0.03" stroke="#16D9FF" stroke-width="1.4"/><circle cx="1337.0" cy="927.0" r="7" fill="none" stroke="#16D9FF" stroke-width="1.2"/><path d="M1343.0,933.0 L1349.0,939.0" class="icon-line" stroke="#16D9FF"/><text x="1371.0" y="928.0" text-anchor="start" class="card-title" style="font-size:20.5px">Automation Services</text><text x="1371.0" y="950.5" text-anchor="start" class="card-sub" style="font-size:15.5px">refresh jobs + validators</text></g>
<g class="info-panel" data-panel-id="flow-key">
<rect x="70.0" y="1013.0" width="541.3333333333334" height="192.72000000000003" rx="6" fill="#FFFFFF" fill-opacity="0.03" stroke="#16D9FF" stroke-opacity="0.62" stroke-width="1"/>
<text x="88.0" y="1041.0" class="info-panel-title">Relationship / Flow Key</text>
<rect x="88.0" y="1059.0" width="9" height="9" rx="2" fill="#16D9FF" opacity="0.95"/>
<text x="106.0" y="1069.0" class="info-panel-item" style="font-size:15.1px">Solid spokes: primary managed relationship through the</text>
<text x="106.0" y="1088.12" class="info-panel-item" style="font-size:15.1px">hub</text>
<rect x="88.0" y="1103.24" width="9" height="9" rx="2" fill="#B56CFF" opacity="0.95"/>
<text x="106.0" y="1113.24" class="info-panel-item" style="font-size:15.1px">Dashed spokes: optional, exception, or external</text>
<text x="106.0" y="1132.36" class="info-panel-item" style="font-size:15.1px">relationship requiring extra review</text>
<rect x="88.0" y="1147.48" width="9" height="9" rx="2" fill="#FF9F2E" opacity="0.95"/>
<text x="106.0" y="1157.48" class="info-panel-item" style="font-size:15.1px">Orange accent: transformation path, dependency, or</text>
<text x="106.0" y="1176.6" class="info-panel-item" style="font-size:15.1px">operational handoff</text>
</g>
<g class="info-panel" data-panel-id="use-cases">
<rect x="629.3333333333334" y="1013.0" width="541.3333333333334" height="192.72000000000003" rx="6" fill="#FFFFFF" fill-opacity="0.03" stroke="#16D9FF" stroke-opacity="0.62" stroke-width="1"/>
<text x="647.3333333333334" y="1041.0" class="info-panel-title">Use Cases</text>
<rect x="647.3333333333334" y="1059.0" width="9" height="9" rx="2" fill="#16D9FF" opacity="0.95"/>
<text x="665.3333333333334" y="1069.0" class="info-panel-item" style="font-size:15.1px">Find the approved source package for a domain, CTQ, or</text>
<text x="665.3333333333334" y="1088.12" class="info-panel-item" style="font-size:15.1px">defect class.</text>
<rect x="647.3333333333334" y="1103.24" width="9" height="9" rx="2" fill="#16D9FF" opacity="0.95"/>
<text x="665.3333333333334" y="1113.24" class="info-panel-item" style="font-size:15.1px">Trace a reusable module back to its controlled source</text>
<text x="665.3333333333334" y="1132.36" class="info-panel-item" style="font-size:15.1px">and owner.</text>
<rect x="647.3333333333334" y="1147.48" width="9" height="9" rx="2" fill="#16D9FF" opacity="0.95"/>
<text x="665.3333333333334" y="1157.48" class="info-panel-item" style="font-size:15.1px">Identify external or optional dependencies before</text>
<text x="665.3333333333334" y="1176.6" class="info-panel-item" style="font-size:15.1px">reuse in another product line.</text>
</g>
<g class="info-panel" data-panel-id="operating-rules">
<rect x="1188.6666666666667" y="1013.0" width="541.3333333333334" height="192.72000000000003" rx="6" fill="#FFFFFF" fill-opacity="0.03" stroke="#FFD84D" stroke-opacity="0.62" stroke-width="1"/>
<text x="1206.6666666666667" y="1041.0" class="info-panel-title">Operating Rules</text>
<rect x="1206.6666666666667" y="1059.0" width="9" height="9" rx="2" fill="#FFD84D" opacity="0.95"/>
<text x="1224.6666666666667" y="1069.0" class="info-panel-item" style="font-size:15.1px">Owner: hub owner maintains routing rules and</text>
<text x="1224.6666666666667" y="1088.12" class="info-panel-item" style="font-size:15.1px">stale-link reports</text>
<rect x="1206.6666666666667" y="1103.24" width="9" height="9" rx="2" fill="#FFD84D" opacity="0.95"/>
<text x="1224.6666666666667" y="1113.24" class="info-panel-item" style="font-size:15.1px">Quality gate: new module cannot be published without</text>
<text x="1224.6666666666667" y="1132.36" class="info-panel-item" style="font-size:15.1px">source and approval evidence</text>
<rect x="1206.6666666666667" y="1147.48" width="9" height="9" rx="2" fill="#FFD84D" opacity="0.95"/>
<text x="1224.6666666666667" y="1157.48" class="info-panel-item" style="font-size:15.1px">Cadence: weekly automation check; monthly architecture</text>
<text x="1224.6666666666667" y="1176.6" class="info-panel-item" style="font-size:15.1px">review</text>
</g>
<text x="900.0" y="1241" text-anchor="middle" class="note">Stress template: designed hub-spoke maps should stay legible with many spokes, dashed relationships, and bottom operating panels.</text>
</svg>
