<svg xmlns="http://www.w3.org/2000/svg" width="1700" height="891" viewBox="0 0 1700 891" role="img" aria-label="Hub Spoke Stress" data-style="accent-blueprint" data-diagram-type="hub_spoke">
<defs>
  <pattern id="blueprint-grid-small" width="12" height="12" patternUnits="userSpaceOnUse"><path d="M 12 0 H 0 V 12" fill="none" stroke="#FFFFFF" stroke-opacity="0.08" stroke-width="0.7"/></pattern>
  <pattern id="blueprint-grid" width="60" height="60" patternUnits="userSpaceOnUse"><rect width="60" height="60" fill="url(#blueprint-grid-small)"/><path d="M 60 0 H 0 V 60" fill="none" stroke="#FFFFFF" stroke-opacity="0.14" stroke-width="1"/> </pattern>
  <marker id="arrow" markerWidth="10" markerHeight="10" refX="8.5" refY="3" orient="auto" markerUnits="strokeWidth"><path d="M0,0 L0,6 L9,3 z" fill="context-stroke"/></marker>
  <marker id="arrow-fanout" markerWidth="10" markerHeight="10" refX="8.5" refY="3" orient="auto" markerUnits="strokeWidth"><path d="M0,0 L0,6 L9,3 z" fill="context-stroke"/></marker>
  <marker id="arrow-fanin" markerWidth="10" markerHeight="10" refX="8.5" refY="3" orient="auto" markerUnits="strokeWidth"><path d="M0,0 L0,6 L9,3 z" fill="context-stroke"/></marker>
  <style>
    [data-style="accent-blueprint"] .title{font:700 27px IBM Plex Mono,JetBrains Mono,Consolas,monospace;fill:#F4F8FF;letter-spacing:.04em;text-transform:uppercase}
    [data-style="accent-blueprint"] .subtitle{font:400 13px IBM Plex Sans,Inter,Roboto Condensed,DIN,Segoe UI,Aptos,Arial,sans-serif;fill:#C9DAF5}
    [data-style="accent-blueprint"] .group-label{font:700 15px IBM Plex Mono,JetBrains Mono,Consolas,monospace;fill:#C9DAF5;letter-spacing:.08em;text-transform:uppercase}
    [data-style="accent-blueprint"] .card-title{font:700 17px IBM Plex Sans,Inter,Roboto Condensed,DIN,Segoe UI,Aptos,Arial,sans-serif;fill:#F4F8FF}
    [data-style="accent-blueprint"] .card-sub{font:500 13px IBM Plex Sans,Inter,Roboto Condensed,DIN,Segoe UI,Aptos,Arial,sans-serif;fill:#C9DAF5}
    [data-style="accent-blueprint"] .edge{fill:none;stroke:#F4F8FF;stroke-width:1.5;stroke-linecap:round;stroke-linejoin:round;opacity:0.88}
    [data-style="accent-blueprint"] .fanout{stroke:#FF9F2E;opacity:0.9}
    [data-style="accent-blueprint"] .fanin{stroke:#6EE66E;opacity:0.9}
    [data-style="accent-blueprint"] .route-shared{marker-end:none}
    [data-style="accent-blueprint"] .edge-dashed{stroke-dasharray:6 5;opacity:0.68}
    [data-style="accent-blueprint"] .note{font:500 14px IBM Plex Sans,Inter,Roboto Condensed,DIN,Segoe UI,Aptos,Arial,sans-serif;fill:#C9DAF5}
    [data-style="accent-blueprint"] .mono{font-family:IBM Plex Mono,JetBrains Mono,Consolas,monospace}
    [data-style="accent-blueprint"] .table-header{font:700 15.5px IBM Plex Mono,JetBrains Mono,Consolas,monospace;fill:#F4F8FF;letter-spacing:.08em;text-transform:uppercase}
    [data-style="accent-blueprint"] .table-cell{font:500 17px IBM Plex Sans,Inter,Roboto Condensed,DIN,Segoe UI,Aptos,Arial,sans-serif;fill:#F4F8FF}
    [data-style="accent-blueprint"] .table-cell-secondary{font:500 17px IBM Plex Sans,Inter,Roboto Condensed,DIN,Segoe UI,Aptos,Arial,sans-serif;fill:#C9DAF5}
    [data-style="accent-blueprint"] .tree-level-label{font:700 15px IBM Plex Mono,JetBrains Mono,Consolas,monospace;fill:#C9DAF5;letter-spacing:.08em;text-transform:uppercase}
    [data-style="accent-blueprint"] .hub-label{font:700 15px IBM Plex Mono,JetBrains Mono,Consolas,monospace;fill:#C9DAF5;letter-spacing:.08em;text-transform:uppercase}
    [data-style="accent-blueprint"] .icon-line{fill:none;stroke-width:1.3;stroke-linecap:round;stroke-linejoin:round}
  </style>
</defs>
<rect x="0" y="0" width="1700" height="891" rx="0" fill="#062B5F"/>
<rect x="0" y="0" width="1700" height="891" rx="0" fill="url(#blueprint-grid)" opacity="1"/>
<text x="850.0" y="54" text-anchor="middle" class="title">Hub Spoke Stress</text>
<text x="850.0" y="80" text-anchor="middle" class="subtitle">Stress contract with many spokes and mixed semantics</text>
<circle cx="850.0" cy="471" r="138.0" fill="none" stroke="#16D9FF" stroke-opacity="0.16" stroke-width="1.4"/>
<path d="M 752.49 404.55 L 445.0 195.0" class="edge hub-spoke-link" marker-end="url(#arrow)"/>
<path d="M 738.31 432.94 L 445.0 333.0" class="edge hub-spoke-link" marker-end="url(#arrow)"/>
<path d="M 732.0 471.0 L 445.0 471.0" class="edge hub-spoke-link" marker-end="url(#arrow)"/>
<path d="M 738.31 509.06 L 445.0 609.0" class="edge hub-spoke-link" marker-end="url(#arrow)"/>
<path d="M 752.49 537.45 L 445.0 747.0" class="edge hub-spoke-link" marker-end="url(#arrow)"/>
<path d="M 947.51 404.55 L 1255.0 195.0" class="edge hub-spoke-link" marker-end="url(#arrow)"/>
<path d="M 961.69 432.94 L 1255.0 333.0" class="edge hub-spoke-link" marker-end="url(#arrow)"/>
<path d="M 968.0 471.0 L 1255.0 471.0" class="edge hub-spoke-link" marker-end="url(#arrow)"/>
<path d="M 961.69 509.06 L 1255.0 609.0" class="edge edge-dashed hub-spoke-link" marker-end="url(#arrow)"/>
<path d="M 947.51 537.45 L 1255.0 747.0" class="edge hub-spoke-link" marker-end="url(#arrow)"/>
<g id="node-hub" class="hub-core card"><rect x="732.0" y="353.0" width="236.0" height="236.0" fill="none" stroke="none"/><circle cx="850.0" cy="471" r="118.0" fill="#FFFFFF" fill-opacity="0.03" stroke="#16D9FF" stroke-width="3.2"/><circle cx="850.0" cy="471" r="106.0" fill="none" stroke="#16D9FF" stroke-opacity="0.32" stroke-width="1.3"/><text x="850.0" y="448.0" text-anchor="middle" class="card-title" style="font-size:23.8px">Knowledge</text><text x="850.0" y="473.76" text-anchor="middle" class="card-title" style="font-size:23.8px">Integration Hub</text><text x="850.0" y="499.76" text-anchor="middle" class="card-sub" style="font-size:16px">routing +</text><text x="850.0" y="517.76" text-anchor="middle" class="card-sub" style="font-size:16px">orchestration + mon...</text></g>
<g id="node-portal" class="hub-spoke-node spoke-block card"><rect x="165" y="143.0" width="280.0" height="104.0" rx="6.0" fill="#FFFFFF" fill-opacity="0.03" stroke="#16D9FF" stroke-width="1.4"/><rect x="189" y="185.0" width="18" height="20" rx="3" fill="none" stroke="#16D9FF" stroke-width="1.2"/><path d="M193,191.0 H203 M193,196.0 H203 M193,201.0 H200" class="icon-line" stroke="#16D9FF"/><text x="231" y="194.0" text-anchor="start" class="card-title" style="font-size:20.5px">Knowledge Portal</text><text x="231" y="216.5" text-anchor="start" class="card-sub" style="font-size:15.5px">entry point</text></g>
<g id="node-domain" class="hub-spoke-node spoke-block card"><rect x="165" y="281.0" width="280.0" height="104.0" rx="6.0" fill="#FFFFFF" fill-opacity="0.03" stroke="#16D9FF" stroke-width="1.4"/><rect x="189" y="326.0" width="20" height="16" rx="3" fill="none" stroke="#16D9FF" stroke-width="1.2"/><path d="M189,331.0 H209 M199,326.0 V342.0" class="icon-line" stroke="#16D9FF"/><text x="231" y="332.0" text-anchor="start" class="card-title" style="font-size:20.5px">Domain Maps</text><text x="231" y="354.5" text-anchor="start" class="card-sub" style="font-size:15.5px">systems + ownership</text></g>
<g id="node-registry" class="hub-spoke-node spoke-block card"><rect x="165" y="419.0" width="280.0" height="104.0" rx="6.0" fill="#FFFFFF" fill-opacity="0.03" stroke="#FFD84D" stroke-width="1.4"/><path d="M199,461.0 L209,479.0 H189 Z" fill="none" stroke="#FFD84D" stroke-width="1.2"/><path d="M199,468.0 V474.0 M199,478.0 V478.0" class="icon-line" stroke="#FFD84D"/><text x="231" y="458.75" text-anchor="start" class="card-title" style="font-size:20.5px">Semantic</text><text x="231" y="481.25" text-anchor="start" class="card-title" style="font-size:20.5px">Registers</text><text x="231" y="503.75" text-anchor="start" class="card-sub" style="font-size:15.5px">terms + parameters</text></g>
<g id="node-taxonomy" class="hub-spoke-node spoke-block card"><rect x="165" y="557.0" width="280.0" height="104.0" rx="6.0" fill="#FFFFFF" fill-opacity="0.03" stroke="#FFD84D" stroke-width="1.4"/><path d="M199,599.0 L208,604.0 V614.0 L199,619.0 L190,614.0 V604.0 Z" fill="none" stroke="#FFD84D" stroke-width="1.2"/><path d="M195,609.0 L198,613.0 L204,605.0" class="icon-line" stroke="#FFD84D"/><text x="231" y="608.0" text-anchor="start" class="card-title" style="font-size:20.5px">Risk Taxonomy</text><text x="231" y="630.5" text-anchor="start" class="card-sub" style="font-size:15.5px">constraints</text></g>
<g id="node-analytics" class="hub-spoke-node spoke-block card"><rect x="165" y="695.0" width="280.0" height="104.0" rx="6.0" fill="#FFFFFF" fill-opacity="0.03" stroke="#16D9FF" stroke-width="1.4"/><circle cx="197" cy="745.0" r="7" fill="none" stroke="#16D9FF" stroke-width="1.2"/><path d="M203,751.0 L209,757.0" class="icon-line" stroke="#16D9FF"/><text x="231" y="746.0" text-anchor="start" class="card-title" style="font-size:20.5px">Analytics Views</text><text x="231" y="768.5" text-anchor="start" class="card-sub" style="font-size:15.5px">decision support</text></g>
<g id="node-packages" class="hub-spoke-node spoke-block card"><rect x="1255.0" y="143.0" width="280.0" height="104.0" rx="6.0" fill="#FFFFFF" fill-opacity="0.03" stroke="#6EE66E" stroke-width="1.4"/><rect x="1279.0" y="188.0" width="20" height="16" rx="3" fill="none" stroke="#6EE66E" stroke-width="1.2"/><path d="M1279.0,193.0 H1299.0 M1289.0,188.0 V204.0" class="icon-line" stroke="#6EE66E"/><text x="1321.0" y="182.75" text-anchor="start" class="card-title" style="font-size:20.5px">Knowledge</text><text x="1321.0" y="205.25" text-anchor="start" class="card-title" style="font-size:20.5px">Packages</text><text x="1321.0" y="227.75" text-anchor="start" class="card-sub" style="font-size:15.5px">approved modules</text></g>
<g id="node-sources" class="hub-spoke-node spoke-block card"><rect x="1255.0" y="281.0" width="280.0" height="104.0" rx="6.0" fill="#FFFFFF" fill-opacity="0.03" stroke="#F4F8FF" stroke-width="1.4"/><path d="M1279.0,323.0 H1293.0 L1299.0,329.0 V343.0 H1279.0 Z" fill="none" stroke="#F4F8FF" stroke-width="1.2"/><path d="M1293.0,323.0 V329.0 H1299.0" class="icon-line" stroke="#F4F8FF"/><text x="1321.0" y="320.75" text-anchor="start" class="card-title" style="font-size:20.5px">Controlled</text><text x="1321.0" y="343.25" text-anchor="start" class="card-title" style="font-size:20.5px">Sources</text><text x="1321.0" y="365.75" text-anchor="start" class="card-sub" style="font-size:15.5px">authority</text></g>
<g id="node-governance" class="hub-spoke-node spoke-block card"><rect x="1255.0" y="419.0" width="280.0" height="104.0" rx="6.0" fill="#FFFFFF" fill-opacity="0.03" stroke="#FFD84D" stroke-width="1.4"/><path d="M1289.0,461.0 L1299.0,479.0 H1279.0 Z" fill="none" stroke="#FFD84D" stroke-width="1.2"/><path d="M1289.0,468.0 V474.0 M1289.0,478.0 V478.0" class="icon-line" stroke="#FFD84D"/><text x="1321.0" y="470.0" text-anchor="start" class="card-title" style="font-size:20.5px">Governance Rules</text><text x="1321.0" y="492.5" text-anchor="start" class="card-sub" style="font-size:15.5px">ownership + approvals</text></g>
<g id="node-external" class="hub-spoke-node spoke-block card"><rect x="1255.0" y="557.0" width="280.0" height="104.0" rx="6.0" fill="#FFFFFF" fill-opacity="0.03" stroke="#B56CFF" stroke-width="1.4"/><path d="M1279.0,599.0 H1295.0 Q1299.0,599.0 1299.0,603.0 V618.0 H1279.0 Z" fill="none" stroke="#B56CFF" stroke-width="1.2"/><path d="M1284.0,605.0 H1293.0 M1284.0,611.0 H1293.0" class="icon-line" stroke="#B56CFF"/><text x="1321.0" y="608.0" text-anchor="start" class="card-title" style="font-size:20.5px">External Systems</text><text x="1321.0" y="630.5" text-anchor="start" class="card-sub" style="font-size:15.5px">optional links</text></g>
<g id="node-monitoring" class="hub-spoke-node spoke-block card"><rect x="1255.0" y="695.0" width="280.0" height="104.0" rx="6.0" fill="#FFFFFF" fill-opacity="0.03" stroke="#FF9F2E" stroke-width="1.4"/><circle cx="1283.0" cy="748.0" r="4" fill="none" stroke="#FF9F2E" stroke-width="1.6"/><circle cx="1297.0" cy="741.0" r="4" fill="none" stroke="#FF9F2E" stroke-width="1.6"/><circle cx="1297.0" cy="755.0" r="4" fill="none" stroke="#FF9F2E" stroke-width="1.6"/><path d="M1287.0,748.0 H1291.0 M1293.0,744.0 L1291.0,748.0 L1293.0,752.0" class="icon-line" stroke="#FF9F2E"/><text x="1321.0" y="734.75" text-anchor="start" class="card-title" style="font-size:20.5px">Monitoring and</text><text x="1321.0" y="757.25" text-anchor="start" class="card-title" style="font-size:20.5px">Logging</text><text x="1321.0" y="779.75" text-anchor="start" class="card-sub" style="font-size:15.5px">health signals</text></g>
<text x="850.0" y="863" text-anchor="middle" class="note">Stress template: many spokes should remain legible and use a compact content-driven canvas.</text>
</svg>
