<svg xmlns="http://www.w3.org/2000/svg" width="1850" height="1360" viewBox="0 0 1850 1360" role="img" aria-label="Ontology Map Stress" data-style="accent-blueprint" data-diagram-type="ontology_map">
<defs>
  <pattern id="blueprint-grid-small" width="12" height="12" patternUnits="userSpaceOnUse"><path d="M 12 0 H 0 V 12" fill="none" stroke="#FFFFFF" stroke-opacity="0.08" stroke-width="0.7"/></pattern>
  <pattern id="blueprint-grid" width="60" height="60" patternUnits="userSpaceOnUse"><rect width="60" height="60" fill="url(#blueprint-grid-small)"/><path d="M 60 0 H 0 V 60" fill="none" stroke="#FFFFFF" stroke-opacity="0.14" stroke-width="1"/> </pattern>
  <marker id="arrow" markerWidth="10" markerHeight="10" refX="8.5" refY="3" orient="auto" markerUnits="strokeWidth"><path d="M0,0 L0,6 L9,3 z" fill="context-stroke"/></marker>
  <marker id="arrow-fanout" markerWidth="10" markerHeight="10" refX="8.5" refY="3" orient="auto" markerUnits="strokeWidth"><path d="M0,0 L0,6 L9,3 z" fill="context-stroke"/></marker>
  <marker id="arrow-fanin" markerWidth="10" markerHeight="10" refX="8.5" refY="3" orient="auto" markerUnits="strokeWidth"><path d="M0,0 L0,6 L9,3 z" fill="context-stroke"/></marker>
  <style>
    [data-style="accent-blueprint"] .title{font:700 27px IBM Plex Mono,JetBrains Mono,Consolas,monospace;fill:#F4F8FF;letter-spacing:.04em;text-transform:uppercase}
    [data-style="accent-blueprint"] .subtitle{font:400 13px IBM Plex Sans,Inter,Roboto Condensed,DIN,Segoe UI,Aptos,Arial,sans-serif;fill:#C9DAF5}
    [data-style="accent-blueprint"] .group-label{font:700 15px IBM Plex Mono,JetBrains Mono,Consolas,monospace;fill:#C9DAF5;letter-spacing:.08em;text-transform:uppercase}
    [data-style="accent-blueprint"] .card-title{font:700 17px IBM Plex Sans,Inter,Roboto Condensed,DIN,Segoe UI,Aptos,Arial,sans-serif;fill:#F4F8FF}
    [data-style="accent-blueprint"] .card-sub{font:500 13px IBM Plex Sans,Inter,Roboto Condensed,DIN,Segoe UI,Aptos,Arial,sans-serif;fill:#C9DAF5}
    [data-style="accent-blueprint"] .edge{fill:none;stroke:#F4F8FF;stroke-width:1.5;stroke-linecap:round;stroke-linejoin:round;opacity:0.88}
    [data-style="accent-blueprint"] .fanout{stroke:#FF9F2E;opacity:0.9}
    [data-style="accent-blueprint"] .fanin{stroke:#6EE66E;opacity:0.9}
    [data-style="accent-blueprint"] .route-shared{marker-end:none}
    [data-style="accent-blueprint"] .edge-dashed{stroke-dasharray:6 5;opacity:0.68}
    [data-style="accent-blueprint"] .note{font:500 14px IBM Plex Sans,Inter,Roboto Condensed,DIN,Segoe UI,Aptos,Arial,sans-serif;fill:#C9DAF5}
    [data-style="accent-blueprint"] .mono{font-family:IBM Plex Mono,JetBrains Mono,Consolas,monospace}
    [data-style="accent-blueprint"] .table-header{font:700 15.5px IBM Plex Mono,JetBrains Mono,Consolas,monospace;fill:#F4F8FF;letter-spacing:.08em;text-transform:uppercase}
    [data-style="accent-blueprint"] .table-cell{font:500 17px IBM Plex Sans,Inter,Roboto Condensed,DIN,Segoe UI,Aptos,Arial,sans-serif;fill:#F4F8FF}
    [data-style="accent-blueprint"] .table-cell-secondary{font:500 17px IBM Plex Sans,Inter,Roboto Condensed,DIN,Segoe UI,Aptos,Arial,sans-serif;fill:#C9DAF5}
    [data-style="accent-blueprint"] .info-panel-title{font:700 15px IBM Plex Mono,JetBrains Mono,Consolas,monospace;fill:#F4F8FF;letter-spacing:.08em;text-transform:uppercase}
    [data-style="accent-blueprint"] .info-panel-item{font:500 14px IBM Plex Sans,Inter,Roboto Condensed,DIN,Segoe UI,Aptos,Arial,sans-serif;fill:#C9DAF5}
    [data-style="accent-blueprint"] .tree-level-label{font:700 15px IBM Plex Mono,JetBrains Mono,Consolas,monospace;fill:#C9DAF5;letter-spacing:.08em;text-transform:uppercase}
    [data-style="accent-blueprint"] .hub-label{font:700 15px IBM Plex Mono,JetBrains Mono,Consolas,monospace;fill:#C9DAF5;letter-spacing:.08em;text-transform:uppercase}
    [data-style="accent-blueprint"] .icon-line{fill:none;stroke-width:1.3;stroke-linecap:round;stroke-linejoin:round}
  </style>
</defs>
<rect x="0" y="0" width="1850" height="1360" rx="0" fill="#062B5F"/>
<rect x="0" y="0" width="1850" height="1360" rx="0" fill="url(#blueprint-grid)" opacity="1"/>
<text x="925.0" y="54" text-anchor="middle" class="title">Ontology Map Stress</text>
<text x="925.0" y="80" text-anchor="middle" class="subtitle">Dense ontology map with multiple concept rows, relationship diamonds, instances, and bottom governance panels</text>
<path d="M 425.0 194.0 L 467.0 194.0" class="edge object-relationship-link ontology-relationship-link" style="stroke:#F4F8FF;opacity:0.9" data-route="axis" data-link-end="from" data-card-anchor="right" data-diamond-anchor="left" data-relationship="places" data-from="customer" data-to="order"/>
<path d="M 563.0 194.0 L 605.0 194.0" class="edge object-relationship-link ontology-relationship-link" style="stroke:#F4F8FF;opacity:0.9" data-route="axis" data-link-end="to" data-card-anchor="left" data-diamond-anchor="right" data-relationship="places" data-from="customer" data-to="order"/>
<path d="M 835.0 194.0 L 877.0 194.0" class="edge object-relationship-link ontology-relationship-link" style="stroke:#F4F8FF;opacity:0.9" data-route="axis" data-link-end="from" data-card-anchor="right" data-diamond-anchor="left" data-relationship="contains" data-from="order" data-to="product"/>
<path d="M 973.0 194.0 L 1015.0 194.0" class="edge object-relationship-link ontology-relationship-link" style="stroke:#F4F8FF;opacity:0.9" data-route="axis" data-link-end="to" data-card-anchor="left" data-diamond-anchor="right" data-relationship="contains" data-from="order" data-to="product"/>
<path d="M 1245.0 194.0 L 1287.0 194.0" class="edge object-relationship-link ontology-relationship-link" style="stroke:#F4F8FF;opacity:0.9" data-route="axis" data-link-end="from" data-card-anchor="right" data-diamond-anchor="left" data-relationship="stored_at" data-from="product" data-to="location"/>
<path d="M 1383.0 194.0 L 1425.0 194.0" class="edge object-relationship-link ontology-relationship-link" style="stroke:#F4F8FF;opacity:0.9" data-route="axis" data-link-end="to" data-card-anchor="left" data-diamond-anchor="right" data-relationship="stored_at" data-from="product" data-to="location"/>
<path d="M 1130.0 270.0 L 1130.0 277.25 Q 1130.0 284.5 1122.75 284.5 L 734.0 284.5 Q 720.0 284.5 720.0 298.5 L 720.0 347.0" class="edge object-relationship-link ontology-relationship-link" style="stroke:#F4F8FF;opacity:0.9" data-route="orthogonal" data-link-end="from" data-card-anchor="bottom" data-diamond-anchor="top" data-relationship="supplied_by" data-from="product" data-to="supplier"/>
<path d="M 720.0 393.0 L 720.0 400.25 Q 720.0 407.5 712.75 407.5 L 324.0 407.5 Q 310.0 407.5 310.0 421.5 L 310.0 470.0" class="edge object-relationship-link ontology-relationship-link" style="stroke:#F4F8FF;opacity:0.9" data-route="orthogonal" data-link-end="to" data-card-anchor="top" data-diamond-anchor="bottom" data-relationship="supplied_by" data-from="product" data-to="supplier"/>
<path d="M 720.0 270.0 L 720.0 294.5 Q 720.0 308.5 734.0 308.5 L 911.0 308.5 Q 925.0 308.5 925.0 322.5 L 925.0 347.0" class="edge object-relationship-link ontology-relationship-link" style="stroke:#F4F8FF;opacity:0.9" data-route="orthogonal" data-link-end="from" data-card-anchor="bottom" data-diamond-anchor="top" data-relationship="constrained_by" data-from="order" data-to="risk"/>
<path d="M 925.0 393.0 L 925.0 417.5 Q 925.0 431.5 911.0 431.5 L 734.0 431.5 Q 720.0 431.5 720.0 445.5 L 720.0 470.0" class="edge object-relationship-link ontology-relationship-link" style="stroke:#F4F8FF;opacity:0.9" data-route="orthogonal" data-link-end="to" data-card-anchor="top" data-diamond-anchor="bottom" data-relationship="constrained_by" data-from="order" data-to="risk"/>
<path d="M 720.0 270.0 L 720.0 318.5 Q 720.0 332.5 734.0 332.5 L 1122.75 332.5 Q 1130.0 332.5 1130.0 339.75 L 1130.0 347.0" class="edge object-relationship-link ontology-relationship-link" style="stroke:#F4F8FF;opacity:0.9" data-route="orthogonal" data-link-end="from" data-card-anchor="bottom" data-diamond-anchor="top" data-relationship="proved_by" data-from="order" data-to="evidence"/>
<path d="M 1130.0 393.0 L 1130.0 470.0" class="edge object-relationship-link ontology-relationship-link" style="stroke:#F4F8FF;opacity:0.9" data-route="axis" data-link-end="to" data-card-anchor="top" data-diamond-anchor="bottom" data-relationship="proved_by" data-from="order" data-to="evidence"/>
<path d="M 720.0 622.0 L 720.0 642.0 Q 720.0 656.0 734.0 656.0 L 1426.0 656.0 Q 1428.0 656.0 1428.0 658.0 L 1428.0 658.0 Q 1428.0 660.0 1430.0 660.0 L 1462.0 660.0" class="edge object-relationship-link ontology-relationship-link" style="stroke:#F4F8FF;opacity:0.9" data-route="orthogonal" data-link-end="from" data-card-anchor="bottom" data-diamond-anchor="left" data-relationship="governed_by" data-from="risk" data-to="policy"/>
<path d="M 1558.0 660.0 L 1567.0 660.0 Q 1576.0 660.0 1576.0 651.0 L 1576.0 650.0 Q 1576.0 640.0 1566.0 640.0 L 1549.0 640.0 Q 1540.0 640.0 1540.0 631.0 L 1540.0 622.0" class="edge object-relationship-link ontology-relationship-link" style="stroke:#F4F8FF;opacity:0.9" data-route="orthogonal" data-link-end="to" data-card-anchor="bottom" data-diamond-anchor="right" data-relationship="governed_by" data-from="risk" data-to="policy"/>
<path d="M 1245.0 546.0 L 1287.0 546.0" class="edge object-relationship-link ontology-relationship-link" style="stroke:#F4F8FF;opacity:0.9" stroke-dasharray="6 5" data-route="axis" data-link-end="from" data-card-anchor="right" data-diamond-anchor="left" data-relationship="reviewed_by" data-from="evidence" data-to="policy"/>
<path d="M 1383.0 546.0 L 1425.0 546.0" class="edge object-relationship-link ontology-relationship-link" style="stroke:#F4F8FF;opacity:0.9" stroke-dasharray="6 5" data-route="axis" data-link-end="to" data-card-anchor="left" data-diamond-anchor="right" data-relationship="reviewed_by" data-from="evidence" data-to="policy"/>
<path d="M 285.0 270.0 L 285.0 273.0 Q 285.0 276.0 282.0 276.0 L 133.0 276.0 Q 119.0 276.0 119.0 290.0 L 119.0 746.0 Q 119.0 760.0 133.0 760.0 L 271.0 760.0 Q 285.0 760.0 285.0 774.0 L 285.0 822.0" class="edge ontology-instance-link" style="stroke:#6EE66E;opacity:0.78" stroke-dasharray="6 5" data-from="customer" data-to="customer_acme"/>
<path d="M 403.0 270.0 L 403.0 318.0 Q 403.0 332.0 417.0 332.0 L 1717.0 332.0 Q 1731.0 332.0 1731.0 346.0 L 1731.0 890.0 Q 1731.0 904.0 1717.0 904.0 L 600.0 904.0 Q 597.0 904.0 597.0 907.0 L 597.0 910.0" class="edge ontology-instance-link" style="stroke:#6EE66E;opacity:0.78" stroke-dasharray="6 5" data-from="customer" data-to="customer_beta"/>
<path d="M 695.0 270.0 L 695.0 281.5 Q 695.0 293.0 683.5 293.0 L 150.0 293.0 Q 136.0 293.0 136.0 307.0 L 136.0 763.0 Q 136.0 777.0 150.0 777.0 L 681.0 777.0 Q 695.0 777.0 695.0 791.0 L 695.0 822.0" class="edge ontology-instance-link" style="stroke:#6EE66E;opacity:0.78" stroke-dasharray="6 5" data-from="order" data-to="order_1001"/>
<path d="M 1105.0 270.0 L 1105.0 274.0 Q 1105.0 278.0 1101.0 278.0 L 135.0 278.0 Q 121.0 278.0 121.0 292.0 L 121.0 748.0 Q 121.0 762.0 135.0 762.0 L 1091.0 762.0 Q 1105.0 762.0 1105.0 776.0 L 1105.0 822.0" class="edge ontology-instance-link" style="stroke:#6EE66E;opacity:0.78" stroke-dasharray="6 5" data-from="product" data-to="sku_a12"/>
<path d="M 1223.0 270.0 L 1223.0 316.0 Q 1223.0 330.0 1237.0 330.0 L 1715.0 330.0 Q 1729.0 330.0 1729.0 344.0 L 1729.0 888.0 Q 1729.0 902.0 1715.0 902.0 L 1411.0 902.0 Q 1407.0 902.0 1407.0 906.0 L 1407.0 910.0" class="edge ontology-instance-link" style="stroke:#6EE66E;opacity:0.78" stroke-dasharray="6 5" data-from="product" data-to="sku_b44"/>
<path d="M 1425.0 546.0 L 1405.0 546.0 Q 1391.0 546.0 1391.0 560.0 L 1391.0 774.0 Q 1391.0 788.0 1405.0 788.0 L 1433.0 788.0 Q 1447.0 788.0 1447.0 802.0 L 1447.0 822.0" class="edge ontology-instance-link" style="stroke:#6EE66E;opacity:0.78" stroke-dasharray="6 5" data-from="policy" data-to="policy_qms"/>
<g id="concept-customer" class="ontology-concept-card card" data-kind="ontology"><rect x="195.0" y="118.0" width="230.0" height="152.0" rx="6.0" fill="#FFFFFF" fill-opacity="0.03" stroke="#16D9FF" stroke-width="1.3"/><rect x="195.0" y="118.0" width="230.0" height="40.0" rx="6.0" fill="#FFFFFF" fill-opacity="0.0036"/><text x="310.0" y="144.48" text-anchor="middle" class="card-title ontology-concept-title" style="font-size:19.4px">Customer</text><line x1="195.0" y1="158.0" x2="425.0" y2="158.0" stroke="#16D9FF" stroke-opacity="0.62" stroke-width="1"/><text x="211.0" y="175.36" class="ontology-attr" style="font-size:14.6px;fill:#F4F8FF">customerId</text><text x="411.0" y="175.36" text-anchor="end" class="ontology-datatype" style="font-size:14.6px;fill:#C9DAF5">PK</text><line x1="195.0" y1="183.0" x2="425.0" y2="183.0" stroke="#16D9FF" stroke-opacity="0.25" stroke-width="1"/><text x="211.0" y="200.36" class="ontology-attr" style="font-size:14.6px;fill:#F4F8FF">name</text><text x="411.0" y="200.36" text-anchor="end" class="ontology-datatype" style="font-size:14.6px;fill:#C9DAF5">text</text><line x1="195.0" y1="208.0" x2="425.0" y2="208.0" stroke="#16D9FF" stroke-opacity="0.25" stroke-width="1"/><text x="211.0" y="225.36" class="ontology-attr" style="font-size:14.6px;fill:#F4F8FF">segment</text><text x="411.0" y="225.36" text-anchor="end" class="ontology-datatype" style="font-size:14.6px;fill:#C9DAF5">enum</text><line x1="195.0" y1="233.0" x2="425.0" y2="233.0" stroke="#16D9FF" stroke-opacity="0.25" stroke-width="1"/><text x="211.0" y="250.36" class="ontology-attr" style="font-size:14.6px;fill:#F4F8FF">status</text><text x="411.0" y="250.36" text-anchor="end" class="ontology-datatype" style="font-size:14.6px;fill:#C9DAF5">state</text></g>
<g id="concept-order" class="ontology-concept-card card" data-kind="ontology"><rect x="605.0" y="118.0" width="230.0" height="152.0" rx="6.0" fill="#FFFFFF" fill-opacity="0.03" stroke="#16D9FF" stroke-width="1.3"/><rect x="605.0" y="118.0" width="230.0" height="40.0" rx="6.0" fill="#FFFFFF" fill-opacity="0.0036"/><text x="720.0" y="144.48" text-anchor="middle" class="card-title ontology-concept-title" style="font-size:19.4px">Order</text><line x1="605.0" y1="158.0" x2="835.0" y2="158.0" stroke="#16D9FF" stroke-opacity="0.62" stroke-width="1"/><text x="621.0" y="175.36" class="ontology-attr" style="font-size:14.6px;fill:#F4F8FF">orderId</text><text x="821.0" y="175.36" text-anchor="end" class="ontology-datatype" style="font-size:14.6px;fill:#C9DAF5">PK</text><line x1="605.0" y1="183.0" x2="835.0" y2="183.0" stroke="#16D9FF" stroke-opacity="0.25" stroke-width="1"/><text x="621.0" y="200.36" class="ontology-attr" style="font-size:14.6px;fill:#F4F8FF">orderDate</text><text x="821.0" y="200.36" text-anchor="end" class="ontology-datatype" style="font-size:14.6px;fill:#C9DAF5">date</text><line x1="605.0" y1="208.0" x2="835.0" y2="208.0" stroke="#16D9FF" stroke-opacity="0.25" stroke-width="1"/><text x="621.0" y="225.36" class="ontology-attr" style="font-size:14.6px;fill:#F4F8FF">status</text><text x="821.0" y="225.36" text-anchor="end" class="ontology-datatype" style="font-size:14.6px;fill:#C9DAF5">state</text><line x1="605.0" y1="233.0" x2="835.0" y2="233.0" stroke="#16D9FF" stroke-opacity="0.25" stroke-width="1"/><text x="621.0" y="250.36" class="ontology-attr" style="font-size:14.6px;fill:#F4F8FF">amount</text><text x="821.0" y="250.36" text-anchor="end" class="ontology-datatype" style="font-size:14.6px;fill:#C9DAF5">decimal</text></g>
<g id="concept-product" class="ontology-concept-card card" data-kind="ontology"><rect x="1015.0" y="118.0" width="230.0" height="152.0" rx="6.0" fill="#FFFFFF" fill-opacity="0.03" stroke="#16D9FF" stroke-width="1.3"/><rect x="1015.0" y="118.0" width="230.0" height="40.0" rx="6.0" fill="#FFFFFF" fill-opacity="0.0036"/><text x="1130.0" y="144.48" text-anchor="middle" class="card-title ontology-concept-title" style="font-size:19.4px">Product</text><line x1="1015.0" y1="158.0" x2="1245.0" y2="158.0" stroke="#16D9FF" stroke-opacity="0.62" stroke-width="1"/><text x="1031.0" y="175.36" class="ontology-attr" style="font-size:14.6px;fill:#F4F8FF">productId</text><text x="1231.0" y="175.36" text-anchor="end" class="ontology-datatype" style="font-size:14.6px;fill:#C9DAF5">PK</text><line x1="1015.0" y1="183.0" x2="1245.0" y2="183.0" stroke="#16D9FF" stroke-opacity="0.25" stroke-width="1"/><text x="1031.0" y="200.36" class="ontology-attr" style="font-size:14.6px;fill:#F4F8FF">name</text><text x="1231.0" y="200.36" text-anchor="end" class="ontology-datatype" style="font-size:14.6px;fill:#C9DAF5">text</text><line x1="1015.0" y1="208.0" x2="1245.0" y2="208.0" stroke="#16D9FF" stroke-opacity="0.25" stroke-width="1"/><text x="1031.0" y="225.36" class="ontology-attr" style="font-size:14.6px;fill:#F4F8FF">sku</text><text x="1231.0" y="225.36" text-anchor="end" class="ontology-datatype" style="font-size:14.6px;fill:#C9DAF5">code</text><line x1="1015.0" y1="233.0" x2="1245.0" y2="233.0" stroke="#16D9FF" stroke-opacity="0.25" stroke-width="1"/><text x="1031.0" y="250.36" class="ontology-attr" style="font-size:14.6px;fill:#F4F8FF">category</text><text x="1231.0" y="250.36" text-anchor="end" class="ontology-datatype" style="font-size:14.6px;fill:#C9DAF5">term</text></g>
<g id="concept-location" class="ontology-concept-card card" data-kind="source"><rect x="1425.0" y="118.0" width="230.0" height="152.0" rx="6.0" fill="#FFFFFF" fill-opacity="0.03" stroke="#16D9FF" stroke-width="1.3"/><rect x="1425.0" y="118.0" width="230.0" height="40.0" rx="6.0" fill="#FFFFFF" fill-opacity="0.0036"/><text x="1540.0" y="144.48" text-anchor="middle" class="card-title ontology-concept-title" style="font-size:19.4px">Location</text><line x1="1425.0" y1="158.0" x2="1655.0" y2="158.0" stroke="#16D9FF" stroke-opacity="0.62" stroke-width="1"/><text x="1441.0" y="175.36" class="ontology-attr" style="font-size:14.6px;fill:#F4F8FF">locationId</text><text x="1641.0" y="175.36" text-anchor="end" class="ontology-datatype" style="font-size:14.6px;fill:#C9DAF5">PK</text><line x1="1425.0" y1="183.0" x2="1655.0" y2="183.0" stroke="#16D9FF" stroke-opacity="0.25" stroke-width="1"/><text x="1441.0" y="200.36" class="ontology-attr" style="font-size:14.6px;fill:#F4F8FF">site</text><text x="1641.0" y="200.36" text-anchor="end" class="ontology-datatype" style="font-size:14.6px;fill:#C9DAF5">text</text><line x1="1425.0" y1="208.0" x2="1655.0" y2="208.0" stroke="#16D9FF" stroke-opacity="0.25" stroke-width="1"/><text x="1441.0" y="225.36" class="ontology-attr" style="font-size:14.6px;fill:#F4F8FF">region</text><text x="1641.0" y="225.36" text-anchor="end" class="ontology-datatype" style="font-size:14.6px;fill:#C9DAF5">term</text><line x1="1425.0" y1="233.0" x2="1655.0" y2="233.0" stroke="#16D9FF" stroke-opacity="0.25" stroke-width="1"/><text x="1441.0" y="250.36" class="ontology-attr" style="font-size:14.6px;fill:#F4F8FF">timezone</text><text x="1641.0" y="250.36" text-anchor="end" class="ontology-datatype" style="font-size:14.6px;fill:#C9DAF5">code</text></g>
<g id="concept-supplier" class="ontology-concept-card card" data-kind="source"><rect x="195.0" y="470.0" width="230.0" height="152.0" rx="6.0" fill="#FFFFFF" fill-opacity="0.03" stroke="#B56CFF" stroke-width="1.3"/><rect x="195.0" y="470.0" width="230.0" height="40.0" rx="6.0" fill="#FFFFFF" fill-opacity="0.0036"/><text x="310.0" y="496.48" text-anchor="middle" class="card-title ontology-concept-title" style="font-size:19.4px">Supplier</text><line x1="195.0" y1="510.0" x2="425.0" y2="510.0" stroke="#B56CFF" stroke-opacity="0.62" stroke-width="1"/><text x="211.0" y="527.36" class="ontology-attr" style="font-size:14.6px;fill:#F4F8FF">supplierId</text><text x="411.0" y="527.36" text-anchor="end" class="ontology-datatype" style="font-size:14.6px;fill:#C9DAF5">PK</text><line x1="195.0" y1="535.0" x2="425.0" y2="535.0" stroke="#B56CFF" stroke-opacity="0.25" stroke-width="1"/><text x="211.0" y="552.36" class="ontology-attr" style="font-size:14.6px;fill:#F4F8FF">name</text><text x="411.0" y="552.36" text-anchor="end" class="ontology-datatype" style="font-size:14.6px;fill:#C9DAF5">text</text><line x1="195.0" y1="560.0" x2="425.0" y2="560.0" stroke="#B56CFF" stroke-opacity="0.25" stroke-width="1"/><text x="211.0" y="577.36" class="ontology-attr" style="font-size:14.6px;fill:#F4F8FF">tier</text><text x="411.0" y="577.36" text-anchor="end" class="ontology-datatype" style="font-size:14.6px;fill:#C9DAF5">enum</text><line x1="195.0" y1="585.0" x2="425.0" y2="585.0" stroke="#B56CFF" stroke-opacity="0.25" stroke-width="1"/><text x="211.0" y="602.36" class="ontology-attr" style="font-size:14.6px;fill:#F4F8FF">status</text><text x="411.0" y="602.36" text-anchor="end" class="ontology-datatype" style="font-size:14.6px;fill:#C9DAF5">state</text></g>
<g id="concept-risk" class="ontology-concept-card card" data-kind="risk"><rect x="605.0" y="470.0" width="230.0" height="152.0" rx="6.0" fill="#FFFFFF" fill-opacity="0.03" stroke="#FFD84D" stroke-width="1.3"/><rect x="605.0" y="470.0" width="230.0" height="40.0" rx="6.0" fill="#FFFFFF" fill-opacity="0.0036"/><text x="720.0" y="496.48" text-anchor="middle" class="card-title ontology-concept-title" style="font-size:19.4px">Risk Constraint</text><line x1="605.0" y1="510.0" x2="835.0" y2="510.0" stroke="#FFD84D" stroke-opacity="0.62" stroke-width="1"/><text x="621.0" y="527.36" class="ontology-attr" style="font-size:14.6px;fill:#F4F8FF">riskId</text><text x="821.0" y="527.36" text-anchor="end" class="ontology-datatype" style="font-size:14.6px;fill:#C9DAF5">PK</text><line x1="605.0" y1="535.0" x2="835.0" y2="535.0" stroke="#FFD84D" stroke-opacity="0.25" stroke-width="1"/><text x="621.0" y="552.36" class="ontology-attr" style="font-size:14.6px;fill:#F4F8FF">severity</text><text x="821.0" y="552.36" text-anchor="end" class="ontology-datatype" style="font-size:14.6px;fill:#C9DAF5">enum</text><line x1="605.0" y1="560.0" x2="835.0" y2="560.0" stroke="#FFD84D" stroke-opacity="0.25" stroke-width="1"/><text x="621.0" y="577.36" class="ontology-attr" style="font-size:14.6px;fill:#F4F8FF">owner</text><text x="821.0" y="577.36" text-anchor="end" class="ontology-datatype" style="font-size:14.6px;fill:#C9DAF5">role</text><line x1="605.0" y1="585.0" x2="835.0" y2="585.0" stroke="#FFD84D" stroke-opacity="0.25" stroke-width="1"/><text x="621.0" y="602.36" class="ontology-attr" style="font-size:14.6px;fill:#F4F8FF">trigger</text><text x="821.0" y="602.36" text-anchor="end" class="ontology-datatype" style="font-size:14.6px;fill:#C9DAF5">rule</text></g>
<g id="concept-evidence" class="ontology-concept-card card" data-kind="evidence"><rect x="1015.0" y="470.0" width="230.0" height="152.0" rx="6.0" fill="#FFFFFF" fill-opacity="0.03" stroke="#6EE66E" stroke-width="1.3"/><rect x="1015.0" y="470.0" width="230.0" height="40.0" rx="6.0" fill="#FFFFFF" fill-opacity="0.0036"/><text x="1130.0" y="496.48" text-anchor="middle" class="card-title ontology-concept-title" style="font-size:19.4px">Evidence Record</text><line x1="1015.0" y1="510.0" x2="1245.0" y2="510.0" stroke="#6EE66E" stroke-opacity="0.62" stroke-width="1"/><text x="1031.0" y="527.36" class="ontology-attr" style="font-size:14.6px;fill:#F4F8FF">evidenceId</text><text x="1231.0" y="527.36" text-anchor="end" class="ontology-datatype" style="font-size:14.6px;fill:#C9DAF5">PK</text><line x1="1015.0" y1="535.0" x2="1245.0" y2="535.0" stroke="#6EE66E" stroke-opacity="0.25" stroke-width="1"/><text x="1031.0" y="552.36" class="ontology-attr" style="font-size:14.6px;fill:#F4F8FF">source</text><text x="1231.0" y="552.36" text-anchor="end" class="ontology-datatype" style="font-size:14.6px;fill:#C9DAF5">system</text><line x1="1015.0" y1="560.0" x2="1245.0" y2="560.0" stroke="#6EE66E" stroke-opacity="0.25" stroke-width="1"/><text x="1031.0" y="577.36" class="ontology-attr" style="font-size:14.6px;fill:#F4F8FF">timestamp</text><text x="1231.0" y="577.36" text-anchor="end" class="ontology-datatype" style="font-size:14.6px;fill:#C9DAF5">date</text><line x1="1015.0" y1="585.0" x2="1245.0" y2="585.0" stroke="#6EE66E" stroke-opacity="0.25" stroke-width="1"/><text x="1031.0" y="602.36" class="ontology-attr" style="font-size:14.6px;fill:#F4F8FF">approval</text><text x="1231.0" y="602.36" text-anchor="end" class="ontology-datatype" style="font-size:14.6px;fill:#C9DAF5">state</text></g>
<g id="concept-policy" class="ontology-concept-card card" data-kind="quality"><rect x="1425.0" y="470.0" width="230.0" height="152.0" rx="6.0" fill="#FFFFFF" fill-opacity="0.03" stroke="#FFD84D" stroke-width="1.3"/><rect x="1425.0" y="470.0" width="230.0" height="40.0" rx="6.0" fill="#FFFFFF" fill-opacity="0.0036"/><text x="1540.0" y="496.48" text-anchor="middle" class="card-title ontology-concept-title" style="font-size:19.4px">Governance Policy</text><line x1="1425.0" y1="510.0" x2="1655.0" y2="510.0" stroke="#FFD84D" stroke-opacity="0.62" stroke-width="1"/><text x="1441.0" y="527.36" class="ontology-attr" style="font-size:14.6px;fill:#F4F8FF">policyId</text><text x="1641.0" y="527.36" text-anchor="end" class="ontology-datatype" style="font-size:14.6px;fill:#C9DAF5">PK</text><line x1="1425.0" y1="535.0" x2="1655.0" y2="535.0" stroke="#FFD84D" stroke-opacity="0.25" stroke-width="1"/><text x="1441.0" y="552.36" class="ontology-attr" style="font-size:14.6px;fill:#F4F8FF">scope</text><text x="1641.0" y="552.36" text-anchor="end" class="ontology-datatype" style="font-size:14.6px;fill:#C9DAF5">term</text><line x1="1425.0" y1="560.0" x2="1655.0" y2="560.0" stroke="#FFD84D" stroke-opacity="0.25" stroke-width="1"/><text x="1441.0" y="577.36" class="ontology-attr" style="font-size:14.6px;fill:#F4F8FF">rule</text><text x="1641.0" y="577.36" text-anchor="end" class="ontology-datatype" style="font-size:14.6px;fill:#C9DAF5">text</text><line x1="1425.0" y1="585.0" x2="1655.0" y2="585.0" stroke="#FFD84D" stroke-opacity="0.25" stroke-width="1"/><text x="1441.0" y="602.36" class="ontology-attr" style="font-size:14.6px;fill:#F4F8FF">reviewCycle</text><text x="1641.0" y="602.36" text-anchor="end" class="ontology-datatype" style="font-size:14.6px;fill:#C9DAF5">period</text></g>
<g id="instance-customer_acme" class="ontology-instance-card card" data-concept="customer"><rect x="195.0" y="822.0" width="180.0" height="62.0" rx="6.0" fill="#FFFFFF" fill-opacity="0.03" stroke="#6EE66E" stroke-width="1.3"/><text x="285.0" y="851.97" text-anchor="middle" class="ontology-instance-title" style="font-size:16.7px;font-weight:700;fill:#F4F8FF">Acme Corp</text><text x="285.0" y="870.77" text-anchor="middle" class="ontology-instance-sub" style="font-size:13.8px;font-weight:500;fill:#C9DAF5">Customer</text></g>
<g id="instance-order_1001" class="ontology-instance-card card" data-concept="order"><rect x="605.0" y="822.0" width="180.0" height="62.0" rx="6.0" fill="#FFFFFF" fill-opacity="0.03" stroke="#6EE66E" stroke-width="1.3"/><text x="695.0" y="851.97" text-anchor="middle" class="ontology-instance-title" style="font-size:16.7px;font-weight:700;fill:#F4F8FF">ORD-1001</text><text x="695.0" y="870.77" text-anchor="middle" class="ontology-instance-sub" style="font-size:13.8px;font-weight:500;fill:#C9DAF5">Order</text></g>
<g id="instance-sku_a12" class="ontology-instance-card card" data-concept="product"><rect x="1015.0" y="822.0" width="180.0" height="62.0" rx="6.0" fill="#FFFFFF" fill-opacity="0.03" stroke="#6EE66E" stroke-width="1.3"/><text x="1105.0" y="851.97" text-anchor="middle" class="ontology-instance-title" style="font-size:16.7px;font-weight:700;fill:#F4F8FF">SKU-A12</text><text x="1105.0" y="870.77" text-anchor="middle" class="ontology-instance-sub" style="font-size:13.8px;font-weight:500;fill:#C9DAF5">Product</text></g>
<g id="instance-policy_qms" class="ontology-instance-card card" data-concept="policy"><rect x="1425.0" y="822.0" width="180.0" height="62.0" rx="6.0" fill="#FFFFFF" fill-opacity="0.03" stroke="#6EE66E" stroke-width="1.3"/><text x="1515.0" y="851.97" text-anchor="middle" class="ontology-instance-title" style="font-size:16.7px;font-weight:700;fill:#F4F8FF">QMS Rule</text><text x="1515.0" y="870.77" text-anchor="middle" class="ontology-instance-sub" style="font-size:13.8px;font-weight:500;fill:#C9DAF5">Policy</text></g>
<g id="instance-customer_beta" class="ontology-instance-card card" data-concept="customer"><rect x="575.0" y="910.0" width="180.0" height="62.0" rx="6.0" fill="#FFFFFF" fill-opacity="0.03" stroke="#6EE66E" stroke-width="1.3"/><text x="665.0" y="939.97" text-anchor="middle" class="ontology-instance-title" style="font-size:16.7px;font-weight:700;fill:#F4F8FF">Beta LLC</text><text x="665.0" y="958.77" text-anchor="middle" class="ontology-instance-sub" style="font-size:13.8px;font-weight:500;fill:#C9DAF5">Customer</text></g>
<g id="instance-sku_b44" class="ontology-instance-card card" data-concept="product"><rect x="1385.0" y="910.0" width="180.0" height="62.0" rx="6.0" fill="#FFFFFF" fill-opacity="0.03" stroke="#6EE66E" stroke-width="1.3"/><text x="1475.0" y="939.97" text-anchor="middle" class="ontology-instance-title" style="font-size:16.7px;font-weight:700;fill:#F4F8FF">SKU-B44</text><text x="1475.0" y="958.77" text-anchor="middle" class="ontology-instance-sub" style="font-size:13.8px;font-weight:500;fill:#C9DAF5">Product</text></g>
<g id="relationship-places" class="relationship-diamond" data-relation="places" data-slot-row="0" data-slot-col="0.5"><path d="M 515.0 171.0 L 563.0 194.0 L 515.0 217.0 L 467.0 194.0 Z" fill="#031E42" stroke="#FF9F2E" stroke-width="1.4"/><text x="515.0" y="198.83333333333334" text-anchor="middle" class="note" style="font-size:14.5px;fill:#F4F8FF">places</text></g>
<g id="relationship-contains" class="relationship-diamond" data-relation="contains" data-slot-row="0" data-slot-col="1.5"><path d="M 925.0 171.0 L 973.0 194.0 L 925.0 217.0 L 877.0 194.0 Z" fill="#031E42" stroke="#FF9F2E" stroke-width="1.4"/><text x="925.0" y="198.83333333333334" text-anchor="middle" class="note" style="font-size:14.5px;fill:#F4F8FF">contains</text></g>
<g id="relationship-stored_at" class="relationship-diamond" data-relation="stored at" data-slot-row="0" data-slot-col="2.5"><path d="M 1335.0 171.0 L 1383.0 194.0 L 1335.0 217.0 L 1287.0 194.0 Z" fill="#031E42" stroke="#FF9F2E" stroke-width="1.4"/><text x="1335.0" y="198.83333333333334" text-anchor="middle" class="note" style="font-size:14.5px;fill:#F4F8FF">stored at</text></g>
<g id="relationship-supplied_by" class="relationship-diamond" data-relation="supplied by" data-slot-row="0.5" data-slot-col="1"><path d="M 720.0 347.0 L 768.0 370.0 L 720.0 393.0 L 672.0 370.0 Z" fill="#031E42" stroke="#FF9F2E" stroke-width="1.4"/><text x="720.0" y="367.0833333333333" text-anchor="middle" class="note" style="font-size:14.5px;fill:#F4F8FF">supplied</text><text x="720.0" y="382.5833333333333" text-anchor="middle" class="note" style="font-size:14.5px;fill:#F4F8FF">by</text></g>
<g id="relationship-constrained_by" class="relationship-diamond" data-relation="constrained by" data-slot-row="0.5" data-slot-col="1.5"><path d="M 925.0 347.0 L 973.0 370.0 L 925.0 393.0 L 877.0 370.0 Z" fill="#031E42" stroke="#FF9F2E" stroke-width="1.4"/><text x="925.0" y="367.0833333333333" text-anchor="middle" class="note" style="font-size:14.5px;fill:#F4F8FF">constrained</text><text x="925.0" y="382.5833333333333" text-anchor="middle" class="note" style="font-size:14.5px;fill:#F4F8FF">by</text></g>
<g id="relationship-proved_by" class="relationship-diamond" data-relation="proved by" data-slot-row="0.5" data-slot-col="2"><path d="M 1130.0 347.0 L 1178.0 370.0 L 1130.0 393.0 L 1082.0 370.0 Z" fill="#031E42" stroke="#FF9F2E" stroke-width="1.4"/><text x="1130.0" y="374.8333333333333" text-anchor="middle" class="note" style="font-size:14.5px;fill:#F4F8FF">proved by</text></g>
<g id="relationship-governed_by" class="relationship-diamond" data-relation="governed by"><path d="M 1510.0 637.0 L 1558.0 660.0 L 1510.0 683.0 L 1462.0 660.0 Z" fill="#031E42" stroke="#FF9F2E" stroke-width="1.4"/><text x="1510.0" y="657.0833333333334" text-anchor="middle" class="note" style="font-size:14.5px;fill:#F4F8FF">governed</text><text x="1510.0" y="672.5833333333334" text-anchor="middle" class="note" style="font-size:14.5px;fill:#F4F8FF">by</text></g>
<g id="relationship-reviewed_by" class="relationship-diamond" data-relation="reviewed by" data-slot-row="1" data-slot-col="2.5"><path d="M 1335.0 523.0 L 1383.0 546.0 L 1335.0 569.0 L 1287.0 546.0 Z" fill="#031E42" stroke="#FF9F2E" stroke-width="1.4"/><text x="1335.0" y="543.0833333333334" text-anchor="middle" class="note" style="font-size:14.5px;fill:#F4F8FF">reviewed</text><text x="1335.0" y="558.5833333333334" text-anchor="middle" class="note" style="font-size:14.5px;fill:#F4F8FF">by</text></g>
<g class="cardinality-label-wrap" data-relationship="places" data-endpoint="from"><rect x="437.0" y="166.5" width="22.0" height="23.0" rx="3" fill="#031E42" fill-opacity="0.72" stroke="#F4F8FF" stroke-opacity="0.28" stroke-width="0.7"/><text x="437.0" y="178.0" dominant-baseline="middle" text-anchor="start" class="note cardinality-label" style="font-size:15px;fill:#F4F8FF">1</text></g>
<g class="cardinality-label-wrap" data-relationship="places" data-endpoint="to"><rect x="545.8" y="144.5" width="47.2" height="23.0" rx="3" fill="#031E42" fill-opacity="0.72" stroke="#F4F8FF" stroke-opacity="0.28" stroke-width="0.7"/><text x="593.0" y="156.0" dominant-baseline="middle" text-anchor="end" class="note cardinality-label" style="font-size:15px;fill:#F4F8FF">0..*</text></g>
<g class="cardinality-label-wrap" data-relationship="contains" data-endpoint="from"><rect x="847.0" y="144.5" width="47.2" height="23.0" rx="3" fill="#031E42" fill-opacity="0.72" stroke="#F4F8FF" stroke-opacity="0.28" stroke-width="0.7"/><text x="847.0" y="156.0" dominant-baseline="middle" text-anchor="start" class="note cardinality-label" style="font-size:15px;fill:#F4F8FF">1..*</text></g>
<g class="cardinality-label-wrap" data-relationship="contains" data-endpoint="to"><rect x="955.8" y="144.5" width="47.2" height="23.0" rx="3" fill="#031E42" fill-opacity="0.72" stroke="#F4F8FF" stroke-opacity="0.28" stroke-width="0.7"/><text x="1003.0" y="156.0" dominant-baseline="middle" text-anchor="end" class="note cardinality-label" style="font-size:15px;fill:#F4F8FF">1..*</text></g>
<g class="cardinality-label-wrap" data-relationship="stored_at" data-endpoint="from"><rect x="1257.0" y="144.5" width="47.2" height="23.0" rx="3" fill="#031E42" fill-opacity="0.72" stroke="#F4F8FF" stroke-opacity="0.28" stroke-width="0.7"/><text x="1257.0" y="156.0" dominant-baseline="middle" text-anchor="start" class="note cardinality-label" style="font-size:15px;fill:#F4F8FF">0..*</text></g>
<g class="cardinality-label-wrap" data-relationship="stored_at" data-endpoint="to"><rect x="1365.8" y="144.5" width="47.2" height="23.0" rx="3" fill="#031E42" fill-opacity="0.72" stroke="#F4F8FF" stroke-opacity="0.28" stroke-width="0.7"/><text x="1413.0" y="156.0" dominant-baseline="middle" text-anchor="end" class="note cardinality-label" style="font-size:15px;fill:#F4F8FF">1..*</text></g>
<g class="cardinality-label-wrap" data-relationship="supplied_by" data-endpoint="from"><rect x="1144.0" y="276.5" width="47.2" height="23.0" rx="3" fill="#031E42" fill-opacity="0.72" stroke="#F4F8FF" stroke-opacity="0.28" stroke-width="0.7"/><text x="1144.0" y="288.0" dominant-baseline="middle" text-anchor="start" class="note cardinality-label" style="font-size:15px;fill:#F4F8FF">0..*</text></g>
<g class="cardinality-label-wrap" data-relationship="supplied_by" data-endpoint="to"><rect x="324.0" y="438.5" width="47.2" height="23.0" rx="3" fill="#031E42" fill-opacity="0.72" stroke="#F4F8FF" stroke-opacity="0.28" stroke-width="0.7"/><text x="324.0" y="450.0" dominant-baseline="middle" text-anchor="start" class="note cardinality-label" style="font-size:15px;fill:#F4F8FF">1..*</text></g>
<g class="cardinality-label-wrap" data-relationship="constrained_by" data-endpoint="from"><rect x="734.0" y="276.5" width="47.2" height="23.0" rx="3" fill="#031E42" fill-opacity="0.72" stroke="#F4F8FF" stroke-opacity="0.28" stroke-width="0.7"/><text x="734.0" y="288.0" dominant-baseline="middle" text-anchor="start" class="note cardinality-label" style="font-size:15px;fill:#F4F8FF">0..*</text></g>
<g class="cardinality-label-wrap" data-relationship="constrained_by" data-endpoint="to"><rect x="734.0" y="438.5" width="47.2" height="23.0" rx="3" fill="#031E42" fill-opacity="0.72" stroke="#F4F8FF" stroke-opacity="0.28" stroke-width="0.7"/><text x="734.0" y="450.0" dominant-baseline="middle" text-anchor="start" class="note cardinality-label" style="font-size:15px;fill:#F4F8FF">0..*</text></g>
<g class="cardinality-label-wrap" data-relationship="proved_by" data-endpoint="from"><rect x="684.0" y="276.5" width="22.0" height="23.0" rx="3" fill="#031E42" fill-opacity="0.72" stroke="#F4F8FF" stroke-opacity="0.28" stroke-width="0.7"/><text x="706.0" y="288.0" dominant-baseline="middle" text-anchor="end" class="note cardinality-label" style="font-size:15px;fill:#F4F8FF">1</text></g>
<g class="cardinality-label-wrap" data-relationship="proved_by" data-endpoint="to"><rect x="1144.0" y="438.5" width="47.2" height="23.0" rx="3" fill="#031E42" fill-opacity="0.72" stroke="#F4F8FF" stroke-opacity="0.28" stroke-width="0.7"/><text x="1144.0" y="450.0" dominant-baseline="middle" text-anchor="start" class="note cardinality-label" style="font-size:15px;fill:#F4F8FF">0..*</text></g>
<g class="cardinality-label-wrap" data-relationship="governed_by" data-endpoint="from"><rect x="734.0" y="628.5" width="47.2" height="23.0" rx="3" fill="#031E42" fill-opacity="0.72" stroke="#F4F8FF" stroke-opacity="0.28" stroke-width="0.7"/><text x="734.0" y="640.0" dominant-baseline="middle" text-anchor="start" class="note cardinality-label" style="font-size:15px;fill:#F4F8FF">1..*</text></g>
<g class="cardinality-label-wrap" data-relationship="governed_by" data-endpoint="to"><rect x="1578.0" y="628.5" width="22.0" height="23.0" rx="3" fill="#031E42" fill-opacity="0.72" stroke="#F4F8FF" stroke-opacity="0.28" stroke-width="0.7"/><text x="1578.0" y="640.0" dominant-baseline="middle" text-anchor="start" class="note cardinality-label" style="font-size:15px;fill:#F4F8FF">1</text></g>
<g class="cardinality-label-wrap" data-relationship="reviewed_by" data-endpoint="from"><rect x="1257.0" y="496.5" width="47.2" height="23.0" rx="3" fill="#031E42" fill-opacity="0.72" stroke="#F4F8FF" stroke-opacity="0.28" stroke-width="0.7"/><text x="1257.0" y="508.0" dominant-baseline="middle" text-anchor="start" class="note cardinality-label" style="font-size:15px;fill:#F4F8FF">0..*</text></g>
<g class="cardinality-label-wrap" data-relationship="reviewed_by" data-endpoint="to"><rect x="1391.0" y="518.5" width="22.0" height="23.0" rx="3" fill="#031E42" fill-opacity="0.72" stroke="#F4F8FF" stroke-opacity="0.28" stroke-width="0.7"/><text x="1413.0" y="530.0" dominant-baseline="middle" text-anchor="end" class="note cardinality-label" style="font-size:15px;fill:#F4F8FF">1</text></g>
<g class="info-panel" data-panel-id="legend">
<rect x="70.0" y="1008.0" width="558.0" height="185.60000000000002" rx="6" fill="#FFFFFF" fill-opacity="0.03" stroke="#F4F8FF" stroke-opacity="0.62" stroke-width="1"/>
<text x="88.0" y="1036.0" class="info-panel-title">Legend</text>
<rect x="88.0" y="1054.0" width="9" height="9" rx="2" fill="#B56CFF" opacity="0.95"/>
<text x="106.0" y="1064.0" class="info-panel-item" style="font-size:15.1px">Concept: ontology class card</text>
<rect x="88.0" y="1079.12" width="9" height="9" rx="2" fill="#FF9F2E" opacity="0.95"/>
<text x="106.0" y="1089.12" class="info-panel-item" style="font-size:15.1px">Relationship: labeled diamond</text>
<rect x="88.0" y="1104.2399999999998" width="9" height="9" rx="2" fill="#6EE66E" opacity="0.95"/>
<text x="106.0" y="1114.2399999999998" class="info-panel-item" style="font-size:15.1px">Instance: green example card</text>
<rect x="88.0" y="1129.3599999999997" width="9" height="9" rx="2" fill="#F4F8FF" opacity="0.95"/>
<text x="106.0" y="1139.3599999999997" class="info-panel-item" style="font-size:15.1px">Datatype: attribute type column</text>
<rect x="88.0" y="1154.4799999999996" width="9" height="9" rx="2" fill="#FFD84D" opacity="0.95"/>
<text x="106.0" y="1164.4799999999996" class="info-panel-item" style="font-size:15.1px">Dashed optional relation: review or optional link</text>
</g>
<g class="info-panel" data-panel-id="qa">
<rect x="646.0" y="1008.0" width="558.0" height="135.36" rx="6" fill="#FFFFFF" fill-opacity="0.03" stroke="#FFD84D" stroke-opacity="0.62" stroke-width="1"/>
<text x="664.0" y="1036.0" class="info-panel-title">Stress QA</text>
<rect x="664.0" y="1054.0" width="9" height="9" rx="2" fill="#FFD84D" opacity="0.95"/>
<text x="682.0" y="1064.0" class="info-panel-item" style="font-size:15.1px">Diamonds should stay between concept cards.</text>
<rect x="664.0" y="1079.12" width="9" height="9" rx="2" fill="#FFD84D" opacity="0.95"/>
<text x="682.0" y="1089.12" class="info-panel-item" style="font-size:15.1px">Cardinality labels must not overlap concept cards.</text>
<rect x="664.0" y="1104.2399999999998" width="9" height="9" rx="2" fill="#FFD84D" opacity="0.95"/>
<text x="682.0" y="1114.2399999999998" class="info-panel-item" style="font-size:15.1px">Instances should remain visually subordinate.</text>
</g>
<g class="info-panel" data-panel-id="rules">
<rect x="1222.0" y="1008.0" width="558.0" height="135.36" rx="6" fill="#FFFFFF" fill-opacity="0.03" stroke="#FFD84D" stroke-opacity="0.62" stroke-width="1"/>
<text x="1240.0" y="1036.0" class="info-panel-title">Rules</text>
<rect x="1240.0" y="1054.0" width="9" height="9" rx="2" fill="#FFD84D" opacity="0.95"/>
<text x="1258.0" y="1064.0" class="info-panel-item" style="font-size:15.1px">Concept ids are unique.</text>
<rect x="1240.0" y="1079.12" width="9" height="9" rx="2" fill="#FFD84D" opacity="0.95"/>
<text x="1258.0" y="1089.12" class="info-panel-item" style="font-size:15.1px">Relationships connect concepts, not instances.</text>
<rect x="1240.0" y="1104.2399999999998" width="9" height="9" rx="2" fill="#FFD84D" opacity="0.95"/>
<text x="1258.0" y="1114.2399999999998" class="info-panel-item" style="font-size:15.1px">Instance links are dashed and non-directional.</text>
</g>
<g class="info-panel" data-panel-id="metadata">
<rect x="646.0" y="1161.3600000000001" width="558.0" height="135.36" rx="6" fill="#FFFFFF" fill-opacity="0.03" stroke="#F4F8FF" stroke-opacity="0.62" stroke-width="1"/>
<text x="664.0" y="1189.3600000000001" class="info-panel-title">Metadata</text>
<rect x="664.0" y="1207.3600000000001" width="9" height="9" rx="2" fill="#F4F8FF" opacity="0.95"/>
<text x="682.0" y="1217.3600000000001" class="info-panel-item" style="font-size:15.1px">Template: ontology stress v1</text>
<rect x="664.0" y="1232.48" width="9" height="9" rx="2" fill="#F4F8FF" opacity="0.95"/>
<text x="682.0" y="1242.48" class="info-panel-item" style="font-size:15.1px">Use: semantic model and glossary review</text>
<rect x="664.0" y="1257.6" width="9" height="9" rx="2" fill="#F4F8FF" opacity="0.95"/>
<text x="682.0" y="1267.6" class="info-panel-item" style="font-size:15.1px">Scope: logical ontology, not database schema</text>
</g>
<text x="925.0" y="1332" text-anchor="middle" class="note">Stress template: ontology maps should preserve concept relationships, cardinality labels, bottom panels, and instance examples.</text>
</svg>
