<svg xmlns="http://www.w3.org/2000/svg" width="1500" height="1067" viewBox="0 0 1500 1067" role="img" aria-label="OCS R300 Manufacturing Knowledge Topology" data-style="modern-tech" data-diagram-type="layered_knowledge_topology">
<defs>
  <filter id="shadow" x="-20%" y="-30%" width="140%" height="170%"><feDropShadow dx="0" dy="8" stdDeviation="8" flood-color="#0F172A" flood-opacity="0.1"/></filter>
  <marker id="arrow" markerWidth="10" markerHeight="10" refX="8.5" refY="3" orient="auto" markerUnits="strokeWidth"><path d="M0,0 L0,6 L9,3 z" fill="context-stroke"/></marker>
  <marker id="arrow-fanout" markerWidth="10" markerHeight="10" refX="8.5" refY="3" orient="auto" markerUnits="strokeWidth"><path d="M0,0 L0,6 L9,3 z" fill="context-stroke"/></marker>
  <marker id="arrow-fanin" markerWidth="10" markerHeight="10" refX="8.5" refY="3" orient="auto" markerUnits="strokeWidth"><path d="M0,0 L0,6 L9,3 z" fill="context-stroke"/></marker>
  <style>
    [data-style="modern-tech"] .title{font:700 30px Inter,Segoe UI,Aptos,Arial,sans-serif;fill:#0F172A;letter-spacing:0;text-transform:none}
    [data-style="modern-tech"] .subtitle{font:400 14px Inter,Segoe UI,Aptos,Arial,sans-serif;fill:#64748B}
    [data-style="modern-tech"] .group-label{font:700 15.5px Inter,Segoe UI,Aptos,Arial,sans-serif;fill:#64748B;letter-spacing:.06em;text-transform:uppercase}
    [data-style="modern-tech"] .card-title{font:700 18px Inter,Segoe UI,Aptos,Arial,sans-serif;fill:#0F172A}
    [data-style="modern-tech"] .card-sub{font:500 13.5px Inter,Segoe UI,Aptos,Arial,sans-serif;fill:#64748B}
    [data-style="modern-tech"] .edge{fill:none;stroke:#334155;stroke-width:2;stroke-linecap:round;stroke-linejoin:round;opacity:0.76}
    [data-style="modern-tech"] .fanout{stroke:#2563EB;opacity:0.74}
    [data-style="modern-tech"] .fanin{stroke:#16A34A;opacity:0.74}
    [data-style="modern-tech"] .route-shared{marker-end:none}
    [data-style="modern-tech"] .edge-dashed{stroke-dasharray:8 8;opacity:0.66}
    [data-style="modern-tech"] .note{font:500 14px Inter,Segoe UI,Aptos,Arial,sans-serif;fill:#64748B}
    [data-style="modern-tech"] .mono{font-family:Inter,Segoe UI,Aptos,Arial,sans-serif}
    [data-style="modern-tech"] .table-header{font:700 15.5px Inter,Segoe UI,Aptos,Arial,sans-serif;fill:#0F172A;letter-spacing:.06em;text-transform:uppercase}
    [data-style="modern-tech"] .table-cell{font:500 17px Inter,Segoe UI,Aptos,Arial,sans-serif;fill:#0F172A}
    [data-style="modern-tech"] .table-cell-secondary{font:500 17px Inter,Segoe UI,Aptos,Arial,sans-serif;fill:#64748B}
    [data-style="modern-tech"] .tree-level-label{font:700 15.5px Inter,Segoe UI,Aptos,Arial,sans-serif;fill:#64748B;letter-spacing:.06em;text-transform:uppercase}
    [data-style="modern-tech"] .hub-label{font:700 15.5px Inter,Segoe UI,Aptos,Arial,sans-serif;fill:#64748B;letter-spacing:.06em;text-transform:uppercase}
    [data-style="modern-tech"] .icon-line{fill:none;stroke-width:1.8;stroke-linecap:round;stroke-linejoin:round}
  </style>
</defs>
<rect x="0" y="0" width="1500" height="1067" rx="28" fill="#F8FBFF"/>
<text x="750.0" y="54" text-anchor="middle" class="title">OCS R300 Manufacturing Knowledge Topology</text>
<text x="750.0" y="80" text-anchor="middle" class="subtitle">Example only: layered knowledge architecture, not a fixed template</text>
<rect x="70" y="115" width="1360" height="196" class="group-panel" rx="26" fill="#EEF6FF" fill-opacity="0.58"/>
<rect x="70" y="343" width="1360" height="196" class="group-panel" rx="26" fill="#EEF6FF" fill-opacity="0.58"/>
<rect x="70" y="571" width="1360" height="196" class="group-panel" rx="26" fill="#EEF6FF" fill-opacity="0.58"/>
<rect x="70" y="799" width="1360" height="196" class="group-panel" rx="26" fill="#EEF6FF" fill-opacity="0.58"/>
<path d="M 514.0 229.0 L 570.0 229.0" class="edge edge-dashed" marker-end="url(#arrow)"/>
<path d="M 930.0 229.0 L 986.0 229.0" class="edge edge-dashed" marker-end="url(#arrow)"/>
<path d="M 750.0 279 L 750.0 329.0 Q 750.0 343.0 736.0 343.0 L 348.0 343.0 Q 334.0 343.0 334.0 357.0 L 334.0 407" class="edge" marker-end="url(#arrow)"/>
<path d="M 750.0 279 L 750.0 407" class="edge" marker-end="url(#arrow)"/>
<path d="M 750.0 279 L 750.0 329.0 Q 750.0 343.0 764.0 343.0 L 1152.0 343.0 Q 1166.0 343.0 1166.0 357.0 L 1166.0 407" class="edge" marker-end="url(#arrow)"/>
<path d="M 750.0 507 L 750.0 557.0 Q 750.0 571.0 736.0 571.0 L 274.25 571.0 Q 260.25 571.0 260.25 585.0 L 260.25 635" class="edge" marker-end="url(#arrow)"/>
<path d="M 750.0 507 L 750.0 557.0 Q 750.0 571.0 736.0 571.0 L 600.75 571.0 Q 586.75 571.0 586.75 585.0 L 586.75 635" class="edge" marker-end="url(#arrow)"/>
<path d="M 750.0 507 L 750.0 557.0 Q 750.0 571.0 764.0 571.0 L 899.25 571.0 Q 913.25 571.0 913.25 585.0 L 913.25 635" class="edge" marker-end="url(#arrow)"/>
<path d="M 750.0 507 L 750.0 557.0 Q 750.0 571.0 764.0 571.0 L 1225.75 571.0 Q 1239.75 571.0 1239.75 585.0 L 1239.75 635" class="edge" marker-end="url(#arrow)"/>
<path d="M 260.25 735 L 260.25 785.0 Q 260.25 799.0 274.25 799.0 L 736.0 799.0 Q 750.0 799.0 750.0 813.0 L 750.0 863" class="edge" marker-end="url(#arrow)"/>
<path d="M 586.75 735 L 586.75 785.0 Q 586.75 799.0 600.75 799.0 L 736.0 799.0 Q 750.0 799.0 750.0 813.0 L 750.0 863" class="edge" marker-end="url(#arrow)"/>
<path d="M 913.25 735 L 913.25 785.0 Q 913.25 799.0 899.25 799.0 L 764.0 799.0 Q 750.0 799.0 750.0 813.0 L 750.0 863" class="edge" marker-end="url(#arrow)"/>
<path d="M 1239.75 735 L 1239.75 785.0 Q 1239.75 799.0 1225.75 799.0 L 764.0 799.0 Q 750.0 799.0 750.0 813.0 L 750.0 863" class="edge" marker-end="url(#arrow)"/>
<g class="group-label-wrap"><rect x="88" y="121" width="158.4" height="30" rx="7" fill="#F8FBFF" fill-opacity="0.78"/><text x="98" y="141" class="group-label">Navigation layer</text></g>
<g class="group-label-wrap"><rect x="88" y="349" width="217.20000000000002" height="30" rx="7" fill="#F8FBFF" fill-opacity="0.78"/><text x="98" y="369" class="group-label">Product-level synthesis</text></g>
<g class="group-label-wrap"><rect x="88" y="577" width="242.4" height="30" rx="7" fill="#F8FBFF" fill-opacity="0.78"/><text x="98" y="597" class="group-label">WI-derived knowledge layer</text></g>
<g class="group-label-wrap"><rect x="88" y="805" width="242.4" height="30" rx="7" fill="#F8FBFF" fill-opacity="0.78"/><text x="98" y="825" class="group-label">Controlled-source boundary</text></g>
<g id="node-moc" class="card node-card"><rect x="154.0" y="179" width="360" height="100" rx="20" fill="#FFFFFF" stroke="#2F7DFF" stroke-width="2.2" filter="url(#shadow)"/><rect x="172.0" y="219.0" width="18" height="20" rx="3" fill="#EFF6FF" stroke="#2F7DFF" stroke-width="1.7"/><path d="M176.0,225.0 H186.0 M176.0,230.0 H186.0 M176.0,235.0 H183.0" class="icon-line" stroke="#2F7DFF"/><text x="208.0" y="228.155" text-anchor="start" class="card-title" style="font-size:21.5px">Manufacturing MOC</text><text x="208.0" y="249.745" text-anchor="start" class="card-sub" style="font-size:16px">entry point</text></g>
<g id="node-query" class="card node-card"><rect x="570.0" y="179" width="360" height="100" rx="20" fill="#FFFFFF" stroke="#06B6D4" stroke-width="2.2" filter="url(#shadow)"/><circle cx="596.0" cy="227.0" r="7" fill="#ECFEFF" stroke="#06B6D4" stroke-width="1.7"/><path d="M602.0,233.0 L608.0,239.0" class="icon-line" stroke="#06B6D4"/><text x="624.0" y="228.155" text-anchor="start" class="card-title" style="font-size:21.5px">Query Guide</text><text x="624.0" y="249.745" text-anchor="start" class="card-sub" style="font-size:16px">where to look</text></g>
<g id="node-glossary" class="card node-card"><rect x="986.0" y="179" width="360" height="100" rx="20" fill="#FFFFFF" stroke="#7C3AED" stroke-width="2.2" filter="url(#shadow)"/><path d="M1004.0,219.0 H1020.0 Q1024.0,219.0 1024.0,223.0 V238.0 H1004.0 Z" fill="#F5F3FF" stroke="#7C3AED" stroke-width="1.7"/><path d="M1009.0,225.0 H1018.0 M1009.0,231.0 H1018.0" class="icon-line" stroke="#7C3AED"/><text x="1040.0" y="228.155" text-anchor="start" class="card-title" style="font-size:21.5px">Glossary / Ontology</text><text x="1040.0" y="249.745" text-anchor="start" class="card-sub" style="font-size:16px">shared language</text></g>
<g id="node-process" class="card node-card"><rect x="154.0" y="407" width="360" height="100" rx="20" fill="#FFFFFF" stroke="#2F7DFF" stroke-width="2.2" filter="url(#shadow)"/><circle cx="176.0" cy="458.0" r="4" fill="#EFF6FF" stroke="#2F7DFF" stroke-width="1.6"/><circle cx="190.0" cy="451.0" r="4" fill="#EFF6FF" stroke="#2F7DFF" stroke-width="1.6"/><circle cx="190.0" cy="465.0" r="4" fill="#EFF6FF" stroke="#2F7DFF" stroke-width="1.6"/><path d="M180.0,458.0 H184.0 M186.0,454.0 L184.0,458.0 L186.0,462.0" class="icon-line" stroke="#2F7DFF"/><text x="208.0" y="444.545" text-anchor="start" class="card-title" style="font-size:21.5px">End-to-End Process</text><text x="208.0" y="467.76500000000004" text-anchor="start" class="card-title" style="font-size:21.5px">Overview</text><text x="208.0" y="489.355" text-anchor="start" class="card-sub" style="font-size:16px">product-level flow</text></g>
<g id="node-ctq" class="card node-card"><rect x="570.0" y="407" width="360" height="100" rx="20" fill="#FFFFFF" stroke="#F97316" stroke-width="2.2" filter="url(#shadow)"/><path d="M598.0,447.0 L608.0,465.0 H588.0 Z" fill="#FFF7ED" stroke="#F97316" stroke-width="1.7"/><path d="M598.0,454.0 V460.0 M598.0,464.0 V464.0" class="icon-line" stroke="#F97316"/><text x="624.0" y="444.545" text-anchor="start" class="card-title" style="font-size:21.5px">CTQ &amp; Parameter Master</text><text x="624.0" y="467.76500000000004" text-anchor="start" class="card-title" style="font-size:21.5px">Register</text><text x="624.0" y="489.355" text-anchor="start" class="card-sub" style="font-size:16px">quality + parameter families</text></g>
<g id="node-risk" class="card node-card"><rect x="986.0" y="407" width="360" height="100" rx="20" fill="#FFFFFF" stroke="#7C3AED" stroke-width="2.2" filter="url(#shadow)"/><path d="M1014.0,447.0 L1023.0,452.0 V462.0 L1014.0,467.0 L1005.0,462.0 V452.0 Z" fill="#F5F3FF" stroke="#7C3AED" stroke-width="1.7"/><path d="M1010.0,457.0 L1013.0,461.0 L1019.0,453.0" class="icon-line" stroke="#7C3AED"/><text x="1040.0" y="456.155" text-anchor="start" class="card-title" style="font-size:21.5px">Defect &amp; Risk Taxonomy</text><text x="1040.0" y="477.745" text-anchor="start" class="card-sub" style="font-size:16px">cross-group risk concepts</text></g>
<g id="node-mems" class="card node-card"><rect x="125.0" y="635" width="270.5" height="100" rx="20" fill="#FFFFFF" stroke="#22C55E" stroke-width="2.2" filter="url(#shadow)"/><rect x="143.0" y="678.0" width="20" height="16" rx="3" fill="#ECFDF5" stroke="#22C55E" stroke-width="1.7"/><path d="M143.0,683.0 H163.0 M153.0,678.0 V694.0" class="icon-line" stroke="#22C55E"/><text x="179.0" y="684.155" text-anchor="start" class="card-title" style="font-size:21.5px">MEMS Package</text><text x="179.0" y="705.745" text-anchor="start" class="card-sub" style="font-size:16px">source-bound sub-KB</text></g>
<g id="node-mca" class="card node-card"><rect x="451.5" y="635" width="270.5" height="100" rx="20" fill="#FFFFFF" stroke="#22C55E" stroke-width="2.2" filter="url(#shadow)"/><rect x="469.5" y="678.0" width="20" height="16" rx="3" fill="#ECFDF5" stroke="#22C55E" stroke-width="1.7"/><path d="M469.5,683.0 H489.5 M479.5,678.0 V694.0" class="icon-line" stroke="#22C55E"/><text x="505.5" y="684.155" text-anchor="start" class="card-title" style="font-size:21.5px">MCA Package</text><text x="505.5" y="705.745" text-anchor="start" class="card-sub" style="font-size:16px">source-bound sub-KB</text></g>
<g id="node-obm" class="card node-card"><rect x="778.0" y="635" width="270.5" height="100" rx="20" fill="#FFFFFF" stroke="#22C55E" stroke-width="2.2" filter="url(#shadow)"/><rect x="796.0" y="678.0" width="20" height="16" rx="3" fill="#ECFDF5" stroke="#22C55E" stroke-width="1.7"/><path d="M796.0,683.0 H816.0 M806.0,678.0 V694.0" class="icon-line" stroke="#22C55E"/><text x="832.0" y="684.155" text-anchor="start" class="card-title" style="font-size:21.5px">OBM Assy</text><text x="832.0" y="705.745" text-anchor="start" class="card-sub" style="font-size:16px">source-bound sub-KB</text></g>
<g id="node-pob" class="card node-card"><rect x="1104.5" y="635" width="270.5" height="100" rx="20" fill="#FFFFFF" stroke="#22C55E" stroke-width="2.2" filter="url(#shadow)"/><rect x="1122.5" y="678.0" width="20" height="16" rx="3" fill="#ECFDF5" stroke="#22C55E" stroke-width="1.7"/><path d="M1122.5,683.0 H1142.5 M1132.5,678.0 V694.0" class="icon-line" stroke="#22C55E"/><text x="1158.5" y="684.155" text-anchor="start" class="card-title" style="font-size:21.5px">POB</text><text x="1158.5" y="705.745" text-anchor="start" class="card-sub" style="font-size:16px">source-bound sub-KB</text></g>
<g id="node-controlled_sources" class="card node-card"><rect x="570.0" y="863" width="360" height="100" rx="20" fill="#FFFFFF" stroke="#334155" stroke-width="2.2" filter="url(#shadow)"/><path d="M588.0,903.0 H602.0 L608.0,909.0 V923.0 H588.0 Z" fill="#F8FAFC" stroke="#334155" stroke-width="1.7"/><path d="M602.0,903.0 V909.0 H608.0" class="icon-line" stroke="#334155"/><text x="624.0" y="900.545" text-anchor="start" class="card-title" style="font-size:21.5px">Controlled WI / PLM</text><text x="624.0" y="923.765" text-anchor="start" class="card-title" style="font-size:21.5px">Source Documents</text><text x="624.0" y="945.355" text-anchor="start" class="card-sub" style="font-size:16px">execution authority and revision co...</text></g>
<text x="750.0" y="1039" text-anchor="middle" class="note">Example note: derived knowledge maps support navigation; controlled source documents remain the execution authority.</text>
</svg>
