<svg xmlns="http://www.w3.org/2000/svg" width="1500" height="1091" viewBox="0 0 1500 1091" role="img" aria-label="OCS R300 Manufacturing Knowledge Topology">
<defs>
  <filter id="shadow" x="-20%" y="-30%" width="140%" height="170%"><feDropShadow dx="0" dy="8" stdDeviation="8" flood-color="#0F172A" flood-opacity="0.10"/></filter>
  <marker id="arrow" markerWidth="10" markerHeight="10" refX="8.5" refY="3" orient="auto" markerUnits="strokeWidth"><path d="M0,0 L0,6 L9,3 z" fill="#334155"/></marker>
  <style>
    .title{font:700 30px Inter,Segoe UI,Aptos,Arial,sans-serif;fill:#0F172A}
    .subtitle{font:400 14px Inter,Segoe UI,Aptos,Arial,sans-serif;fill:#64748B}
    .group-label{font:700 13px Inter,Segoe UI,Aptos,Arial,sans-serif;fill:#475569;letter-spacing:.06em;text-transform:uppercase}
    .card-title{font:700 17px Inter,Segoe UI,Aptos,Arial,sans-serif;fill:#0F172A}
    .card-sub{font:500 12.5px Inter,Segoe UI,Aptos,Arial,sans-serif;fill:#64748B}
    .edge{fill:none;stroke:#334155;stroke-width:2;stroke-linecap:round;stroke-linejoin:round;opacity:.76}
    .edge-dashed{stroke-dasharray:8 8;opacity:.66}
    .note{font:500 12px Inter,Segoe UI,Aptos,Arial,sans-serif;fill:#64748B}
    .icon-line{fill:none;stroke-width:1.8;stroke-linecap:round;stroke-linejoin:round}
  </style>
</defs>
<rect x="0" y="0" width="1500" height="1091" rx="28" fill="#F8FBFF"/>
<text x="750.0" y="54" text-anchor="middle" class="title">OCS R300 Manufacturing Knowledge Topology</text>
<text x="750.0" y="80" text-anchor="middle" class="subtitle">Example only: layered knowledge architecture, not a fixed template</text>
<rect x="70" y="115" width="1360" height="186" rx="26" fill="#EEF6FF" opacity="0.58"/>
<text x="98" y="138" class="group-label">Navigation layer</text>
<rect x="70" y="349" width="1360" height="186" rx="26" fill="#EEF6FF" opacity="0.58"/>
<text x="98" y="372" class="group-label">Product-level synthesis</text>
<rect x="70" y="583" width="1360" height="186" rx="26" fill="#EEF6FF" opacity="0.58"/>
<text x="98" y="606" class="group-label">WI-derived knowledge layer</text>
<rect x="70" y="817" width="1360" height="186" rx="26" fill="#EEF6FF" opacity="0.58"/>
<text x="98" y="840" class="group-label">Controlled-source boundary</text>
<path d="M 522.0 216.0 L 570.0 216.0" class="edge edge-dashed" marker-end="url(#arrow)"/>
<path d="M 930.0 216.0 L 978.0 216.0" class="edge edge-dashed" marker-end="url(#arrow)"/>
<path d="M 750.0 262 L 750.0 333.0 Q 750.0 347.0 717.36 347.0 L 374.64 347.0 Q 342.0 347.0 342.0 333.0 L 342.0 404" class="edge" marker-end="url(#arrow)"/>
<path d="M 750.0 262 L 750.0 333.0 Q 750.0 347.0 750.0 347.0 L 750.0 347.0 Q 750.0 347.0 750.0 333.0 L 750.0 404" class="edge" marker-end="url(#arrow)"/>
<path d="M 750.0 262 L 750.0 333.0 Q 750.0 347.0 782.64 347.0 L 1125.36 347.0 Q 1158.0 347.0 1158.0 333.0 L 1158.0 404" class="edge" marker-end="url(#arrow)"/>
<path d="M 750.0 496 L 750.0 567.0 Q 750.0 581.0 711.06 581.0 L 302.19 581.0 Q 263.25 581.0 263.25 567.0 L 263.25 638" class="edge" marker-end="url(#arrow)"/>
<path d="M 750.0 496 L 750.0 567.0 Q 750.0 581.0 737.02 581.0 L 600.73 581.0 Q 587.75 581.0 587.75 567.0 L 587.75 638" class="edge" marker-end="url(#arrow)"/>
<path d="M 750.0 496 L 750.0 567.0 Q 750.0 581.0 762.98 581.0 L 899.27 581.0 Q 912.25 581.0 912.25 567.0 L 912.25 638" class="edge" marker-end="url(#arrow)"/>
<path d="M 750.0 496 L 750.0 567.0 Q 750.0 581.0 788.94 581.0 L 1197.81 581.0 Q 1236.75 581.0 1236.75 567.0 L 1236.75 638" class="edge" marker-end="url(#arrow)"/>
<path d="M 263.25 730 L 263.25 801.0 Q 263.25 815.0 302.19 815.0 L 711.06 815.0 Q 750.0 815.0 750.0 801.0 L 750.0 872" class="edge" marker-end="url(#arrow)"/>
<path d="M 587.75 730 L 587.75 801.0 Q 587.75 815.0 600.73 815.0 L 737.02 815.0 Q 750.0 815.0 750.0 801.0 L 750.0 872" class="edge" marker-end="url(#arrow)"/>
<path d="M 912.25 730 L 912.25 801.0 Q 912.25 815.0 899.27 815.0 L 762.98 815.0 Q 750.0 815.0 750.0 801.0 L 750.0 872" class="edge" marker-end="url(#arrow)"/>
<path d="M 1236.75 730 L 1236.75 801.0 Q 1236.75 815.0 1197.81 815.0 L 788.94 815.0 Q 750.0 815.0 750.0 801.0 L 750.0 872" class="edge" marker-end="url(#arrow)"/>
<g id="node-moc"><rect x="162.0" y="170" width="360" height="92" rx="20" fill="#FFFFFF" stroke="#2F7DFF" stroke-width="2.2" filter="url(#shadow)"/><rect x="186.0" y="195" width="18" height="20" rx="3" fill="#EFF6FF" stroke="#2F7DFF" stroke-width="1.7"/><path d="M190.0,201 H200.0 M190.0,206 H200.0 M190.0,211 H197.0" class="icon-line" stroke="#2F7DFF"/><text x="342.0" y="201" text-anchor="middle" class="card-title">Manufacturing MOC</text><text x="342.0" y="232" text-anchor="middle" class="card-sub">entry point</text></g>
<g id="node-query"><rect x="570.0" y="170" width="360" height="92" rx="20" fill="#FFFFFF" stroke="#06B6D4" stroke-width="2.2" filter="url(#shadow)"/><circle cx="602.0" cy="203" r="7" fill="#ECFEFF" stroke="#06B6D4" stroke-width="1.7"/><path d="M608.0,209 L614.0,215" class="icon-line" stroke="#06B6D4"/><text x="750.0" y="201" text-anchor="middle" class="card-title">Query Guide</text><text x="750.0" y="232" text-anchor="middle" class="card-sub">where to look</text></g>
<g id="node-glossary"><rect x="978.0" y="170" width="360" height="92" rx="20" fill="#FFFFFF" stroke="#7C3AED" stroke-width="2.2" filter="url(#shadow)"/><path d="M1002.0,195 H1018.0 Q1022.0,195 1022.0,199 V214 H1002.0 Z" fill="#F5F3FF" stroke="#7C3AED" stroke-width="1.7"/><path d="M1007.0,201 H1016.0 M1007.0,207 H1016.0" class="icon-line" stroke="#7C3AED"/><text x="1158.0" y="201" text-anchor="middle" class="card-title">Glossary / Ontology</text><text x="1158.0" y="232" text-anchor="middle" class="card-sub">shared language</text></g>
<g id="node-process"><rect x="162.0" y="404" width="360" height="92" rx="20" fill="#FFFFFF" stroke="#2F7DFF" stroke-width="2.2" filter="url(#shadow)"/><circle cx="190.0" cy="440" r="4" fill="#EFF6FF" stroke="#2F7DFF" stroke-width="1.6"/><circle cx="204.0" cy="433" r="4" fill="#EFF6FF" stroke="#2F7DFF" stroke-width="1.6"/><circle cx="204.0" cy="447" r="4" fill="#EFF6FF" stroke="#2F7DFF" stroke-width="1.6"/><path d="M194.0,440 H198.0 M200.0,436 L198.0,440 L200.0,444" class="icon-line" stroke="#2F7DFF"/><text x="342.0" y="430" text-anchor="middle" class="card-title">End-to-End Process</text><text x="342.0" y="450" text-anchor="middle" class="card-title">Overview</text><text x="342.0" y="480" text-anchor="middle" class="card-sub">product-level flow</text></g>
<g id="node-ctq"><rect x="570.0" y="404" width="360" height="92" rx="20" fill="#FFFFFF" stroke="#F97316" stroke-width="2.2" filter="url(#shadow)"/><path d="M604.0,429 L614.0,447 H594.0 Z" fill="#FFF7ED" stroke="#F97316" stroke-width="1.7"/><path d="M604.0,436 V442 M604.0,446 V446" class="icon-line" stroke="#F97316"/><text x="750.0" y="430" text-anchor="middle" class="card-title">CTQ &amp; Parameter Master</text><text x="750.0" y="450" text-anchor="middle" class="card-title">Register</text><text x="750.0" y="480" text-anchor="middle" class="card-sub">quality + parameter families</text></g>
<g id="node-risk"><rect x="978.0" y="404" width="360" height="92" rx="20" fill="#FFFFFF" stroke="#7C3AED" stroke-width="2.2" filter="url(#shadow)"/><path d="M1012.0,429 L1021.0,434 V444 L1012.0,449 L1003.0,444 V434 Z" fill="#F5F3FF" stroke="#7C3AED" stroke-width="1.7"/><path d="M1008.0,439 L1011.0,443 L1017.0,435" class="icon-line" stroke="#7C3AED"/><text x="1158.0" y="435" text-anchor="middle" class="card-title">Defect &amp; Risk Taxonomy</text><text x="1158.0" y="466" text-anchor="middle" class="card-sub">cross-group risk concepts</text></g>
<g id="node-mems"><rect x="125.0" y="638" width="276.5" height="92" rx="20" fill="#FFFFFF" stroke="#22C55E" stroke-width="2.2" filter="url(#shadow)"/><rect x="149.0" y="666" width="20" height="16" rx="3" fill="#ECFDF5" stroke="#22C55E" stroke-width="1.7"/><path d="M149.0,671 H169.0 M159.0,666 V682" class="icon-line" stroke="#22C55E"/><text x="263.25" y="669" text-anchor="middle" class="card-title">MEMS Package</text><text x="263.25" y="700" text-anchor="middle" class="card-sub">source-bound sub-KB</text></g>
<g id="node-mca"><rect x="449.5" y="638" width="276.5" height="92" rx="20" fill="#FFFFFF" stroke="#22C55E" stroke-width="2.2" filter="url(#shadow)"/><rect x="473.5" y="666" width="20" height="16" rx="3" fill="#ECFDF5" stroke="#22C55E" stroke-width="1.7"/><path d="M473.5,671 H493.5 M483.5,666 V682" class="icon-line" stroke="#22C55E"/><text x="587.75" y="669" text-anchor="middle" class="card-title">MCA Package</text><text x="587.75" y="700" text-anchor="middle" class="card-sub">source-bound sub-KB</text></g>
<g id="node-obm"><rect x="774.0" y="638" width="276.5" height="92" rx="20" fill="#FFFFFF" stroke="#22C55E" stroke-width="2.2" filter="url(#shadow)"/><rect x="798.0" y="666" width="20" height="16" rx="3" fill="#ECFDF5" stroke="#22C55E" stroke-width="1.7"/><path d="M798.0,671 H818.0 M808.0,666 V682" class="icon-line" stroke="#22C55E"/><text x="912.25" y="669" text-anchor="middle" class="card-title">OBM Assy</text><text x="912.25" y="700" text-anchor="middle" class="card-sub">source-bound sub-KB</text></g>
<g id="node-pob"><rect x="1098.5" y="638" width="276.5" height="92" rx="20" fill="#FFFFFF" stroke="#22C55E" stroke-width="2.2" filter="url(#shadow)"/><rect x="1122.5" y="666" width="20" height="16" rx="3" fill="#ECFDF5" stroke="#22C55E" stroke-width="1.7"/><path d="M1122.5,671 H1142.5 M1132.5,666 V682" class="icon-line" stroke="#22C55E"/><text x="1236.75" y="669" text-anchor="middle" class="card-title">POB</text><text x="1236.75" y="700" text-anchor="middle" class="card-sub">source-bound sub-KB</text></g>
<g id="node-controlled_sources"><rect x="570.0" y="872" width="360" height="92" rx="20" fill="#FFFFFF" stroke="#334155" stroke-width="2.2" filter="url(#shadow)"/><path d="M594.0,897 H608.0 L614.0,903 V917 H594.0 Z" fill="#F8FAFC" stroke="#334155" stroke-width="1.7"/><path d="M608.0,897 V903 H614.0" class="icon-line" stroke="#334155"/><text x="750.0" y="898" text-anchor="middle" class="card-title">Controlled WI / PLM</text><text x="750.0" y="918" text-anchor="middle" class="card-title">Source Documents</text><text x="750.0" y="948" text-anchor="middle" class="card-sub">execution authority and revision control</text></g>
<text x="750.0" y="1063" text-anchor="middle" class="note">Example note: derived knowledge maps support navigation; controlled source documents remain the execution authority.</text>
</svg>
