<svg xmlns="http://www.w3.org/2000/svg" width="1800" height="1307" viewBox="0 0 1800 1307" role="img" aria-label="OCS R300 Manufacturing Knowledge Topology" data-style="modern-tech" data-diagram-type="layered_knowledge_topology">
<defs>
  <filter id="shadow" x="-20%" y="-30%" width="140%" height="170%"><feDropShadow dx="0" dy="8" stdDeviation="8" flood-color="#0F172A" flood-opacity="0.1"/></filter>
  <marker id="arrow" markerWidth="10" markerHeight="10" refX="8.5" refY="3" orient="auto" markerUnits="strokeWidth"><path d="M0,0 L0,6 L9,3 z" fill="context-stroke"/></marker>
  <marker id="arrow-fanout" markerWidth="10" markerHeight="10" refX="8.5" refY="3" orient="auto" markerUnits="strokeWidth"><path d="M0,0 L0,6 L9,3 z" fill="context-stroke"/></marker>
  <marker id="arrow-fanin" markerWidth="10" markerHeight="10" refX="8.5" refY="3" orient="auto" markerUnits="strokeWidth"><path d="M0,0 L0,6 L9,3 z" fill="context-stroke"/></marker>
  <style>
    [data-style="modern-tech"] .title{font:700 30px Inter,Segoe UI,Aptos,Arial,sans-serif;fill:#0F172A;letter-spacing:0;text-transform:none}
    [data-style="modern-tech"] .subtitle{font:400 14px Inter,Segoe UI,Aptos,Arial,sans-serif;fill:#64748B}
    [data-style="modern-tech"] .group-label{font:700 15.5px Inter,Segoe UI,Aptos,Arial,sans-serif;fill:#64748B;letter-spacing:.06em;text-transform:uppercase}
    [data-style="modern-tech"] .card-title{font:700 18px Inter,Segoe UI,Aptos,Arial,sans-serif;fill:#0F172A}
    [data-style="modern-tech"] .card-sub{font:500 13.5px Inter,Segoe UI,Aptos,Arial,sans-serif;fill:#64748B}
    [data-style="modern-tech"] .edge{fill:none;stroke:#334155;stroke-width:2;stroke-linecap:round;stroke-linejoin:round;opacity:0.76}
    [data-style="modern-tech"] .fanout{stroke:#2563EB;opacity:0.74}
    [data-style="modern-tech"] .fanin{stroke:#16A34A;opacity:0.74}
    [data-style="modern-tech"] .route-shared{marker-end:none}
    [data-style="modern-tech"] .edge-dashed{stroke-dasharray:8 8;opacity:0.66}
    [data-style="modern-tech"] .note{font:500 14px Inter,Segoe UI,Aptos,Arial,sans-serif;fill:#64748B}
    [data-style="modern-tech"] .mono{font-family:Inter,Segoe UI,Aptos,Arial,sans-serif}
    [data-style="modern-tech"] .table-header{font:700 15.5px Inter,Segoe UI,Aptos,Arial,sans-serif;fill:#0F172A;letter-spacing:.06em;text-transform:uppercase}
    [data-style="modern-tech"] .table-cell{font:500 17px Inter,Segoe UI,Aptos,Arial,sans-serif;fill:#0F172A}
    [data-style="modern-tech"] .table-cell-secondary{font:500 17px Inter,Segoe UI,Aptos,Arial,sans-serif;fill:#64748B}
    [data-style="modern-tech"] .tree-level-label{font:700 15.5px Inter,Segoe UI,Aptos,Arial,sans-serif;fill:#64748B;letter-spacing:.06em;text-transform:uppercase}
    [data-style="modern-tech"] .hub-label{font:700 15.5px Inter,Segoe UI,Aptos,Arial,sans-serif;fill:#64748B;letter-spacing:.06em;text-transform:uppercase}
    [data-style="modern-tech"] .icon-line{fill:none;stroke-width:1.8;stroke-linecap:round;stroke-linejoin:round}
  </style>
</defs>
<rect x="0" y="0" width="1800" height="1307" rx="28" fill="#F8FBFF"/>
<text x="900.0" y="54" text-anchor="middle" class="title">OCS R300 Manufacturing Knowledge Topology</text>
<text x="900.0" y="80" text-anchor="middle" class="subtitle">Multi-row example: synthesis fan-out and source-bound fan-in stay inside the WI-derived layer</text>
<rect x="70" y="115" width="1660" height="196" class="group-panel" rx="26" fill="#EEF6FF" fill-opacity="0.58"/>
<rect x="70" y="343" width="1660" height="196" class="group-panel" rx="26" fill="#EEF6FF" fill-opacity="0.58"/>
<rect x="70" y="571" width="1660" height="436" class="group-panel" rx="26" fill="#EEF6FF" fill-opacity="0.58"/>
<rect x="70" y="1039" width="1660" height="196" class="group-panel" rx="26" fill="#EEF6FF" fill-opacity="0.58"/>
<path d="M 900.0 507.0 L 900.0 606.0 Q 900.0 613.0 893.0 613.0 L 886.0 613.0" class="edge fanout route-shared branch"/>
<path d="M 900.0 507.0 L 900.0 606.0 Q 900.0 613.0 907.0 613.0 L 914.0 613.0" class="edge fanout route-shared branch"/>
<path d="M 1641.0 613.0 L 1648.0 613.0 Q 1655.0 613.0 1655.0 620.0 L 1655.0 818.0 Q 1655.0 825.0 1648.0 825.0 L 1641.0 825.0" class="edge fanout route-shared trunk"/>
<path d="M 383.0 613.0 L 886.0 613.0" class="edge fanout route-shared bus"/>
<path d="M 914.0 613.0 L 1641.0 613.0" class="edge fanout route-shared bus"/>
<path d="M 383.0 613.0 L 376.0 613.0 Q 369.0 613.0 369.0 620.0 L 369.0 645.0" class="edge fanout terminal" marker-end="url(#arrow-fanout)"/>
<path d="M 737.0 613.0 L 730.0 613.0 Q 723.0 613.0 723.0 620.0 L 723.0 645.0" class="edge fanout terminal" marker-end="url(#arrow-fanout)"/>
<path d="M 1063.0 613.0 L 1070.0 613.0 Q 1077.0 613.0 1077.0 620.0 L 1077.0 645.0" class="edge fanout terminal" marker-end="url(#arrow-fanout)"/>
<path d="M 1417.0 613.0 L 1424.0 613.0 Q 1431.0 613.0 1431.0 620.0 L 1431.0 645.0" class="edge fanout terminal" marker-end="url(#arrow-fanout)"/>
<path d="M 914.0 825.0 L 1641.0 825.0" class="edge fanout route-shared bus"/>
<path d="M 914.0 825.0 L 907.0 825.0 Q 900.0 825.0 900.0 832.0 L 900.0 857.0" class="edge fanout terminal" marker-end="url(#arrow-fanout)"/>
<path d="M 1330.0 825.0 L 1323.0 825.0 Q 1316.0 825.0 1316.0 832.0 L 1316.0 857.0" class="edge fanout terminal" marker-end="url(#arrow-fanout)"/>
<path d="M 159.0 777.0 L 152.0 777.0 Q 145.0 777.0 145.0 784.0 L 145.0 982.0 Q 145.0 989.0 152.0 989.0 L 159.0 989.0" class="edge fanin route-shared trunk"/>
<path d="M 369.0 745.0 L 369.0 770.0 Q 369.0 777.0 362.0 777.0 L 355.0 777.0" class="edge fanin route-shared branch"/>
<path d="M 723.0 745.0 L 723.0 770.0 Q 723.0 777.0 716.0 777.0 L 709.0 777.0" class="edge fanin route-shared branch"/>
<path d="M 1077.0 745.0 L 1077.0 770.0 Q 1077.0 777.0 1070.0 777.0 L 1063.0 777.0" class="edge fanin route-shared branch"/>
<path d="M 1431.0 745.0 L 1431.0 770.0 Q 1431.0 777.0 1424.0 777.0 L 1417.0 777.0" class="edge fanin route-shared branch"/>
<path d="M 159.0 777.0 L 1417.0 777.0" class="edge fanin route-shared bus"/>
<path d="M 1316.0 957.0 L 1316.0 982.0 Q 1316.0 989.0 1309.0 989.0 L 1302.0 989.0" class="edge fanin route-shared branch"/>
<path d="M 159.0 989.0 L 886.0 989.0" class="edge fanin route-shared bus"/>
<path d="M 914.0 989.0 L 1302.0 989.0" class="edge fanin route-shared bus"/>
<path d="M 886.0 989.0 L 893.0 989.0 Q 900.0 989.0 900.0 996.0 L 900.0 1003.0" class="edge fanin route-shared merge"/>
<path d="M 914.0 989.0 L 907.0 989.0 Q 900.0 989.0 900.0 996.0 L 900.0 1003.0" class="edge fanin route-shared merge"/>
<path d="M 900.0 957.0 L 900.0 1103.0" class="edge fanin terminal" marker-end="url(#arrow-fanin)"/>
<path d="M 664.0 229.0 L 720.0 229.0" class="edge edge-dashed" marker-end="url(#arrow)"/>
<path d="M 1080.0 229.0 L 1136.0 229.0" class="edge edge-dashed" marker-end="url(#arrow)"/>
<path d="M 900.0 279 L 900.0 329.0 Q 900.0 343.0 886.0 343.0 L 498.0 343.0 Q 484.0 343.0 484.0 357.0 L 484.0 407" class="edge" marker-end="url(#arrow)"/>
<path d="M 900.0 279 L 900.0 407" class="edge" marker-end="url(#arrow)"/>
<path d="M 900.0 279 L 900.0 329.0 Q 900.0 343.0 914.0 343.0 L 1302.0 343.0 Q 1316.0 343.0 1316.0 357.0 L 1316.0 407" class="edge" marker-end="url(#arrow)"/>
<g class="group-label-wrap"><rect x="88" y="121" width="158.4" height="30" rx="7" fill="#F8FBFF" fill-opacity="0.78"/><text x="98" y="141" class="group-label">Navigation layer</text></g>
<g class="group-label-wrap"><rect x="88" y="349" width="217.20000000000002" height="30" rx="7" fill="#F8FBFF" fill-opacity="0.78"/><text x="98" y="369" class="group-label">Product-level synthesis</text></g>
<g class="group-label-wrap"><rect x="88" y="577" width="242.4" height="30" rx="7" fill="#F8FBFF" fill-opacity="0.78"/><text x="98" y="597" class="group-label">WI-derived knowledge layer</text></g>
<g class="group-label-wrap"><rect x="88" y="1045" width="242.4" height="30" rx="7" fill="#F8FBFF" fill-opacity="0.78"/><text x="98" y="1065" class="group-label">Controlled-source boundary</text></g>
<g id="node-moc" class="card node-card"><rect x="304.0" y="179" width="360" height="100" rx="20" fill="#FFFFFF" stroke="#2F7DFF" stroke-width="2.2" filter="url(#shadow)"/><rect x="322.0" y="219.0" width="18" height="20" rx="3" fill="#EFF6FF" stroke="#2F7DFF" stroke-width="1.7"/><path d="M326.0,225.0 H336.0 M326.0,230.0 H336.0 M326.0,235.0 H333.0" class="icon-line" stroke="#2F7DFF"/><text x="358.0" y="228.0874" text-anchor="start" class="card-title" style="font-size:23.2px">Manufacturing MOC</text><text x="358.0" y="251.4046" text-anchor="start" class="card-sub" style="font-size:17.3px">entry point</text></g>
<g id="node-query" class="card node-card"><rect x="720.0" y="179" width="360" height="100" rx="20" fill="#FFFFFF" stroke="#06B6D4" stroke-width="2.2" filter="url(#shadow)"/><circle cx="746.0" cy="227.0" r="7" fill="#ECFEFF" stroke="#06B6D4" stroke-width="1.7"/><path d="M752.0,233.0 L758.0,239.0" class="icon-line" stroke="#06B6D4"/><text x="774.0" y="228.0874" text-anchor="start" class="card-title" style="font-size:23.2px">Query Guide</text><text x="774.0" y="251.4046" text-anchor="start" class="card-sub" style="font-size:17.3px">where to look</text></g>
<g id="node-glossary" class="card node-card"><rect x="1136.0" y="179" width="360" height="100" rx="20" fill="#FFFFFF" stroke="#7C3AED" stroke-width="2.2" filter="url(#shadow)"/><path d="M1154.0,219.0 H1170.0 Q1174.0,219.0 1174.0,223.0 V238.0 H1154.0 Z" fill="#F5F3FF" stroke="#7C3AED" stroke-width="1.7"/><path d="M1159.0,225.0 H1168.0 M1159.0,231.0 H1168.0" class="icon-line" stroke="#7C3AED"/><text x="1190.0" y="228.0874" text-anchor="start" class="card-title" style="font-size:23.2px">Glossary / Ontology</text><text x="1190.0" y="251.4046" text-anchor="start" class="card-sub" style="font-size:17.3px">shared language</text></g>
<g id="node-process" class="card node-card"><rect x="304.0" y="407" width="360" height="100" rx="20" fill="#FFFFFF" stroke="#2F7DFF" stroke-width="2.2" filter="url(#shadow)"/><circle cx="326.0" cy="458.0" r="4" fill="#EFF6FF" stroke="#2F7DFF" stroke-width="1.6"/><circle cx="340.0" cy="451.0" r="4" fill="#EFF6FF" stroke="#2F7DFF" stroke-width="1.6"/><circle cx="340.0" cy="465.0" r="4" fill="#EFF6FF" stroke="#2F7DFF" stroke-width="1.6"/><path d="M330.0,458.0 H334.0 M336.0,454.0 L334.0,458.0 L336.0,462.0" class="icon-line" stroke="#2F7DFF"/><text x="358.0" y="443.5486" text-anchor="start" class="card-title" style="font-size:23.2px">End-to-End Process</text><text x="358.0" y="468.62620000000004" text-anchor="start" class="card-title" style="font-size:23.2px">Overview</text><text x="358.0" y="491.9434" text-anchor="start" class="card-sub" style="font-size:17.3px">product-level flow</text></g>
<g id="node-ctq" class="card node-card"><rect x="720.0" y="407" width="360" height="100" rx="20" fill="#FFFFFF" stroke="#F97316" stroke-width="2.2" filter="url(#shadow)"/><path d="M748.0,447.0 L758.0,465.0 H738.0 Z" fill="#FFF7ED" stroke="#F97316" stroke-width="1.7"/><path d="M748.0,454.0 V460.0 M748.0,464.0 V464.0" class="icon-line" stroke="#F97316"/><text x="774.0" y="443.5486" text-anchor="start" class="card-title" style="font-size:23.2px">CTQ &amp; Parameter Master</text><text x="774.0" y="468.62620000000004" text-anchor="start" class="card-title" style="font-size:23.2px">Register</text><text x="774.0" y="491.9434" text-anchor="start" class="card-sub" style="font-size:17.3px">quality + parameter families</text></g>
<g id="node-risk" class="card node-card"><rect x="1136.0" y="407" width="360" height="100" rx="20" fill="#FFFFFF" stroke="#7C3AED" stroke-width="2.2" filter="url(#shadow)"/><path d="M1164.0,447.0 L1173.0,452.0 V462.0 L1164.0,467.0 L1155.0,462.0 V452.0 Z" fill="#F5F3FF" stroke="#7C3AED" stroke-width="1.7"/><path d="M1160.0,457.0 L1163.0,461.0 L1169.0,453.0" class="icon-line" stroke="#7C3AED"/><text x="1190.0" y="456.0874" text-anchor="start" class="card-title" style="font-size:23.2px">Defect &amp; Risk Taxonomy</text><text x="1190.0" y="479.40459999999996" text-anchor="start" class="card-sub" style="font-size:17.3px">cross-group risk concepts</text></g>
<g id="node-mems" class="card node-card"><rect x="220.0" y="645" width="298.0" height="100" rx="20" fill="#FFFFFF" stroke="#22C55E" stroke-width="2.2" filter="url(#shadow)"/><rect x="238.0" y="688.0" width="20" height="16" rx="3" fill="#ECFDF5" stroke="#22C55E" stroke-width="1.7"/><path d="M238.0,693.0 H258.0 M248.0,688.0 V704.0" class="icon-line" stroke="#22C55E"/><text x="274.0" y="694.0874" text-anchor="start" class="card-title" style="font-size:23.2px">MEMS Package</text><text x="274.0" y="717.4046" text-anchor="start" class="card-sub" style="font-size:17.3px">source-bound sub-KB</text></g>
<g id="node-mca" class="card node-card"><rect x="574.0" y="645" width="298.0" height="100" rx="20" fill="#FFFFFF" stroke="#22C55E" stroke-width="2.2" filter="url(#shadow)"/><rect x="592.0" y="688.0" width="20" height="16" rx="3" fill="#ECFDF5" stroke="#22C55E" stroke-width="1.7"/><path d="M592.0,693.0 H612.0 M602.0,688.0 V704.0" class="icon-line" stroke="#22C55E"/><text x="628.0" y="694.0874" text-anchor="start" class="card-title" style="font-size:23.2px">MCA Package</text><text x="628.0" y="717.4046" text-anchor="start" class="card-sub" style="font-size:17.3px">source-bound sub-KB</text></g>
<g id="node-obm" class="card node-card"><rect x="928.0" y="645" width="298.0" height="100" rx="20" fill="#FFFFFF" stroke="#22C55E" stroke-width="2.2" filter="url(#shadow)"/><rect x="946.0" y="688.0" width="20" height="16" rx="3" fill="#ECFDF5" stroke="#22C55E" stroke-width="1.7"/><path d="M946.0,693.0 H966.0 M956.0,688.0 V704.0" class="icon-line" stroke="#22C55E"/><text x="982.0" y="694.0874" text-anchor="start" class="card-title" style="font-size:23.2px">OBM Assy</text><text x="982.0" y="717.4046" text-anchor="start" class="card-sub" style="font-size:17.3px">source-bound sub-KB</text></g>
<g id="node-pob" class="card node-card"><rect x="1282.0" y="645" width="298.0" height="100" rx="20" fill="#FFFFFF" stroke="#22C55E" stroke-width="2.2" filter="url(#shadow)"/><rect x="1300.0" y="688.0" width="20" height="16" rx="3" fill="#ECFDF5" stroke="#22C55E" stroke-width="1.7"/><path d="M1300.0,693.0 H1320.0 M1310.0,688.0 V704.0" class="icon-line" stroke="#22C55E"/><text x="1336.0" y="694.0874" text-anchor="start" class="card-title" style="font-size:23.2px">POB</text><text x="1336.0" y="717.4046" text-anchor="start" class="card-sub" style="font-size:17.3px">source-bound sub-KB</text></g>
<g id="node-faceplate" class="card node-card"><rect x="720.0" y="857" width="360" height="100" rx="20" fill="#FFFFFF" stroke="#22C55E" stroke-width="2.2" filter="url(#shadow)"/><rect x="738.0" y="900.0" width="20" height="16" rx="3" fill="#ECFDF5" stroke="#22C55E" stroke-width="1.7"/><path d="M738.0,905.0 H758.0 M748.0,900.0 V916.0" class="icon-line" stroke="#22C55E"/><text x="774.0" y="906.0874" text-anchor="start" class="card-title" style="font-size:23.2px">Faceplate</text><text x="774.0" y="929.4046" text-anchor="start" class="card-sub" style="font-size:17.3px">source-bound sub-KB</text></g>
<g id="node-mech" class="card node-card"><rect x="1136.0" y="857" width="360" height="100" rx="20" fill="#FFFFFF" stroke="#22C55E" stroke-width="2.2" filter="url(#shadow)"/><rect x="1154.0" y="900.0" width="20" height="16" rx="3" fill="#ECFDF5" stroke="#22C55E" stroke-width="1.7"/><path d="M1154.0,905.0 H1174.0 M1164.0,900.0 V916.0" class="icon-line" stroke="#22C55E"/><text x="1190.0" y="906.0874" text-anchor="start" class="card-title" style="font-size:23.2px">MECH Assy</text><text x="1190.0" y="929.4046" text-anchor="start" class="card-sub" style="font-size:17.3px">source-bound sub-KB</text></g>
<g id="node-controlled_sources" class="card node-card"><rect x="720.0" y="1103" width="360" height="100" rx="20" fill="#FFFFFF" stroke="#334155" stroke-width="2.2" filter="url(#shadow)"/><path d="M738.0,1143.0 H752.0 L758.0,1149.0 V1163.0 H738.0 Z" fill="#F8FAFC" stroke="#334155" stroke-width="1.7"/><path d="M752.0,1143.0 V1149.0 H758.0" class="icon-line" stroke="#334155"/><text x="774.0" y="1139.5486" text-anchor="start" class="card-title" style="font-size:23.2px">Controlled WI / PLM</text><text x="774.0" y="1164.6262000000002" text-anchor="start" class="card-title" style="font-size:23.2px">Source Documents</text><text x="774.0" y="1187.9433999999999" text-anchor="start" class="card-sub" style="font-size:17.3px">authoritative execution and revi...</text></g>
<text x="1470" y="1195" class="note legend-note" fill="#2563EB">blue = synthesis fan-out</text>
<text x="1470" y="1219" class="note legend-note" fill="#16A34A">green = source-bound fan-in</text>
<text x="900.0" y="1279" text-anchor="middle" class="note">Example note: row-level buses and side trunks are generated from explicit row/col contract fields.</text>
</svg>
