<svg xmlns="http://www.w3.org/2000/svg" width="1800" height="1307" viewBox="0 0 1800 1307" role="img" aria-label="OCS R300 Manufacturing Knowledge Topology">
<defs>
  <filter id="shadow" x="-20%" y="-30%" width="140%" height="170%"><feDropShadow dx="0" dy="8" stdDeviation="8" flood-color="#0F172A" flood-opacity="0.10"/></filter>
  <marker id="arrow" markerWidth="10" markerHeight="10" refX="8.5" refY="3" orient="auto" markerUnits="strokeWidth"><path d="M0,0 L0,6 L9,3 z" fill="#334155"/></marker>
  <marker id="arrow-fanout" markerWidth="10" markerHeight="10" refX="8.5" refY="3" orient="auto" markerUnits="strokeWidth"><path d="M0,0 L0,6 L9,3 z" fill="#2563EB"/></marker>
  <marker id="arrow-fanin" markerWidth="10" markerHeight="10" refX="8.5" refY="3" orient="auto" markerUnits="strokeWidth"><path d="M0,0 L0,6 L9,3 z" fill="#16A34A"/></marker>
  <style>
    .title{font:700 30px Inter,Segoe UI,Aptos,Arial,sans-serif;fill:#0F172A}
    .subtitle{font:400 14px Inter,Segoe UI,Aptos,Arial,sans-serif;fill:#64748B}
    .group-label{font:700 13px Inter,Segoe UI,Aptos,Arial,sans-serif;fill:#475569;letter-spacing:.06em;text-transform:uppercase}
    .card-title{font:700 17px Inter,Segoe UI,Aptos,Arial,sans-serif;fill:#0F172A}
    .card-sub{font:500 12.5px Inter,Segoe UI,Aptos,Arial,sans-serif;fill:#64748B}
    .edge{fill:none;stroke:#334155;stroke-width:2;stroke-linecap:round;stroke-linejoin:round;opacity:.76}
    .fanout{stroke:#2563EB;opacity:.74}
    .fanin{stroke:#16A34A;opacity:.74}
    .route-shared{marker-end:none}
    .edge-dashed{stroke-dasharray:8 8;opacity:.66}
    .note{font:500 12px Inter,Segoe UI,Aptos,Arial,sans-serif;fill:#64748B}
    .icon-line{fill:none;stroke-width:1.8;stroke-linecap:round;stroke-linejoin:round}
  </style>
</defs>
<rect x="0" y="0" width="1800" height="1307" rx="28" fill="#F8FBFF"/>
<text x="900.0" y="54" text-anchor="middle" class="title">OCS R300 Manufacturing Knowledge Topology</text>
<text x="900.0" y="80" text-anchor="middle" class="subtitle">Multi-row example: synthesis fan-out and source-bound fan-in stay inside the WI-derived layer</text>
<rect x="70" y="115" width="1660" height="196" rx="26" fill="#EEF6FF" opacity="0.58"/>
<text x="98" y="138" class="group-label">Navigation layer</text>
<rect x="70" y="343" width="1660" height="196" rx="26" fill="#EEF6FF" opacity="0.58"/>
<text x="98" y="366" class="group-label">Product-level synthesis</text>
<rect x="70" y="571" width="1660" height="436" rx="26" fill="#EEF6FF" opacity="0.58"/>
<text x="98" y="594" class="group-label">WI-derived knowledge layer</text>
<rect x="70" y="1039" width="1660" height="196" rx="26" fill="#EEF6FF" opacity="0.58"/>
<text x="98" y="1062" class="group-label">Controlled-source boundary</text>
<path d="M 900.0 507.0 L 900.0 606.0 Q 900.0 613.0 893.0 613.0 L 886.0 613.0" class="edge fanout route-shared branch"/>
<path d="M 900.0 507.0 L 900.0 606.0 Q 900.0 613.0 907.0 613.0 L 914.0 613.0" class="edge fanout route-shared branch"/>
<path d="M 1641.0 613.0 L 1648.0 613.0 Q 1655.0 613.0 1655.0 620.0 L 1655.0 818.0 Q 1655.0 825.0 1648.0 825.0 L 1641.0 825.0" class="edge fanout route-shared trunk"/>
<path d="M 383.0 613.0 L 886.0 613.0" class="edge fanout route-shared bus"/>
<path d="M 914.0 613.0 L 1641.0 613.0" class="edge fanout route-shared bus"/>
<path d="M 383.0 613.0 L 376.0 613.0 Q 369.0 613.0 369.0 620.0 L 369.0 645.0" class="edge fanout terminal" marker-end="url(#arrow-fanout)"/>
<path d="M 737.0 613.0 L 730.0 613.0 Q 723.0 613.0 723.0 620.0 L 723.0 645.0" class="edge fanout terminal" marker-end="url(#arrow-fanout)"/>
<path d="M 1063.0 613.0 L 1070.0 613.0 Q 1077.0 613.0 1077.0 620.0 L 1077.0 645.0" class="edge fanout terminal" marker-end="url(#arrow-fanout)"/>
<path d="M 1417.0 613.0 L 1424.0 613.0 Q 1431.0 613.0 1431.0 620.0 L 1431.0 645.0" class="edge fanout terminal" marker-end="url(#arrow-fanout)"/>
<path d="M 914.0 825.0 L 1641.0 825.0" class="edge fanout route-shared bus"/>
<path d="M 914.0 825.0 L 907.0 825.0 Q 900.0 825.0 900.0 832.0 L 900.0 857.0" class="edge fanout terminal" marker-end="url(#arrow-fanout)"/>
<path d="M 1330.0 825.0 L 1323.0 825.0 Q 1316.0 825.0 1316.0 832.0 L 1316.0 857.0" class="edge fanout terminal" marker-end="url(#arrow-fanout)"/>
<path d="M 159.0 777.0 L 152.0 777.0 Q 145.0 777.0 145.0 784.0 L 145.0 982.0 Q 145.0 989.0 152.0 989.0 L 159.0 989.0" class="edge fanin route-shared trunk"/>
<path d="M 369.0 745.0 L 369.0 770.0 Q 369.0 777.0 362.0 777.0 L 355.0 777.0" class="edge fanin route-shared branch"/>
<path d="M 723.0 745.0 L 723.0 770.0 Q 723.0 777.0 716.0 777.0 L 709.0 777.0" class="edge fanin route-shared branch"/>
<path d="M 1077.0 745.0 L 1077.0 770.0 Q 1077.0 777.0 1070.0 777.0 L 1063.0 777.0" class="edge fanin route-shared branch"/>
<path d="M 1431.0 745.0 L 1431.0 770.0 Q 1431.0 777.0 1424.0 777.0 L 1417.0 777.0" class="edge fanin route-shared branch"/>
<path d="M 159.0 777.0 L 1417.0 777.0" class="edge fanin route-shared bus"/>
<path d="M 1316.0 957.0 L 1316.0 982.0 Q 1316.0 989.0 1309.0 989.0 L 1302.0 989.0" class="edge fanin route-shared branch"/>
<path d="M 159.0 989.0 L 886.0 989.0" class="edge fanin route-shared bus"/>
<path d="M 914.0 989.0 L 1302.0 989.0" class="edge fanin route-shared bus"/>
<path d="M 886.0 989.0 L 893.0 989.0 Q 900.0 989.0 900.0 996.0 L 900.0 1003.0" class="edge fanin route-shared merge"/>
<path d="M 914.0 989.0 L 907.0 989.0 Q 900.0 989.0 900.0 996.0 L 900.0 1003.0" class="edge fanin route-shared merge"/>
<path d="M 900.0 957.0 L 900.0 1103.0" class="edge fanin terminal" marker-end="url(#arrow-fanin)"/>
<path d="M 664.0 229.0 L 720.0 229.0" class="edge edge-dashed" marker-end="url(#arrow)"/>
<path d="M 1080.0 229.0 L 1136.0 229.0" class="edge edge-dashed" marker-end="url(#arrow)"/>
<path d="M 900.0 279 L 900.0 329.0 Q 900.0 343.0 886.0 343.0 L 498.0 343.0 Q 484.0 343.0 484.0 357.0 L 484.0 407" class="edge" marker-end="url(#arrow)"/>
<path d="M 900.0 279 L 900.0 407" class="edge" marker-end="url(#arrow)"/>
<path d="M 900.0 279 L 900.0 329.0 Q 900.0 343.0 914.0 343.0 L 1302.0 343.0 Q 1316.0 343.0 1316.0 357.0 L 1316.0 407" class="edge" marker-end="url(#arrow)"/>
<g id="node-moc" class="card node-card"><rect x="304.0" y="179" width="360" height="100" rx="20" fill="#FFFFFF" stroke="#2F7DFF" stroke-width="2.2" filter="url(#shadow)"/><rect x="328.0" y="204" width="18" height="20" rx="3" fill="#EFF6FF" stroke="#2F7DFF" stroke-width="1.7"/><path d="M332.0,210 H342.0 M332.0,215 H342.0 M332.0,220 H339.0" class="icon-line" stroke="#2F7DFF"/><text x="484.0" y="210" text-anchor="middle" class="card-title">Manufacturing MOC</text><text x="484.0" y="241" text-anchor="middle" class="card-sub">entry point</text></g>
<g id="node-query" class="card node-card"><rect x="720.0" y="179" width="360" height="100" rx="20" fill="#FFFFFF" stroke="#06B6D4" stroke-width="2.2" filter="url(#shadow)"/><circle cx="752.0" cy="212" r="7" fill="#ECFEFF" stroke="#06B6D4" stroke-width="1.7"/><path d="M758.0,218 L764.0,224" class="icon-line" stroke="#06B6D4"/><text x="900.0" y="210" text-anchor="middle" class="card-title">Query Guide</text><text x="900.0" y="241" text-anchor="middle" class="card-sub">where to look</text></g>
<g id="node-glossary" class="card node-card"><rect x="1136.0" y="179" width="360" height="100" rx="20" fill="#FFFFFF" stroke="#7C3AED" stroke-width="2.2" filter="url(#shadow)"/><path d="M1160.0,204 H1176.0 Q1180.0,204 1180.0,208 V223 H1160.0 Z" fill="#F5F3FF" stroke="#7C3AED" stroke-width="1.7"/><path d="M1165.0,210 H1174.0 M1165.0,216 H1174.0" class="icon-line" stroke="#7C3AED"/><text x="1316.0" y="210" text-anchor="middle" class="card-title">Glossary / Ontology</text><text x="1316.0" y="241" text-anchor="middle" class="card-sub">shared language</text></g>
<g id="node-process" class="card node-card"><rect x="304.0" y="407" width="360" height="100" rx="20" fill="#FFFFFF" stroke="#2F7DFF" stroke-width="2.2" filter="url(#shadow)"/><circle cx="332.0" cy="443" r="4" fill="#EFF6FF" stroke="#2F7DFF" stroke-width="1.6"/><circle cx="346.0" cy="436" r="4" fill="#EFF6FF" stroke="#2F7DFF" stroke-width="1.6"/><circle cx="346.0" cy="450" r="4" fill="#EFF6FF" stroke="#2F7DFF" stroke-width="1.6"/><path d="M336.0,443 H340.0 M342.0,439 L340.0,443 L342.0,447" class="icon-line" stroke="#2F7DFF"/><text x="484.0" y="433" text-anchor="middle" class="card-title">End-to-End Process</text><text x="484.0" y="453" text-anchor="middle" class="card-title">Overview</text><text x="484.0" y="484" text-anchor="middle" class="card-sub">product-level flow</text></g>
<g id="node-ctq" class="card node-card"><rect x="720.0" y="407" width="360" height="100" rx="20" fill="#FFFFFF" stroke="#F97316" stroke-width="2.2" filter="url(#shadow)"/><path d="M754.0,432 L764.0,450 H744.0 Z" fill="#FFF7ED" stroke="#F97316" stroke-width="1.7"/><path d="M754.0,439 V445 M754.0,449 V449" class="icon-line" stroke="#F97316"/><text x="900.0" y="433" text-anchor="middle" class="card-title">CTQ &amp; Parameter Master</text><text x="900.0" y="453" text-anchor="middle" class="card-title">Register</text><text x="900.0" y="484" text-anchor="middle" class="card-sub">quality + parameter families</text></g>
<g id="node-risk" class="card node-card"><rect x="1136.0" y="407" width="360" height="100" rx="20" fill="#FFFFFF" stroke="#7C3AED" stroke-width="2.2" filter="url(#shadow)"/><path d="M1170.0,432 L1179.0,437 V447 L1170.0,452 L1161.0,447 V437 Z" fill="#F5F3FF" stroke="#7C3AED" stroke-width="1.7"/><path d="M1166.0,442 L1169.0,446 L1175.0,438" class="icon-line" stroke="#7C3AED"/><text x="1316.0" y="438" text-anchor="middle" class="card-title">Defect &amp; Risk Taxonomy</text><text x="1316.0" y="469" text-anchor="middle" class="card-sub">cross-group risk concepts</text></g>
<g id="node-mems" class="card node-card"><rect x="220.0" y="645" width="298.0" height="100" rx="20" fill="#FFFFFF" stroke="#22C55E" stroke-width="2.2" filter="url(#shadow)"/><rect x="244.0" y="673" width="20" height="16" rx="3" fill="#ECFDF5" stroke="#22C55E" stroke-width="1.7"/><path d="M244.0,678 H264.0 M254.0,673 V689" class="icon-line" stroke="#22C55E"/><text x="369.0" y="676" text-anchor="middle" class="card-title">MEMS Package</text><text x="369.0" y="707" text-anchor="middle" class="card-sub">source-bound sub-KB</text></g>
<g id="node-mca" class="card node-card"><rect x="574.0" y="645" width="298.0" height="100" rx="20" fill="#FFFFFF" stroke="#22C55E" stroke-width="2.2" filter="url(#shadow)"/><rect x="598.0" y="673" width="20" height="16" rx="3" fill="#ECFDF5" stroke="#22C55E" stroke-width="1.7"/><path d="M598.0,678 H618.0 M608.0,673 V689" class="icon-line" stroke="#22C55E"/><text x="723.0" y="676" text-anchor="middle" class="card-title">MCA Package</text><text x="723.0" y="707" text-anchor="middle" class="card-sub">source-bound sub-KB</text></g>
<g id="node-obm" class="card node-card"><rect x="928.0" y="645" width="298.0" height="100" rx="20" fill="#FFFFFF" stroke="#22C55E" stroke-width="2.2" filter="url(#shadow)"/><rect x="952.0" y="673" width="20" height="16" rx="3" fill="#ECFDF5" stroke="#22C55E" stroke-width="1.7"/><path d="M952.0,678 H972.0 M962.0,673 V689" class="icon-line" stroke="#22C55E"/><text x="1077.0" y="676" text-anchor="middle" class="card-title">OBM Assy</text><text x="1077.0" y="707" text-anchor="middle" class="card-sub">source-bound sub-KB</text></g>
<g id="node-pob" class="card node-card"><rect x="1282.0" y="645" width="298.0" height="100" rx="20" fill="#FFFFFF" stroke="#22C55E" stroke-width="2.2" filter="url(#shadow)"/><rect x="1306.0" y="673" width="20" height="16" rx="3" fill="#ECFDF5" stroke="#22C55E" stroke-width="1.7"/><path d="M1306.0,678 H1326.0 M1316.0,673 V689" class="icon-line" stroke="#22C55E"/><text x="1431.0" y="676" text-anchor="middle" class="card-title">POB</text><text x="1431.0" y="707" text-anchor="middle" class="card-sub">source-bound sub-KB</text></g>
<g id="node-faceplate" class="card node-card"><rect x="720.0" y="857" width="360" height="100" rx="20" fill="#FFFFFF" stroke="#22C55E" stroke-width="2.2" filter="url(#shadow)"/><rect x="744.0" y="885" width="20" height="16" rx="3" fill="#ECFDF5" stroke="#22C55E" stroke-width="1.7"/><path d="M744.0,890 H764.0 M754.0,885 V901" class="icon-line" stroke="#22C55E"/><text x="900.0" y="888" text-anchor="middle" class="card-title">Faceplate</text><text x="900.0" y="919" text-anchor="middle" class="card-sub">source-bound sub-KB</text></g>
<g id="node-mech" class="card node-card"><rect x="1136.0" y="857" width="360" height="100" rx="20" fill="#FFFFFF" stroke="#22C55E" stroke-width="2.2" filter="url(#shadow)"/><rect x="1160.0" y="885" width="20" height="16" rx="3" fill="#ECFDF5" stroke="#22C55E" stroke-width="1.7"/><path d="M1160.0,890 H1180.0 M1170.0,885 V901" class="icon-line" stroke="#22C55E"/><text x="1316.0" y="888" text-anchor="middle" class="card-title">MECH Assy</text><text x="1316.0" y="919" text-anchor="middle" class="card-sub">source-bound sub-KB</text></g>
<g id="node-controlled_sources" class="card node-card"><rect x="720.0" y="1103" width="360" height="100" rx="20" fill="#FFFFFF" stroke="#334155" stroke-width="2.2" filter="url(#shadow)"/><path d="M744.0,1128 H758.0 L764.0,1134 V1148 H744.0 Z" fill="#F8FAFC" stroke="#334155" stroke-width="1.7"/><path d="M758.0,1128 V1134 H764.0" class="icon-line" stroke="#334155"/><text x="900.0" y="1129" text-anchor="middle" class="card-title">Controlled WI / PLM</text><text x="900.0" y="1149" text-anchor="middle" class="card-title">Source Documents</text><text x="900.0" y="1180" text-anchor="middle" class="card-sub">authoritative execution and revision control</text></g>
<text x="1470" y="1203" class="note" fill="#2563EB">blue = synthesis fan-out</text>
<text x="1470" y="1223" class="note" fill="#16A34A">green = source-bound fan-in</text>
<text x="900.0" y="1279" text-anchor="middle" class="note">Example note: row-level buses and side trunks are generated from explicit row/col contract fields.</text>
</svg>
