<svg xmlns="http://www.w3.org/2000/svg" width="1500" height="1067" viewBox="0 0 1500 1067" role="img" aria-label="OCS R300 Manufacturing Knowledge Topology">
<defs>
  <filter id="shadow" x="-20%" y="-30%" width="140%" height="170%"><feDropShadow dx="0" dy="8" stdDeviation="8" flood-color="#0F172A" flood-opacity="0.10"/></filter>
  <marker id="arrow" markerWidth="10" markerHeight="10" refX="8.5" refY="3" orient="auto" markerUnits="strokeWidth"><path d="M0,0 L0,6 L9,3 z" fill="#334155"/></marker>
  <marker id="arrow-fanout" markerWidth="10" markerHeight="10" refX="8.5" refY="3" orient="auto" markerUnits="strokeWidth"><path d="M0,0 L0,6 L9,3 z" fill="#2563EB"/></marker>
  <marker id="arrow-fanin" markerWidth="10" markerHeight="10" refX="8.5" refY="3" orient="auto" markerUnits="strokeWidth"><path d="M0,0 L0,6 L9,3 z" fill="#16A34A"/></marker>
  <style>
    .title{font:700 30px Inter,Segoe UI,Aptos,Arial,sans-serif;fill:#0F172A}
    .subtitle{font:400 14px Inter,Segoe UI,Aptos,Arial,sans-serif;fill:#64748B}
    .group-label{font:700 13px Inter,Segoe UI,Aptos,Arial,sans-serif;fill:#475569;letter-spacing:.06em;text-transform:uppercase}
    .card-title{font:700 17px Inter,Segoe UI,Aptos,Arial,sans-serif;fill:#0F172A}
    .card-sub{font:500 12.5px Inter,Segoe UI,Aptos,Arial,sans-serif;fill:#64748B}
    .edge{fill:none;stroke:#334155;stroke-width:2;stroke-linecap:round;stroke-linejoin:round;opacity:.76}
    .fanout{stroke:#2563EB;opacity:.74}
    .fanin{stroke:#16A34A;opacity:.74}
    .route-shared{marker-end:none}
    .edge-dashed{stroke-dasharray:8 8;opacity:.66}
    .note{font:500 12px Inter,Segoe UI,Aptos,Arial,sans-serif;fill:#64748B}
    .icon-line{fill:none;stroke-width:1.8;stroke-linecap:round;stroke-linejoin:round}
  </style>
</defs>
<rect x="0" y="0" width="1500" height="1067" rx="28" fill="#F8FBFF"/>
<text x="750.0" y="54" text-anchor="middle" class="title">OCS R300 Manufacturing Knowledge Topology</text>
<text x="750.0" y="80" text-anchor="middle" class="subtitle">Example only: layered knowledge architecture, not a fixed template</text>
<rect x="70" y="115" width="1360" height="196" rx="26" fill="#EEF6FF" opacity="0.58"/>
<text x="98" y="138" class="group-label">Navigation layer</text>
<rect x="70" y="343" width="1360" height="196" rx="26" fill="#EEF6FF" opacity="0.58"/>
<text x="98" y="366" class="group-label">Product-level synthesis</text>
<rect x="70" y="571" width="1360" height="196" rx="26" fill="#EEF6FF" opacity="0.58"/>
<text x="98" y="594" class="group-label">WI-derived knowledge layer</text>
<rect x="70" y="799" width="1360" height="196" rx="26" fill="#EEF6FF" opacity="0.58"/>
<text x="98" y="822" class="group-label">Controlled-source boundary</text>
<path d="M 514.0 229.0 L 570.0 229.0" class="edge edge-dashed" marker-end="url(#arrow)"/>
<path d="M 930.0 229.0 L 986.0 229.0" class="edge edge-dashed" marker-end="url(#arrow)"/>
<path d="M 750.0 279 L 750.0 329.0 Q 750.0 343.0 736.0 343.0 L 348.0 343.0 Q 334.0 343.0 334.0 357.0 L 334.0 407" class="edge" marker-end="url(#arrow)"/>
<path d="M 750.0 279 L 750.0 407" class="edge" marker-end="url(#arrow)"/>
<path d="M 750.0 279 L 750.0 329.0 Q 750.0 343.0 764.0 343.0 L 1152.0 343.0 Q 1166.0 343.0 1166.0 357.0 L 1166.0 407" class="edge" marker-end="url(#arrow)"/>
<path d="M 750.0 507 L 750.0 557.0 Q 750.0 571.0 736.0 571.0 L 274.25 571.0 Q 260.25 571.0 260.25 585.0 L 260.25 635" class="edge" marker-end="url(#arrow)"/>
<path d="M 750.0 507 L 750.0 557.0 Q 750.0 571.0 736.0 571.0 L 600.75 571.0 Q 586.75 571.0 586.75 585.0 L 586.75 635" class="edge" marker-end="url(#arrow)"/>
<path d="M 750.0 507 L 750.0 557.0 Q 750.0 571.0 764.0 571.0 L 899.25 571.0 Q 913.25 571.0 913.25 585.0 L 913.25 635" class="edge" marker-end="url(#arrow)"/>
<path d="M 750.0 507 L 750.0 557.0 Q 750.0 571.0 764.0 571.0 L 1225.75 571.0 Q 1239.75 571.0 1239.75 585.0 L 1239.75 635" class="edge" marker-end="url(#arrow)"/>
<path d="M 260.25 735 L 260.25 785.0 Q 260.25 799.0 274.25 799.0 L 736.0 799.0 Q 750.0 799.0 750.0 813.0 L 750.0 863" class="edge" marker-end="url(#arrow)"/>
<path d="M 586.75 735 L 586.75 785.0 Q 586.75 799.0 600.75 799.0 L 736.0 799.0 Q 750.0 799.0 750.0 813.0 L 750.0 863" class="edge" marker-end="url(#arrow)"/>
<path d="M 913.25 735 L 913.25 785.0 Q 913.25 799.0 899.25 799.0 L 764.0 799.0 Q 750.0 799.0 750.0 813.0 L 750.0 863" class="edge" marker-end="url(#arrow)"/>
<path d="M 1239.75 735 L 1239.75 785.0 Q 1239.75 799.0 1225.75 799.0 L 764.0 799.0 Q 750.0 799.0 750.0 813.0 L 750.0 863" class="edge" marker-end="url(#arrow)"/>
<g id="node-moc" class="card node-card"><rect x="154.0" y="179" width="360" height="100" rx="20" fill="#FFFFFF" stroke="#2F7DFF" stroke-width="2.2" filter="url(#shadow)"/><rect x="178.0" y="204" width="18" height="20" rx="3" fill="#EFF6FF" stroke="#2F7DFF" stroke-width="1.7"/><path d="M182.0,210 H192.0 M182.0,215 H192.0 M182.0,220 H189.0" class="icon-line" stroke="#2F7DFF"/><text x="334.0" y="210" text-anchor="middle" class="card-title">Manufacturing MOC</text><text x="334.0" y="241" text-anchor="middle" class="card-sub">entry point</text></g>
<g id="node-query" class="card node-card"><rect x="570.0" y="179" width="360" height="100" rx="20" fill="#FFFFFF" stroke="#06B6D4" stroke-width="2.2" filter="url(#shadow)"/><circle cx="602.0" cy="212" r="7" fill="#ECFEFF" stroke="#06B6D4" stroke-width="1.7"/><path d="M608.0,218 L614.0,224" class="icon-line" stroke="#06B6D4"/><text x="750.0" y="210" text-anchor="middle" class="card-title">Query Guide</text><text x="750.0" y="241" text-anchor="middle" class="card-sub">where to look</text></g>
<g id="node-glossary" class="card node-card"><rect x="986.0" y="179" width="360" height="100" rx="20" fill="#FFFFFF" stroke="#7C3AED" stroke-width="2.2" filter="url(#shadow)"/><path d="M1010.0,204 H1026.0 Q1030.0,204 1030.0,208 V223 H1010.0 Z" fill="#F5F3FF" stroke="#7C3AED" stroke-width="1.7"/><path d="M1015.0,210 H1024.0 M1015.0,216 H1024.0" class="icon-line" stroke="#7C3AED"/><text x="1166.0" y="210" text-anchor="middle" class="card-title">Glossary / Ontology</text><text x="1166.0" y="241" text-anchor="middle" class="card-sub">shared language</text></g>
<g id="node-process" class="card node-card"><rect x="154.0" y="407" width="360" height="100" rx="20" fill="#FFFFFF" stroke="#2F7DFF" stroke-width="2.2" filter="url(#shadow)"/><circle cx="182.0" cy="443" r="4" fill="#EFF6FF" stroke="#2F7DFF" stroke-width="1.6"/><circle cx="196.0" cy="436" r="4" fill="#EFF6FF" stroke="#2F7DFF" stroke-width="1.6"/><circle cx="196.0" cy="450" r="4" fill="#EFF6FF" stroke="#2F7DFF" stroke-width="1.6"/><path d="M186.0,443 H190.0 M192.0,439 L190.0,443 L192.0,447" class="icon-line" stroke="#2F7DFF"/><text x="334.0" y="433" text-anchor="middle" class="card-title">End-to-End Process</text><text x="334.0" y="453" text-anchor="middle" class="card-title">Overview</text><text x="334.0" y="484" text-anchor="middle" class="card-sub">product-level flow</text></g>
<g id="node-ctq" class="card node-card"><rect x="570.0" y="407" width="360" height="100" rx="20" fill="#FFFFFF" stroke="#F97316" stroke-width="2.2" filter="url(#shadow)"/><path d="M604.0,432 L614.0,450 H594.0 Z" fill="#FFF7ED" stroke="#F97316" stroke-width="1.7"/><path d="M604.0,439 V445 M604.0,449 V449" class="icon-line" stroke="#F97316"/><text x="750.0" y="433" text-anchor="middle" class="card-title">CTQ &amp; Parameter Master</text><text x="750.0" y="453" text-anchor="middle" class="card-title">Register</text><text x="750.0" y="484" text-anchor="middle" class="card-sub">quality + parameter families</text></g>
<g id="node-risk" class="card node-card"><rect x="986.0" y="407" width="360" height="100" rx="20" fill="#FFFFFF" stroke="#7C3AED" stroke-width="2.2" filter="url(#shadow)"/><path d="M1020.0,432 L1029.0,437 V447 L1020.0,452 L1011.0,447 V437 Z" fill="#F5F3FF" stroke="#7C3AED" stroke-width="1.7"/><path d="M1016.0,442 L1019.0,446 L1025.0,438" class="icon-line" stroke="#7C3AED"/><text x="1166.0" y="438" text-anchor="middle" class="card-title">Defect &amp; Risk Taxonomy</text><text x="1166.0" y="469" text-anchor="middle" class="card-sub">cross-group risk concepts</text></g>
<g id="node-mems" class="card node-card"><rect x="125.0" y="635" width="270.5" height="100" rx="20" fill="#FFFFFF" stroke="#22C55E" stroke-width="2.2" filter="url(#shadow)"/><rect x="149.0" y="663" width="20" height="16" rx="3" fill="#ECFDF5" stroke="#22C55E" stroke-width="1.7"/><path d="M149.0,668 H169.0 M159.0,663 V679" class="icon-line" stroke="#22C55E"/><text x="260.25" y="666" text-anchor="middle" class="card-title">MEMS Package</text><text x="260.25" y="697" text-anchor="middle" class="card-sub">source-bound sub-KB</text></g>
<g id="node-mca" class="card node-card"><rect x="451.5" y="635" width="270.5" height="100" rx="20" fill="#FFFFFF" stroke="#22C55E" stroke-width="2.2" filter="url(#shadow)"/><rect x="475.5" y="663" width="20" height="16" rx="3" fill="#ECFDF5" stroke="#22C55E" stroke-width="1.7"/><path d="M475.5,668 H495.5 M485.5,663 V679" class="icon-line" stroke="#22C55E"/><text x="586.75" y="666" text-anchor="middle" class="card-title">MCA Package</text><text x="586.75" y="697" text-anchor="middle" class="card-sub">source-bound sub-KB</text></g>
<g id="node-obm" class="card node-card"><rect x="778.0" y="635" width="270.5" height="100" rx="20" fill="#FFFFFF" stroke="#22C55E" stroke-width="2.2" filter="url(#shadow)"/><rect x="802.0" y="663" width="20" height="16" rx="3" fill="#ECFDF5" stroke="#22C55E" stroke-width="1.7"/><path d="M802.0,668 H822.0 M812.0,663 V679" class="icon-line" stroke="#22C55E"/><text x="913.25" y="666" text-anchor="middle" class="card-title">OBM Assy</text><text x="913.25" y="697" text-anchor="middle" class="card-sub">source-bound sub-KB</text></g>
<g id="node-pob" class="card node-card"><rect x="1104.5" y="635" width="270.5" height="100" rx="20" fill="#FFFFFF" stroke="#22C55E" stroke-width="2.2" filter="url(#shadow)"/><rect x="1128.5" y="663" width="20" height="16" rx="3" fill="#ECFDF5" stroke="#22C55E" stroke-width="1.7"/><path d="M1128.5,668 H1148.5 M1138.5,663 V679" class="icon-line" stroke="#22C55E"/><text x="1239.75" y="666" text-anchor="middle" class="card-title">POB</text><text x="1239.75" y="697" text-anchor="middle" class="card-sub">source-bound sub-KB</text></g>
<g id="node-controlled_sources" class="card node-card"><rect x="570.0" y="863" width="360" height="100" rx="20" fill="#FFFFFF" stroke="#334155" stroke-width="2.2" filter="url(#shadow)"/><path d="M594.0,888 H608.0 L614.0,894 V908 H594.0 Z" fill="#F8FAFC" stroke="#334155" stroke-width="1.7"/><path d="M608.0,888 V894 H614.0" class="icon-line" stroke="#334155"/><text x="750.0" y="889" text-anchor="middle" class="card-title">Controlled WI / PLM</text><text x="750.0" y="909" text-anchor="middle" class="card-title">Source Documents</text><text x="750.0" y="940" text-anchor="middle" class="card-sub">execution authority and revision control</text></g>
<text x="750.0" y="1039" text-anchor="middle" class="note">Example note: derived knowledge maps support navigation; controlled source documents remain the execution authority.</text>
</svg>
