<svg xmlns="http://www.w3.org/2000/svg" width="1740" height="693" viewBox="0 0 1740 693" role="img" aria-label="Knowledge Taxonomy Reference" data-style="accent-blueprint" data-diagram-type="taxonomy_tree">
<defs>
  <pattern id="blueprint-grid-small" width="12" height="12" patternUnits="userSpaceOnUse"><path d="M 12 0 H 0 V 12" fill="none" stroke="#FFFFFF" stroke-opacity="0.08" stroke-width="0.7"/></pattern>
  <pattern id="blueprint-grid" width="60" height="60" patternUnits="userSpaceOnUse"><rect width="60" height="60" fill="url(#blueprint-grid-small)"/><path d="M 60 0 H 0 V 60" fill="none" stroke="#FFFFFF" stroke-opacity="0.14" stroke-width="1"/> </pattern>
  <marker id="arrow" markerWidth="10" markerHeight="10" refX="8.5" refY="3" orient="auto" markerUnits="strokeWidth"><path d="M0,0 L0,6 L9,3 z" fill="context-stroke"/></marker>
  <marker id="arrow-fanout" markerWidth="10" markerHeight="10" refX="8.5" refY="3" orient="auto" markerUnits="strokeWidth"><path d="M0,0 L0,6 L9,3 z" fill="context-stroke"/></marker>
  <marker id="arrow-fanin" markerWidth="10" markerHeight="10" refX="8.5" refY="3" orient="auto" markerUnits="strokeWidth"><path d="M0,0 L0,6 L9,3 z" fill="context-stroke"/></marker>
  <style>
    [data-style="accent-blueprint"] .title{font:700 27px IBM Plex Mono,JetBrains Mono,Consolas,monospace;fill:#F4F8FF;letter-spacing:.04em;text-transform:uppercase}
    [data-style="accent-blueprint"] .subtitle{font:400 13px IBM Plex Sans,Inter,Roboto Condensed,DIN,Segoe UI,Aptos,Arial,sans-serif;fill:#C9DAF5}
    [data-style="accent-blueprint"] .group-label{font:700 15px IBM Plex Mono,JetBrains Mono,Consolas,monospace;fill:#C9DAF5;letter-spacing:.08em;text-transform:uppercase}
    [data-style="accent-blueprint"] .card-title{font:700 17px IBM Plex Sans,Inter,Roboto Condensed,DIN,Segoe UI,Aptos,Arial,sans-serif;fill:#F4F8FF}
    [data-style="accent-blueprint"] .card-sub{font:500 13px IBM Plex Sans,Inter,Roboto Condensed,DIN,Segoe UI,Aptos,Arial,sans-serif;fill:#C9DAF5}
    [data-style="accent-blueprint"] .edge{fill:none;stroke:#F4F8FF;stroke-width:1.5;stroke-linecap:round;stroke-linejoin:round;opacity:0.88}
    [data-style="accent-blueprint"] .fanout{stroke:#FF9F2E;opacity:0.9}
    [data-style="accent-blueprint"] .fanin{stroke:#6EE66E;opacity:0.9}
    [data-style="accent-blueprint"] .route-shared{marker-end:none}
    [data-style="accent-blueprint"] .edge-dashed{stroke-dasharray:6 5;opacity:0.68}
    [data-style="accent-blueprint"] .note{font:500 14px IBM Plex Sans,Inter,Roboto Condensed,DIN,Segoe UI,Aptos,Arial,sans-serif;fill:#C9DAF5}
    [data-style="accent-blueprint"] .mono{font-family:IBM Plex Mono,JetBrains Mono,Consolas,monospace}
    [data-style="accent-blueprint"] .table-header{font:700 15.5px IBM Plex Mono,JetBrains Mono,Consolas,monospace;fill:#F4F8FF;letter-spacing:.08em;text-transform:uppercase}
    [data-style="accent-blueprint"] .table-cell{font:500 17px IBM Plex Sans,Inter,Roboto Condensed,DIN,Segoe UI,Aptos,Arial,sans-serif;fill:#F4F8FF}
    [data-style="accent-blueprint"] .table-cell-secondary{font:500 17px IBM Plex Sans,Inter,Roboto Condensed,DIN,Segoe UI,Aptos,Arial,sans-serif;fill:#C9DAF5}
    [data-style="accent-blueprint"] .tree-level-label{font:700 15px IBM Plex Mono,JetBrains Mono,Consolas,monospace;fill:#C9DAF5;letter-spacing:.08em;text-transform:uppercase}
    [data-style="accent-blueprint"] .hub-label{font:700 15px IBM Plex Mono,JetBrains Mono,Consolas,monospace;fill:#C9DAF5;letter-spacing:.08em;text-transform:uppercase}
    [data-style="accent-blueprint"] .icon-line{fill:none;stroke-width:1.3;stroke-linecap:round;stroke-linejoin:round}
  </style>
</defs>
<rect x="0" y="0" width="1740" height="693" rx="0" fill="#062B5F"/>
<rect x="0" y="0" width="1740" height="693" rx="0" fill="url(#blueprint-grid)" opacity="1"/>
<text x="870.0" y="54" text-anchor="middle" class="title">Knowledge Taxonomy Reference</text>
<text x="870.0" y="80" text-anchor="middle" class="subtitle">Standard taxonomy_tree diagram type</text>
<path d="M 870.0 215.0 L 870.0 243.0 Q 870.0 257.0 856.0 257.0 L 336.0 257.0 Q 322.0 257.0 322.0 271.0 L 322.0 299.0" class="edge taxonomy-link" marker-end="url(#arrow)"/>
<path d="M 870.0 215.0 L 870.0 299.0" class="edge taxonomy-link" marker-end="url(#arrow)"/>
<path d="M 870.0 215.0 L 870.0 243.0 Q 870.0 257.0 884.0 257.0 L 1404.0 257.0 Q 1418.0 257.0 1418.0 271.0 L 1418.0 299.0" class="edge taxonomy-link" marker-end="url(#arrow)"/>
<path d="M 322.0 399.0 L 322.0 427.0 Q 322.0 441.0 308.0 441.0 L 199.0 441.0 Q 185.0 441.0 185.0 455.0 L 185.0 483.0" class="edge taxonomy-link" marker-end="url(#arrow)"/>
<path d="M 322.0 399.0 L 322.0 427.0 Q 322.0 441.0 336.0 441.0 L 445.0 441.0 Q 459.0 441.0 459.0 455.0 L 459.0 483.0" class="edge taxonomy-link" marker-end="url(#arrow)"/>
<path d="M 870.0 399.0 L 870.0 427.0 Q 870.0 441.0 856.0 441.0 L 747.0 441.0 Q 733.0 441.0 733.0 455.0 L 733.0 483.0" class="edge taxonomy-link" marker-end="url(#arrow)"/>
<path d="M 870.0 399.0 L 870.0 427.0 Q 870.0 441.0 884.0 441.0 L 993.0 441.0 Q 1007.0 441.0 1007.0 455.0 L 1007.0 483.0" class="edge taxonomy-link" marker-end="url(#arrow)"/>
<path d="M 1418.0 399.0 L 1418.0 427.0 Q 1418.0 441.0 1404.0 441.0 L 1295.0 441.0 Q 1281.0 441.0 1281.0 455.0 L 1281.0 483.0" class="edge taxonomy-link" marker-end="url(#arrow)"/>
<path d="M 1418.0 399.0 L 1418.0 427.0 Q 1418.0 441.0 1432.0 441.0 L 1541.0 441.0 Q 1555.0 441.0 1555.0 455.0 L 1555.0 483.0" class="edge taxonomy-link" marker-end="url(#arrow)"/>
<g id="node-root" class="card node-card"><rect x="755.0" y="115.0" width="230.0" height="100.0" rx="6" fill="#FFFFFF" fill-opacity="0.03" stroke="#16D9FF" stroke-width="1.3"/><circle cx="783.0" cy="165.0" r="8" fill="none" stroke="#16D9FF" stroke-width="1.2"/><path d="M778.0,165.0 H788.0 M783.0,160.0 V170.0" class="icon-line" stroke="#16D9FF"/><text x="809.0" y="151.5486" text-anchor="start" class="card-title" style="font-size:23.2px">Knowledge</text><text x="809.0" y="176.62619999999998" text-anchor="start" class="card-title" style="font-size:23.2px">Assets</text><text x="809.0" y="199.9434" text-anchor="start" class="card-sub" style="font-size:17.3px">root class</text></g>
<g id="node-maps" class="card node-card"><rect x="207.0" y="299.0" width="230.0" height="100.0" rx="6" fill="#FFFFFF" fill-opacity="0.03" stroke="#16D9FF" stroke-width="1.3"/><rect x="225.0" y="342.0" width="20" height="16" rx="3" fill="none" stroke="#16D9FF" stroke-width="1.2"/><path d="M225.0,347.0 H245.0 M235.0,342.0 V358.0" class="icon-line" stroke="#16D9FF"/><text x="261.0" y="348.0874" text-anchor="start" class="card-title" style="font-size:23.2px">Maps</text><text x="261.0" y="371.40459999999996" text-anchor="start" class="card-sub" style="font-size:17.3px">navigation views</text></g>
<g id="node-registers" class="card node-card"><rect x="755.0" y="299.0" width="230.0" height="100.0" rx="6" fill="#FFFFFF" fill-opacity="0.03" stroke="#FFD84D" stroke-width="1.3"/><path d="M783.0,339.0 L793.0,357.0 H773.0 Z" fill="none" stroke="#FFD84D" stroke-width="1.2"/><path d="M783.0,346.0 V352.0 M783.0,356.0 V356.0" class="icon-line" stroke="#FFD84D"/><text x="809.0" y="348.0874" text-anchor="start" class="card-title" style="font-size:23.2px">Registers</text><text x="809.0" y="371.40459999999996" text-anchor="start" class="card-sub" style="font-size:17.3px">controlled tables</text></g>
<g id="node-modules" class="card node-card"><rect x="1303.0" y="299.0" width="230.0" height="100.0" rx="6" fill="#FFFFFF" fill-opacity="0.03" stroke="#6EE66E" stroke-width="1.3"/><rect x="1321.0" y="342.0" width="20" height="16" rx="3" fill="none" stroke="#6EE66E" stroke-width="1.2"/><path d="M1321.0,347.0 H1341.0 M1331.0,342.0 V358.0" class="icon-line" stroke="#6EE66E"/><text x="1357.0" y="348.0874" text-anchor="start" class="card-title" style="font-size:23.2px">Modules</text><text x="1357.0" y="371.40459999999996" text-anchor="start" class="card-sub" style="font-size:17.3px">reusable assets</text></g>
<g id="node-domain" class="card node-card"><rect x="70.0" y="483.0" width="230.0" height="100.0" rx="6" fill="#FFFFFF" fill-opacity="0.03" stroke="#16D9FF" stroke-width="1.3"/><rect x="88.0" y="526.0" width="20" height="16" rx="3" fill="none" stroke="#16D9FF" stroke-width="1.2"/><path d="M88.0,531.0 H108.0 M98.0,526.0 V542.0" class="icon-line" stroke="#16D9FF"/><text x="124.0" y="522.5834" text-anchor="start" class="card-title" style="font-size:23.2px">Domain Map</text><text x="124.0" y="545.9006" text-anchor="start" class="card-sub" style="font-size:17.3px">systems +</text><text x="124.0" y="564.9086000000001" text-anchor="start" class="card-sub" style="font-size:17.3px">interfaces</text></g>
<g id="node-boundary" class="card node-card"><rect x="344.0" y="483.0" width="230.0" height="100.0" rx="6" fill="#FFFFFF" fill-opacity="0.03" stroke="#FF9F2E" stroke-width="1.3"/><path d="M372.0,523.0 L382.0,533.0 L372.0,543.0 L362.0,533.0 Z" fill="none" stroke="#FF9F2E" stroke-width="1.2"/><path d="M368.0,533.0 H376.0" class="icon-line" stroke="#FF9F2E"/><text x="398.0" y="522.5834" text-anchor="start" class="card-title" style="font-size:23.2px">Boundary Map</text><text x="398.0" y="545.9006" text-anchor="start" class="card-sub" style="font-size:17.3px">authority +</text><text x="398.0" y="564.9086000000001" text-anchor="start" class="card-sub" style="font-size:17.3px">ownership</text></g>
<g id="node-glossary" class="card node-card"><rect x="618.0" y="483.0" width="230.0" height="100.0" rx="6" fill="#FFFFFF" fill-opacity="0.03" stroke="#B56CFF" stroke-width="1.3"/><path d="M636.0,523.0 H652.0 Q656.0,523.0 656.0,527.0 V542.0 H636.0 Z" fill="none" stroke="#B56CFF" stroke-width="1.2"/><path d="M641.0,529.0 H650.0 M641.0,535.0 H650.0" class="icon-line" stroke="#B56CFF"/><text x="672.0" y="532.0874" text-anchor="start" class="card-title" style="font-size:23.2px">Glossary</text><text x="672.0" y="555.4046" text-anchor="start" class="card-sub" style="font-size:17.3px">terms</text></g>
<g id="node-risk" class="card node-card"><rect x="892.0" y="483.0" width="230.0" height="100.0" rx="6" fill="#FFFFFF" fill-opacity="0.03" stroke="#FFD84D" stroke-width="1.3"/><path d="M920.0,523.0 L929.0,528.0 V538.0 L920.0,543.0 L911.0,538.0 V528.0 Z" fill="none" stroke="#FFD84D" stroke-width="1.2"/><path d="M916.0,533.0 L919.0,537.0 L925.0,529.0" class="icon-line" stroke="#FFD84D"/><text x="946.0" y="532.0874" text-anchor="start" class="card-title" style="font-size:23.2px">Risk Register</text><text x="946.0" y="555.4046" text-anchor="start" class="card-sub" style="font-size:17.3px">constraints</text></g>
<g id="node-package" class="card node-card"><rect x="1166.0" y="483.0" width="230.0" height="100.0" rx="6" fill="#FFFFFF" fill-opacity="0.03" stroke="#6EE66E" stroke-width="1.3"/><rect x="1184.0" y="526.0" width="20" height="16" rx="3" fill="none" stroke="#6EE66E" stroke-width="1.2"/><path d="M1184.0,531.0 H1204.0 M1194.0,526.0 V542.0" class="icon-line" stroke="#6EE66E"/><text x="1220.0" y="519.5486" text-anchor="start" class="card-title" style="font-size:23.2px">Knowledge</text><text x="1220.0" y="544.6261999999999" text-anchor="start" class="card-title" style="font-size:23.2px">Package</text><text x="1220.0" y="567.9434" text-anchor="start" class="card-sub" style="font-size:17.3px">approved module</text></g>
<g id="node-evidence" class="card node-card"><rect x="1440.0" y="483.0" width="230.0" height="100.0" rx="6" fill="#FFFFFF" fill-opacity="0.03" stroke="#C9DAF5" stroke-width="1.3"/><path d="M1458.0,523.0 H1472.0 L1478.0,529.0 V543.0 H1458.0 Z" fill="none" stroke="#C9DAF5" stroke-width="1.2"/><path d="M1472.0,523.0 V529.0 H1478.0" class="icon-line" stroke="#C9DAF5"/><text x="1494.0" y="532.0874" text-anchor="start" class="card-title" style="font-size:23.2px">Evidence Set</text><text x="1494.0" y="555.4046" text-anchor="start" class="card-sub" style="font-size:17.3px">source-backed</text></g>
<text x="70" y="101.0" class="tree-level-label">Level 0</text>
<text x="70" y="285.0" class="tree-level-label">Level 1</text>
<text x="70" y="469.0" class="tree-level-label">Level 2</text>
<text x="870.0" y="665" text-anchor="middle" class="note">taxonomy_tree uses nodes[].parent for stable hierarchy placement.</text>
</svg>
