<svg xmlns="http://www.w3.org/2000/svg" width="1260" height="835" viewBox="0 0 1260 835" role="img" aria-label="Taxonomy Tree Reference" data-style="accent-blueprint" data-diagram-type="taxonomy_tree">
<defs>
  <pattern id="blueprint-grid-small" width="10.08" height="10.08" patternUnits="userSpaceOnUse"><path d="M 10.08 0 H 0 V 10.08" fill="none" stroke="#FFFFFF" stroke-opacity="0.08" stroke-width="0.59"/></pattern>
  <pattern id="blueprint-grid" width="50.4" height="50.4" patternUnits="userSpaceOnUse"><rect width="50.4" height="50.4" fill="url(#blueprint-grid-small)"/><path d="M 50.4 0 H 0 V 50.4" fill="none" stroke="#FFFFFF" stroke-opacity="0.14" stroke-width="0.84"/> </pattern>
  <marker id="arrow" markerWidth="10" markerHeight="10" refX="8.5" refY="3" orient="auto" markerUnits="strokeWidth"><path d="M0,0 L0,6 L9,3 z" fill="context-stroke"/></marker>
  <marker id="arrow-fanout" markerWidth="10" markerHeight="10" refX="8.5" refY="3" orient="auto" markerUnits="strokeWidth"><path d="M0,0 L0,6 L9,3 z" fill="context-stroke"/></marker>
  <marker id="arrow-fanin" markerWidth="10" markerHeight="10" refX="8.5" refY="3" orient="auto" markerUnits="strokeWidth"><path d="M0,0 L0,6 L9,3 z" fill="context-stroke"/></marker>
  <style>
    [data-style="accent-blueprint"] .title{font:700 27px IBM Plex Mono,JetBrains Mono,Consolas,monospace;fill:#F4F8FF;letter-spacing:.04em;text-transform:uppercase}
    [data-style="accent-blueprint"] .subtitle{font:400 13px IBM Plex Sans,Inter,Roboto Condensed,DIN,Segoe UI,Aptos,Arial,sans-serif;fill:#C9DAF5}
    [data-style="accent-blueprint"] .group-label{font:700 15px IBM Plex Mono,JetBrains Mono,Consolas,monospace;fill:#C9DAF5;letter-spacing:.08em;text-transform:uppercase}
    [data-style="accent-blueprint"] .card-title{font:700 17px IBM Plex Sans,Inter,Roboto Condensed,DIN,Segoe UI,Aptos,Arial,sans-serif;fill:#F4F8FF}
    [data-style="accent-blueprint"] .card-sub{font:500 13px IBM Plex Sans,Inter,Roboto Condensed,DIN,Segoe UI,Aptos,Arial,sans-serif;fill:#C9DAF5}
    [data-style="accent-blueprint"] .edge{fill:none;stroke:#F4F8FF;stroke-width:1.5;stroke-linecap:round;stroke-linejoin:round;opacity:0.88}
    [data-style="accent-blueprint"] .fanout{stroke:#FF9F2E;opacity:0.9}
    [data-style="accent-blueprint"] .fanin{stroke:#6EE66E;opacity:0.9}
    [data-style="accent-blueprint"] .route-shared{marker-end:none}
    [data-style="accent-blueprint"] .edge-dashed{stroke-dasharray:6 5;opacity:0.68}
    [data-style="accent-blueprint"] .note{font:500 14px IBM Plex Sans,Inter,Roboto Condensed,DIN,Segoe UI,Aptos,Arial,sans-serif;fill:#C9DAF5}
    [data-style="accent-blueprint"] .mono{font-family:IBM Plex Mono,JetBrains Mono,Consolas,monospace}
    [data-style="accent-blueprint"] .table-header{font:700 15.5px IBM Plex Mono,JetBrains Mono,Consolas,monospace;fill:#F4F8FF;letter-spacing:.08em;text-transform:uppercase}
    [data-style="accent-blueprint"] .table-cell{font:500 17px IBM Plex Sans,Inter,Roboto Condensed,DIN,Segoe UI,Aptos,Arial,sans-serif;fill:#F4F8FF}
    [data-style="accent-blueprint"] .table-cell-secondary{font:500 17px IBM Plex Sans,Inter,Roboto Condensed,DIN,Segoe UI,Aptos,Arial,sans-serif;fill:#C9DAF5}
    [data-style="accent-blueprint"] .info-panel-title{font:700 15px IBM Plex Mono,JetBrains Mono,Consolas,monospace;fill:#F4F8FF;letter-spacing:.08em;text-transform:uppercase}
    [data-style="accent-blueprint"] .info-panel-item{font:500 14px IBM Plex Sans,Inter,Roboto Condensed,DIN,Segoe UI,Aptos,Arial,sans-serif;fill:#C9DAF5}
    [data-style="accent-blueprint"] .tree-level-label{font:700 15px IBM Plex Mono,JetBrains Mono,Consolas,monospace;fill:#C9DAF5;letter-spacing:.08em;text-transform:uppercase}
    [data-style="accent-blueprint"] .hub-label{font:700 15px IBM Plex Mono,JetBrains Mono,Consolas,monospace;fill:#C9DAF5;letter-spacing:.08em;text-transform:uppercase}
    [data-style="accent-blueprint"] .icon-line{fill:none;stroke-width:1.3;stroke-linecap:round;stroke-linejoin:round}
  </style>
</defs>
<rect x="0" y="0" width="1260" height="835" rx="0" fill="#062B5F"/>
<rect x="0" y="0" width="1260" height="835" rx="0" fill="url(#blueprint-grid)" opacity="1"/>
<text x="630.0" y="54" text-anchor="middle" class="title">Taxonomy Tree Reference</text>
<text x="630.0" y="80.0" text-anchor="middle" class="subtitle">Reference contract for a multi-level taxonomy</text>
<path d="M 630.0 215.0 L 630.0 260.0 Q 630.0 274.0 616.0 274.0 L 338.0 274.0 Q 324.0 274.0 324.0 288.0 L 324.0 333.0" class="edge taxonomy-link taxonomy-backbone-link" marker-end="url(#arrow)" data-layout="family_backbone" data-link-tier="root_family" data-family="maps" data-parent="root" data-child="maps" data-depth="1" data-lane-y="274.0" style="stroke:#16D9FF;opacity:0.92"/>
<path d="M 630.0 215.0 L 630.0 269.0 Q 630.0 274.0 635.0 274.0 L 635.0 274.0 Q 640.0 274.0 640.0 279.0 L 640.0 333.0" class="edge taxonomy-link taxonomy-backbone-link" marker-end="url(#arrow)" data-layout="family_backbone" data-link-tier="root_family" data-family="registers" data-parent="root" data-child="registers" data-depth="1" data-lane-y="274.0" style="stroke:#FFD84D;opacity:0.92"/>
<path d="M 630.0 215.0 L 630.0 260.0 Q 630.0 274.0 644.0 274.0 L 942.0 274.0 Q 956.0 274.0 956.0 288.0 L 956.0 333.0" class="edge taxonomy-link taxonomy-backbone-link" marker-end="url(#arrow)" data-layout="family_backbone" data-link-tier="root_family" data-family="modules" data-parent="root" data-child="modules" data-depth="1" data-lane-y="274.0" style="stroke:#6EE66E;opacity:0.92"/>
<path d="M 324.0 433.0 L 324.0 445.0 Q 324.0 457.0 312.0 457.0 L 196.0 457.0 Q 182.0 457.0 182.0 471.0 L 182.0 531.0 Q 182.0 545.0 196.0 545.0 L 214.0 545.0" class="edge taxonomy-link taxonomy-backbone-link" marker-end="url(#arrow)" data-layout="family_backbone" data-link-tier="family_backbone" data-family="maps" data-parent="maps" data-child="domain" data-depth="2" data-backbone-x="182.0" data-branch-y="457.0" style="stroke:#16D9FF;opacity:0.92"/>
<path d="M 324.0 433.0 L 324.0 445.0 Q 324.0 457.0 312.0 457.0 L 196.0 457.0 Q 182.0 457.0 182.0 471.0 L 182.0 661.0 Q 182.0 675.0 196.0 675.0 L 214.0 675.0" class="edge taxonomy-link taxonomy-backbone-link" marker-end="url(#arrow)" data-layout="family_backbone" data-link-tier="family_backbone" data-family="maps" data-parent="maps" data-child="boundary" data-depth="2" data-backbone-x="182.0" data-branch-y="457.0" style="stroke:#16D9FF;opacity:0.92"/>
<path d="M 640.0 433.0 L 640.0 445.0 Q 640.0 457.0 628.0 457.0 L 512.0 457.0 Q 498.0 457.0 498.0 471.0 L 498.0 531.0 Q 498.0 545.0 512.0 545.0 L 530.0 545.0" class="edge taxonomy-link taxonomy-backbone-link" marker-end="url(#arrow)" data-layout="family_backbone" data-link-tier="family_backbone" data-family="registers" data-parent="registers" data-child="glossary" data-depth="2" data-backbone-x="498.0" data-branch-y="457.0" style="stroke:#FFD84D;opacity:0.92"/>
<path d="M 640.0 433.0 L 640.0 445.0 Q 640.0 457.0 628.0 457.0 L 512.0 457.0 Q 498.0 457.0 498.0 471.0 L 498.0 661.0 Q 498.0 675.0 512.0 675.0 L 530.0 675.0" class="edge taxonomy-link taxonomy-backbone-link" marker-end="url(#arrow)" data-layout="family_backbone" data-link-tier="family_backbone" data-family="registers" data-parent="registers" data-child="risk" data-depth="2" data-backbone-x="498.0" data-branch-y="457.0" style="stroke:#FFD84D;opacity:0.92"/>
<path d="M 956.0 433.0 L 956.0 445.0 Q 956.0 457.0 944.0 457.0 L 828.0 457.0 Q 814.0 457.0 814.0 471.0 L 814.0 531.0 Q 814.0 545.0 828.0 545.0 L 846.0 545.0" class="edge taxonomy-link taxonomy-backbone-link" marker-end="url(#arrow)" data-layout="family_backbone" data-link-tier="family_backbone" data-family="modules" data-parent="modules" data-child="package" data-depth="2" data-backbone-x="814.0" data-branch-y="457.0" style="stroke:#6EE66E;opacity:0.92"/>
<path d="M 956.0 433.0 L 956.0 445.0 Q 956.0 457.0 944.0 457.0 L 828.0 457.0 Q 814.0 457.0 814.0 471.0 L 814.0 661.0 Q 814.0 675.0 828.0 675.0 L 846.0 675.0" class="edge taxonomy-link taxonomy-backbone-link" marker-end="url(#arrow)" data-layout="family_backbone" data-link-tier="family_backbone" data-family="modules" data-parent="modules" data-child="evidence" data-depth="2" data-backbone-x="814.0" data-branch-y="457.0" style="stroke:#6EE66E;opacity:0.92"/>
<g id="node-root" class="card node-card"><rect x="520.0" y="115.0" width="220.0" height="100.0" rx="6" fill="#FFFFFF" fill-opacity="0.03" stroke="#16D9FF" stroke-width="1.3"/><circle cx="546.0" cy="165.0" r="8" fill="none" stroke="#16D9FF" stroke-width="1.2"/><path d="M541.0,165.0 H551.0 M546.0,160.0 V170.0" class="icon-line" stroke="#16D9FF"/><text x="564.0" y="152.99" text-anchor="start" class="card-title" style="font-size:20.5px">Knowledge</text><text x="564.0" y="175.13" text-anchor="start" class="card-title" style="font-size:20.5px">Assets</text><text x="564.0" y="195.96" text-anchor="start" class="card-sub" style="font-size:15.5px">root class</text></g>
<g id="node-maps" class="card node-card"><rect x="214.0" y="333.0" width="220.0" height="100.0" rx="6" fill="#FFFFFF" fill-opacity="0.03" stroke="#16D9FF" stroke-width="1.3"/><rect x="230.0" y="376.0" width="20" height="16" rx="3" fill="none" stroke="#16D9FF" stroke-width="1.2"/><path d="M230.0,381.0 H250.0 M240.0,376.0 V392.0" class="icon-line" stroke="#16D9FF"/><text x="258.0" y="382.06" text-anchor="start" class="card-title" style="font-size:20.5px">Maps</text><text x="258.0" y="402.89" text-anchor="start" class="card-sub" style="font-size:15.5px">navigation views</text></g>
<g id="node-registers" class="card node-card"><rect x="530.0" y="333.0" width="220.0" height="100.0" rx="6" fill="#FFFFFF" fill-opacity="0.03" stroke="#FFD84D" stroke-width="1.3"/><path d="M556.0,373.0 L566.0,391.0 H546.0 Z" fill="none" stroke="#FFD84D" stroke-width="1.2"/><path d="M556.0,380.0 V386.0 M556.0,390.0 V390.0" class="icon-line" stroke="#FFD84D"/><text x="574.0" y="382.06" text-anchor="start" class="card-title" style="font-size:20.5px">Registers</text><text x="574.0" y="402.89" text-anchor="start" class="card-sub" style="font-size:15.5px">controlled tables</text></g>
<g id="node-modules" class="card node-card"><rect x="846.0" y="333.0" width="220.0" height="100.0" rx="6" fill="#FFFFFF" fill-opacity="0.03" stroke="#6EE66E" stroke-width="1.3"/><rect x="862.0" y="376.0" width="20" height="16" rx="3" fill="none" stroke="#6EE66E" stroke-width="1.2"/><path d="M862.0,381.0 H882.0 M872.0,376.0 V392.0" class="icon-line" stroke="#6EE66E"/><text x="890.0" y="382.06" text-anchor="start" class="card-title" style="font-size:20.5px">Modules</text><text x="890.0" y="402.89" text-anchor="start" class="card-sub" style="font-size:15.5px">reusable assets</text></g>
<g id="node-domain" class="card node-card"><rect x="214.0" y="495.0" width="220.0" height="100.0" rx="6" fill="#FFFFFF" fill-opacity="0.03" stroke="#16D9FF" stroke-width="1.3"/><rect x="230.0" y="538.0" width="20" height="16" rx="3" fill="none" stroke="#16D9FF" stroke-width="1.2"/><path d="M230.0,543.0 H250.0 M240.0,538.0 V554.0" class="icon-line" stroke="#16D9FF"/><text x="258.0" y="535.535" text-anchor="start" class="card-title" style="font-size:20.5px">Domain Map</text><text x="258.0" y="556.365" text-anchor="start" class="card-sub" style="font-size:15.5px">systems +</text><text x="258.0" y="573.415" text-anchor="start" class="card-sub" style="font-size:15.5px">interfaces</text></g>
<g id="node-glossary" class="card node-card"><rect x="530.0" y="495.0" width="220.0" height="100.0" rx="6" fill="#FFFFFF" fill-opacity="0.03" stroke="#B56CFF" stroke-width="1.3"/><path d="M546.0,535.0 H562.0 Q566.0,535.0 566.0,539.0 V554.0 H546.0 Z" fill="none" stroke="#B56CFF" stroke-width="1.2"/><path d="M551.0,541.0 H560.0 M551.0,547.0 H560.0" class="icon-line" stroke="#B56CFF"/><text x="574.0" y="544.06" text-anchor="start" class="card-title" style="font-size:20.5px">Glossary</text><text x="574.0" y="564.89" text-anchor="start" class="card-sub" style="font-size:15.5px">terms</text></g>
<g id="node-package" class="card node-card"><rect x="846.0" y="495.0" width="220.0" height="100.0" rx="6" fill="#FFFFFF" fill-opacity="0.03" stroke="#6EE66E" stroke-width="1.3"/><rect x="862.0" y="538.0" width="20" height="16" rx="3" fill="none" stroke="#6EE66E" stroke-width="1.2"/><path d="M862.0,543.0 H882.0 M872.0,538.0 V554.0" class="icon-line" stroke="#6EE66E"/><text x="890.0" y="532.99" text-anchor="start" class="card-title" style="font-size:20.5px">Knowledge</text><text x="890.0" y="555.13" text-anchor="start" class="card-title" style="font-size:20.5px">Package</text><text x="890.0" y="575.96" text-anchor="start" class="card-sub" style="font-size:15.5px">approved module</text></g>
<g id="node-boundary" class="card node-card"><rect x="214.0" y="625.0" width="220.0" height="100.0" rx="6" fill="#FFFFFF" fill-opacity="0.03" stroke="#FF9F2E" stroke-width="1.3"/><path d="M240.0,665.0 L250.0,675.0 L240.0,685.0 L230.0,675.0 Z" fill="none" stroke="#FF9F2E" stroke-width="1.2"/><path d="M236.0,675.0 H244.0" class="icon-line" stroke="#FF9F2E"/><text x="258.0" y="665.535" text-anchor="start" class="card-title" style="font-size:20.5px">Boundary Map</text><text x="258.0" y="686.365" text-anchor="start" class="card-sub" style="font-size:15.5px">authority +</text><text x="258.0" y="703.415" text-anchor="start" class="card-sub" style="font-size:15.5px">ownership</text></g>
<g id="node-risk" class="card node-card"><rect x="530.0" y="625.0" width="220.0" height="100.0" rx="6" fill="#FFFFFF" fill-opacity="0.03" stroke="#FFD84D" stroke-width="1.3"/><path d="M556.0,665.0 L565.0,670.0 V680.0 L556.0,685.0 L547.0,680.0 V670.0 Z" fill="none" stroke="#FFD84D" stroke-width="1.2"/><path d="M552.0,675.0 L555.0,679.0 L561.0,671.0" class="icon-line" stroke="#FFD84D"/><text x="574.0" y="674.06" text-anchor="start" class="card-title" style="font-size:20.5px">Risk Register</text><text x="574.0" y="694.89" text-anchor="start" class="card-sub" style="font-size:15.5px">constraints</text></g>
<g id="node-evidence" class="card node-card"><rect x="846.0" y="625.0" width="220.0" height="100.0" rx="6" fill="#FFFFFF" fill-opacity="0.03" stroke="#C9DAF5" stroke-width="1.3"/><path d="M862.0,665.0 H876.0 L882.0,671.0 V685.0 H862.0 Z" fill="none" stroke="#C9DAF5" stroke-width="1.2"/><path d="M876.0,665.0 V671.0 H882.0" class="icon-line" stroke="#C9DAF5"/><text x="890.0" y="674.06" text-anchor="start" class="card-title" style="font-size:20.5px">Evidence Set</text><text x="890.0" y="694.89" text-anchor="start" class="card-sub" style="font-size:15.5px">source-backed</text></g>
<text x="70.0" y="101.0" class="tree-level-label">Level 0</text>
<text x="70.0" y="319.0" class="tree-level-label">Level 1</text>
<text x="70.0" y="481.0" class="tree-level-label">Level 2+</text>
<text x="630.0" y="807" text-anchor="middle" class="note">Reference template: first-level families stay horizontal; deeper taxonomy nodes use family backbones.</text>
</svg>
