<svg xmlns="http://www.w3.org/2000/svg" width="1800" height="789" viewBox="0 0 1800 789" role="img" aria-label="Taxonomy Tree Reference" data-style="accent-blueprint" data-diagram-type="taxonomy_tree">
<defs>
  <pattern id="blueprint-grid-small" width="12" height="12" patternUnits="userSpaceOnUse"><path d="M 12 0 H 0 V 12" fill="none" stroke="#FFFFFF" stroke-opacity="0.08" stroke-width="0.7"/></pattern>
  <pattern id="blueprint-grid" width="60" height="60" patternUnits="userSpaceOnUse"><rect width="60" height="60" fill="url(#blueprint-grid-small)"/><path d="M 60 0 H 0 V 60" fill="none" stroke="#FFFFFF" stroke-opacity="0.14" stroke-width="1"/> </pattern>
  <marker id="arrow" markerWidth="10" markerHeight="10" refX="8.5" refY="3" orient="auto" markerUnits="strokeWidth"><path d="M0,0 L0,6 L9,3 z" fill="context-stroke"/></marker>
  <marker id="arrow-fanout" markerWidth="10" markerHeight="10" refX="8.5" refY="3" orient="auto" markerUnits="strokeWidth"><path d="M0,0 L0,6 L9,3 z" fill="context-stroke"/></marker>
  <marker id="arrow-fanin" markerWidth="10" markerHeight="10" refX="8.5" refY="3" orient="auto" markerUnits="strokeWidth"><path d="M0,0 L0,6 L9,3 z" fill="context-stroke"/></marker>
  <style>
    [data-style="accent-blueprint"] .title{font:700 27px IBM Plex Mono,JetBrains Mono,Consolas,monospace;fill:#F4F8FF;letter-spacing:.04em;text-transform:uppercase}
    [data-style="accent-blueprint"] .subtitle{font:400 13px IBM Plex Sans,Inter,Roboto Condensed,DIN,Segoe UI,Aptos,Arial,sans-serif;fill:#C9DAF5}
    [data-style="accent-blueprint"] .group-label{font:700 15px IBM Plex Mono,JetBrains Mono,Consolas,monospace;fill:#C9DAF5;letter-spacing:.08em;text-transform:uppercase}
    [data-style="accent-blueprint"] .card-title{font:700 17px IBM Plex Sans,Inter,Roboto Condensed,DIN,Segoe UI,Aptos,Arial,sans-serif;fill:#F4F8FF}
    [data-style="accent-blueprint"] .card-sub{font:500 13px IBM Plex Sans,Inter,Roboto Condensed,DIN,Segoe UI,Aptos,Arial,sans-serif;fill:#C9DAF5}
    [data-style="accent-blueprint"] .edge{fill:none;stroke:#F4F8FF;stroke-width:1.5;stroke-linecap:round;stroke-linejoin:round;opacity:0.88}
    [data-style="accent-blueprint"] .fanout{stroke:#FF9F2E;opacity:0.9}
    [data-style="accent-blueprint"] .fanin{stroke:#6EE66E;opacity:0.9}
    [data-style="accent-blueprint"] .route-shared{marker-end:none}
    [data-style="accent-blueprint"] .edge-dashed{stroke-dasharray:6 5;opacity:0.68}
    [data-style="accent-blueprint"] .note{font:500 14px IBM Plex Sans,Inter,Roboto Condensed,DIN,Segoe UI,Aptos,Arial,sans-serif;fill:#C9DAF5}
    [data-style="accent-blueprint"] .mono{font-family:IBM Plex Mono,JetBrains Mono,Consolas,monospace}
    [data-style="accent-blueprint"] .table-header{font:700 15.5px IBM Plex Mono,JetBrains Mono,Consolas,monospace;fill:#F4F8FF;letter-spacing:.08em;text-transform:uppercase}
    [data-style="accent-blueprint"] .table-cell{font:500 17px IBM Plex Sans,Inter,Roboto Condensed,DIN,Segoe UI,Aptos,Arial,sans-serif;fill:#F4F8FF}
    [data-style="accent-blueprint"] .table-cell-secondary{font:500 17px IBM Plex Sans,Inter,Roboto Condensed,DIN,Segoe UI,Aptos,Arial,sans-serif;fill:#C9DAF5}
    [data-style="accent-blueprint"] .info-panel-title{font:700 15px IBM Plex Mono,JetBrains Mono,Consolas,monospace;fill:#F4F8FF;letter-spacing:.08em;text-transform:uppercase}
    [data-style="accent-blueprint"] .info-panel-item{font:500 14px IBM Plex Sans,Inter,Roboto Condensed,DIN,Segoe UI,Aptos,Arial,sans-serif;fill:#C9DAF5}
    [data-style="accent-blueprint"] .tree-level-label{font:700 15px IBM Plex Mono,JetBrains Mono,Consolas,monospace;fill:#C9DAF5;letter-spacing:.08em;text-transform:uppercase}
    [data-style="accent-blueprint"] .hub-label{font:700 15px IBM Plex Mono,JetBrains Mono,Consolas,monospace;fill:#C9DAF5;letter-spacing:.08em;text-transform:uppercase}
    [data-style="accent-blueprint"] .icon-line{fill:none;stroke-width:1.3;stroke-linecap:round;stroke-linejoin:round}
  </style>
</defs>
<rect x="0" y="0" width="1800" height="789" rx="0" fill="#062B5F"/>
<rect x="0" y="0" width="1800" height="789" rx="0" fill="url(#blueprint-grid)" opacity="1"/>
<text x="900.0" y="54" text-anchor="middle" class="title">Taxonomy Tree Reference</text>
<text x="900.0" y="80.0" text-anchor="middle" class="subtitle">Reference contract for a multi-level taxonomy</text>
<path d="M 900.0 215.0 L 900.0 267.0 Q 900.0 281.0 886.0 281.0 L 628.0 281.0 Q 614.0 281.0 614.0 295.0 L 614.0 347.0" class="edge taxonomy-link" marker-end="url(#arrow)" data-parent="root" data-child="maps" data-lane-y="281.0" style="stroke:#16D9FF;opacity:0.92"/>
<path d="M 900.0 215.0 L 900.0 347.0" class="edge taxonomy-link" marker-end="url(#arrow)" data-parent="root" data-child="registers" data-lane-y="281.0" style="stroke:#16D9FF;opacity:0.92"/>
<path d="M 900.0 215.0 L 900.0 267.0 Q 900.0 281.0 914.0 281.0 L 1172.0 281.0 Q 1186.0 281.0 1186.0 295.0 L 1186.0 347.0" class="edge taxonomy-link" marker-end="url(#arrow)" data-parent="root" data-child="modules" data-lane-y="281.0" style="stroke:#16D9FF;opacity:0.92"/>
<path d="M 614.0 447.0 L 614.0 477.0 Q 614.0 491.0 600.0 491.0 L 199.0 491.0 Q 185.0 491.0 185.0 505.0 L 185.0 579.0" class="edge taxonomy-link" marker-end="url(#arrow)" data-parent="maps" data-child="domain" data-lane-y="491.0" style="stroke:#16D9FF;opacity:0.92"/>
<path d="M 614.0 447.0 L 614.0 477.0 Q 614.0 491.0 600.0 491.0 L 485.0 491.0 Q 471.0 491.0 471.0 505.0 L 471.0 579.0" class="edge taxonomy-link" marker-end="url(#arrow)" data-parent="maps" data-child="boundary" data-lane-y="491.0" style="stroke:#16D9FF;opacity:0.92"/>
<path d="M 900.0 447.0 L 900.0 499.0 Q 900.0 513.0 886.0 513.0 L 771.0 513.0 Q 757.0 513.0 757.0 527.0 L 757.0 579.0" class="edge taxonomy-link" marker-end="url(#arrow)" data-parent="registers" data-child="glossary" data-lane-y="513.0" style="stroke:#FFD84D;opacity:0.92"/>
<path d="M 900.0 447.0 L 900.0 499.0 Q 900.0 513.0 914.0 513.0 L 1029.0 513.0 Q 1043.0 513.0 1043.0 527.0 L 1043.0 579.0" class="edge taxonomy-link" marker-end="url(#arrow)" data-parent="registers" data-child="risk" data-lane-y="513.0" style="stroke:#FFD84D;opacity:0.92"/>
<path d="M 1186.0 447.0 L 1186.0 521.0 Q 1186.0 535.0 1200.0 535.0 L 1315.0 535.0 Q 1329.0 535.0 1329.0 549.0 L 1329.0 579.0" class="edge taxonomy-link" marker-end="url(#arrow)" data-parent="modules" data-child="package" data-lane-y="535.0" style="stroke:#6EE66E;opacity:0.92"/>
<path d="M 1186.0 447.0 L 1186.0 521.0 Q 1186.0 535.0 1200.0 535.0 L 1601.0 535.0 Q 1615.0 535.0 1615.0 549.0 L 1615.0 579.0" class="edge taxonomy-link" marker-end="url(#arrow)" data-parent="modules" data-child="evidence" data-lane-y="535.0" style="stroke:#6EE66E;opacity:0.92"/>
<g id="node-root" class="card node-card"><rect x="785.0" y="115.0" width="230.0" height="100.0" rx="6" fill="#FFFFFF" fill-opacity="0.03" stroke="#16D9FF" stroke-width="1.3"/><circle cx="813.0" cy="165.0" r="8" fill="none" stroke="#16D9FF" stroke-width="1.2"/><path d="M808.0,165.0 H818.0 M813.0,160.0 V170.0" class="icon-line" stroke="#16D9FF"/><text x="839.0" y="151.5486" text-anchor="start" class="card-title" style="font-size:23.2px">Knowledge</text><text x="839.0" y="176.62619999999998" text-anchor="start" class="card-title" style="font-size:23.2px">Assets</text><text x="839.0" y="199.9434" text-anchor="start" class="card-sub" style="font-size:17.3px">root class</text></g>
<g id="node-maps" class="card node-card"><rect x="499.0" y="347.0" width="230.0" height="100.0" rx="6" fill="#FFFFFF" fill-opacity="0.03" stroke="#16D9FF" stroke-width="1.3"/><rect x="517.0" y="390.0" width="20" height="16" rx="3" fill="none" stroke="#16D9FF" stroke-width="1.2"/><path d="M517.0,395.0 H537.0 M527.0,390.0 V406.0" class="icon-line" stroke="#16D9FF"/><text x="553.0" y="386.58340000000004" text-anchor="start" class="card-title" style="font-size:23.2px">Maps</text><text x="553.0" y="409.90060000000005" text-anchor="start" class="card-sub" style="font-size:17.3px">navigation</text><text x="553.0" y="428.90860000000004" text-anchor="start" class="card-sub" style="font-size:17.3px">views</text></g>
<g id="node-registers" class="card node-card"><rect x="785.0" y="347.0" width="230.0" height="100.0" rx="6" fill="#FFFFFF" fill-opacity="0.03" stroke="#FFD84D" stroke-width="1.3"/><path d="M813.0,387.0 L823.0,405.0 H803.0 Z" fill="none" stroke="#FFD84D" stroke-width="1.2"/><path d="M813.0,394.0 V400.0 M813.0,404.0 V404.0" class="icon-line" stroke="#FFD84D"/><text x="839.0" y="386.58340000000004" text-anchor="start" class="card-title" style="font-size:23.2px">Registers</text><text x="839.0" y="409.90060000000005" text-anchor="start" class="card-sub" style="font-size:17.3px">controlled</text><text x="839.0" y="428.90860000000004" text-anchor="start" class="card-sub" style="font-size:17.3px">tables</text></g>
<g id="node-modules" class="card node-card"><rect x="1071.0" y="347.0" width="230.0" height="100.0" rx="6" fill="#FFFFFF" fill-opacity="0.03" stroke="#6EE66E" stroke-width="1.3"/><rect x="1089.0" y="390.0" width="20" height="16" rx="3" fill="none" stroke="#6EE66E" stroke-width="1.2"/><path d="M1089.0,395.0 H1109.0 M1099.0,390.0 V406.0" class="icon-line" stroke="#6EE66E"/><text x="1125.0" y="396.0874" text-anchor="start" class="card-title" style="font-size:23.2px">Modules</text><text x="1125.0" y="419.40459999999996" text-anchor="start" class="card-sub" style="font-size:17.3px">reusable assets</text></g>
<g id="node-domain" class="card node-card"><rect x="70.0" y="579.0" width="230.0" height="100.0" rx="6" fill="#FFFFFF" fill-opacity="0.03" stroke="#16D9FF" stroke-width="1.3"/><rect x="88.0" y="622.0" width="20" height="16" rx="3" fill="none" stroke="#16D9FF" stroke-width="1.2"/><path d="M88.0,627.0 H108.0 M98.0,622.0 V638.0" class="icon-line" stroke="#16D9FF"/><text x="124.0" y="618.5834" text-anchor="start" class="card-title" style="font-size:23.2px">Domain Map</text><text x="124.0" y="641.9005999999999" text-anchor="start" class="card-sub" style="font-size:17.3px">systems +</text><text x="124.0" y="660.9086" text-anchor="start" class="card-sub" style="font-size:17.3px">interfaces</text></g>
<g id="node-boundary" class="card node-card"><rect x="356.0" y="579.0" width="230.0" height="100.0" rx="6" fill="#FFFFFF" fill-opacity="0.03" stroke="#FF9F2E" stroke-width="1.3"/><path d="M384.0,619.0 L394.0,629.0 L384.0,639.0 L374.0,629.0 Z" fill="none" stroke="#FF9F2E" stroke-width="1.2"/><path d="M380.0,629.0 H388.0" class="icon-line" stroke="#FF9F2E"/><text x="410.0" y="615.5486000000001" text-anchor="start" class="card-title" style="font-size:23.2px">Boundary</text><text x="410.0" y="640.6262" text-anchor="start" class="card-title" style="font-size:23.2px">Map</text><text x="410.0" y="663.9434000000001" text-anchor="start" class="card-sub" style="font-size:17.3px">authority + ow...</text></g>
<g id="node-glossary" class="card node-card"><rect x="642.0" y="579.0" width="230.0" height="100.0" rx="6" fill="#FFFFFF" fill-opacity="0.03" stroke="#B56CFF" stroke-width="1.3"/><path d="M660.0,619.0 H676.0 Q680.0,619.0 680.0,623.0 V638.0 H660.0 Z" fill="none" stroke="#B56CFF" stroke-width="1.2"/><path d="M665.0,625.0 H674.0 M665.0,631.0 H674.0" class="icon-line" stroke="#B56CFF"/><text x="696.0" y="628.0874" text-anchor="start" class="card-title" style="font-size:23.2px">Glossary</text><text x="696.0" y="651.4046" text-anchor="start" class="card-sub" style="font-size:17.3px">terms</text></g>
<g id="node-risk" class="card node-card"><rect x="928.0" y="579.0" width="230.0" height="100.0" rx="6" fill="#FFFFFF" fill-opacity="0.03" stroke="#FFD84D" stroke-width="1.3"/><path d="M956.0,619.0 L965.0,624.0 V634.0 L956.0,639.0 L947.0,634.0 V624.0 Z" fill="none" stroke="#FFD84D" stroke-width="1.2"/><path d="M952.0,629.0 L955.0,633.0 L961.0,625.0" class="icon-line" stroke="#FFD84D"/><text x="982.0" y="615.5486000000001" text-anchor="start" class="card-title" style="font-size:23.2px">Risk</text><text x="982.0" y="640.6262" text-anchor="start" class="card-title" style="font-size:23.2px">Register</text><text x="982.0" y="663.9434000000001" text-anchor="start" class="card-sub" style="font-size:17.3px">constraints</text></g>
<g id="node-package" class="card node-card"><rect x="1214.0" y="579.0" width="230.0" height="100.0" rx="6" fill="#FFFFFF" fill-opacity="0.03" stroke="#6EE66E" stroke-width="1.3"/><rect x="1232.0" y="622.0" width="20" height="16" rx="3" fill="none" stroke="#6EE66E" stroke-width="1.2"/><path d="M1232.0,627.0 H1252.0 M1242.0,622.0 V638.0" class="icon-line" stroke="#6EE66E"/><text x="1268.0" y="615.5486000000001" text-anchor="start" class="card-title" style="font-size:23.2px">Knowledge</text><text x="1268.0" y="640.6262" text-anchor="start" class="card-title" style="font-size:23.2px">Package</text><text x="1268.0" y="663.9434000000001" text-anchor="start" class="card-sub" style="font-size:17.3px">approved module</text></g>
<g id="node-evidence" class="card node-card"><rect x="1500.0" y="579.0" width="230.0" height="100.0" rx="6" fill="#FFFFFF" fill-opacity="0.03" stroke="#C9DAF5" stroke-width="1.3"/><path d="M1518.0,619.0 H1532.0 L1538.0,625.0 V639.0 H1518.0 Z" fill="none" stroke="#C9DAF5" stroke-width="1.2"/><path d="M1532.0,619.0 V625.0 H1538.0" class="icon-line" stroke="#C9DAF5"/><text x="1554.0" y="615.5486000000001" text-anchor="start" class="card-title" style="font-size:23.2px">Evidence</text><text x="1554.0" y="640.6262" text-anchor="start" class="card-title" style="font-size:23.2px">Set</text><text x="1554.0" y="663.9434000000001" text-anchor="start" class="card-sub" style="font-size:17.3px">source-backed</text></g>
<text x="70" y="101.0" class="tree-level-label">Level 0</text>
<text x="70" y="333.0" class="tree-level-label">Level 1</text>
<text x="70" y="565.0" class="tree-level-label">Level 2</text>
<text x="900.0" y="761" text-anchor="middle" class="note">Reference template: use order to stabilize sibling placement.</text>
</svg>
