<svg xmlns="http://www.w3.org/2000/svg" width="1700" height="977" viewBox="0 0 1700 977" role="img" aria-label="Taxonomy Tree Stress" data-style="accent-blueprint" data-diagram-type="taxonomy_tree">
<defs>
  <pattern id="blueprint-grid-small" width="12" height="12" patternUnits="userSpaceOnUse"><path d="M 12 0 H 0 V 12" fill="none" stroke="#FFFFFF" stroke-opacity="0.08" stroke-width="0.7"/></pattern>
  <pattern id="blueprint-grid" width="60" height="60" patternUnits="userSpaceOnUse"><rect width="60" height="60" fill="url(#blueprint-grid-small)"/><path d="M 60 0 H 0 V 60" fill="none" stroke="#FFFFFF" stroke-opacity="0.14" stroke-width="1"/> </pattern>
  <marker id="arrow" markerWidth="10" markerHeight="10" refX="8.5" refY="3" orient="auto" markerUnits="strokeWidth"><path d="M0,0 L0,6 L9,3 z" fill="context-stroke"/></marker>
  <marker id="arrow-fanout" markerWidth="10" markerHeight="10" refX="8.5" refY="3" orient="auto" markerUnits="strokeWidth"><path d="M0,0 L0,6 L9,3 z" fill="context-stroke"/></marker>
  <marker id="arrow-fanin" markerWidth="10" markerHeight="10" refX="8.5" refY="3" orient="auto" markerUnits="strokeWidth"><path d="M0,0 L0,6 L9,3 z" fill="context-stroke"/></marker>
  <style>
    [data-style="accent-blueprint"] .title{font:700 27px IBM Plex Mono,JetBrains Mono,Consolas,monospace;fill:#F4F8FF;letter-spacing:.04em;text-transform:uppercase}
    [data-style="accent-blueprint"] .subtitle{font:400 13px IBM Plex Sans,Inter,Roboto Condensed,DIN,Segoe UI,Aptos,Arial,sans-serif;fill:#C9DAF5}
    [data-style="accent-blueprint"] .group-label{font:700 15px IBM Plex Mono,JetBrains Mono,Consolas,monospace;fill:#C9DAF5;letter-spacing:.08em;text-transform:uppercase}
    [data-style="accent-blueprint"] .card-title{font:700 17px IBM Plex Sans,Inter,Roboto Condensed,DIN,Segoe UI,Aptos,Arial,sans-serif;fill:#F4F8FF}
    [data-style="accent-blueprint"] .card-sub{font:500 13px IBM Plex Sans,Inter,Roboto Condensed,DIN,Segoe UI,Aptos,Arial,sans-serif;fill:#C9DAF5}
    [data-style="accent-blueprint"] .edge{fill:none;stroke:#F4F8FF;stroke-width:1.5;stroke-linecap:round;stroke-linejoin:round;opacity:0.88}
    [data-style="accent-blueprint"] .fanout{stroke:#FF9F2E;opacity:0.9}
    [data-style="accent-blueprint"] .fanin{stroke:#6EE66E;opacity:0.9}
    [data-style="accent-blueprint"] .route-shared{marker-end:none}
    [data-style="accent-blueprint"] .edge-dashed{stroke-dasharray:6 5;opacity:0.68}
    [data-style="accent-blueprint"] .note{font:500 14px IBM Plex Sans,Inter,Roboto Condensed,DIN,Segoe UI,Aptos,Arial,sans-serif;fill:#C9DAF5}
    [data-style="accent-blueprint"] .mono{font-family:IBM Plex Mono,JetBrains Mono,Consolas,monospace}
    [data-style="accent-blueprint"] .table-header{font:700 15.5px IBM Plex Mono,JetBrains Mono,Consolas,monospace;fill:#F4F8FF;letter-spacing:.08em;text-transform:uppercase}
    [data-style="accent-blueprint"] .table-cell{font:500 17px IBM Plex Sans,Inter,Roboto Condensed,DIN,Segoe UI,Aptos,Arial,sans-serif;fill:#F4F8FF}
    [data-style="accent-blueprint"] .table-cell-secondary{font:500 17px IBM Plex Sans,Inter,Roboto Condensed,DIN,Segoe UI,Aptos,Arial,sans-serif;fill:#C9DAF5}
    [data-style="accent-blueprint"] .info-panel-title{font:700 15px IBM Plex Mono,JetBrains Mono,Consolas,monospace;fill:#F4F8FF;letter-spacing:.08em;text-transform:uppercase}
    [data-style="accent-blueprint"] .info-panel-item{font:500 14px IBM Plex Sans,Inter,Roboto Condensed,DIN,Segoe UI,Aptos,Arial,sans-serif;fill:#C9DAF5}
    [data-style="accent-blueprint"] .tree-level-label{font:700 15px IBM Plex Mono,JetBrains Mono,Consolas,monospace;fill:#C9DAF5;letter-spacing:.08em;text-transform:uppercase}
    [data-style="accent-blueprint"] .hub-label{font:700 15px IBM Plex Mono,JetBrains Mono,Consolas,monospace;fill:#C9DAF5;letter-spacing:.08em;text-transform:uppercase}
    [data-style="accent-blueprint"] .icon-line{fill:none;stroke-width:1.3;stroke-linecap:round;stroke-linejoin:round}
  </style>
</defs>
<rect x="0" y="0" width="1700" height="977" rx="0" fill="#062B5F"/>
<rect x="0" y="0" width="1700" height="977" rx="0" fill="url(#blueprint-grid)" opacity="1"/>
<text x="850.0" y="54" text-anchor="middle" class="title">Taxonomy Tree Stress</text>
<text x="850.0" y="80.0" text-anchor="middle" class="subtitle">Stress contract with multiple levels and many leaf nodes</text>
<path d="M 850.0 215.0 L 850.0 267.0 Q 850.0 281.0 836.0 281.0 L 468.0 281.0 Q 454.0 281.0 454.0 295.0 L 454.0 347.0" class="edge taxonomy-link" marker-end="url(#arrow)" data-parent="root" data-child="maps" data-lane-y="281.0" style="stroke:#16D9FF;opacity:0.92"/>
<path d="M 850.0 215.0 L 850.0 267.0 Q 850.0 281.0 836.0 281.0 L 732.0 281.0 Q 718.0 281.0 718.0 295.0 L 718.0 347.0" class="edge taxonomy-link" marker-end="url(#arrow)" data-parent="root" data-child="registries" data-lane-y="281.0" style="stroke:#16D9FF;opacity:0.92"/>
<path d="M 850.0 215.0 L 850.0 267.0 Q 850.0 281.0 864.0 281.0 L 968.0 281.0 Q 982.0 281.0 982.0 295.0 L 982.0 347.0" class="edge taxonomy-link" marker-end="url(#arrow)" data-parent="root" data-child="modules" data-lane-y="281.0" style="stroke:#16D9FF;opacity:0.92"/>
<path d="M 850.0 215.0 L 850.0 267.0 Q 850.0 281.0 864.0 281.0 L 1232.0 281.0 Q 1246.0 281.0 1246.0 295.0 L 1246.0 347.0" class="edge taxonomy-link" marker-end="url(#arrow)" data-parent="root" data-child="evidence" data-lane-y="281.0" style="stroke:#16D9FF;opacity:0.92"/>
<path d="M 454.0 447.0 L 454.0 472.6 Q 454.0 486.6 440.0 486.6 L 204.0 486.6 Q 190.0 486.6 190.0 500.6 L 190.0 579.0" class="edge taxonomy-link" marker-end="url(#arrow)" data-parent="maps" data-child="domain_map" data-lane-y="486.6" style="stroke:#16D9FF;opacity:0.92"/>
<path d="M 454.0 447.0 L 454.0 579.0" class="edge taxonomy-link" marker-end="url(#arrow)" data-parent="maps" data-child="ownership_map" data-lane-y="486.6" style="stroke:#16D9FF;opacity:0.92"/>
<path d="M 454.0 447.0 L 454.0 472.6 Q 454.0 486.6 468.0 486.6 L 704.0 486.6 Q 718.0 486.6 718.0 500.6 L 718.0 579.0" class="edge taxonomy-link" marker-end="url(#arrow)" data-parent="maps" data-child="flow_overview" data-lane-y="486.6" style="stroke:#16D9FF;opacity:0.92"/>
<path d="M 718.0 447.0 L 718.0 490.2 Q 718.0 504.2 732.0 504.2 L 968.0 504.2 Q 982.0 504.2 982.0 518.2 L 982.0 579.0" class="edge taxonomy-link" marker-end="url(#arrow)" data-parent="registries" data-child="glossary" data-lane-y="504.2" style="stroke:#FFD84D;opacity:0.92"/>
<path d="M 718.0 447.0 L 718.0 490.2 Q 718.0 504.2 732.0 504.2 L 1232.0 504.2 Q 1246.0 504.2 1246.0 518.2 L 1246.0 579.0" class="edge taxonomy-link" marker-end="url(#arrow)" data-parent="registries" data-child="parameter_register" data-lane-y="504.2" style="stroke:#FFD84D;opacity:0.92"/>
<path d="M 718.0 447.0 L 718.0 490.2 Q 718.0 504.2 732.0 504.2 L 1496.0 504.2 Q 1510.0 504.2 1510.0 518.2 L 1510.0 579.0" class="edge taxonomy-link" marker-end="url(#arrow)" data-parent="registries" data-child="risk_register" data-lane-y="504.2" style="stroke:#FFD84D;opacity:0.92"/>
<path d="M 982.0 447.0 L 982.0 507.8 Q 982.0 521.8 968.0 521.8 L 600.0 521.8 Q 586.0 521.8 586.0 535.8 L 586.0 701.0 Q 586.0 715.0 572.0 715.0 L 204.0 715.0 Q 190.0 715.0 190.0 729.0 L 190.0 767.0" class="edge taxonomy-link" marker-end="url(#arrow)" data-parent="modules" data-child="work_module" data-lane-y="521.8" data-corridor-x="586.0" data-row-lane-y="715.0" style="stroke:#6EE66E;opacity:0.92"/>
<path d="M 982.0 447.0 L 982.0 507.8 Q 982.0 521.8 968.0 521.8 L 600.0 521.8 Q 586.0 521.8 586.0 535.8 L 586.0 701.0 Q 586.0 715.0 572.0 715.0 L 468.0 715.0 Q 454.0 715.0 454.0 729.0 L 454.0 767.0" class="edge taxonomy-link" marker-end="url(#arrow)" data-parent="modules" data-child="training_module" data-lane-y="521.8" data-corridor-x="586.0" data-row-lane-y="715.0" style="stroke:#6EE66E;opacity:0.92"/>
<path d="M 982.0 447.0 L 982.0 507.8 Q 982.0 521.8 968.0 521.8 L 600.0 521.8 Q 586.0 521.8 586.0 535.8 L 586.0 701.0 Q 586.0 715.0 600.0 715.0 L 704.0 715.0 Q 718.0 715.0 718.0 729.0 L 718.0 767.0" class="edge taxonomy-link" marker-end="url(#arrow)" data-parent="modules" data-child="playbook" data-lane-y="521.8" data-corridor-x="586.0" data-row-lane-y="715.0" style="stroke:#6EE66E;opacity:0.92"/>
<path d="M 1246.0 447.0 L 1246.0 525.4 Q 1246.0 539.4 1232.0 539.4 L 1128.0 539.4 Q 1114.0 539.4 1114.0 553.4 L 1114.0 717.0 Q 1114.0 731.0 1100.0 731.0 L 996.0 731.0 Q 982.0 731.0 982.0 745.0 L 982.0 767.0" class="edge taxonomy-link" marker-end="url(#arrow)" data-parent="evidence" data-child="source_doc" data-lane-y="539.4" data-corridor-x="1114.0" data-row-lane-y="731.0" style="stroke:#B56CFF;opacity:0.92"/>
<path d="M 1246.0 447.0 L 1246.0 525.4 Q 1246.0 539.4 1232.0 539.4 L 1128.0 539.4 Q 1114.0 539.4 1114.0 553.4 L 1114.0 717.0 Q 1114.0 731.0 1128.0 731.0 L 1232.0 731.0 Q 1246.0 731.0 1246.0 745.0 L 1246.0 767.0" class="edge taxonomy-link" marker-end="url(#arrow)" data-parent="evidence" data-child="quality_record" data-lane-y="539.4" data-corridor-x="1114.0" data-row-lane-y="731.0" style="stroke:#B56CFF;opacity:0.92"/>
<path d="M 1246.0 447.0 L 1246.0 525.4 Q 1246.0 539.4 1232.0 539.4 L 1128.0 539.4 Q 1114.0 539.4 1114.0 553.4 L 1114.0 717.0 Q 1114.0 731.0 1128.0 731.0 L 1496.0 731.0 Q 1510.0 731.0 1510.0 745.0 L 1510.0 767.0" class="edge taxonomy-link" marker-end="url(#arrow)" data-parent="evidence" data-child="test_result" data-lane-y="539.4" data-corridor-x="1114.0" data-row-lane-y="731.0" style="stroke:#B56CFF;opacity:0.92"/>
<g id="node-root" class="card node-card"><rect x="740.0" y="115.0" width="220.0" height="100.0" rx="6" fill="#FFFFFF" fill-opacity="0.03" stroke="#16D9FF" stroke-width="1.3"/><circle cx="766.0" cy="165.0" r="8" fill="none" stroke="#16D9FF" stroke-width="1.2"/><path d="M761.0,165.0 H771.0 M766.0,160.0 V170.0" class="icon-line" stroke="#16D9FF"/><text x="784.0" y="152.63" text-anchor="start" class="card-title" style="font-size:21px">Knowledge</text><text x="784.0" y="175.31" text-anchor="start" class="card-title" style="font-size:21px">Asset System</text><text x="784.0" y="196.77" text-anchor="start" class="card-sub" style="font-size:16px">root class</text></g>
<g id="node-maps" class="card node-card"><rect x="344.0" y="347.0" width="220.0" height="100.0" rx="6" fill="#FFFFFF" fill-opacity="0.03" stroke="#16D9FF" stroke-width="1.3"/><rect x="360.0" y="390.0" width="20" height="16" rx="3" fill="none" stroke="#16D9FF" stroke-width="1.2"/><path d="M360.0,395.0 H380.0 M370.0,390.0 V406.0" class="icon-line" stroke="#16D9FF"/><text x="388.0" y="395.97" text-anchor="start" class="card-title" style="font-size:21px">Map Assets</text><text x="388.0" y="417.43" text-anchor="start" class="card-sub" style="font-size:16px">structured views</text></g>
<g id="node-registries" class="card node-card"><rect x="608.0" y="347.0" width="220.0" height="100.0" rx="6" fill="#FFFFFF" fill-opacity="0.03" stroke="#FFD84D" stroke-width="1.3"/><path d="M634.0,387.0 L644.0,405.0 H624.0 Z" fill="none" stroke="#FFD84D" stroke-width="1.2"/><path d="M634.0,394.0 V400.0 M634.0,404.0 V404.0" class="icon-line" stroke="#FFD84D"/><text x="652.0" y="384.63" text-anchor="start" class="card-title" style="font-size:21px">Registry</text><text x="652.0" y="407.31" text-anchor="start" class="card-title" style="font-size:21px">Assets</text><text x="652.0" y="428.77" text-anchor="start" class="card-sub" style="font-size:16px">controlled tables</text></g>
<g id="node-modules" class="card node-card"><rect x="872.0" y="347.0" width="220.0" height="100.0" rx="6" fill="#FFFFFF" fill-opacity="0.03" stroke="#6EE66E" stroke-width="1.3"/><rect x="888.0" y="390.0" width="20" height="16" rx="3" fill="none" stroke="#6EE66E" stroke-width="1.2"/><path d="M888.0,395.0 H908.0 M898.0,390.0 V406.0" class="icon-line" stroke="#6EE66E"/><text x="916.0" y="395.97" text-anchor="start" class="card-title" style="font-size:21px">Module Assets</text><text x="916.0" y="417.43" text-anchor="start" class="card-sub" style="font-size:16px">reusable packages</text></g>
<g id="node-evidence" class="card node-card"><rect x="1136.0" y="347.0" width="220.0" height="100.0" rx="6" fill="#FFFFFF" fill-opacity="0.03" stroke="#C9DAF5" stroke-width="1.3"/><path d="M1152.0,387.0 H1166.0 L1172.0,393.0 V407.0 H1152.0 Z" fill="none" stroke="#C9DAF5" stroke-width="1.2"/><path d="M1166.0,387.0 V393.0 H1172.0" class="icon-line" stroke="#C9DAF5"/><text x="1180.0" y="384.63" text-anchor="start" class="card-title" style="font-size:21px">Evidence</text><text x="1180.0" y="407.31" text-anchor="start" class="card-title" style="font-size:21px">Assets</text><text x="1180.0" y="428.77" text-anchor="start" class="card-sub" style="font-size:16px">source-backed p...</text></g>
<g id="node-domain_map" class="card node-card"><rect x="80.0" y="579.0" width="220.0" height="100.0" rx="6" fill="#FFFFFF" fill-opacity="0.03" stroke="#16D9FF" stroke-width="1.3"/><rect x="96.0" y="622.0" width="20" height="16" rx="3" fill="none" stroke="#16D9FF" stroke-width="1.2"/><path d="M96.0,627.0 H116.0 M106.0,622.0 V638.0" class="icon-line" stroke="#16D9FF"/><text x="124.0" y="619.17" text-anchor="start" class="card-title" style="font-size:21px">Domain Map</text><text x="124.0" y="640.6299999999999" text-anchor="start" class="card-sub" style="font-size:16px">systems +</text><text x="124.0" y="658.2299999999999" text-anchor="start" class="card-sub" style="font-size:16px">boundaries</text></g>
<g id="node-ownership_map" class="card node-card"><rect x="344.0" y="579.0" width="220.0" height="100.0" rx="6" fill="#FFFFFF" fill-opacity="0.03" stroke="#FF9F2E" stroke-width="1.3"/><path d="M370.0,619.0 L380.0,629.0 L370.0,639.0 L360.0,629.0 Z" fill="none" stroke="#FF9F2E" stroke-width="1.2"/><path d="M366.0,629.0 H374.0" class="icon-line" stroke="#FF9F2E"/><text x="388.0" y="627.97" text-anchor="start" class="card-title" style="font-size:21px">Ownership Map</text><text x="388.0" y="649.43" text-anchor="start" class="card-sub" style="font-size:16px">responsibility</text></g>
<g id="node-flow_overview" class="card node-card"><rect x="608.0" y="579.0" width="220.0" height="100.0" rx="6" fill="#FFFFFF" fill-opacity="0.03" stroke="#FF9F2E" stroke-width="1.3"/><circle cx="628.0" cy="630.0" r="4" fill="none" stroke="#FF9F2E" stroke-width="1.6"/><circle cx="642.0" cy="623.0" r="4" fill="none" stroke="#FF9F2E" stroke-width="1.6"/><circle cx="642.0" cy="637.0" r="4" fill="none" stroke="#FF9F2E" stroke-width="1.6"/><path d="M632.0,630.0 H636.0 M638.0,626.0 L636.0,630.0 L638.0,634.0" class="icon-line" stroke="#FF9F2E"/><text x="652.0" y="616.63" text-anchor="start" class="card-title" style="font-size:21px">Knowledge</text><text x="652.0" y="639.31" text-anchor="start" class="card-title" style="font-size:21px">Flow Overview</text><text x="652.0" y="660.77" text-anchor="start" class="card-sub" style="font-size:16px">high-level move...</text></g>
<g id="node-glossary" class="card node-card"><rect x="872.0" y="579.0" width="220.0" height="100.0" rx="6" fill="#FFFFFF" fill-opacity="0.03" stroke="#B56CFF" stroke-width="1.3"/><path d="M888.0,619.0 H904.0 Q908.0,619.0 908.0,623.0 V638.0 H888.0 Z" fill="none" stroke="#B56CFF" stroke-width="1.2"/><path d="M893.0,625.0 H902.0 M893.0,631.0 H902.0" class="icon-line" stroke="#B56CFF"/><text x="916.0" y="627.97" text-anchor="start" class="card-title" style="font-size:21px">Glossary</text><text x="916.0" y="649.43" text-anchor="start" class="card-sub" style="font-size:16px">controlled terms</text></g>
<g id="node-parameter_register" class="card node-card"><rect x="1136.0" y="579.0" width="220.0" height="100.0" rx="6" fill="#FFFFFF" fill-opacity="0.03" stroke="#FFD84D" stroke-width="1.3"/><path d="M1162.0,619.0 L1172.0,637.0 H1152.0 Z" fill="none" stroke="#FFD84D" stroke-width="1.2"/><path d="M1162.0,626.0 V632.0 M1162.0,636.0 V636.0" class="icon-line" stroke="#FFD84D"/><text x="1180.0" y="616.63" text-anchor="start" class="card-title" style="font-size:21px">Parameter</text><text x="1180.0" y="639.31" text-anchor="start" class="card-title" style="font-size:21px">Register</text><text x="1180.0" y="660.77" text-anchor="start" class="card-sub" style="font-size:16px">CTQ families</text></g>
<g id="node-risk_register" class="card node-card"><rect x="1400.0" y="579.0" width="220.0" height="100.0" rx="6" fill="#FFFFFF" fill-opacity="0.03" stroke="#FFD84D" stroke-width="1.3"/><path d="M1426.0,619.0 L1435.0,624.0 V634.0 L1426.0,639.0 L1417.0,634.0 V624.0 Z" fill="none" stroke="#FFD84D" stroke-width="1.2"/><path d="M1422.0,629.0 L1425.0,633.0 L1431.0,625.0" class="icon-line" stroke="#FFD84D"/><text x="1444.0" y="627.97" text-anchor="start" class="card-title" style="font-size:21px">Risk Register</text><text x="1444.0" y="649.43" text-anchor="start" class="card-sub" style="font-size:16px">constraints</text></g>
<g id="node-work_module" class="card node-card"><rect x="80.0" y="767.0" width="220.0" height="100.0" rx="6" fill="#FFFFFF" fill-opacity="0.03" stroke="#6EE66E" stroke-width="1.3"/><rect x="96.0" y="810.0" width="20" height="16" rx="3" fill="none" stroke="#6EE66E" stroke-width="1.2"/><path d="M96.0,815.0 H116.0 M106.0,810.0 V826.0" class="icon-line" stroke="#6EE66E"/><text x="124.0" y="815.97" text-anchor="start" class="card-title" style="font-size:21px">Work Module</text><text x="124.0" y="837.43" text-anchor="start" class="card-sub" style="font-size:16px">approved package</text></g>
<g id="node-training_module" class="card node-card"><rect x="344.0" y="767.0" width="220.0" height="100.0" rx="6" fill="#FFFFFF" fill-opacity="0.03" stroke="#6EE66E" stroke-width="1.3"/><rect x="360.0" y="810.0" width="20" height="16" rx="3" fill="none" stroke="#6EE66E" stroke-width="1.2"/><path d="M360.0,815.0 H380.0 M370.0,810.0 V826.0" class="icon-line" stroke="#6EE66E"/><text x="388.0" y="804.63" text-anchor="start" class="card-title" style="font-size:21px">Training</text><text x="388.0" y="827.31" text-anchor="start" class="card-title" style="font-size:21px">Module</text><text x="388.0" y="848.77" text-anchor="start" class="card-sub" style="font-size:16px">reuse content</text></g>
<g id="node-playbook" class="card node-card"><rect x="608.0" y="767.0" width="220.0" height="100.0" rx="6" fill="#FFFFFF" fill-opacity="0.03" stroke="#FFD84D" stroke-width="1.3"/><path d="M634.0,807.0 L643.0,812.0 V822.0 L634.0,827.0 L625.0,822.0 V812.0 Z" fill="none" stroke="#FFD84D" stroke-width="1.2"/><path d="M630.0,817.0 L633.0,821.0 L639.0,813.0" class="icon-line" stroke="#FFD84D"/><text x="652.0" y="804.63" text-anchor="start" class="card-title" style="font-size:21px">Exception</text><text x="652.0" y="827.31" text-anchor="start" class="card-title" style="font-size:21px">Playbook</text><text x="652.0" y="848.77" text-anchor="start" class="card-sub" style="font-size:16px">risk response</text></g>
<g id="node-source_doc" class="card node-card"><rect x="872.0" y="767.0" width="220.0" height="100.0" rx="6" fill="#FFFFFF" fill-opacity="0.03" stroke="#F4F8FF" stroke-width="1.3"/><path d="M888.0,807.0 H902.0 L908.0,813.0 V827.0 H888.0 Z" fill="none" stroke="#F4F8FF" stroke-width="1.2"/><path d="M902.0,807.0 V813.0 H908.0" class="icon-line" stroke="#F4F8FF"/><text x="916.0" y="804.63" text-anchor="start" class="card-title" style="font-size:21px">Source</text><text x="916.0" y="827.31" text-anchor="start" class="card-title" style="font-size:21px">Document</text><text x="916.0" y="848.77" text-anchor="start" class="card-sub" style="font-size:16px">authority</text></g>
<g id="node-quality_record" class="card node-card"><rect x="1136.0" y="767.0" width="220.0" height="100.0" rx="6" fill="#FFFFFF" fill-opacity="0.03" stroke="#FFD84D" stroke-width="1.3"/><path d="M1162.0,807.0 L1172.0,825.0 H1152.0 Z" fill="none" stroke="#FFD84D" stroke-width="1.2"/><path d="M1162.0,814.0 V820.0 M1162.0,824.0 V824.0" class="icon-line" stroke="#FFD84D"/><text x="1180.0" y="804.63" text-anchor="start" class="card-title" style="font-size:21px">Quality</text><text x="1180.0" y="827.31" text-anchor="start" class="card-title" style="font-size:21px">Record</text><text x="1180.0" y="848.77" text-anchor="start" class="card-sub" style="font-size:16px">approval proof</text></g>
<g id="node-test_result" class="card node-card"><rect x="1400.0" y="767.0" width="220.0" height="100.0" rx="6" fill="#FFFFFF" fill-opacity="0.03" stroke="#C9DAF5" stroke-width="1.3"/><path d="M1416.0,807.0 H1430.0 L1436.0,813.0 V827.0 H1416.0 Z" fill="none" stroke="#C9DAF5" stroke-width="1.2"/><path d="M1430.0,807.0 V813.0 H1436.0" class="icon-line" stroke="#C9DAF5"/><text x="1444.0" y="815.97" text-anchor="start" class="card-title" style="font-size:21px">Test Result</text><text x="1444.0" y="837.43" text-anchor="start" class="card-sub" style="font-size:16px">measured evidence</text></g>
<text x="70" y="101.0" class="tree-level-label">Level 0</text>
<text x="70" y="333.0" class="tree-level-label">Level 1</text>
<text x="70" y="565.0" class="tree-level-label">Level 2</text>
<text x="850.0" y="949" text-anchor="middle" class="note">Stress template: wide trees should preserve level labels, readable cards, and parent-child connectors.</text>
</svg>
