<svg xmlns="http://www.w3.org/2000/svg" width="1700" height="1335" viewBox="0 0 1700 1335" role="img" aria-label="Taxonomy Tree Stress" data-style="accent-blueprint" data-diagram-type="taxonomy_tree">
<defs>
  <pattern id="blueprint-grid-small" width="13.6" height="13.6" patternUnits="userSpaceOnUse"><path d="M 13.6 0 H 0 V 13.6" fill="none" stroke="#FFFFFF" stroke-opacity="0.08" stroke-width="0.79"/></pattern>
  <pattern id="blueprint-grid" width="68" height="68" patternUnits="userSpaceOnUse"><rect width="68" height="68" fill="url(#blueprint-grid-small)"/><path d="M 68 0 H 0 V 68" fill="none" stroke="#FFFFFF" stroke-opacity="0.14" stroke-width="1.13"/> </pattern>
  <marker id="arrow" markerWidth="10" markerHeight="10" refX="8.5" refY="3" orient="auto" markerUnits="strokeWidth"><path d="M0,0 L0,6 L9,3 z" fill="context-stroke"/></marker>
  <marker id="arrow-fanout" markerWidth="10" markerHeight="10" refX="8.5" refY="3" orient="auto" markerUnits="strokeWidth"><path d="M0,0 L0,6 L9,3 z" fill="context-stroke"/></marker>
  <marker id="arrow-fanin" markerWidth="10" markerHeight="10" refX="8.5" refY="3" orient="auto" markerUnits="strokeWidth"><path d="M0,0 L0,6 L9,3 z" fill="context-stroke"/></marker>
  <style>
    [data-style="accent-blueprint"] .title{font:700 27px IBM Plex Mono,JetBrains Mono,Consolas,monospace;fill:#F4F8FF;letter-spacing:.04em;text-transform:uppercase}
    [data-style="accent-blueprint"] .subtitle{font:400 13px IBM Plex Sans,Inter,Roboto Condensed,DIN,Segoe UI,Aptos,Arial,sans-serif;fill:#C9DAF5}
    [data-style="accent-blueprint"] .group-label{font:700 15px IBM Plex Mono,JetBrains Mono,Consolas,monospace;fill:#C9DAF5;letter-spacing:.08em;text-transform:uppercase}
    [data-style="accent-blueprint"] .card-title{font:700 17px IBM Plex Sans,Inter,Roboto Condensed,DIN,Segoe UI,Aptos,Arial,sans-serif;fill:#F4F8FF}
    [data-style="accent-blueprint"] .card-sub{font:500 13px IBM Plex Sans,Inter,Roboto Condensed,DIN,Segoe UI,Aptos,Arial,sans-serif;fill:#C9DAF5}
    [data-style="accent-blueprint"] .edge{fill:none;stroke:#F4F8FF;stroke-width:1.5;stroke-linecap:round;stroke-linejoin:round;opacity:0.88}
    [data-style="accent-blueprint"] .fanout{stroke:#FF9F2E;opacity:0.9}
    [data-style="accent-blueprint"] .fanin{stroke:#6EE66E;opacity:0.9}
    [data-style="accent-blueprint"] .route-shared{marker-end:none}
    [data-style="accent-blueprint"] .edge-dashed{stroke-dasharray:6 5;opacity:0.68}
    [data-style="accent-blueprint"] .note{font:500 14px IBM Plex Sans,Inter,Roboto Condensed,DIN,Segoe UI,Aptos,Arial,sans-serif;fill:#C9DAF5}
    [data-style="accent-blueprint"] .mono{font-family:IBM Plex Mono,JetBrains Mono,Consolas,monospace}
    [data-style="accent-blueprint"] .table-header{font:700 15.5px IBM Plex Mono,JetBrains Mono,Consolas,monospace;fill:#F4F8FF;letter-spacing:.08em;text-transform:uppercase}
    [data-style="accent-blueprint"] .table-cell{font:500 17px IBM Plex Sans,Inter,Roboto Condensed,DIN,Segoe UI,Aptos,Arial,sans-serif;fill:#F4F8FF}
    [data-style="accent-blueprint"] .table-cell-secondary{font:500 17px IBM Plex Sans,Inter,Roboto Condensed,DIN,Segoe UI,Aptos,Arial,sans-serif;fill:#C9DAF5}
    [data-style="accent-blueprint"] .info-panel-title{font:700 15px IBM Plex Mono,JetBrains Mono,Consolas,monospace;fill:#F4F8FF;letter-spacing:.08em;text-transform:uppercase}
    [data-style="accent-blueprint"] .info-panel-item{font:500 14px IBM Plex Sans,Inter,Roboto Condensed,DIN,Segoe UI,Aptos,Arial,sans-serif;fill:#C9DAF5}
    [data-style="accent-blueprint"] .tree-level-label{font:700 15px IBM Plex Mono,JetBrains Mono,Consolas,monospace;fill:#C9DAF5;letter-spacing:.08em;text-transform:uppercase}
    [data-style="accent-blueprint"] .hub-label{font:700 15px IBM Plex Mono,JetBrains Mono,Consolas,monospace;fill:#C9DAF5;letter-spacing:.08em;text-transform:uppercase}
    [data-style="accent-blueprint"] .icon-line{fill:none;stroke-width:1.3;stroke-linecap:round;stroke-linejoin:round}
  </style>
</defs>
<rect x="0" y="0" width="1700" height="1335" rx="0" fill="#062B5F"/>
<rect x="0" y="0" width="1700" height="1335" rx="0" fill="url(#blueprint-grid)" opacity="1"/>
<text x="850.0" y="54" text-anchor="middle" class="title">Taxonomy Tree Stress</text>
<text x="850.0" y="80.0" text-anchor="middle" class="subtitle">Stress contract with first-level families and vertical backbones</text>
<path d="M 850.0 215.0 L 850.0 260.0 Q 850.0 274.0 836.0 274.0 L 312.0 274.0 Q 298.0 274.0 298.0 288.0 L 298.0 333.0" class="edge taxonomy-link taxonomy-backbone-link" marker-end="url(#arrow)" data-layout="family_backbone" data-link-tier="root_family" data-family="maps" data-parent="root" data-child="maps" data-depth="1" data-lane-y="274.0" style="stroke:#16D9FF;opacity:0.92"/>
<path d="M 850.0 215.0 L 850.0 260.0 Q 850.0 274.0 836.0 274.0 L 680.0 274.0 Q 666.0 274.0 666.0 288.0 L 666.0 333.0" class="edge taxonomy-link taxonomy-backbone-link" marker-end="url(#arrow)" data-layout="family_backbone" data-link-tier="root_family" data-family="registries" data-parent="root" data-child="registries" data-depth="1" data-lane-y="274.0" style="stroke:#FFD84D;opacity:0.92"/>
<path d="M 850.0 215.0 L 850.0 260.0 Q 850.0 274.0 864.0 274.0 L 1020.0 274.0 Q 1034.0 274.0 1034.0 288.0 L 1034.0 333.0" class="edge taxonomy-link taxonomy-backbone-link" marker-end="url(#arrow)" data-layout="family_backbone" data-link-tier="root_family" data-family="modules" data-parent="root" data-child="modules" data-depth="1" data-lane-y="274.0" style="stroke:#6EE66E;opacity:0.92"/>
<path d="M 850.0 215.0 L 850.0 260.0 Q 850.0 274.0 864.0 274.0 L 1388.0 274.0 Q 1402.0 274.0 1402.0 288.0 L 1402.0 333.0" class="edge taxonomy-link taxonomy-backbone-link" marker-end="url(#arrow)" data-layout="family_backbone" data-link-tier="root_family" data-family="evidence" data-parent="root" data-child="evidence" data-depth="1" data-lane-y="274.0" style="stroke:#B56CFF;opacity:0.92"/>
<path d="M 298.0 433.0 L 298.0 445.0 Q 298.0 457.0 286.0 457.0 L 142.0 457.0 Q 128.0 457.0 128.0 471.0 L 128.0 535.0 Q 128.0 549.0 142.0 549.0 L 160.0 549.0" class="edge taxonomy-link taxonomy-backbone-link" marker-end="url(#arrow)" data-layout="family_backbone" data-link-tier="family_backbone" data-family="maps" data-parent="maps" data-child="domain_map" data-depth="2" data-backbone-x="128.0" data-branch-y="457.0" style="stroke:#16D9FF;opacity:0.92"/>
<path d="M 270.0 599.0 L 270.0 604.5 Q 270.0 610.0 264.5 610.0 L 214.0 610.0 Q 200.0 610.0 200.0 624.0 L 200.0 663.0 Q 200.0 671.0 208.0 671.0 L 216.0 671.0" class="edge taxonomy-link taxonomy-backbone-link taxonomy-nested-link" marker-end="url(#arrow)" data-layout="family_backbone" data-link-tier="nested_branch" data-family="maps" data-parent="domain_map" data-child="boundary_view" data-depth="3" data-nested-x="200.0" data-branch-y="610.0" style="stroke:#16D9FF;opacity:0.92"/>
<path d="M 298.0 433.0 L 298.0 445.0 Q 298.0 457.0 286.0 457.0 L 142.0 457.0 Q 128.0 457.0 128.0 471.0 L 128.0 787.0 Q 128.0 801.0 142.0 801.0 L 160.0 801.0" class="edge taxonomy-link taxonomy-backbone-link" marker-end="url(#arrow)" data-layout="family_backbone" data-link-tier="family_backbone" data-family="maps" data-parent="maps" data-child="ownership_map" data-depth="2" data-backbone-x="128.0" data-branch-y="457.0" style="stroke:#16D9FF;opacity:0.92"/>
<path d="M 270.0 851.0 L 270.0 856.5 Q 270.0 862.0 264.5 862.0 L 214.0 862.0 Q 200.0 862.0 200.0 876.0 L 200.0 915.0 Q 200.0 923.0 208.0 923.0 L 216.0 923.0" class="edge taxonomy-link taxonomy-backbone-link taxonomy-nested-link" marker-end="url(#arrow)" data-layout="family_backbone" data-link-tier="nested_branch" data-family="maps" data-parent="ownership_map" data-child="stewardship_path" data-depth="3" data-nested-x="200.0" data-branch-y="862.0" style="stroke:#16D9FF;opacity:0.92"/>
<path d="M 298.0 433.0 L 298.0 445.0 Q 298.0 457.0 286.0 457.0 L 142.0 457.0 Q 128.0 457.0 128.0 471.0 L 128.0 1039.0 Q 128.0 1053.0 142.0 1053.0 L 160.0 1053.0" class="edge taxonomy-link taxonomy-backbone-link" marker-end="url(#arrow)" data-layout="family_backbone" data-link-tier="family_backbone" data-family="maps" data-parent="maps" data-child="flow_overview" data-depth="2" data-backbone-x="128.0" data-branch-y="457.0" style="stroke:#16D9FF;opacity:0.92"/>
<path d="M 666.0 433.0 L 666.0 445.0 Q 666.0 457.0 654.0 457.0 L 510.0 457.0 Q 496.0 457.0 496.0 471.0 L 496.0 535.0 Q 496.0 549.0 510.0 549.0 L 528.0 549.0" class="edge taxonomy-link taxonomy-backbone-link" marker-end="url(#arrow)" data-layout="family_backbone" data-link-tier="family_backbone" data-family="registries" data-parent="registries" data-child="glossary" data-depth="2" data-backbone-x="496.0" data-branch-y="457.0" style="stroke:#FFD84D;opacity:0.92"/>
<path d="M 638.0 599.0 L 638.0 604.5 Q 638.0 610.0 632.5 610.0 L 582.0 610.0 Q 568.0 610.0 568.0 624.0 L 568.0 663.0 Q 568.0 671.0 576.0 671.0 L 584.0 671.0" class="edge taxonomy-link taxonomy-backbone-link taxonomy-nested-link" marker-end="url(#arrow)" data-layout="family_backbone" data-link-tier="nested_branch" data-family="registries" data-parent="glossary" data-child="term_review" data-depth="3" data-nested-x="568.0" data-branch-y="610.0" style="stroke:#FFD84D;opacity:0.92"/>
<path d="M 666.0 433.0 L 666.0 445.0 Q 666.0 457.0 654.0 457.0 L 510.0 457.0 Q 496.0 457.0 496.0 471.0 L 496.0 787.0 Q 496.0 801.0 510.0 801.0 L 528.0 801.0" class="edge taxonomy-link taxonomy-backbone-link" marker-end="url(#arrow)" data-layout="family_backbone" data-link-tier="family_backbone" data-family="registries" data-parent="registries" data-child="parameter_register" data-depth="2" data-backbone-x="496.0" data-branch-y="457.0" style="stroke:#FFD84D;opacity:0.92"/>
<path d="M 638.0 851.0 L 638.0 856.5 Q 638.0 862.0 632.5 862.0 L 582.0 862.0 Q 568.0 862.0 568.0 876.0 L 568.0 915.0 Q 568.0 923.0 576.0 923.0 L 584.0 923.0" class="edge taxonomy-link taxonomy-backbone-link taxonomy-nested-link" marker-end="url(#arrow)" data-layout="family_backbone" data-link-tier="nested_branch" data-family="registries" data-parent="parameter_register" data-child="ctq_thresholds" data-depth="3" data-nested-x="568.0" data-branch-y="862.0" style="stroke:#FFD84D;opacity:0.92"/>
<path d="M 666.0 433.0 L 666.0 445.0 Q 666.0 457.0 654.0 457.0 L 510.0 457.0 Q 496.0 457.0 496.0 471.0 L 496.0 1039.0 Q 496.0 1053.0 510.0 1053.0 L 528.0 1053.0" class="edge taxonomy-link taxonomy-backbone-link" marker-end="url(#arrow)" data-layout="family_backbone" data-link-tier="family_backbone" data-family="registries" data-parent="registries" data-child="risk_register" data-depth="2" data-backbone-x="496.0" data-branch-y="457.0" style="stroke:#FFD84D;opacity:0.92"/>
<path d="M 638.0 1103.0 L 638.0 1108.5 Q 638.0 1114.0 632.5 1114.0 L 582.0 1114.0 Q 568.0 1114.0 568.0 1128.0 L 568.0 1167.0 Q 568.0 1175.0 576.0 1175.0 L 584.0 1175.0" class="edge taxonomy-link taxonomy-backbone-link taxonomy-nested-link" marker-end="url(#arrow)" data-layout="family_backbone" data-link-tier="nested_branch" data-family="registries" data-parent="risk_register" data-child="risk_controls" data-depth="3" data-nested-x="568.0" data-branch-y="1114.0" style="stroke:#FFD84D;opacity:0.92"/>
<path d="M 1034.0 433.0 L 1034.0 445.0 Q 1034.0 457.0 1022.0 457.0 L 878.0 457.0 Q 864.0 457.0 864.0 471.0 L 864.0 535.0 Q 864.0 549.0 878.0 549.0 L 896.0 549.0" class="edge taxonomy-link taxonomy-backbone-link" marker-end="url(#arrow)" data-layout="family_backbone" data-link-tier="family_backbone" data-family="modules" data-parent="modules" data-child="work_module" data-depth="2" data-backbone-x="864.0" data-branch-y="457.0" style="stroke:#6EE66E;opacity:0.92"/>
<path d="M 1006.0 599.0 L 1006.0 604.5 Q 1006.0 610.0 1000.5 610.0 L 950.0 610.0 Q 936.0 610.0 936.0 624.0 L 936.0 663.0 Q 936.0 671.0 944.0 671.0 L 952.0 671.0" class="edge taxonomy-link taxonomy-backbone-link taxonomy-nested-link" marker-end="url(#arrow)" data-layout="family_backbone" data-link-tier="nested_branch" data-family="modules" data-parent="work_module" data-child="reuse_package" data-depth="3" data-nested-x="936.0" data-branch-y="610.0" style="stroke:#6EE66E;opacity:0.92"/>
<path d="M 1034.0 433.0 L 1034.0 445.0 Q 1034.0 457.0 1022.0 457.0 L 878.0 457.0 Q 864.0 457.0 864.0 471.0 L 864.0 787.0 Q 864.0 801.0 878.0 801.0 L 896.0 801.0" class="edge taxonomy-link taxonomy-backbone-link" marker-end="url(#arrow)" data-layout="family_backbone" data-link-tier="family_backbone" data-family="modules" data-parent="modules" data-child="training_module" data-depth="2" data-backbone-x="864.0" data-branch-y="457.0" style="stroke:#6EE66E;opacity:0.92"/>
<path d="M 1034.0 433.0 L 1034.0 445.0 Q 1034.0 457.0 1022.0 457.0 L 878.0 457.0 Q 864.0 457.0 864.0 471.0 L 864.0 917.0 Q 864.0 931.0 878.0 931.0 L 896.0 931.0" class="edge taxonomy-link taxonomy-backbone-link" marker-end="url(#arrow)" data-layout="family_backbone" data-link-tier="family_backbone" data-family="modules" data-parent="modules" data-child="playbook" data-depth="2" data-backbone-x="864.0" data-branch-y="457.0" style="stroke:#6EE66E;opacity:0.92"/>
<path d="M 1006.0 981.0 L 1006.0 986.5 Q 1006.0 992.0 1000.5 992.0 L 950.0 992.0 Q 936.0 992.0 936.0 1006.0 L 936.0 1045.0 Q 936.0 1053.0 944.0 1053.0 L 952.0 1053.0" class="edge taxonomy-link taxonomy-backbone-link taxonomy-nested-link" marker-end="url(#arrow)" data-layout="family_backbone" data-link-tier="nested_branch" data-family="modules" data-parent="playbook" data-child="exception_steps" data-depth="3" data-nested-x="936.0" data-branch-y="992.0" style="stroke:#6EE66E;opacity:0.92"/>
<path d="M 1402.0 433.0 L 1402.0 445.0 Q 1402.0 457.0 1390.0 457.0 L 1246.0 457.0 Q 1232.0 457.0 1232.0 471.0 L 1232.0 535.0 Q 1232.0 549.0 1246.0 549.0 L 1264.0 549.0" class="edge taxonomy-link taxonomy-backbone-link" marker-end="url(#arrow)" data-layout="family_backbone" data-link-tier="family_backbone" data-family="evidence" data-parent="evidence" data-child="source_doc" data-depth="2" data-backbone-x="1232.0" data-branch-y="457.0" style="stroke:#B56CFF;opacity:0.92"/>
<path d="M 1374.0 599.0 L 1374.0 604.5 Q 1374.0 610.0 1368.5 610.0 L 1318.0 610.0 Q 1304.0 610.0 1304.0 624.0 L 1304.0 663.0 Q 1304.0 671.0 1312.0 671.0 L 1320.0 671.0" class="edge taxonomy-link taxonomy-backbone-link taxonomy-nested-link" marker-end="url(#arrow)" data-layout="family_backbone" data-link-tier="nested_branch" data-family="evidence" data-parent="source_doc" data-child="controlled_source" data-depth="3" data-nested-x="1304.0" data-branch-y="610.0" style="stroke:#B56CFF;opacity:0.92"/>
<path d="M 1402.0 433.0 L 1402.0 445.0 Q 1402.0 457.0 1390.0 457.0 L 1246.0 457.0 Q 1232.0 457.0 1232.0 471.0 L 1232.0 787.0 Q 1232.0 801.0 1246.0 801.0 L 1264.0 801.0" class="edge taxonomy-link taxonomy-backbone-link" marker-end="url(#arrow)" data-layout="family_backbone" data-link-tier="family_backbone" data-family="evidence" data-parent="evidence" data-child="quality_record" data-depth="2" data-backbone-x="1232.0" data-branch-y="457.0" style="stroke:#B56CFF;opacity:0.92"/>
<path d="M 1374.0 851.0 L 1374.0 856.5 Q 1374.0 862.0 1368.5 862.0 L 1318.0 862.0 Q 1304.0 862.0 1304.0 876.0 L 1304.0 915.0 Q 1304.0 923.0 1312.0 923.0 L 1320.0 923.0" class="edge taxonomy-link taxonomy-backbone-link taxonomy-nested-link" marker-end="url(#arrow)" data-layout="family_backbone" data-link-tier="nested_branch" data-family="evidence" data-parent="quality_record" data-child="approval_record" data-depth="3" data-nested-x="1304.0" data-branch-y="862.0" style="stroke:#B56CFF;opacity:0.92"/>
<path d="M 1402.0 433.0 L 1402.0 445.0 Q 1402.0 457.0 1390.0 457.0 L 1246.0 457.0 Q 1232.0 457.0 1232.0 471.0 L 1232.0 1039.0 Q 1232.0 1053.0 1246.0 1053.0 L 1264.0 1053.0" class="edge taxonomy-link taxonomy-backbone-link" marker-end="url(#arrow)" data-layout="family_backbone" data-link-tier="family_backbone" data-family="evidence" data-parent="evidence" data-child="test_result" data-depth="2" data-backbone-x="1232.0" data-branch-y="457.0" style="stroke:#B56CFF;opacity:0.92"/>
<path d="M 1374.0 1103.0 L 1374.0 1108.5 Q 1374.0 1114.0 1368.5 1114.0 L 1318.0 1114.0 Q 1304.0 1114.0 1304.0 1128.0 L 1304.0 1167.0 Q 1304.0 1175.0 1312.0 1175.0 L 1320.0 1175.0" class="edge taxonomy-link taxonomy-backbone-link taxonomy-nested-link" marker-end="url(#arrow)" data-layout="family_backbone" data-link-tier="nested_branch" data-family="evidence" data-parent="test_result" data-child="measured_sample" data-depth="3" data-nested-x="1304.0" data-branch-y="1114.0" style="stroke:#B56CFF;opacity:0.92"/>
<g id="node-root" class="card node-card"><rect x="740.0" y="115.0" width="220.0" height="100.0" rx="6" fill="#FFFFFF" fill-opacity="0.03" stroke="#16D9FF" stroke-width="1.3"/><circle cx="766.0" cy="165.0" r="8" fill="none" stroke="#16D9FF" stroke-width="1.2"/><path d="M761.0,165.0 H771.0 M766.0,160.0 V170.0" class="icon-line" stroke="#16D9FF"/><text x="784.0" y="152.63" text-anchor="start" class="card-title" style="font-size:21px">Knowledge</text><text x="784.0" y="175.31" text-anchor="start" class="card-title" style="font-size:21px">Asset System</text><text x="784.0" y="196.77" text-anchor="start" class="card-sub" style="font-size:16px">root class</text></g>
<g id="node-maps" class="card node-card"><rect x="188.0" y="333.0" width="220.0" height="100.0" rx="6" fill="#FFFFFF" fill-opacity="0.03" stroke="#16D9FF" stroke-width="1.3"/><rect x="204.0" y="376.0" width="20" height="16" rx="3" fill="none" stroke="#16D9FF" stroke-width="1.2"/><path d="M204.0,381.0 H224.0 M214.0,376.0 V392.0" class="icon-line" stroke="#16D9FF"/><text x="232.0" y="381.97" text-anchor="start" class="card-title" style="font-size:21px">Map Assets</text><text x="232.0" y="403.43" text-anchor="start" class="card-sub" style="font-size:16px">structured views</text></g>
<g id="node-registries" class="card node-card"><rect x="556.0" y="333.0" width="220.0" height="100.0" rx="6" fill="#FFFFFF" fill-opacity="0.03" stroke="#FFD84D" stroke-width="1.3"/><path d="M582.0,373.0 L592.0,391.0 H572.0 Z" fill="none" stroke="#FFD84D" stroke-width="1.2"/><path d="M582.0,380.0 V386.0 M582.0,390.0 V390.0" class="icon-line" stroke="#FFD84D"/><text x="600.0" y="370.63" text-anchor="start" class="card-title" style="font-size:21px">Registry</text><text x="600.0" y="393.31" text-anchor="start" class="card-title" style="font-size:21px">Assets</text><text x="600.0" y="414.77" text-anchor="start" class="card-sub" style="font-size:16px">controlled tables</text></g>
<g id="node-modules" class="card node-card"><rect x="924.0" y="333.0" width="220.0" height="100.0" rx="6" fill="#FFFFFF" fill-opacity="0.03" stroke="#6EE66E" stroke-width="1.3"/><rect x="940.0" y="376.0" width="20" height="16" rx="3" fill="none" stroke="#6EE66E" stroke-width="1.2"/><path d="M940.0,381.0 H960.0 M950.0,376.0 V392.0" class="icon-line" stroke="#6EE66E"/><text x="968.0" y="381.97" text-anchor="start" class="card-title" style="font-size:21px">Module Assets</text><text x="968.0" y="403.43" text-anchor="start" class="card-sub" style="font-size:16px">reusable packages</text></g>
<g id="node-evidence" class="card node-card"><rect x="1292.0" y="333.0" width="220.0" height="100.0" rx="6" fill="#FFFFFF" fill-opacity="0.03" stroke="#C9DAF5" stroke-width="1.3"/><path d="M1308.0,373.0 H1322.0 L1328.0,379.0 V393.0 H1308.0 Z" fill="none" stroke="#C9DAF5" stroke-width="1.2"/><path d="M1322.0,373.0 V379.0 H1328.0" class="icon-line" stroke="#C9DAF5"/><text x="1336.0" y="370.63" text-anchor="start" class="card-title" style="font-size:21px">Evidence</text><text x="1336.0" y="393.31" text-anchor="start" class="card-title" style="font-size:21px">Assets</text><text x="1336.0" y="414.77" text-anchor="start" class="card-sub" style="font-size:16px">source proof</text></g>
<g id="node-domain_map" class="card node-card"><rect x="160.0" y="499.0" width="220.0" height="100.0" rx="6" fill="#FFFFFF" fill-opacity="0.03" stroke="#16D9FF" stroke-width="1.3"/><rect x="176.0" y="542.0" width="20" height="16" rx="3" fill="none" stroke="#16D9FF" stroke-width="1.2"/><path d="M176.0,547.0 H196.0 M186.0,542.0 V558.0" class="icon-line" stroke="#16D9FF"/><text x="204.0" y="539.17" text-anchor="start" class="card-title" style="font-size:21px">Domain Map</text><text x="204.0" y="560.6299999999999" text-anchor="start" class="card-sub" style="font-size:16px">systems +</text><text x="204.0" y="578.2299999999999" text-anchor="start" class="card-sub" style="font-size:16px">boundaries</text></g>
<g id="node-glossary" class="card node-card"><rect x="528.0" y="499.0" width="220.0" height="100.0" rx="6" fill="#FFFFFF" fill-opacity="0.03" stroke="#B56CFF" stroke-width="1.3"/><path d="M544.0,539.0 H560.0 Q564.0,539.0 564.0,543.0 V558.0 H544.0 Z" fill="none" stroke="#B56CFF" stroke-width="1.2"/><path d="M549.0,545.0 H558.0 M549.0,551.0 H558.0" class="icon-line" stroke="#B56CFF"/><text x="572.0" y="547.97" text-anchor="start" class="card-title" style="font-size:21px">Glossary</text><text x="572.0" y="569.43" text-anchor="start" class="card-sub" style="font-size:16px">controlled terms</text></g>
<g id="node-work_module" class="card node-card"><rect x="896.0" y="499.0" width="220.0" height="100.0" rx="6" fill="#FFFFFF" fill-opacity="0.03" stroke="#6EE66E" stroke-width="1.3"/><rect x="912.0" y="542.0" width="20" height="16" rx="3" fill="none" stroke="#6EE66E" stroke-width="1.2"/><path d="M912.0,547.0 H932.0 M922.0,542.0 V558.0" class="icon-line" stroke="#6EE66E"/><text x="940.0" y="547.97" text-anchor="start" class="card-title" style="font-size:21px">Work Module</text><text x="940.0" y="569.43" text-anchor="start" class="card-sub" style="font-size:16px">approved package</text></g>
<g id="node-source_doc" class="card node-card"><rect x="1264.0" y="499.0" width="220.0" height="100.0" rx="6" fill="#FFFFFF" fill-opacity="0.03" stroke="#F4F8FF" stroke-width="1.3"/><path d="M1280.0,539.0 H1294.0 L1300.0,545.0 V559.0 H1280.0 Z" fill="none" stroke="#F4F8FF" stroke-width="1.2"/><path d="M1294.0,539.0 V545.0 H1300.0" class="icon-line" stroke="#F4F8FF"/><text x="1308.0" y="536.63" text-anchor="start" class="card-title" style="font-size:21px">Source</text><text x="1308.0" y="559.31" text-anchor="start" class="card-title" style="font-size:21px">Document</text><text x="1308.0" y="580.77" text-anchor="start" class="card-sub" style="font-size:16px">authority</text></g>
<g id="node-boundary_view" class="card node-card"><rect x="216.0" y="621.0" width="220.0" height="100.0" rx="6" fill="#FFFFFF" fill-opacity="0.03" stroke="#FF9F2E" stroke-width="1.3"/><path d="M242.0,661.0 L252.0,671.0 L242.0,681.0 L232.0,671.0 Z" fill="none" stroke="#FF9F2E" stroke-width="1.2"/><path d="M238.0,671.0 H246.0" class="icon-line" stroke="#FF9F2E"/><text x="260.0" y="661.17" text-anchor="start" class="card-title" style="font-size:21px">Boundary View</text><text x="260.0" y="682.6299999999999" text-anchor="start" class="card-sub" style="font-size:16px">interfaces +</text><text x="260.0" y="700.2299999999999" text-anchor="start" class="card-sub" style="font-size:16px">owners</text></g>
<g id="node-term_review" class="card node-card"><rect x="584.0" y="621.0" width="220.0" height="100.0" rx="6" fill="#FFFFFF" fill-opacity="0.03" stroke="#FFD84D" stroke-width="1.3"/><path d="M610.0,661.0 L620.0,679.0 H600.0 Z" fill="none" stroke="#FFD84D" stroke-width="1.2"/><path d="M610.0,668.0 V674.0 M610.0,678.0 V678.0" class="icon-line" stroke="#FFD84D"/><text x="628.0" y="669.97" text-anchor="start" class="card-title" style="font-size:21px">Term Review</text><text x="628.0" y="691.43" text-anchor="start" class="card-sub" style="font-size:16px">approval cadence</text></g>
<g id="node-reuse_package" class="card node-card"><rect x="952.0" y="621.0" width="220.0" height="100.0" rx="6" fill="#FFFFFF" fill-opacity="0.03" stroke="#6EE66E" stroke-width="1.3"/><rect x="968.0" y="664.0" width="20" height="16" rx="3" fill="none" stroke="#6EE66E" stroke-width="1.2"/><path d="M968.0,669.0 H988.0 M978.0,664.0 V680.0" class="icon-line" stroke="#6EE66E"/><text x="996.0" y="669.97" text-anchor="start" class="card-title" style="font-size:21px">Reuse Package</text><text x="996.0" y="691.43" text-anchor="start" class="card-sub" style="font-size:16px">versioned module</text></g>
<g id="node-controlled_source" class="card node-card"><rect x="1320.0" y="621.0" width="220.0" height="100.0" rx="6" fill="#FFFFFF" fill-opacity="0.03" stroke="#F4F8FF" stroke-width="1.3"/><path d="M1336.0,661.0 H1350.0 L1356.0,667.0 V681.0 H1336.0 Z" fill="none" stroke="#F4F8FF" stroke-width="1.2"/><path d="M1350.0,661.0 V667.0 H1356.0" class="icon-line" stroke="#F4F8FF"/><text x="1364.0" y="658.63" text-anchor="start" class="card-title" style="font-size:21px">Controlled</text><text x="1364.0" y="681.31" text-anchor="start" class="card-title" style="font-size:21px">Source</text><text x="1364.0" y="702.77" text-anchor="start" class="card-sub" style="font-size:16px">approved baseline</text></g>
<g id="node-ownership_map" class="card node-card"><rect x="160.0" y="751.0" width="220.0" height="100.0" rx="6" fill="#FFFFFF" fill-opacity="0.03" stroke="#FF9F2E" stroke-width="1.3"/><path d="M186.0,791.0 L196.0,801.0 L186.0,811.0 L176.0,801.0 Z" fill="none" stroke="#FF9F2E" stroke-width="1.2"/><path d="M182.0,801.0 H190.0" class="icon-line" stroke="#FF9F2E"/><text x="204.0" y="799.97" text-anchor="start" class="card-title" style="font-size:21px">Ownership Map</text><text x="204.0" y="821.43" text-anchor="start" class="card-sub" style="font-size:16px">responsibility</text></g>
<g id="node-parameter_register" class="card node-card"><rect x="528.0" y="751.0" width="220.0" height="100.0" rx="6" fill="#FFFFFF" fill-opacity="0.03" stroke="#FFD84D" stroke-width="1.3"/><path d="M554.0,791.0 L564.0,809.0 H544.0 Z" fill="none" stroke="#FFD84D" stroke-width="1.2"/><path d="M554.0,798.0 V804.0 M554.0,808.0 V808.0" class="icon-line" stroke="#FFD84D"/><text x="572.0" y="788.63" text-anchor="start" class="card-title" style="font-size:21px">Parameter</text><text x="572.0" y="811.31" text-anchor="start" class="card-title" style="font-size:21px">Register</text><text x="572.0" y="832.77" text-anchor="start" class="card-sub" style="font-size:16px">CTQ families</text></g>
<g id="node-training_module" class="card node-card"><rect x="896.0" y="751.0" width="220.0" height="100.0" rx="6" fill="#FFFFFF" fill-opacity="0.03" stroke="#6EE66E" stroke-width="1.3"/><rect x="912.0" y="794.0" width="20" height="16" rx="3" fill="none" stroke="#6EE66E" stroke-width="1.2"/><path d="M912.0,799.0 H932.0 M922.0,794.0 V810.0" class="icon-line" stroke="#6EE66E"/><text x="940.0" y="788.63" text-anchor="start" class="card-title" style="font-size:21px">Training</text><text x="940.0" y="811.31" text-anchor="start" class="card-title" style="font-size:21px">Module</text><text x="940.0" y="832.77" text-anchor="start" class="card-sub" style="font-size:16px">reuse content</text></g>
<g id="node-quality_record" class="card node-card"><rect x="1264.0" y="751.0" width="220.0" height="100.0" rx="6" fill="#FFFFFF" fill-opacity="0.03" stroke="#FFD84D" stroke-width="1.3"/><path d="M1290.0,791.0 L1300.0,809.0 H1280.0 Z" fill="none" stroke="#FFD84D" stroke-width="1.2"/><path d="M1290.0,798.0 V804.0 M1290.0,808.0 V808.0" class="icon-line" stroke="#FFD84D"/><text x="1308.0" y="788.63" text-anchor="start" class="card-title" style="font-size:21px">Quality</text><text x="1308.0" y="811.31" text-anchor="start" class="card-title" style="font-size:21px">Record</text><text x="1308.0" y="832.77" text-anchor="start" class="card-sub" style="font-size:16px">approval proof</text></g>
<g id="node-stewardship_path" class="card node-card"><rect x="216.0" y="873.0" width="220.0" height="100.0" rx="6" fill="#FFFFFF" fill-opacity="0.03" stroke="#FFD84D" stroke-width="1.3"/><path d="M242.0,913.0 L252.0,931.0 H232.0 Z" fill="none" stroke="#FFD84D" stroke-width="1.2"/><path d="M242.0,920.0 V926.0 M242.0,930.0 V930.0" class="icon-line" stroke="#FFD84D"/><text x="260.0" y="910.63" text-anchor="start" class="card-title" style="font-size:21px">Stewardship</text><text x="260.0" y="933.31" text-anchor="start" class="card-title" style="font-size:21px">Path</text><text x="260.0" y="954.77" text-anchor="start" class="card-sub" style="font-size:16px">owner + reviewer</text></g>
<g id="node-ctq_thresholds" class="card node-card"><rect x="584.0" y="873.0" width="220.0" height="100.0" rx="6" fill="#FFFFFF" fill-opacity="0.03" stroke="#FFD84D" stroke-width="1.3"/><path d="M610.0,913.0 L619.0,918.0 V928.0 L610.0,933.0 L601.0,928.0 V918.0 Z" fill="none" stroke="#FFD84D" stroke-width="1.2"/><path d="M606.0,923.0 L609.0,927.0 L615.0,919.0" class="icon-line" stroke="#FFD84D"/><text x="628.0" y="910.63" text-anchor="start" class="card-title" style="font-size:21px">CTQ</text><text x="628.0" y="933.31" text-anchor="start" class="card-title" style="font-size:21px">Thresholds</text><text x="628.0" y="954.77" text-anchor="start" class="card-sub" style="font-size:16px">limits + units</text></g>
<g id="node-approval_record" class="card node-card"><rect x="1320.0" y="873.0" width="220.0" height="100.0" rx="6" fill="#FFFFFF" fill-opacity="0.03" stroke="#C9DAF5" stroke-width="1.3"/><path d="M1336.0,913.0 H1350.0 L1356.0,919.0 V933.0 H1336.0 Z" fill="none" stroke="#C9DAF5" stroke-width="1.2"/><path d="M1350.0,913.0 V919.0 H1356.0" class="icon-line" stroke="#C9DAF5"/><text x="1364.0" y="910.63" text-anchor="start" class="card-title" style="font-size:21px">Approval</text><text x="1364.0" y="933.31" text-anchor="start" class="card-title" style="font-size:21px">Record</text><text x="1364.0" y="954.77" text-anchor="start" class="card-sub" style="font-size:16px">signoff trail</text></g>
<g id="node-playbook" class="card node-card"><rect x="896.0" y="881.0" width="220.0" height="100.0" rx="6" fill="#FFFFFF" fill-opacity="0.03" stroke="#FFD84D" stroke-width="1.3"/><path d="M922.0,921.0 L931.0,926.0 V936.0 L922.0,941.0 L913.0,936.0 V926.0 Z" fill="none" stroke="#FFD84D" stroke-width="1.2"/><path d="M918.0,931.0 L921.0,935.0 L927.0,927.0" class="icon-line" stroke="#FFD84D"/><text x="940.0" y="918.63" text-anchor="start" class="card-title" style="font-size:21px">Exception</text><text x="940.0" y="941.31" text-anchor="start" class="card-title" style="font-size:21px">Playbook</text><text x="940.0" y="962.77" text-anchor="start" class="card-sub" style="font-size:16px">risk response</text></g>
<g id="node-flow_overview" class="card node-card"><rect x="160.0" y="1003.0" width="220.0" height="100.0" rx="6" fill="#FFFFFF" fill-opacity="0.03" stroke="#FF9F2E" stroke-width="1.3"/><circle cx="180.0" cy="1054.0" r="4" fill="none" stroke="#FF9F2E" stroke-width="1.6"/><circle cx="194.0" cy="1047.0" r="4" fill="none" stroke="#FF9F2E" stroke-width="1.6"/><circle cx="194.0" cy="1061.0" r="4" fill="none" stroke="#FF9F2E" stroke-width="1.6"/><path d="M184.0,1054.0 H188.0 M190.0,1050.0 L188.0,1054.0 L190.0,1058.0" class="icon-line" stroke="#FF9F2E"/><text x="204.0" y="1040.63" text-anchor="start" class="card-title" style="font-size:21px">Knowledge</text><text x="204.0" y="1063.3100000000002" text-anchor="start" class="card-title" style="font-size:21px">Flow Overview</text><text x="204.0" y="1084.77" text-anchor="start" class="card-sub" style="font-size:16px">movement map</text></g>
<g id="node-risk_register" class="card node-card"><rect x="528.0" y="1003.0" width="220.0" height="100.0" rx="6" fill="#FFFFFF" fill-opacity="0.03" stroke="#FFD84D" stroke-width="1.3"/><path d="M554.0,1043.0 L563.0,1048.0 V1058.0 L554.0,1063.0 L545.0,1058.0 V1048.0 Z" fill="none" stroke="#FFD84D" stroke-width="1.2"/><path d="M550.0,1053.0 L553.0,1057.0 L559.0,1049.0" class="icon-line" stroke="#FFD84D"/><text x="572.0" y="1051.97" text-anchor="start" class="card-title" style="font-size:21px">Risk Register</text><text x="572.0" y="1073.43" text-anchor="start" class="card-sub" style="font-size:16px">constraints</text></g>
<g id="node-exception_steps" class="card node-card"><rect x="952.0" y="1003.0" width="220.0" height="100.0" rx="6" fill="#FFFFFF" fill-opacity="0.03" stroke="#FF9F2E" stroke-width="1.3"/><circle cx="972.0" cy="1054.0" r="4" fill="none" stroke="#FF9F2E" stroke-width="1.6"/><circle cx="986.0" cy="1047.0" r="4" fill="none" stroke="#FF9F2E" stroke-width="1.6"/><circle cx="986.0" cy="1061.0" r="4" fill="none" stroke="#FF9F2E" stroke-width="1.6"/><path d="M976.0,1054.0 H980.0 M982.0,1050.0 L980.0,1054.0 L982.0,1058.0" class="icon-line" stroke="#FF9F2E"/><text x="996.0" y="1040.63" text-anchor="start" class="card-title" style="font-size:21px">Exception</text><text x="996.0" y="1063.3100000000002" text-anchor="start" class="card-title" style="font-size:21px">Steps</text><text x="996.0" y="1084.77" text-anchor="start" class="card-sub" style="font-size:16px">actions + owners</text></g>
<g id="node-test_result" class="card node-card"><rect x="1264.0" y="1003.0" width="220.0" height="100.0" rx="6" fill="#FFFFFF" fill-opacity="0.03" stroke="#C9DAF5" stroke-width="1.3"/><path d="M1280.0,1043.0 H1294.0 L1300.0,1049.0 V1063.0 H1280.0 Z" fill="none" stroke="#C9DAF5" stroke-width="1.2"/><path d="M1294.0,1043.0 V1049.0 H1300.0" class="icon-line" stroke="#C9DAF5"/><text x="1308.0" y="1051.97" text-anchor="start" class="card-title" style="font-size:21px">Test Result</text><text x="1308.0" y="1073.43" text-anchor="start" class="card-sub" style="font-size:16px">measured evidence</text></g>
<g id="node-risk_controls" class="card node-card"><rect x="584.0" y="1125.0" width="220.0" height="100.0" rx="6" fill="#FFFFFF" fill-opacity="0.03" stroke="#FF9F2E" stroke-width="1.3"/><path d="M610.0,1165.0 L620.0,1175.0 L610.0,1185.0 L600.0,1175.0 Z" fill="none" stroke="#FF9F2E" stroke-width="1.2"/><path d="M606.0,1175.0 H614.0" class="icon-line" stroke="#FF9F2E"/><text x="628.0" y="1173.97" text-anchor="start" class="card-title" style="font-size:21px">Risk Controls</text><text x="628.0" y="1195.43" text-anchor="start" class="card-sub" style="font-size:16px">mitigation rules</text></g>
<g id="node-measured_sample" class="card node-card"><rect x="1320.0" y="1125.0" width="220.0" height="100.0" rx="6" fill="#FFFFFF" fill-opacity="0.03" stroke="#FFD84D" stroke-width="1.3"/><path d="M1346.0,1165.0 L1356.0,1183.0 H1336.0 Z" fill="none" stroke="#FFD84D" stroke-width="1.2"/><path d="M1346.0,1172.0 V1178.0 M1346.0,1182.0 V1182.0" class="icon-line" stroke="#FFD84D"/><text x="1364.0" y="1162.63" text-anchor="start" class="card-title" style="font-size:21px">Measured</text><text x="1364.0" y="1185.3100000000002" text-anchor="start" class="card-title" style="font-size:21px">Sample</text><text x="1364.0" y="1206.77" text-anchor="start" class="card-sub" style="font-size:16px">result packet</text></g>
<text x="24.0" y="101.0" class="tree-level-label">Level 0</text>
<text x="24.0" y="319.0" class="tree-level-label">Level 1</text>
<text x="24.0" y="485.0" class="tree-level-label">Level 2+</text>
<text x="850.0" y="1307" text-anchor="middle" class="note">Stress template: first-level families remain horizontal; deeper taxonomy branches use separate vertical backbones to reduce shared corridors.</text>
</svg>
