<svg xmlns="http://www.w3.org/2000/svg" width="1700" height="1359" viewBox="0 0 1700 1359" role="img" aria-label="Taxonomy Tree Stress" data-style="accent-blueprint" data-diagram-type="taxonomy_tree">
<defs>
  <pattern id="blueprint-grid-small" width="13.6" height="13.6" patternUnits="userSpaceOnUse"><path d="M 13.6 0 H 0 V 13.6" fill="none" stroke="#FFFFFF" stroke-opacity="0.08" stroke-width="0.79"/></pattern>
  <pattern id="blueprint-grid" width="68" height="68" patternUnits="userSpaceOnUse"><rect width="68" height="68" fill="url(#blueprint-grid-small)"/><path d="M 68 0 H 0 V 68" fill="none" stroke="#FFFFFF" stroke-opacity="0.14" stroke-width="1.13"/> </pattern>
  <marker id="arrow" markerWidth="10" markerHeight="10" refX="8.5" refY="3" orient="auto" markerUnits="strokeWidth"><path d="M0,0 L0,6 L9,3 z" fill="context-stroke"/></marker>
  <marker id="arrow-fanout" markerWidth="10" markerHeight="10" refX="8.5" refY="3" orient="auto" markerUnits="strokeWidth"><path d="M0,0 L0,6 L9,3 z" fill="context-stroke"/></marker>
  <marker id="arrow-fanin" markerWidth="10" markerHeight="10" refX="8.5" refY="3" orient="auto" markerUnits="strokeWidth"><path d="M0,0 L0,6 L9,3 z" fill="context-stroke"/></marker>
  <style>
    [data-style="accent-blueprint"] .title{font:700 27px IBM Plex Mono,JetBrains Mono,Consolas,monospace;fill:#F4F8FF;letter-spacing:.04em;text-transform:uppercase}
    [data-style="accent-blueprint"] .subtitle{font:400 13px IBM Plex Sans,Inter,Roboto Condensed,DIN,Segoe UI,Aptos,Arial,sans-serif;fill:#C9DAF5}
    [data-style="accent-blueprint"] .group-label{font:700 15px IBM Plex Mono,JetBrains Mono,Consolas,monospace;fill:#C9DAF5;letter-spacing:.08em;text-transform:uppercase}
    [data-style="accent-blueprint"] .card-title{font:700 17px IBM Plex Sans,Inter,Roboto Condensed,DIN,Segoe UI,Aptos,Arial,sans-serif;fill:#F4F8FF}
    [data-style="accent-blueprint"] .card-sub{font:500 13px IBM Plex Sans,Inter,Roboto Condensed,DIN,Segoe UI,Aptos,Arial,sans-serif;fill:#C9DAF5}
    [data-style="accent-blueprint"] .edge{fill:none;stroke:#F4F8FF;stroke-width:1.5;stroke-linecap:round;stroke-linejoin:round;opacity:0.88}
    [data-style="accent-blueprint"] .fanout{stroke:#FF9F2E;opacity:0.9}
    [data-style="accent-blueprint"] .fanin{stroke:#6EE66E;opacity:0.9}
    [data-style="accent-blueprint"] .route-shared{marker-end:none}
    [data-style="accent-blueprint"] .edge-dashed{stroke-dasharray:6 5;opacity:0.68}
    [data-style="accent-blueprint"] .note{font:500 14px IBM Plex Sans,Inter,Roboto Condensed,DIN,Segoe UI,Aptos,Arial,sans-serif;fill:#C9DAF5}
    [data-style="accent-blueprint"] .mono{font-family:IBM Plex Mono,JetBrains Mono,Consolas,monospace}
    [data-style="accent-blueprint"] .table-header{font:700 15.5px IBM Plex Mono,JetBrains Mono,Consolas,monospace;fill:#F4F8FF;letter-spacing:.08em;text-transform:uppercase}
    [data-style="accent-blueprint"] .table-cell{font:500 17px IBM Plex Sans,Inter,Roboto Condensed,DIN,Segoe UI,Aptos,Arial,sans-serif;fill:#F4F8FF}
    [data-style="accent-blueprint"] .table-cell-secondary{font:500 17px IBM Plex Sans,Inter,Roboto Condensed,DIN,Segoe UI,Aptos,Arial,sans-serif;fill:#C9DAF5}
    [data-style="accent-blueprint"] .info-panel-title{font:700 15px IBM Plex Mono,JetBrains Mono,Consolas,monospace;fill:#F4F8FF;letter-spacing:.08em;text-transform:uppercase}
    [data-style="accent-blueprint"] .info-panel-item{font:500 14px IBM Plex Sans,Inter,Roboto Condensed,DIN,Segoe UI,Aptos,Arial,sans-serif;fill:#C9DAF5}
    [data-style="accent-blueprint"] .tree-level-label{font:700 15px IBM Plex Mono,JetBrains Mono,Consolas,monospace;fill:#C9DAF5;letter-spacing:.08em;text-transform:uppercase}
    [data-style="accent-blueprint"] .hub-label{font:700 15px IBM Plex Mono,JetBrains Mono,Consolas,monospace;fill:#C9DAF5;letter-spacing:.08em;text-transform:uppercase}
    [data-style="accent-blueprint"] .icon-line{fill:none;stroke-width:1.3;stroke-linecap:round;stroke-linejoin:round}
  </style>
</defs>
<rect x="0" y="0" width="1700" height="1359" rx="0" fill="#062B5F"/>
<rect x="0" y="0" width="1700" height="1359" rx="0" fill="url(#blueprint-grid)" opacity="1"/>
<text x="850.0" y="54" text-anchor="middle" class="title">Taxonomy Tree Stress</text>
<text x="850.0" y="80.0" text-anchor="middle" class="subtitle">Stress contract with first-level families and vertical backbones</text>
<path d="M 850.0 215.0 L 850.0 260.0 Q 850.0 274.0 836.0 274.0 L 396.0 274.0 Q 382.0 274.0 382.0 288.0 L 382.0 333.0" class="edge taxonomy-link taxonomy-backbone-link" marker-end="url(#arrow)" data-layout="family_backbone" data-family="maps" data-parent="root" data-child="maps" data-depth="1" data-lane-y="274.0" style="stroke:#16D9FF;opacity:0.92"/>
<path d="M 850.0 215.0 L 850.0 260.0 Q 850.0 274.0 836.0 274.0 L 708.0 274.0 Q 694.0 274.0 694.0 288.0 L 694.0 333.0" class="edge taxonomy-link taxonomy-backbone-link" marker-end="url(#arrow)" data-layout="family_backbone" data-family="registries" data-parent="root" data-child="registries" data-depth="1" data-lane-y="274.0" style="stroke:#FFD84D;opacity:0.92"/>
<path d="M 850.0 215.0 L 850.0 260.0 Q 850.0 274.0 864.0 274.0 L 992.0 274.0 Q 1006.0 274.0 1006.0 288.0 L 1006.0 333.0" class="edge taxonomy-link taxonomy-backbone-link" marker-end="url(#arrow)" data-layout="family_backbone" data-family="modules" data-parent="root" data-child="modules" data-depth="1" data-lane-y="274.0" style="stroke:#6EE66E;opacity:0.92"/>
<path d="M 850.0 215.0 L 850.0 260.0 Q 850.0 274.0 864.0 274.0 L 1304.0 274.0 Q 1318.0 274.0 1318.0 288.0 L 1318.0 333.0" class="edge taxonomy-link taxonomy-backbone-link" marker-end="url(#arrow)" data-layout="family_backbone" data-family="evidence" data-parent="root" data-child="evidence" data-depth="1" data-lane-y="274.0" style="stroke:#B56CFF;opacity:0.92"/>
<path d="M 382.0 433.0 L 382.0 445.0 Q 382.0 457.0 370.0 457.0 L 254.0 457.0 Q 240.0 457.0 240.0 471.0 L 240.0 535.0 Q 240.0 549.0 254.0 549.0 L 272.0 549.0" class="edge taxonomy-link taxonomy-backbone-link" marker-end="url(#arrow)" data-layout="family_backbone" data-family="maps" data-parent="maps" data-child="domain_map" data-depth="2" data-backbone-x="240.0" data-branch-y="457.0" style="stroke:#16D9FF;opacity:0.92"/>
<path d="M 272.0 549.0 L 254.0 549.0 Q 240.0 549.0 240.0 563.0 L 240.0 665.0 Q 240.0 679.0 254.0 679.0 L 272.0 679.0" class="edge taxonomy-link taxonomy-backbone-link" marker-end="url(#arrow)" data-layout="family_backbone" data-family="maps" data-parent="domain_map" data-child="boundary_view" data-depth="3" data-backbone-x="240.0" data-branch-y="549.0" style="stroke:#16D9FF;opacity:0.92"/>
<path d="M 382.0 433.0 L 382.0 445.0 Q 382.0 457.0 370.0 457.0 L 254.0 457.0 Q 240.0 457.0 240.0 471.0 L 240.0 795.0 Q 240.0 809.0 254.0 809.0 L 272.0 809.0" class="edge taxonomy-link taxonomy-backbone-link" marker-end="url(#arrow)" data-layout="family_backbone" data-family="maps" data-parent="maps" data-child="ownership_map" data-depth="2" data-backbone-x="240.0" data-branch-y="457.0" style="stroke:#16D9FF;opacity:0.92"/>
<path d="M 272.0 809.0 L 254.0 809.0 Q 240.0 809.0 240.0 823.0 L 240.0 925.0 Q 240.0 939.0 254.0 939.0 L 272.0 939.0" class="edge taxonomy-link taxonomy-backbone-link" marker-end="url(#arrow)" data-layout="family_backbone" data-family="maps" data-parent="ownership_map" data-child="stewardship_path" data-depth="3" data-backbone-x="240.0" data-branch-y="809.0" style="stroke:#16D9FF;opacity:0.92"/>
<path d="M 382.0 433.0 L 382.0 445.0 Q 382.0 457.0 370.0 457.0 L 254.0 457.0 Q 240.0 457.0 240.0 471.0 L 240.0 1055.0 Q 240.0 1069.0 254.0 1069.0 L 272.0 1069.0" class="edge taxonomy-link taxonomy-backbone-link" marker-end="url(#arrow)" data-layout="family_backbone" data-family="maps" data-parent="maps" data-child="flow_overview" data-depth="2" data-backbone-x="240.0" data-branch-y="457.0" style="stroke:#16D9FF;opacity:0.92"/>
<path d="M 694.0 433.0 L 694.0 445.0 Q 694.0 457.0 682.0 457.0 L 566.0 457.0 Q 552.0 457.0 552.0 471.0 L 552.0 535.0 Q 552.0 549.0 566.0 549.0 L 584.0 549.0" class="edge taxonomy-link taxonomy-backbone-link" marker-end="url(#arrow)" data-layout="family_backbone" data-family="registries" data-parent="registries" data-child="glossary" data-depth="2" data-backbone-x="552.0" data-branch-y="457.0" style="stroke:#FFD84D;opacity:0.92"/>
<path d="M 584.0 549.0 L 566.0 549.0 Q 552.0 549.0 552.0 563.0 L 552.0 665.0 Q 552.0 679.0 566.0 679.0 L 584.0 679.0" class="edge taxonomy-link taxonomy-backbone-link" marker-end="url(#arrow)" data-layout="family_backbone" data-family="registries" data-parent="glossary" data-child="term_review" data-depth="3" data-backbone-x="552.0" data-branch-y="549.0" style="stroke:#FFD84D;opacity:0.92"/>
<path d="M 694.0 433.0 L 694.0 445.0 Q 694.0 457.0 682.0 457.0 L 566.0 457.0 Q 552.0 457.0 552.0 471.0 L 552.0 795.0 Q 552.0 809.0 566.0 809.0 L 584.0 809.0" class="edge taxonomy-link taxonomy-backbone-link" marker-end="url(#arrow)" data-layout="family_backbone" data-family="registries" data-parent="registries" data-child="parameter_register" data-depth="2" data-backbone-x="552.0" data-branch-y="457.0" style="stroke:#FFD84D;opacity:0.92"/>
<path d="M 584.0 809.0 L 566.0 809.0 Q 552.0 809.0 552.0 823.0 L 552.0 925.0 Q 552.0 939.0 566.0 939.0 L 584.0 939.0" class="edge taxonomy-link taxonomy-backbone-link" marker-end="url(#arrow)" data-layout="family_backbone" data-family="registries" data-parent="parameter_register" data-child="ctq_thresholds" data-depth="3" data-backbone-x="552.0" data-branch-y="809.0" style="stroke:#FFD84D;opacity:0.92"/>
<path d="M 694.0 433.0 L 694.0 445.0 Q 694.0 457.0 682.0 457.0 L 566.0 457.0 Q 552.0 457.0 552.0 471.0 L 552.0 1055.0 Q 552.0 1069.0 566.0 1069.0 L 584.0 1069.0" class="edge taxonomy-link taxonomy-backbone-link" marker-end="url(#arrow)" data-layout="family_backbone" data-family="registries" data-parent="registries" data-child="risk_register" data-depth="2" data-backbone-x="552.0" data-branch-y="457.0" style="stroke:#FFD84D;opacity:0.92"/>
<path d="M 584.0 1069.0 L 566.0 1069.0 Q 552.0 1069.0 552.0 1083.0 L 552.0 1185.0 Q 552.0 1199.0 566.0 1199.0 L 584.0 1199.0" class="edge taxonomy-link taxonomy-backbone-link" marker-end="url(#arrow)" data-layout="family_backbone" data-family="registries" data-parent="risk_register" data-child="risk_controls" data-depth="3" data-backbone-x="552.0" data-branch-y="1069.0" style="stroke:#FFD84D;opacity:0.92"/>
<path d="M 1006.0 433.0 L 1006.0 445.0 Q 1006.0 457.0 994.0 457.0 L 878.0 457.0 Q 864.0 457.0 864.0 471.0 L 864.0 535.0 Q 864.0 549.0 878.0 549.0 L 896.0 549.0" class="edge taxonomy-link taxonomy-backbone-link" marker-end="url(#arrow)" data-layout="family_backbone" data-family="modules" data-parent="modules" data-child="work_module" data-depth="2" data-backbone-x="864.0" data-branch-y="457.0" style="stroke:#6EE66E;opacity:0.92"/>
<path d="M 896.0 549.0 L 878.0 549.0 Q 864.0 549.0 864.0 563.0 L 864.0 665.0 Q 864.0 679.0 878.0 679.0 L 896.0 679.0" class="edge taxonomy-link taxonomy-backbone-link" marker-end="url(#arrow)" data-layout="family_backbone" data-family="modules" data-parent="work_module" data-child="reuse_package" data-depth="3" data-backbone-x="864.0" data-branch-y="549.0" style="stroke:#6EE66E;opacity:0.92"/>
<path d="M 1006.0 433.0 L 1006.0 445.0 Q 1006.0 457.0 994.0 457.0 L 878.0 457.0 Q 864.0 457.0 864.0 471.0 L 864.0 795.0 Q 864.0 809.0 878.0 809.0 L 896.0 809.0" class="edge taxonomy-link taxonomy-backbone-link" marker-end="url(#arrow)" data-layout="family_backbone" data-family="modules" data-parent="modules" data-child="training_module" data-depth="2" data-backbone-x="864.0" data-branch-y="457.0" style="stroke:#6EE66E;opacity:0.92"/>
<path d="M 1006.0 433.0 L 1006.0 445.0 Q 1006.0 457.0 994.0 457.0 L 878.0 457.0 Q 864.0 457.0 864.0 471.0 L 864.0 925.0 Q 864.0 939.0 878.0 939.0 L 896.0 939.0" class="edge taxonomy-link taxonomy-backbone-link" marker-end="url(#arrow)" data-layout="family_backbone" data-family="modules" data-parent="modules" data-child="playbook" data-depth="2" data-backbone-x="864.0" data-branch-y="457.0" style="stroke:#6EE66E;opacity:0.92"/>
<path d="M 896.0 939.0 L 878.0 939.0 Q 864.0 939.0 864.0 953.0 L 864.0 1055.0 Q 864.0 1069.0 878.0 1069.0 L 896.0 1069.0" class="edge taxonomy-link taxonomy-backbone-link" marker-end="url(#arrow)" data-layout="family_backbone" data-family="modules" data-parent="playbook" data-child="exception_steps" data-depth="3" data-backbone-x="864.0" data-branch-y="939.0" style="stroke:#6EE66E;opacity:0.92"/>
<path d="M 1318.0 433.0 L 1318.0 445.0 Q 1318.0 457.0 1306.0 457.0 L 1190.0 457.0 Q 1176.0 457.0 1176.0 471.0 L 1176.0 535.0 Q 1176.0 549.0 1190.0 549.0 L 1208.0 549.0" class="edge taxonomy-link taxonomy-backbone-link" marker-end="url(#arrow)" data-layout="family_backbone" data-family="evidence" data-parent="evidence" data-child="source_doc" data-depth="2" data-backbone-x="1176.0" data-branch-y="457.0" style="stroke:#B56CFF;opacity:0.92"/>
<path d="M 1208.0 549.0 L 1190.0 549.0 Q 1176.0 549.0 1176.0 563.0 L 1176.0 665.0 Q 1176.0 679.0 1190.0 679.0 L 1208.0 679.0" class="edge taxonomy-link taxonomy-backbone-link" marker-end="url(#arrow)" data-layout="family_backbone" data-family="evidence" data-parent="source_doc" data-child="controlled_source" data-depth="3" data-backbone-x="1176.0" data-branch-y="549.0" style="stroke:#B56CFF;opacity:0.92"/>
<path d="M 1318.0 433.0 L 1318.0 445.0 Q 1318.0 457.0 1306.0 457.0 L 1190.0 457.0 Q 1176.0 457.0 1176.0 471.0 L 1176.0 795.0 Q 1176.0 809.0 1190.0 809.0 L 1208.0 809.0" class="edge taxonomy-link taxonomy-backbone-link" marker-end="url(#arrow)" data-layout="family_backbone" data-family="evidence" data-parent="evidence" data-child="quality_record" data-depth="2" data-backbone-x="1176.0" data-branch-y="457.0" style="stroke:#B56CFF;opacity:0.92"/>
<path d="M 1208.0 809.0 L 1190.0 809.0 Q 1176.0 809.0 1176.0 823.0 L 1176.0 925.0 Q 1176.0 939.0 1190.0 939.0 L 1208.0 939.0" class="edge taxonomy-link taxonomy-backbone-link" marker-end="url(#arrow)" data-layout="family_backbone" data-family="evidence" data-parent="quality_record" data-child="approval_record" data-depth="3" data-backbone-x="1176.0" data-branch-y="809.0" style="stroke:#B56CFF;opacity:0.92"/>
<path d="M 1318.0 433.0 L 1318.0 445.0 Q 1318.0 457.0 1306.0 457.0 L 1190.0 457.0 Q 1176.0 457.0 1176.0 471.0 L 1176.0 1055.0 Q 1176.0 1069.0 1190.0 1069.0 L 1208.0 1069.0" class="edge taxonomy-link taxonomy-backbone-link" marker-end="url(#arrow)" data-layout="family_backbone" data-family="evidence" data-parent="evidence" data-child="test_result" data-depth="2" data-backbone-x="1176.0" data-branch-y="457.0" style="stroke:#B56CFF;opacity:0.92"/>
<path d="M 1208.0 1069.0 L 1190.0 1069.0 Q 1176.0 1069.0 1176.0 1083.0 L 1176.0 1185.0 Q 1176.0 1199.0 1190.0 1199.0 L 1208.0 1199.0" class="edge taxonomy-link taxonomy-backbone-link" marker-end="url(#arrow)" data-layout="family_backbone" data-family="evidence" data-parent="test_result" data-child="measured_sample" data-depth="3" data-backbone-x="1176.0" data-branch-y="1069.0" style="stroke:#B56CFF;opacity:0.92"/>
<g id="node-root" class="card node-card"><rect x="740.0" y="115.0" width="220.0" height="100.0" rx="6" fill="#FFFFFF" fill-opacity="0.03" stroke="#16D9FF" stroke-width="1.3"/><circle cx="766.0" cy="165.0" r="8" fill="none" stroke="#16D9FF" stroke-width="1.2"/><path d="M761.0,165.0 H771.0 M766.0,160.0 V170.0" class="icon-line" stroke="#16D9FF"/><text x="784.0" y="152.63" text-anchor="start" class="card-title" style="font-size:21px">Knowledge</text><text x="784.0" y="175.31" text-anchor="start" class="card-title" style="font-size:21px">Asset System</text><text x="784.0" y="196.77" text-anchor="start" class="card-sub" style="font-size:16px">root class</text></g>
<g id="node-maps" class="card node-card"><rect x="272.0" y="333.0" width="220.0" height="100.0" rx="6" fill="#FFFFFF" fill-opacity="0.03" stroke="#16D9FF" stroke-width="1.3"/><rect x="288.0" y="376.0" width="20" height="16" rx="3" fill="none" stroke="#16D9FF" stroke-width="1.2"/><path d="M288.0,381.0 H308.0 M298.0,376.0 V392.0" class="icon-line" stroke="#16D9FF"/><text x="316.0" y="381.97" text-anchor="start" class="card-title" style="font-size:21px">Map Assets</text><text x="316.0" y="403.43" text-anchor="start" class="card-sub" style="font-size:16px">structured views</text></g>
<g id="node-registries" class="card node-card"><rect x="584.0" y="333.0" width="220.0" height="100.0" rx="6" fill="#FFFFFF" fill-opacity="0.03" stroke="#FFD84D" stroke-width="1.3"/><path d="M610.0,373.0 L620.0,391.0 H600.0 Z" fill="none" stroke="#FFD84D" stroke-width="1.2"/><path d="M610.0,380.0 V386.0 M610.0,390.0 V390.0" class="icon-line" stroke="#FFD84D"/><text x="628.0" y="370.63" text-anchor="start" class="card-title" style="font-size:21px">Registry</text><text x="628.0" y="393.31" text-anchor="start" class="card-title" style="font-size:21px">Assets</text><text x="628.0" y="414.77" text-anchor="start" class="card-sub" style="font-size:16px">controlled tables</text></g>
<g id="node-modules" class="card node-card"><rect x="896.0" y="333.0" width="220.0" height="100.0" rx="6" fill="#FFFFFF" fill-opacity="0.03" stroke="#6EE66E" stroke-width="1.3"/><rect x="912.0" y="376.0" width="20" height="16" rx="3" fill="none" stroke="#6EE66E" stroke-width="1.2"/><path d="M912.0,381.0 H932.0 M922.0,376.0 V392.0" class="icon-line" stroke="#6EE66E"/><text x="940.0" y="381.97" text-anchor="start" class="card-title" style="font-size:21px">Module Assets</text><text x="940.0" y="403.43" text-anchor="start" class="card-sub" style="font-size:16px">reusable packages</text></g>
<g id="node-evidence" class="card node-card"><rect x="1208.0" y="333.0" width="220.0" height="100.0" rx="6" fill="#FFFFFF" fill-opacity="0.03" stroke="#C9DAF5" stroke-width="1.3"/><path d="M1224.0,373.0 H1238.0 L1244.0,379.0 V393.0 H1224.0 Z" fill="none" stroke="#C9DAF5" stroke-width="1.2"/><path d="M1238.0,373.0 V379.0 H1244.0" class="icon-line" stroke="#C9DAF5"/><text x="1252.0" y="370.63" text-anchor="start" class="card-title" style="font-size:21px">Evidence</text><text x="1252.0" y="393.31" text-anchor="start" class="card-title" style="font-size:21px">Assets</text><text x="1252.0" y="414.77" text-anchor="start" class="card-sub" style="font-size:16px">source proof</text></g>
<g id="node-domain_map" class="card node-card"><rect x="272.0" y="499.0" width="220.0" height="100.0" rx="6" fill="#FFFFFF" fill-opacity="0.03" stroke="#16D9FF" stroke-width="1.3"/><rect x="288.0" y="542.0" width="20" height="16" rx="3" fill="none" stroke="#16D9FF" stroke-width="1.2"/><path d="M288.0,547.0 H308.0 M298.0,542.0 V558.0" class="icon-line" stroke="#16D9FF"/><text x="316.0" y="539.17" text-anchor="start" class="card-title" style="font-size:21px">Domain Map</text><text x="316.0" y="560.6299999999999" text-anchor="start" class="card-sub" style="font-size:16px">systems +</text><text x="316.0" y="578.2299999999999" text-anchor="start" class="card-sub" style="font-size:16px">boundaries</text></g>
<g id="node-glossary" class="card node-card"><rect x="584.0" y="499.0" width="220.0" height="100.0" rx="6" fill="#FFFFFF" fill-opacity="0.03" stroke="#B56CFF" stroke-width="1.3"/><path d="M600.0,539.0 H616.0 Q620.0,539.0 620.0,543.0 V558.0 H600.0 Z" fill="none" stroke="#B56CFF" stroke-width="1.2"/><path d="M605.0,545.0 H614.0 M605.0,551.0 H614.0" class="icon-line" stroke="#B56CFF"/><text x="628.0" y="547.97" text-anchor="start" class="card-title" style="font-size:21px">Glossary</text><text x="628.0" y="569.43" text-anchor="start" class="card-sub" style="font-size:16px">controlled terms</text></g>
<g id="node-work_module" class="card node-card"><rect x="896.0" y="499.0" width="220.0" height="100.0" rx="6" fill="#FFFFFF" fill-opacity="0.03" stroke="#6EE66E" stroke-width="1.3"/><rect x="912.0" y="542.0" width="20" height="16" rx="3" fill="none" stroke="#6EE66E" stroke-width="1.2"/><path d="M912.0,547.0 H932.0 M922.0,542.0 V558.0" class="icon-line" stroke="#6EE66E"/><text x="940.0" y="547.97" text-anchor="start" class="card-title" style="font-size:21px">Work Module</text><text x="940.0" y="569.43" text-anchor="start" class="card-sub" style="font-size:16px">approved package</text></g>
<g id="node-source_doc" class="card node-card"><rect x="1208.0" y="499.0" width="220.0" height="100.0" rx="6" fill="#FFFFFF" fill-opacity="0.03" stroke="#F4F8FF" stroke-width="1.3"/><path d="M1224.0,539.0 H1238.0 L1244.0,545.0 V559.0 H1224.0 Z" fill="none" stroke="#F4F8FF" stroke-width="1.2"/><path d="M1238.0,539.0 V545.0 H1244.0" class="icon-line" stroke="#F4F8FF"/><text x="1252.0" y="536.63" text-anchor="start" class="card-title" style="font-size:21px">Source</text><text x="1252.0" y="559.31" text-anchor="start" class="card-title" style="font-size:21px">Document</text><text x="1252.0" y="580.77" text-anchor="start" class="card-sub" style="font-size:16px">authority</text></g>
<g id="node-boundary_view" class="card node-card"><rect x="272.0" y="629.0" width="220.0" height="100.0" rx="6" fill="#FFFFFF" fill-opacity="0.03" stroke="#FF9F2E" stroke-width="1.3"/><path d="M298.0,669.0 L308.0,679.0 L298.0,689.0 L288.0,679.0 Z" fill="none" stroke="#FF9F2E" stroke-width="1.2"/><path d="M294.0,679.0 H302.0" class="icon-line" stroke="#FF9F2E"/><text x="316.0" y="669.17" text-anchor="start" class="card-title" style="font-size:21px">Boundary View</text><text x="316.0" y="690.6299999999999" text-anchor="start" class="card-sub" style="font-size:16px">interfaces +</text><text x="316.0" y="708.2299999999999" text-anchor="start" class="card-sub" style="font-size:16px">owners</text></g>
<g id="node-term_review" class="card node-card"><rect x="584.0" y="629.0" width="220.0" height="100.0" rx="6" fill="#FFFFFF" fill-opacity="0.03" stroke="#FFD84D" stroke-width="1.3"/><path d="M610.0,669.0 L620.0,687.0 H600.0 Z" fill="none" stroke="#FFD84D" stroke-width="1.2"/><path d="M610.0,676.0 V682.0 M610.0,686.0 V686.0" class="icon-line" stroke="#FFD84D"/><text x="628.0" y="677.97" text-anchor="start" class="card-title" style="font-size:21px">Term Review</text><text x="628.0" y="699.43" text-anchor="start" class="card-sub" style="font-size:16px">approval cadence</text></g>
<g id="node-reuse_package" class="card node-card"><rect x="896.0" y="629.0" width="220.0" height="100.0" rx="6" fill="#FFFFFF" fill-opacity="0.03" stroke="#6EE66E" stroke-width="1.3"/><rect x="912.0" y="672.0" width="20" height="16" rx="3" fill="none" stroke="#6EE66E" stroke-width="1.2"/><path d="M912.0,677.0 H932.0 M922.0,672.0 V688.0" class="icon-line" stroke="#6EE66E"/><text x="940.0" y="677.97" text-anchor="start" class="card-title" style="font-size:21px">Reuse Package</text><text x="940.0" y="699.43" text-anchor="start" class="card-sub" style="font-size:16px">versioned module</text></g>
<g id="node-controlled_source" class="card node-card"><rect x="1208.0" y="629.0" width="220.0" height="100.0" rx="6" fill="#FFFFFF" fill-opacity="0.03" stroke="#F4F8FF" stroke-width="1.3"/><path d="M1224.0,669.0 H1238.0 L1244.0,675.0 V689.0 H1224.0 Z" fill="none" stroke="#F4F8FF" stroke-width="1.2"/><path d="M1238.0,669.0 V675.0 H1244.0" class="icon-line" stroke="#F4F8FF"/><text x="1252.0" y="666.63" text-anchor="start" class="card-title" style="font-size:21px">Controlled</text><text x="1252.0" y="689.31" text-anchor="start" class="card-title" style="font-size:21px">Source</text><text x="1252.0" y="710.77" text-anchor="start" class="card-sub" style="font-size:16px">approved baseline</text></g>
<g id="node-ownership_map" class="card node-card"><rect x="272.0" y="759.0" width="220.0" height="100.0" rx="6" fill="#FFFFFF" fill-opacity="0.03" stroke="#FF9F2E" stroke-width="1.3"/><path d="M298.0,799.0 L308.0,809.0 L298.0,819.0 L288.0,809.0 Z" fill="none" stroke="#FF9F2E" stroke-width="1.2"/><path d="M294.0,809.0 H302.0" class="icon-line" stroke="#FF9F2E"/><text x="316.0" y="807.97" text-anchor="start" class="card-title" style="font-size:21px">Ownership Map</text><text x="316.0" y="829.43" text-anchor="start" class="card-sub" style="font-size:16px">responsibility</text></g>
<g id="node-parameter_register" class="card node-card"><rect x="584.0" y="759.0" width="220.0" height="100.0" rx="6" fill="#FFFFFF" fill-opacity="0.03" stroke="#FFD84D" stroke-width="1.3"/><path d="M610.0,799.0 L620.0,817.0 H600.0 Z" fill="none" stroke="#FFD84D" stroke-width="1.2"/><path d="M610.0,806.0 V812.0 M610.0,816.0 V816.0" class="icon-line" stroke="#FFD84D"/><text x="628.0" y="796.63" text-anchor="start" class="card-title" style="font-size:21px">Parameter</text><text x="628.0" y="819.31" text-anchor="start" class="card-title" style="font-size:21px">Register</text><text x="628.0" y="840.77" text-anchor="start" class="card-sub" style="font-size:16px">CTQ families</text></g>
<g id="node-training_module" class="card node-card"><rect x="896.0" y="759.0" width="220.0" height="100.0" rx="6" fill="#FFFFFF" fill-opacity="0.03" stroke="#6EE66E" stroke-width="1.3"/><rect x="912.0" y="802.0" width="20" height="16" rx="3" fill="none" stroke="#6EE66E" stroke-width="1.2"/><path d="M912.0,807.0 H932.0 M922.0,802.0 V818.0" class="icon-line" stroke="#6EE66E"/><text x="940.0" y="796.63" text-anchor="start" class="card-title" style="font-size:21px">Training</text><text x="940.0" y="819.31" text-anchor="start" class="card-title" style="font-size:21px">Module</text><text x="940.0" y="840.77" text-anchor="start" class="card-sub" style="font-size:16px">reuse content</text></g>
<g id="node-quality_record" class="card node-card"><rect x="1208.0" y="759.0" width="220.0" height="100.0" rx="6" fill="#FFFFFF" fill-opacity="0.03" stroke="#FFD84D" stroke-width="1.3"/><path d="M1234.0,799.0 L1244.0,817.0 H1224.0 Z" fill="none" stroke="#FFD84D" stroke-width="1.2"/><path d="M1234.0,806.0 V812.0 M1234.0,816.0 V816.0" class="icon-line" stroke="#FFD84D"/><text x="1252.0" y="796.63" text-anchor="start" class="card-title" style="font-size:21px">Quality</text><text x="1252.0" y="819.31" text-anchor="start" class="card-title" style="font-size:21px">Record</text><text x="1252.0" y="840.77" text-anchor="start" class="card-sub" style="font-size:16px">approval proof</text></g>
<g id="node-stewardship_path" class="card node-card"><rect x="272.0" y="889.0" width="220.0" height="100.0" rx="6" fill="#FFFFFF" fill-opacity="0.03" stroke="#FFD84D" stroke-width="1.3"/><path d="M298.0,929.0 L308.0,947.0 H288.0 Z" fill="none" stroke="#FFD84D" stroke-width="1.2"/><path d="M298.0,936.0 V942.0 M298.0,946.0 V946.0" class="icon-line" stroke="#FFD84D"/><text x="316.0" y="926.63" text-anchor="start" class="card-title" style="font-size:21px">Stewardship</text><text x="316.0" y="949.31" text-anchor="start" class="card-title" style="font-size:21px">Path</text><text x="316.0" y="970.77" text-anchor="start" class="card-sub" style="font-size:16px">owner + reviewer</text></g>
<g id="node-ctq_thresholds" class="card node-card"><rect x="584.0" y="889.0" width="220.0" height="100.0" rx="6" fill="#FFFFFF" fill-opacity="0.03" stroke="#FFD84D" stroke-width="1.3"/><path d="M610.0,929.0 L619.0,934.0 V944.0 L610.0,949.0 L601.0,944.0 V934.0 Z" fill="none" stroke="#FFD84D" stroke-width="1.2"/><path d="M606.0,939.0 L609.0,943.0 L615.0,935.0" class="icon-line" stroke="#FFD84D"/><text x="628.0" y="926.63" text-anchor="start" class="card-title" style="font-size:21px">CTQ</text><text x="628.0" y="949.31" text-anchor="start" class="card-title" style="font-size:21px">Thresholds</text><text x="628.0" y="970.77" text-anchor="start" class="card-sub" style="font-size:16px">limits + units</text></g>
<g id="node-playbook" class="card node-card"><rect x="896.0" y="889.0" width="220.0" height="100.0" rx="6" fill="#FFFFFF" fill-opacity="0.03" stroke="#FFD84D" stroke-width="1.3"/><path d="M922.0,929.0 L931.0,934.0 V944.0 L922.0,949.0 L913.0,944.0 V934.0 Z" fill="none" stroke="#FFD84D" stroke-width="1.2"/><path d="M918.0,939.0 L921.0,943.0 L927.0,935.0" class="icon-line" stroke="#FFD84D"/><text x="940.0" y="926.63" text-anchor="start" class="card-title" style="font-size:21px">Exception</text><text x="940.0" y="949.31" text-anchor="start" class="card-title" style="font-size:21px">Playbook</text><text x="940.0" y="970.77" text-anchor="start" class="card-sub" style="font-size:16px">risk response</text></g>
<g id="node-approval_record" class="card node-card"><rect x="1208.0" y="889.0" width="220.0" height="100.0" rx="6" fill="#FFFFFF" fill-opacity="0.03" stroke="#C9DAF5" stroke-width="1.3"/><path d="M1224.0,929.0 H1238.0 L1244.0,935.0 V949.0 H1224.0 Z" fill="none" stroke="#C9DAF5" stroke-width="1.2"/><path d="M1238.0,929.0 V935.0 H1244.0" class="icon-line" stroke="#C9DAF5"/><text x="1252.0" y="926.63" text-anchor="start" class="card-title" style="font-size:21px">Approval</text><text x="1252.0" y="949.31" text-anchor="start" class="card-title" style="font-size:21px">Record</text><text x="1252.0" y="970.77" text-anchor="start" class="card-sub" style="font-size:16px">signoff trail</text></g>
<g id="node-flow_overview" class="card node-card"><rect x="272.0" y="1019.0" width="220.0" height="100.0" rx="6" fill="#FFFFFF" fill-opacity="0.03" stroke="#FF9F2E" stroke-width="1.3"/><circle cx="292.0" cy="1070.0" r="4" fill="none" stroke="#FF9F2E" stroke-width="1.6"/><circle cx="306.0" cy="1063.0" r="4" fill="none" stroke="#FF9F2E" stroke-width="1.6"/><circle cx="306.0" cy="1077.0" r="4" fill="none" stroke="#FF9F2E" stroke-width="1.6"/><path d="M296.0,1070.0 H300.0 M302.0,1066.0 L300.0,1070.0 L302.0,1074.0" class="icon-line" stroke="#FF9F2E"/><text x="316.0" y="1056.63" text-anchor="start" class="card-title" style="font-size:21px">Knowledge</text><text x="316.0" y="1079.3100000000002" text-anchor="start" class="card-title" style="font-size:21px">Flow Overview</text><text x="316.0" y="1100.77" text-anchor="start" class="card-sub" style="font-size:16px">movement map</text></g>
<g id="node-risk_register" class="card node-card"><rect x="584.0" y="1019.0" width="220.0" height="100.0" rx="6" fill="#FFFFFF" fill-opacity="0.03" stroke="#FFD84D" stroke-width="1.3"/><path d="M610.0,1059.0 L619.0,1064.0 V1074.0 L610.0,1079.0 L601.0,1074.0 V1064.0 Z" fill="none" stroke="#FFD84D" stroke-width="1.2"/><path d="M606.0,1069.0 L609.0,1073.0 L615.0,1065.0" class="icon-line" stroke="#FFD84D"/><text x="628.0" y="1067.97" text-anchor="start" class="card-title" style="font-size:21px">Risk Register</text><text x="628.0" y="1089.43" text-anchor="start" class="card-sub" style="font-size:16px">constraints</text></g>
<g id="node-exception_steps" class="card node-card"><rect x="896.0" y="1019.0" width="220.0" height="100.0" rx="6" fill="#FFFFFF" fill-opacity="0.03" stroke="#FF9F2E" stroke-width="1.3"/><circle cx="916.0" cy="1070.0" r="4" fill="none" stroke="#FF9F2E" stroke-width="1.6"/><circle cx="930.0" cy="1063.0" r="4" fill="none" stroke="#FF9F2E" stroke-width="1.6"/><circle cx="930.0" cy="1077.0" r="4" fill="none" stroke="#FF9F2E" stroke-width="1.6"/><path d="M920.0,1070.0 H924.0 M926.0,1066.0 L924.0,1070.0 L926.0,1074.0" class="icon-line" stroke="#FF9F2E"/><text x="940.0" y="1056.63" text-anchor="start" class="card-title" style="font-size:21px">Exception</text><text x="940.0" y="1079.3100000000002" text-anchor="start" class="card-title" style="font-size:21px">Steps</text><text x="940.0" y="1100.77" text-anchor="start" class="card-sub" style="font-size:16px">actions + owners</text></g>
<g id="node-test_result" class="card node-card"><rect x="1208.0" y="1019.0" width="220.0" height="100.0" rx="6" fill="#FFFFFF" fill-opacity="0.03" stroke="#C9DAF5" stroke-width="1.3"/><path d="M1224.0,1059.0 H1238.0 L1244.0,1065.0 V1079.0 H1224.0 Z" fill="none" stroke="#C9DAF5" stroke-width="1.2"/><path d="M1238.0,1059.0 V1065.0 H1244.0" class="icon-line" stroke="#C9DAF5"/><text x="1252.0" y="1067.97" text-anchor="start" class="card-title" style="font-size:21px">Test Result</text><text x="1252.0" y="1089.43" text-anchor="start" class="card-sub" style="font-size:16px">measured evidence</text></g>
<g id="node-risk_controls" class="card node-card"><rect x="584.0" y="1149.0" width="220.0" height="100.0" rx="6" fill="#FFFFFF" fill-opacity="0.03" stroke="#FF9F2E" stroke-width="1.3"/><path d="M610.0,1189.0 L620.0,1199.0 L610.0,1209.0 L600.0,1199.0 Z" fill="none" stroke="#FF9F2E" stroke-width="1.2"/><path d="M606.0,1199.0 H614.0" class="icon-line" stroke="#FF9F2E"/><text x="628.0" y="1197.97" text-anchor="start" class="card-title" style="font-size:21px">Risk Controls</text><text x="628.0" y="1219.43" text-anchor="start" class="card-sub" style="font-size:16px">mitigation rules</text></g>
<g id="node-measured_sample" class="card node-card"><rect x="1208.0" y="1149.0" width="220.0" height="100.0" rx="6" fill="#FFFFFF" fill-opacity="0.03" stroke="#FFD84D" stroke-width="1.3"/><path d="M1234.0,1189.0 L1244.0,1207.0 H1224.0 Z" fill="none" stroke="#FFD84D" stroke-width="1.2"/><path d="M1234.0,1196.0 V1202.0 M1234.0,1206.0 V1206.0" class="icon-line" stroke="#FFD84D"/><text x="1252.0" y="1186.63" text-anchor="start" class="card-title" style="font-size:21px">Measured</text><text x="1252.0" y="1209.3100000000002" text-anchor="start" class="card-title" style="font-size:21px">Sample</text><text x="1252.0" y="1230.77" text-anchor="start" class="card-sub" style="font-size:16px">result packet</text></g>
<text x="70" y="101.0" class="tree-level-label">Level 0</text>
<text x="70" y="319.0" class="tree-level-label">Level 1</text>
<text x="70" y="485.0" class="tree-level-label">Level 2+</text>
<text x="850.0" y="1331" text-anchor="middle" class="note">Stress template: first-level families remain horizontal; deeper taxonomy branches use separate vertical backbones to reduce shared corridors.</text>
</svg>
