<svg xmlns="http://www.w3.org/2000/svg" width="1700" height="1335" viewBox="0 0 1700 1335" role="img" aria-label="Taxonomy Tree Stress" data-style="accent-blueprint" data-diagram-type="taxonomy_tree">
<defs>
  <pattern id="blueprint-grid-small" width="13.6" height="13.6" patternUnits="userSpaceOnUse"><path d="M 13.6 0 H 0 V 13.6" fill="none" stroke="#FFFFFF" stroke-opacity="0.08" stroke-width="0.79"/></pattern>
  <pattern id="blueprint-grid" width="68" height="68" patternUnits="userSpaceOnUse"><rect width="68" height="68" fill="url(#blueprint-grid-small)"/><path d="M 68 0 H 0 V 68" fill="none" stroke="#FFFFFF" stroke-opacity="0.14" stroke-width="1.13"/> </pattern>
  <marker id="arrow" markerWidth="10" markerHeight="10" refX="8.5" refY="3" orient="auto" markerUnits="strokeWidth"><path d="M0,0 L0,6 L9,3 z" fill="context-stroke"/></marker>
  <marker id="arrow-fanout" markerWidth="10" markerHeight="10" refX="8.5" refY="3" orient="auto" markerUnits="strokeWidth"><path d="M0,0 L0,6 L9,3 z" fill="context-stroke"/></marker>
  <marker id="arrow-fanin" markerWidth="10" markerHeight="10" refX="8.5" refY="3" orient="auto" markerUnits="strokeWidth"><path d="M0,0 L0,6 L9,3 z" fill="context-stroke"/></marker>
  <style>
    [data-style="accent-blueprint"] .title{font:700 27px IBM Plex Mono,JetBrains Mono,Consolas,monospace;fill:#F4F8FF;letter-spacing:.04em;text-transform:uppercase}
    [data-style="accent-blueprint"] .subtitle{font:400 13px IBM Plex Sans,Inter,Roboto Condensed,DIN,Segoe UI,Aptos,Arial,sans-serif;fill:#C9DAF5}
    [data-style="accent-blueprint"] .group-label{font:700 15px IBM Plex Mono,JetBrains Mono,Consolas,monospace;fill:#C9DAF5;letter-spacing:.08em;text-transform:uppercase}
    [data-style="accent-blueprint"] .card-title{font:700 17px IBM Plex Sans,Inter,Roboto Condensed,DIN,Segoe UI,Aptos,Arial,sans-serif;fill:#F4F8FF}
    [data-style="accent-blueprint"] .card-sub{font:500 13px IBM Plex Sans,Inter,Roboto Condensed,DIN,Segoe UI,Aptos,Arial,sans-serif;fill:#C9DAF5}
    [data-style="accent-blueprint"] .edge{fill:none;stroke:#F4F8FF;stroke-width:1.5;stroke-linecap:round;stroke-linejoin:round;opacity:0.88}
    [data-style="accent-blueprint"] .fanout{stroke:#FF9F2E;opacity:0.9}
    [data-style="accent-blueprint"] .fanin{stroke:#6EE66E;opacity:0.9}
    [data-style="accent-blueprint"] .route-shared{marker-end:none}
    [data-style="accent-blueprint"] .edge-dashed{stroke-dasharray:6 5;opacity:0.68}
    [data-style="accent-blueprint"] .note{font:500 14px IBM Plex Sans,Inter,Roboto Condensed,DIN,Segoe UI,Aptos,Arial,sans-serif;fill:#C9DAF5}
    [data-style="accent-blueprint"] .mono{font-family:IBM Plex Mono,JetBrains Mono,Consolas,monospace}
    [data-style="accent-blueprint"] .table-header{font:700 15.5px IBM Plex Mono,JetBrains Mono,Consolas,monospace;fill:#F4F8FF;letter-spacing:.08em;text-transform:uppercase}
    [data-style="accent-blueprint"] .table-cell{font:500 17px IBM Plex Sans,Inter,Roboto Condensed,DIN,Segoe UI,Aptos,Arial,sans-serif;fill:#F4F8FF}
    [data-style="accent-blueprint"] .table-cell-secondary{font:500 17px IBM Plex Sans,Inter,Roboto Condensed,DIN,Segoe UI,Aptos,Arial,sans-serif;fill:#C9DAF5}
    [data-style="accent-blueprint"] .info-panel-title{font:700 15px IBM Plex Mono,JetBrains Mono,Consolas,monospace;fill:#F4F8FF;letter-spacing:.08em;text-transform:uppercase}
    [data-style="accent-blueprint"] .info-panel-item{font:500 14px IBM Plex Sans,Inter,Roboto Condensed,DIN,Segoe UI,Aptos,Arial,sans-serif;fill:#C9DAF5}
    [data-style="accent-blueprint"] .tree-level-label{font:700 15px IBM Plex Mono,JetBrains Mono,Consolas,monospace;fill:#C9DAF5;letter-spacing:.08em;text-transform:uppercase}
    [data-style="accent-blueprint"] .hub-label{font:700 15px IBM Plex Mono,JetBrains Mono,Consolas,monospace;fill:#C9DAF5;letter-spacing:.08em;text-transform:uppercase}
    [data-style="accent-blueprint"] .icon-line{fill:none;stroke-width:1.3;stroke-linecap:round;stroke-linejoin:round}
  </style>
</defs>
<rect x="0" y="0" width="1700" height="1335" rx="0" fill="#062B5F"/>
<rect x="0" y="0" width="1700" height="1335" rx="0" fill="url(#blueprint-grid)" opacity="1"/>
<text x="850.0" y="54" text-anchor="middle" class="title">Taxonomy Tree Stress</text>
<text x="850.0" y="80.0" text-anchor="middle" class="subtitle">Stress contract with first-level families and vertical backbones</text>
<path d="M 850.0 215.0 L 850.0 260.0 Q 850.0 274.0 836.0 274.0 L 366.0 274.0 Q 352.0 274.0 352.0 288.0 L 352.0 333.0" class="edge taxonomy-link taxonomy-backbone-link" marker-end="url(#arrow)" data-layout="family_backbone" data-link-tier="root_family" data-family="maps" data-parent="root" data-child="maps" data-depth="1" data-lane-y="274.0" style="stroke:#16D9FF;opacity:0.92"/>
<path d="M 850.0 215.0 L 850.0 260.0 Q 850.0 274.0 836.0 274.0 L 734.0 274.0 Q 720.0 274.0 720.0 288.0 L 720.0 333.0" class="edge taxonomy-link taxonomy-backbone-link" marker-end="url(#arrow)" data-layout="family_backbone" data-link-tier="root_family" data-family="registries" data-parent="root" data-child="registries" data-depth="1" data-lane-y="274.0" style="stroke:#FFD84D;opacity:0.92"/>
<path d="M 850.0 215.0 L 850.0 260.0 Q 850.0 274.0 864.0 274.0 L 1074.0 274.0 Q 1088.0 274.0 1088.0 288.0 L 1088.0 333.0" class="edge taxonomy-link taxonomy-backbone-link" marker-end="url(#arrow)" data-layout="family_backbone" data-link-tier="root_family" data-family="modules" data-parent="root" data-child="modules" data-depth="1" data-lane-y="274.0" style="stroke:#6EE66E;opacity:0.92"/>
<path d="M 850.0 215.0 L 850.0 260.0 Q 850.0 274.0 864.0 274.0 L 1442.0 274.0 Q 1456.0 274.0 1456.0 288.0 L 1456.0 333.0" class="edge taxonomy-link taxonomy-backbone-link" marker-end="url(#arrow)" data-layout="family_backbone" data-link-tier="root_family" data-family="evidence" data-parent="root" data-child="evidence" data-depth="1" data-lane-y="274.0" style="stroke:#B56CFF;opacity:0.92"/>
<path d="M 352.0 433.0 L 352.0 445.0 Q 352.0 457.0 340.0 457.0 L 196.0 457.0 Q 182.0 457.0 182.0 471.0 L 182.0 535.0 Q 182.0 549.0 196.0 549.0 L 214.0 549.0" class="edge taxonomy-link taxonomy-backbone-link" marker-end="url(#arrow)" data-layout="family_backbone" data-link-tier="family_backbone" data-family="maps" data-parent="maps" data-child="domain_map" data-depth="2" data-backbone-x="182.0" data-branch-y="457.0" style="stroke:#16D9FF;opacity:0.92"/>
<path d="M 324.0 599.0 L 324.0 604.5 Q 324.0 610.0 318.5 610.0 L 268.0 610.0 Q 254.0 610.0 254.0 624.0 L 254.0 663.0 Q 254.0 671.0 262.0 671.0 L 270.0 671.0" class="edge taxonomy-link taxonomy-backbone-link taxonomy-nested-link" marker-end="url(#arrow)" data-layout="family_backbone" data-link-tier="nested_branch" data-family="maps" data-parent="domain_map" data-child="boundary_view" data-depth="3" data-nested-x="254.0" data-branch-y="610.0" style="stroke:#16D9FF;opacity:0.92"/>
<path d="M 352.0 433.0 L 352.0 445.0 Q 352.0 457.0 340.0 457.0 L 196.0 457.0 Q 182.0 457.0 182.0 471.0 L 182.0 787.0 Q 182.0 801.0 196.0 801.0 L 214.0 801.0" class="edge taxonomy-link taxonomy-backbone-link" marker-end="url(#arrow)" data-layout="family_backbone" data-link-tier="family_backbone" data-family="maps" data-parent="maps" data-child="ownership_map" data-depth="2" data-backbone-x="182.0" data-branch-y="457.0" style="stroke:#16D9FF;opacity:0.92"/>
<path d="M 324.0 851.0 L 324.0 856.5 Q 324.0 862.0 318.5 862.0 L 268.0 862.0 Q 254.0 862.0 254.0 876.0 L 254.0 915.0 Q 254.0 923.0 262.0 923.0 L 270.0 923.0" class="edge taxonomy-link taxonomy-backbone-link taxonomy-nested-link" marker-end="url(#arrow)" data-layout="family_backbone" data-link-tier="nested_branch" data-family="maps" data-parent="ownership_map" data-child="stewardship_path" data-depth="3" data-nested-x="254.0" data-branch-y="862.0" style="stroke:#16D9FF;opacity:0.92"/>
<path d="M 352.0 433.0 L 352.0 445.0 Q 352.0 457.0 340.0 457.0 L 196.0 457.0 Q 182.0 457.0 182.0 471.0 L 182.0 1039.0 Q 182.0 1053.0 196.0 1053.0 L 214.0 1053.0" class="edge taxonomy-link taxonomy-backbone-link" marker-end="url(#arrow)" data-layout="family_backbone" data-link-tier="family_backbone" data-family="maps" data-parent="maps" data-child="flow_overview" data-depth="2" data-backbone-x="182.0" data-branch-y="457.0" style="stroke:#16D9FF;opacity:0.92"/>
<path d="M 720.0 433.0 L 720.0 445.0 Q 720.0 457.0 708.0 457.0 L 564.0 457.0 Q 550.0 457.0 550.0 471.0 L 550.0 535.0 Q 550.0 549.0 564.0 549.0 L 582.0 549.0" class="edge taxonomy-link taxonomy-backbone-link" marker-end="url(#arrow)" data-layout="family_backbone" data-link-tier="family_backbone" data-family="registries" data-parent="registries" data-child="glossary" data-depth="2" data-backbone-x="550.0" data-branch-y="457.0" style="stroke:#FFD84D;opacity:0.92"/>
<path d="M 692.0 599.0 L 692.0 604.5 Q 692.0 610.0 686.5 610.0 L 636.0 610.0 Q 622.0 610.0 622.0 624.0 L 622.0 663.0 Q 622.0 671.0 630.0 671.0 L 638.0 671.0" class="edge taxonomy-link taxonomy-backbone-link taxonomy-nested-link" marker-end="url(#arrow)" data-layout="family_backbone" data-link-tier="nested_branch" data-family="registries" data-parent="glossary" data-child="term_review" data-depth="3" data-nested-x="622.0" data-branch-y="610.0" style="stroke:#FFD84D;opacity:0.92"/>
<path d="M 720.0 433.0 L 720.0 445.0 Q 720.0 457.0 708.0 457.0 L 564.0 457.0 Q 550.0 457.0 550.0 471.0 L 550.0 787.0 Q 550.0 801.0 564.0 801.0 L 582.0 801.0" class="edge taxonomy-link taxonomy-backbone-link" marker-end="url(#arrow)" data-layout="family_backbone" data-link-tier="family_backbone" data-family="registries" data-parent="registries" data-child="parameter_register" data-depth="2" data-backbone-x="550.0" data-branch-y="457.0" style="stroke:#FFD84D;opacity:0.92"/>
<path d="M 692.0 851.0 L 692.0 856.5 Q 692.0 862.0 686.5 862.0 L 636.0 862.0 Q 622.0 862.0 622.0 876.0 L 622.0 915.0 Q 622.0 923.0 630.0 923.0 L 638.0 923.0" class="edge taxonomy-link taxonomy-backbone-link taxonomy-nested-link" marker-end="url(#arrow)" data-layout="family_backbone" data-link-tier="nested_branch" data-family="registries" data-parent="parameter_register" data-child="ctq_thresholds" data-depth="3" data-nested-x="622.0" data-branch-y="862.0" style="stroke:#FFD84D;opacity:0.92"/>
<path d="M 720.0 433.0 L 720.0 445.0 Q 720.0 457.0 708.0 457.0 L 564.0 457.0 Q 550.0 457.0 550.0 471.0 L 550.0 1039.0 Q 550.0 1053.0 564.0 1053.0 L 582.0 1053.0" class="edge taxonomy-link taxonomy-backbone-link" marker-end="url(#arrow)" data-layout="family_backbone" data-link-tier="family_backbone" data-family="registries" data-parent="registries" data-child="risk_register" data-depth="2" data-backbone-x="550.0" data-branch-y="457.0" style="stroke:#FFD84D;opacity:0.92"/>
<path d="M 692.0 1103.0 L 692.0 1108.5 Q 692.0 1114.0 686.5 1114.0 L 636.0 1114.0 Q 622.0 1114.0 622.0 1128.0 L 622.0 1167.0 Q 622.0 1175.0 630.0 1175.0 L 638.0 1175.0" class="edge taxonomy-link taxonomy-backbone-link taxonomy-nested-link" marker-end="url(#arrow)" data-layout="family_backbone" data-link-tier="nested_branch" data-family="registries" data-parent="risk_register" data-child="risk_controls" data-depth="3" data-nested-x="622.0" data-branch-y="1114.0" style="stroke:#FFD84D;opacity:0.92"/>
<path d="M 1088.0 433.0 L 1088.0 445.0 Q 1088.0 457.0 1076.0 457.0 L 932.0 457.0 Q 918.0 457.0 918.0 471.0 L 918.0 535.0 Q 918.0 549.0 932.0 549.0 L 950.0 549.0" class="edge taxonomy-link taxonomy-backbone-link" marker-end="url(#arrow)" data-layout="family_backbone" data-link-tier="family_backbone" data-family="modules" data-parent="modules" data-child="work_module" data-depth="2" data-backbone-x="918.0" data-branch-y="457.0" style="stroke:#6EE66E;opacity:0.92"/>
<path d="M 1060.0 599.0 L 1060.0 604.5 Q 1060.0 610.0 1054.5 610.0 L 1004.0 610.0 Q 990.0 610.0 990.0 624.0 L 990.0 663.0 Q 990.0 671.0 998.0 671.0 L 1006.0 671.0" class="edge taxonomy-link taxonomy-backbone-link taxonomy-nested-link" marker-end="url(#arrow)" data-layout="family_backbone" data-link-tier="nested_branch" data-family="modules" data-parent="work_module" data-child="reuse_package" data-depth="3" data-nested-x="990.0" data-branch-y="610.0" style="stroke:#6EE66E;opacity:0.92"/>
<path d="M 1088.0 433.0 L 1088.0 445.0 Q 1088.0 457.0 1076.0 457.0 L 932.0 457.0 Q 918.0 457.0 918.0 471.0 L 918.0 787.0 Q 918.0 801.0 932.0 801.0 L 950.0 801.0" class="edge taxonomy-link taxonomy-backbone-link" marker-end="url(#arrow)" data-layout="family_backbone" data-link-tier="family_backbone" data-family="modules" data-parent="modules" data-child="training_module" data-depth="2" data-backbone-x="918.0" data-branch-y="457.0" style="stroke:#6EE66E;opacity:0.92"/>
<path d="M 1088.0 433.0 L 1088.0 445.0 Q 1088.0 457.0 1076.0 457.0 L 932.0 457.0 Q 918.0 457.0 918.0 471.0 L 918.0 917.0 Q 918.0 931.0 932.0 931.0 L 950.0 931.0" class="edge taxonomy-link taxonomy-backbone-link" marker-end="url(#arrow)" data-layout="family_backbone" data-link-tier="family_backbone" data-family="modules" data-parent="modules" data-child="playbook" data-depth="2" data-backbone-x="918.0" data-branch-y="457.0" style="stroke:#6EE66E;opacity:0.92"/>
<path d="M 1060.0 981.0 L 1060.0 986.5 Q 1060.0 992.0 1054.5 992.0 L 1004.0 992.0 Q 990.0 992.0 990.0 1006.0 L 990.0 1045.0 Q 990.0 1053.0 998.0 1053.0 L 1006.0 1053.0" class="edge taxonomy-link taxonomy-backbone-link taxonomy-nested-link" marker-end="url(#arrow)" data-layout="family_backbone" data-link-tier="nested_branch" data-family="modules" data-parent="playbook" data-child="exception_steps" data-depth="3" data-nested-x="990.0" data-branch-y="992.0" style="stroke:#6EE66E;opacity:0.92"/>
<path d="M 1456.0 433.0 L 1456.0 445.0 Q 1456.0 457.0 1444.0 457.0 L 1300.0 457.0 Q 1286.0 457.0 1286.0 471.0 L 1286.0 535.0 Q 1286.0 549.0 1300.0 549.0 L 1318.0 549.0" class="edge taxonomy-link taxonomy-backbone-link" marker-end="url(#arrow)" data-layout="family_backbone" data-link-tier="family_backbone" data-family="evidence" data-parent="evidence" data-child="source_doc" data-depth="2" data-backbone-x="1286.0" data-branch-y="457.0" style="stroke:#B56CFF;opacity:0.92"/>
<path d="M 1428.0 599.0 L 1428.0 604.5 Q 1428.0 610.0 1422.5 610.0 L 1372.0 610.0 Q 1358.0 610.0 1358.0 624.0 L 1358.0 663.0 Q 1358.0 671.0 1366.0 671.0 L 1374.0 671.0" class="edge taxonomy-link taxonomy-backbone-link taxonomy-nested-link" marker-end="url(#arrow)" data-layout="family_backbone" data-link-tier="nested_branch" data-family="evidence" data-parent="source_doc" data-child="controlled_source" data-depth="3" data-nested-x="1358.0" data-branch-y="610.0" style="stroke:#B56CFF;opacity:0.92"/>
<path d="M 1456.0 433.0 L 1456.0 445.0 Q 1456.0 457.0 1444.0 457.0 L 1300.0 457.0 Q 1286.0 457.0 1286.0 471.0 L 1286.0 787.0 Q 1286.0 801.0 1300.0 801.0 L 1318.0 801.0" class="edge taxonomy-link taxonomy-backbone-link" marker-end="url(#arrow)" data-layout="family_backbone" data-link-tier="family_backbone" data-family="evidence" data-parent="evidence" data-child="quality_record" data-depth="2" data-backbone-x="1286.0" data-branch-y="457.0" style="stroke:#B56CFF;opacity:0.92"/>
<path d="M 1428.0 851.0 L 1428.0 856.5 Q 1428.0 862.0 1422.5 862.0 L 1372.0 862.0 Q 1358.0 862.0 1358.0 876.0 L 1358.0 915.0 Q 1358.0 923.0 1366.0 923.0 L 1374.0 923.0" class="edge taxonomy-link taxonomy-backbone-link taxonomy-nested-link" marker-end="url(#arrow)" data-layout="family_backbone" data-link-tier="nested_branch" data-family="evidence" data-parent="quality_record" data-child="approval_record" data-depth="3" data-nested-x="1358.0" data-branch-y="862.0" style="stroke:#B56CFF;opacity:0.92"/>
<path d="M 1456.0 433.0 L 1456.0 445.0 Q 1456.0 457.0 1444.0 457.0 L 1300.0 457.0 Q 1286.0 457.0 1286.0 471.0 L 1286.0 1039.0 Q 1286.0 1053.0 1300.0 1053.0 L 1318.0 1053.0" class="edge taxonomy-link taxonomy-backbone-link" marker-end="url(#arrow)" data-layout="family_backbone" data-link-tier="family_backbone" data-family="evidence" data-parent="evidence" data-child="test_result" data-depth="2" data-backbone-x="1286.0" data-branch-y="457.0" style="stroke:#B56CFF;opacity:0.92"/>
<path d="M 1428.0 1103.0 L 1428.0 1108.5 Q 1428.0 1114.0 1422.5 1114.0 L 1372.0 1114.0 Q 1358.0 1114.0 1358.0 1128.0 L 1358.0 1167.0 Q 1358.0 1175.0 1366.0 1175.0 L 1374.0 1175.0" class="edge taxonomy-link taxonomy-backbone-link taxonomy-nested-link" marker-end="url(#arrow)" data-layout="family_backbone" data-link-tier="nested_branch" data-family="evidence" data-parent="test_result" data-child="measured_sample" data-depth="3" data-nested-x="1358.0" data-branch-y="1114.0" style="stroke:#B56CFF;opacity:0.92"/>
<g id="node-root" class="card node-card"><rect x="740.0" y="115.0" width="220.0" height="100.0" rx="6" fill="#FFFFFF" fill-opacity="0.03" stroke="#16D9FF" stroke-width="1.3"/><circle cx="766.0" cy="165.0" r="8" fill="none" stroke="#16D9FF" stroke-width="1.2"/><path d="M761.0,165.0 H771.0 M766.0,160.0 V170.0" class="icon-line" stroke="#16D9FF"/><text x="784.0" y="152.63" text-anchor="start" class="card-title" style="font-size:21px">Knowledge</text><text x="784.0" y="175.31" text-anchor="start" class="card-title" style="font-size:21px">Asset System</text><text x="784.0" y="196.77" text-anchor="start" class="card-sub" style="font-size:16px">root class</text></g>
<g id="node-maps" class="card node-card"><rect x="242.0" y="333.0" width="220.0" height="100.0" rx="6" fill="#FFFFFF" fill-opacity="0.03" stroke="#16D9FF" stroke-width="1.3"/><rect x="258.0" y="376.0" width="20" height="16" rx="3" fill="none" stroke="#16D9FF" stroke-width="1.2"/><path d="M258.0,381.0 H278.0 M268.0,376.0 V392.0" class="icon-line" stroke="#16D9FF"/><text x="286.0" y="381.97" text-anchor="start" class="card-title" style="font-size:21px">Map Assets</text><text x="286.0" y="403.43" text-anchor="start" class="card-sub" style="font-size:16px">structured views</text></g>
<g id="node-registries" class="card node-card"><rect x="610.0" y="333.0" width="220.0" height="100.0" rx="6" fill="#FFFFFF" fill-opacity="0.03" stroke="#FFD84D" stroke-width="1.3"/><path d="M636.0,373.0 L646.0,391.0 H626.0 Z" fill="none" stroke="#FFD84D" stroke-width="1.2"/><path d="M636.0,380.0 V386.0 M636.0,390.0 V390.0" class="icon-line" stroke="#FFD84D"/><text x="654.0" y="370.63" text-anchor="start" class="card-title" style="font-size:21px">Registry</text><text x="654.0" y="393.31" text-anchor="start" class="card-title" style="font-size:21px">Assets</text><text x="654.0" y="414.77" text-anchor="start" class="card-sub" style="font-size:16px">controlled tables</text></g>
<g id="node-modules" class="card node-card"><rect x="978.0" y="333.0" width="220.0" height="100.0" rx="6" fill="#FFFFFF" fill-opacity="0.03" stroke="#6EE66E" stroke-width="1.3"/><rect x="994.0" y="376.0" width="20" height="16" rx="3" fill="none" stroke="#6EE66E" stroke-width="1.2"/><path d="M994.0,381.0 H1014.0 M1004.0,376.0 V392.0" class="icon-line" stroke="#6EE66E"/><text x="1022.0" y="381.97" text-anchor="start" class="card-title" style="font-size:21px">Module Assets</text><text x="1022.0" y="403.43" text-anchor="start" class="card-sub" style="font-size:16px">reusable packages</text></g>
<g id="node-evidence" class="card node-card"><rect x="1346.0" y="333.0" width="220.0" height="100.0" rx="6" fill="#FFFFFF" fill-opacity="0.03" stroke="#C9DAF5" stroke-width="1.3"/><path d="M1362.0,373.0 H1376.0 L1382.0,379.0 V393.0 H1362.0 Z" fill="none" stroke="#C9DAF5" stroke-width="1.2"/><path d="M1376.0,373.0 V379.0 H1382.0" class="icon-line" stroke="#C9DAF5"/><text x="1390.0" y="370.63" text-anchor="start" class="card-title" style="font-size:21px">Evidence</text><text x="1390.0" y="393.31" text-anchor="start" class="card-title" style="font-size:21px">Assets</text><text x="1390.0" y="414.77" text-anchor="start" class="card-sub" style="font-size:16px">source proof</text></g>
<g id="node-domain_map" class="card node-card"><rect x="214.0" y="499.0" width="220.0" height="100.0" rx="6" fill="#FFFFFF" fill-opacity="0.03" stroke="#16D9FF" stroke-width="1.3"/><rect x="230.0" y="542.0" width="20" height="16" rx="3" fill="none" stroke="#16D9FF" stroke-width="1.2"/><path d="M230.0,547.0 H250.0 M240.0,542.0 V558.0" class="icon-line" stroke="#16D9FF"/><text x="258.0" y="539.17" text-anchor="start" class="card-title" style="font-size:21px">Domain Map</text><text x="258.0" y="560.6299999999999" text-anchor="start" class="card-sub" style="font-size:16px">systems +</text><text x="258.0" y="578.2299999999999" text-anchor="start" class="card-sub" style="font-size:16px">boundaries</text></g>
<g id="node-glossary" class="card node-card"><rect x="582.0" y="499.0" width="220.0" height="100.0" rx="6" fill="#FFFFFF" fill-opacity="0.03" stroke="#B56CFF" stroke-width="1.3"/><path d="M598.0,539.0 H614.0 Q618.0,539.0 618.0,543.0 V558.0 H598.0 Z" fill="none" stroke="#B56CFF" stroke-width="1.2"/><path d="M603.0,545.0 H612.0 M603.0,551.0 H612.0" class="icon-line" stroke="#B56CFF"/><text x="626.0" y="547.97" text-anchor="start" class="card-title" style="font-size:21px">Glossary</text><text x="626.0" y="569.43" text-anchor="start" class="card-sub" style="font-size:16px">controlled terms</text></g>
<g id="node-work_module" class="card node-card"><rect x="950.0" y="499.0" width="220.0" height="100.0" rx="6" fill="#FFFFFF" fill-opacity="0.03" stroke="#6EE66E" stroke-width="1.3"/><rect x="966.0" y="542.0" width="20" height="16" rx="3" fill="none" stroke="#6EE66E" stroke-width="1.2"/><path d="M966.0,547.0 H986.0 M976.0,542.0 V558.0" class="icon-line" stroke="#6EE66E"/><text x="994.0" y="547.97" text-anchor="start" class="card-title" style="font-size:21px">Work Module</text><text x="994.0" y="569.43" text-anchor="start" class="card-sub" style="font-size:16px">approved package</text></g>
<g id="node-source_doc" class="card node-card"><rect x="1318.0" y="499.0" width="220.0" height="100.0" rx="6" fill="#FFFFFF" fill-opacity="0.03" stroke="#F4F8FF" stroke-width="1.3"/><path d="M1334.0,539.0 H1348.0 L1354.0,545.0 V559.0 H1334.0 Z" fill="none" stroke="#F4F8FF" stroke-width="1.2"/><path d="M1348.0,539.0 V545.0 H1354.0" class="icon-line" stroke="#F4F8FF"/><text x="1362.0" y="536.63" text-anchor="start" class="card-title" style="font-size:21px">Source</text><text x="1362.0" y="559.31" text-anchor="start" class="card-title" style="font-size:21px">Document</text><text x="1362.0" y="580.77" text-anchor="start" class="card-sub" style="font-size:16px">authority</text></g>
<g id="node-boundary_view" class="card node-card"><rect x="270.0" y="621.0" width="220.0" height="100.0" rx="6" fill="#FFFFFF" fill-opacity="0.03" stroke="#FF9F2E" stroke-width="1.3"/><path d="M296.0,661.0 L306.0,671.0 L296.0,681.0 L286.0,671.0 Z" fill="none" stroke="#FF9F2E" stroke-width="1.2"/><path d="M292.0,671.0 H300.0" class="icon-line" stroke="#FF9F2E"/><text x="314.0" y="661.17" text-anchor="start" class="card-title" style="font-size:21px">Boundary View</text><text x="314.0" y="682.6299999999999" text-anchor="start" class="card-sub" style="font-size:16px">interfaces +</text><text x="314.0" y="700.2299999999999" text-anchor="start" class="card-sub" style="font-size:16px">owners</text></g>
<g id="node-term_review" class="card node-card"><rect x="638.0" y="621.0" width="220.0" height="100.0" rx="6" fill="#FFFFFF" fill-opacity="0.03" stroke="#FFD84D" stroke-width="1.3"/><path d="M664.0,661.0 L674.0,679.0 H654.0 Z" fill="none" stroke="#FFD84D" stroke-width="1.2"/><path d="M664.0,668.0 V674.0 M664.0,678.0 V678.0" class="icon-line" stroke="#FFD84D"/><text x="682.0" y="669.97" text-anchor="start" class="card-title" style="font-size:21px">Term Review</text><text x="682.0" y="691.43" text-anchor="start" class="card-sub" style="font-size:16px">approval cadence</text></g>
<g id="node-reuse_package" class="card node-card"><rect x="1006.0" y="621.0" width="220.0" height="100.0" rx="6" fill="#FFFFFF" fill-opacity="0.03" stroke="#6EE66E" stroke-width="1.3"/><rect x="1022.0" y="664.0" width="20" height="16" rx="3" fill="none" stroke="#6EE66E" stroke-width="1.2"/><path d="M1022.0,669.0 H1042.0 M1032.0,664.0 V680.0" class="icon-line" stroke="#6EE66E"/><text x="1050.0" y="669.97" text-anchor="start" class="card-title" style="font-size:21px">Reuse Package</text><text x="1050.0" y="691.43" text-anchor="start" class="card-sub" style="font-size:16px">versioned module</text></g>
<g id="node-controlled_source" class="card node-card"><rect x="1374.0" y="621.0" width="220.0" height="100.0" rx="6" fill="#FFFFFF" fill-opacity="0.03" stroke="#F4F8FF" stroke-width="1.3"/><path d="M1390.0,661.0 H1404.0 L1410.0,667.0 V681.0 H1390.0 Z" fill="none" stroke="#F4F8FF" stroke-width="1.2"/><path d="M1404.0,661.0 V667.0 H1410.0" class="icon-line" stroke="#F4F8FF"/><text x="1418.0" y="658.63" text-anchor="start" class="card-title" style="font-size:21px">Controlled</text><text x="1418.0" y="681.31" text-anchor="start" class="card-title" style="font-size:21px">Source</text><text x="1418.0" y="702.77" text-anchor="start" class="card-sub" style="font-size:16px">approved baseline</text></g>
<g id="node-ownership_map" class="card node-card"><rect x="214.0" y="751.0" width="220.0" height="100.0" rx="6" fill="#FFFFFF" fill-opacity="0.03" stroke="#FF9F2E" stroke-width="1.3"/><path d="M240.0,791.0 L250.0,801.0 L240.0,811.0 L230.0,801.0 Z" fill="none" stroke="#FF9F2E" stroke-width="1.2"/><path d="M236.0,801.0 H244.0" class="icon-line" stroke="#FF9F2E"/><text x="258.0" y="799.97" text-anchor="start" class="card-title" style="font-size:21px">Ownership Map</text><text x="258.0" y="821.43" text-anchor="start" class="card-sub" style="font-size:16px">responsibility</text></g>
<g id="node-parameter_register" class="card node-card"><rect x="582.0" y="751.0" width="220.0" height="100.0" rx="6" fill="#FFFFFF" fill-opacity="0.03" stroke="#FFD84D" stroke-width="1.3"/><path d="M608.0,791.0 L618.0,809.0 H598.0 Z" fill="none" stroke="#FFD84D" stroke-width="1.2"/><path d="M608.0,798.0 V804.0 M608.0,808.0 V808.0" class="icon-line" stroke="#FFD84D"/><text x="626.0" y="788.63" text-anchor="start" class="card-title" style="font-size:21px">Parameter</text><text x="626.0" y="811.31" text-anchor="start" class="card-title" style="font-size:21px">Register</text><text x="626.0" y="832.77" text-anchor="start" class="card-sub" style="font-size:16px">CTQ families</text></g>
<g id="node-training_module" class="card node-card"><rect x="950.0" y="751.0" width="220.0" height="100.0" rx="6" fill="#FFFFFF" fill-opacity="0.03" stroke="#6EE66E" stroke-width="1.3"/><rect x="966.0" y="794.0" width="20" height="16" rx="3" fill="none" stroke="#6EE66E" stroke-width="1.2"/><path d="M966.0,799.0 H986.0 M976.0,794.0 V810.0" class="icon-line" stroke="#6EE66E"/><text x="994.0" y="788.63" text-anchor="start" class="card-title" style="font-size:21px">Training</text><text x="994.0" y="811.31" text-anchor="start" class="card-title" style="font-size:21px">Module</text><text x="994.0" y="832.77" text-anchor="start" class="card-sub" style="font-size:16px">reuse content</text></g>
<g id="node-quality_record" class="card node-card"><rect x="1318.0" y="751.0" width="220.0" height="100.0" rx="6" fill="#FFFFFF" fill-opacity="0.03" stroke="#FFD84D" stroke-width="1.3"/><path d="M1344.0,791.0 L1354.0,809.0 H1334.0 Z" fill="none" stroke="#FFD84D" stroke-width="1.2"/><path d="M1344.0,798.0 V804.0 M1344.0,808.0 V808.0" class="icon-line" stroke="#FFD84D"/><text x="1362.0" y="788.63" text-anchor="start" class="card-title" style="font-size:21px">Quality</text><text x="1362.0" y="811.31" text-anchor="start" class="card-title" style="font-size:21px">Record</text><text x="1362.0" y="832.77" text-anchor="start" class="card-sub" style="font-size:16px">approval proof</text></g>
<g id="node-stewardship_path" class="card node-card"><rect x="270.0" y="873.0" width="220.0" height="100.0" rx="6" fill="#FFFFFF" fill-opacity="0.03" stroke="#FFD84D" stroke-width="1.3"/><path d="M296.0,913.0 L306.0,931.0 H286.0 Z" fill="none" stroke="#FFD84D" stroke-width="1.2"/><path d="M296.0,920.0 V926.0 M296.0,930.0 V930.0" class="icon-line" stroke="#FFD84D"/><text x="314.0" y="910.63" text-anchor="start" class="card-title" style="font-size:21px">Stewardship</text><text x="314.0" y="933.31" text-anchor="start" class="card-title" style="font-size:21px">Path</text><text x="314.0" y="954.77" text-anchor="start" class="card-sub" style="font-size:16px">owner + reviewer</text></g>
<g id="node-ctq_thresholds" class="card node-card"><rect x="638.0" y="873.0" width="220.0" height="100.0" rx="6" fill="#FFFFFF" fill-opacity="0.03" stroke="#FFD84D" stroke-width="1.3"/><path d="M664.0,913.0 L673.0,918.0 V928.0 L664.0,933.0 L655.0,928.0 V918.0 Z" fill="none" stroke="#FFD84D" stroke-width="1.2"/><path d="M660.0,923.0 L663.0,927.0 L669.0,919.0" class="icon-line" stroke="#FFD84D"/><text x="682.0" y="910.63" text-anchor="start" class="card-title" style="font-size:21px">CTQ</text><text x="682.0" y="933.31" text-anchor="start" class="card-title" style="font-size:21px">Thresholds</text><text x="682.0" y="954.77" text-anchor="start" class="card-sub" style="font-size:16px">limits + units</text></g>
<g id="node-approval_record" class="card node-card"><rect x="1374.0" y="873.0" width="220.0" height="100.0" rx="6" fill="#FFFFFF" fill-opacity="0.03" stroke="#C9DAF5" stroke-width="1.3"/><path d="M1390.0,913.0 H1404.0 L1410.0,919.0 V933.0 H1390.0 Z" fill="none" stroke="#C9DAF5" stroke-width="1.2"/><path d="M1404.0,913.0 V919.0 H1410.0" class="icon-line" stroke="#C9DAF5"/><text x="1418.0" y="910.63" text-anchor="start" class="card-title" style="font-size:21px">Approval</text><text x="1418.0" y="933.31" text-anchor="start" class="card-title" style="font-size:21px">Record</text><text x="1418.0" y="954.77" text-anchor="start" class="card-sub" style="font-size:16px">signoff trail</text></g>
<g id="node-playbook" class="card node-card"><rect x="950.0" y="881.0" width="220.0" height="100.0" rx="6" fill="#FFFFFF" fill-opacity="0.03" stroke="#FFD84D" stroke-width="1.3"/><path d="M976.0,921.0 L985.0,926.0 V936.0 L976.0,941.0 L967.0,936.0 V926.0 Z" fill="none" stroke="#FFD84D" stroke-width="1.2"/><path d="M972.0,931.0 L975.0,935.0 L981.0,927.0" class="icon-line" stroke="#FFD84D"/><text x="994.0" y="918.63" text-anchor="start" class="card-title" style="font-size:21px">Exception</text><text x="994.0" y="941.31" text-anchor="start" class="card-title" style="font-size:21px">Playbook</text><text x="994.0" y="962.77" text-anchor="start" class="card-sub" style="font-size:16px">risk response</text></g>
<g id="node-flow_overview" class="card node-card"><rect x="214.0" y="1003.0" width="220.0" height="100.0" rx="6" fill="#FFFFFF" fill-opacity="0.03" stroke="#FF9F2E" stroke-width="1.3"/><circle cx="234.0" cy="1054.0" r="4" fill="none" stroke="#FF9F2E" stroke-width="1.6"/><circle cx="248.0" cy="1047.0" r="4" fill="none" stroke="#FF9F2E" stroke-width="1.6"/><circle cx="248.0" cy="1061.0" r="4" fill="none" stroke="#FF9F2E" stroke-width="1.6"/><path d="M238.0,1054.0 H242.0 M244.0,1050.0 L242.0,1054.0 L244.0,1058.0" class="icon-line" stroke="#FF9F2E"/><text x="258.0" y="1040.63" text-anchor="start" class="card-title" style="font-size:21px">Knowledge</text><text x="258.0" y="1063.3100000000002" text-anchor="start" class="card-title" style="font-size:21px">Flow Overview</text><text x="258.0" y="1084.77" text-anchor="start" class="card-sub" style="font-size:16px">movement map</text></g>
<g id="node-risk_register" class="card node-card"><rect x="582.0" y="1003.0" width="220.0" height="100.0" rx="6" fill="#FFFFFF" fill-opacity="0.03" stroke="#FFD84D" stroke-width="1.3"/><path d="M608.0,1043.0 L617.0,1048.0 V1058.0 L608.0,1063.0 L599.0,1058.0 V1048.0 Z" fill="none" stroke="#FFD84D" stroke-width="1.2"/><path d="M604.0,1053.0 L607.0,1057.0 L613.0,1049.0" class="icon-line" stroke="#FFD84D"/><text x="626.0" y="1051.97" text-anchor="start" class="card-title" style="font-size:21px">Risk Register</text><text x="626.0" y="1073.43" text-anchor="start" class="card-sub" style="font-size:16px">constraints</text></g>
<g id="node-exception_steps" class="card node-card"><rect x="1006.0" y="1003.0" width="220.0" height="100.0" rx="6" fill="#FFFFFF" fill-opacity="0.03" stroke="#FF9F2E" stroke-width="1.3"/><circle cx="1026.0" cy="1054.0" r="4" fill="none" stroke="#FF9F2E" stroke-width="1.6"/><circle cx="1040.0" cy="1047.0" r="4" fill="none" stroke="#FF9F2E" stroke-width="1.6"/><circle cx="1040.0" cy="1061.0" r="4" fill="none" stroke="#FF9F2E" stroke-width="1.6"/><path d="M1030.0,1054.0 H1034.0 M1036.0,1050.0 L1034.0,1054.0 L1036.0,1058.0" class="icon-line" stroke="#FF9F2E"/><text x="1050.0" y="1040.63" text-anchor="start" class="card-title" style="font-size:21px">Exception</text><text x="1050.0" y="1063.3100000000002" text-anchor="start" class="card-title" style="font-size:21px">Steps</text><text x="1050.0" y="1084.77" text-anchor="start" class="card-sub" style="font-size:16px">actions + owners</text></g>
<g id="node-test_result" class="card node-card"><rect x="1318.0" y="1003.0" width="220.0" height="100.0" rx="6" fill="#FFFFFF" fill-opacity="0.03" stroke="#C9DAF5" stroke-width="1.3"/><path d="M1334.0,1043.0 H1348.0 L1354.0,1049.0 V1063.0 H1334.0 Z" fill="none" stroke="#C9DAF5" stroke-width="1.2"/><path d="M1348.0,1043.0 V1049.0 H1354.0" class="icon-line" stroke="#C9DAF5"/><text x="1362.0" y="1051.97" text-anchor="start" class="card-title" style="font-size:21px">Test Result</text><text x="1362.0" y="1073.43" text-anchor="start" class="card-sub" style="font-size:16px">measured evidence</text></g>
<g id="node-risk_controls" class="card node-card"><rect x="638.0" y="1125.0" width="220.0" height="100.0" rx="6" fill="#FFFFFF" fill-opacity="0.03" stroke="#FF9F2E" stroke-width="1.3"/><path d="M664.0,1165.0 L674.0,1175.0 L664.0,1185.0 L654.0,1175.0 Z" fill="none" stroke="#FF9F2E" stroke-width="1.2"/><path d="M660.0,1175.0 H668.0" class="icon-line" stroke="#FF9F2E"/><text x="682.0" y="1173.97" text-anchor="start" class="card-title" style="font-size:21px">Risk Controls</text><text x="682.0" y="1195.43" text-anchor="start" class="card-sub" style="font-size:16px">mitigation rules</text></g>
<g id="node-measured_sample" class="card node-card"><rect x="1374.0" y="1125.0" width="220.0" height="100.0" rx="6" fill="#FFFFFF" fill-opacity="0.03" stroke="#FFD84D" stroke-width="1.3"/><path d="M1400.0,1165.0 L1410.0,1183.0 H1390.0 Z" fill="none" stroke="#FFD84D" stroke-width="1.2"/><path d="M1400.0,1172.0 V1178.0 M1400.0,1182.0 V1182.0" class="icon-line" stroke="#FFD84D"/><text x="1418.0" y="1162.63" text-anchor="start" class="card-title" style="font-size:21px">Measured</text><text x="1418.0" y="1185.3100000000002" text-anchor="start" class="card-title" style="font-size:21px">Sample</text><text x="1418.0" y="1206.77" text-anchor="start" class="card-sub" style="font-size:16px">result packet</text></g>
<text x="70.0" y="101.0" class="tree-level-label">Level 0</text>
<text x="70.0" y="319.0" class="tree-level-label">Level 1</text>
<text x="70.0" y="485.0" class="tree-level-label">Level 2+</text>
<text x="850.0" y="1307" text-anchor="middle" class="note">Stress template: first-level families remain horizontal; deeper taxonomy branches use separate vertical backbones to reduce shared corridors.</text>
</svg>
