<svg xmlns="http://www.w3.org/2000/svg" width="3384" height="693" viewBox="0 0 3384 693" role="img" aria-label="Taxonomy Tree Stress" data-style="accent-blueprint" data-diagram-type="taxonomy_tree">
<defs>
  <pattern id="blueprint-grid-small" width="12" height="12" patternUnits="userSpaceOnUse"><path d="M 12 0 H 0 V 12" fill="none" stroke="#FFFFFF" stroke-opacity="0.08" stroke-width="0.7"/></pattern>
  <pattern id="blueprint-grid" width="60" height="60" patternUnits="userSpaceOnUse"><rect width="60" height="60" fill="url(#blueprint-grid-small)"/><path d="M 60 0 H 0 V 60" fill="none" stroke="#FFFFFF" stroke-opacity="0.14" stroke-width="1"/> </pattern>
  <marker id="arrow" markerWidth="10" markerHeight="10" refX="8.5" refY="3" orient="auto" markerUnits="strokeWidth"><path d="M0,0 L0,6 L9,3 z" fill="context-stroke"/></marker>
  <marker id="arrow-fanout" markerWidth="10" markerHeight="10" refX="8.5" refY="3" orient="auto" markerUnits="strokeWidth"><path d="M0,0 L0,6 L9,3 z" fill="context-stroke"/></marker>
  <marker id="arrow-fanin" markerWidth="10" markerHeight="10" refX="8.5" refY="3" orient="auto" markerUnits="strokeWidth"><path d="M0,0 L0,6 L9,3 z" fill="context-stroke"/></marker>
  <style>
    [data-style="accent-blueprint"] .title{font:700 27px IBM Plex Mono,JetBrains Mono,Consolas,monospace;fill:#F4F8FF;letter-spacing:.04em;text-transform:uppercase}
    [data-style="accent-blueprint"] .subtitle{font:400 13px IBM Plex Sans,Inter,Roboto Condensed,DIN,Segoe UI,Aptos,Arial,sans-serif;fill:#C9DAF5}
    [data-style="accent-blueprint"] .group-label{font:700 15px IBM Plex Mono,JetBrains Mono,Consolas,monospace;fill:#C9DAF5;letter-spacing:.08em;text-transform:uppercase}
    [data-style="accent-blueprint"] .card-title{font:700 17px IBM Plex Sans,Inter,Roboto Condensed,DIN,Segoe UI,Aptos,Arial,sans-serif;fill:#F4F8FF}
    [data-style="accent-blueprint"] .card-sub{font:500 13px IBM Plex Sans,Inter,Roboto Condensed,DIN,Segoe UI,Aptos,Arial,sans-serif;fill:#C9DAF5}
    [data-style="accent-blueprint"] .edge{fill:none;stroke:#F4F8FF;stroke-width:1.5;stroke-linecap:round;stroke-linejoin:round;opacity:0.88}
    [data-style="accent-blueprint"] .fanout{stroke:#FF9F2E;opacity:0.9}
    [data-style="accent-blueprint"] .fanin{stroke:#6EE66E;opacity:0.9}
    [data-style="accent-blueprint"] .route-shared{marker-end:none}
    [data-style="accent-blueprint"] .edge-dashed{stroke-dasharray:6 5;opacity:0.68}
    [data-style="accent-blueprint"] .note{font:500 14px IBM Plex Sans,Inter,Roboto Condensed,DIN,Segoe UI,Aptos,Arial,sans-serif;fill:#C9DAF5}
    [data-style="accent-blueprint"] .mono{font-family:IBM Plex Mono,JetBrains Mono,Consolas,monospace}
    [data-style="accent-blueprint"] .table-header{font:700 15.5px IBM Plex Mono,JetBrains Mono,Consolas,monospace;fill:#F4F8FF;letter-spacing:.08em;text-transform:uppercase}
    [data-style="accent-blueprint"] .table-cell{font:500 17px IBM Plex Sans,Inter,Roboto Condensed,DIN,Segoe UI,Aptos,Arial,sans-serif;fill:#F4F8FF}
    [data-style="accent-blueprint"] .table-cell-secondary{font:500 17px IBM Plex Sans,Inter,Roboto Condensed,DIN,Segoe UI,Aptos,Arial,sans-serif;fill:#C9DAF5}
    [data-style="accent-blueprint"] .tree-level-label{font:700 15px IBM Plex Mono,JetBrains Mono,Consolas,monospace;fill:#C9DAF5;letter-spacing:.08em;text-transform:uppercase}
    [data-style="accent-blueprint"] .hub-label{font:700 15px IBM Plex Mono,JetBrains Mono,Consolas,monospace;fill:#C9DAF5;letter-spacing:.08em;text-transform:uppercase}
    [data-style="accent-blueprint"] .icon-line{fill:none;stroke-width:1.3;stroke-linecap:round;stroke-linejoin:round}
  </style>
</defs>
<rect x="0" y="0" width="3384" height="693" rx="0" fill="#062B5F"/>
<rect x="0" y="0" width="3384" height="693" rx="0" fill="url(#blueprint-grid)" opacity="1"/>
<text x="1692.0" y="54" text-anchor="middle" class="title">Taxonomy Tree Stress</text>
<text x="1692.0" y="80" text-anchor="middle" class="subtitle">Stress contract with multiple levels and many leaf nodes</text>
<path d="M 1692.0 215.0 L 1692.0 243.0 Q 1692.0 257.0 1678.0 257.0 L 473.0 257.0 Q 459.0 257.0 459.0 271.0 L 459.0 299.0" class="edge taxonomy-link" marker-end="url(#arrow)"/>
<path d="M 1692.0 215.0 L 1692.0 243.0 Q 1692.0 257.0 1678.0 257.0 L 1295.0 257.0 Q 1281.0 257.0 1281.0 271.0 L 1281.0 299.0" class="edge taxonomy-link" marker-end="url(#arrow)"/>
<path d="M 1692.0 215.0 L 1692.0 243.0 Q 1692.0 257.0 1706.0 257.0 L 2089.0 257.0 Q 2103.0 257.0 2103.0 271.0 L 2103.0 299.0" class="edge taxonomy-link" marker-end="url(#arrow)"/>
<path d="M 1692.0 215.0 L 1692.0 243.0 Q 1692.0 257.0 1706.0 257.0 L 2911.0 257.0 Q 2925.0 257.0 2925.0 271.0 L 2925.0 299.0" class="edge taxonomy-link" marker-end="url(#arrow)"/>
<path d="M 459.0 399.0 L 459.0 427.0 Q 459.0 441.0 445.0 441.0 L 199.0 441.0 Q 185.0 441.0 185.0 455.0 L 185.0 483.0" class="edge taxonomy-link" marker-end="url(#arrow)"/>
<path d="M 459.0 399.0 L 459.0 483.0" class="edge taxonomy-link" marker-end="url(#arrow)"/>
<path d="M 459.0 399.0 L 459.0 427.0 Q 459.0 441.0 473.0 441.0 L 719.0 441.0 Q 733.0 441.0 733.0 455.0 L 733.0 483.0" class="edge taxonomy-link" marker-end="url(#arrow)"/>
<path d="M 1281.0 399.0 L 1281.0 427.0 Q 1281.0 441.0 1267.0 441.0 L 1021.0 441.0 Q 1007.0 441.0 1007.0 455.0 L 1007.0 483.0" class="edge taxonomy-link" marker-end="url(#arrow)"/>
<path d="M 1281.0 399.0 L 1281.0 483.0" class="edge taxonomy-link" marker-end="url(#arrow)"/>
<path d="M 1281.0 399.0 L 1281.0 427.0 Q 1281.0 441.0 1295.0 441.0 L 1541.0 441.0 Q 1555.0 441.0 1555.0 455.0 L 1555.0 483.0" class="edge taxonomy-link" marker-end="url(#arrow)"/>
<path d="M 2103.0 399.0 L 2103.0 427.0 Q 2103.0 441.0 2089.0 441.0 L 1843.0 441.0 Q 1829.0 441.0 1829.0 455.0 L 1829.0 483.0" class="edge taxonomy-link" marker-end="url(#arrow)"/>
<path d="M 2103.0 399.0 L 2103.0 483.0" class="edge taxonomy-link" marker-end="url(#arrow)"/>
<path d="M 2103.0 399.0 L 2103.0 427.0 Q 2103.0 441.0 2117.0 441.0 L 2363.0 441.0 Q 2377.0 441.0 2377.0 455.0 L 2377.0 483.0" class="edge taxonomy-link" marker-end="url(#arrow)"/>
<path d="M 2925.0 399.0 L 2925.0 427.0 Q 2925.0 441.0 2911.0 441.0 L 2665.0 441.0 Q 2651.0 441.0 2651.0 455.0 L 2651.0 483.0" class="edge taxonomy-link" marker-end="url(#arrow)"/>
<path d="M 2925.0 399.0 L 2925.0 483.0" class="edge taxonomy-link" marker-end="url(#arrow)"/>
<path d="M 2925.0 399.0 L 2925.0 427.0 Q 2925.0 441.0 2939.0 441.0 L 3185.0 441.0 Q 3199.0 441.0 3199.0 455.0 L 3199.0 483.0" class="edge taxonomy-link" marker-end="url(#arrow)"/>
<g id="node-root" class="card node-card"><rect x="1577.0" y="115.0" width="230.0" height="100.0" rx="6" fill="#FFFFFF" fill-opacity="0.03" stroke="#16D9FF" stroke-width="1.3"/><circle cx="1605.0" cy="165.0" r="8" fill="none" stroke="#16D9FF" stroke-width="1.2"/><path d="M1600.0,165.0 H1610.0 M1605.0,160.0 V170.0" class="icon-line" stroke="#16D9FF"/><text x="1631.0" y="151.5486" text-anchor="start" class="card-title" style="font-size:23.2px">Knowledge</text><text x="1631.0" y="176.62619999999998" text-anchor="start" class="card-title" style="font-size:23.2px">Asset System</text><text x="1631.0" y="199.9434" text-anchor="start" class="card-sub" style="font-size:17.3px">root class</text></g>
<g id="node-maps" class="card node-card"><rect x="344.0" y="299.0" width="230.0" height="100.0" rx="6" fill="#FFFFFF" fill-opacity="0.03" stroke="#16D9FF" stroke-width="1.3"/><rect x="362.0" y="342.0" width="20" height="16" rx="3" fill="none" stroke="#16D9FF" stroke-width="1.2"/><path d="M362.0,347.0 H382.0 M372.0,342.0 V358.0" class="icon-line" stroke="#16D9FF"/><text x="398.0" y="348.0874" text-anchor="start" class="card-title" style="font-size:23.2px">Map Assets</text><text x="398.0" y="371.40459999999996" text-anchor="start" class="card-sub" style="font-size:17.3px">structured views</text></g>
<g id="node-registries" class="card node-card"><rect x="1166.0" y="299.0" width="230.0" height="100.0" rx="6" fill="#FFFFFF" fill-opacity="0.03" stroke="#FFD84D" stroke-width="1.3"/><path d="M1194.0,339.0 L1204.0,357.0 H1184.0 Z" fill="none" stroke="#FFD84D" stroke-width="1.2"/><path d="M1194.0,346.0 V352.0 M1194.0,356.0 V356.0" class="icon-line" stroke="#FFD84D"/><text x="1220.0" y="335.5486" text-anchor="start" class="card-title" style="font-size:23.2px">Registry</text><text x="1220.0" y="360.62620000000004" text-anchor="start" class="card-title" style="font-size:23.2px">Assets</text><text x="1220.0" y="383.9434" text-anchor="start" class="card-sub" style="font-size:17.3px">controlled tables</text></g>
<g id="node-modules" class="card node-card"><rect x="1988.0" y="299.0" width="230.0" height="100.0" rx="6" fill="#FFFFFF" fill-opacity="0.03" stroke="#6EE66E" stroke-width="1.3"/><rect x="2006.0" y="342.0" width="20" height="16" rx="3" fill="none" stroke="#6EE66E" stroke-width="1.2"/><path d="M2006.0,347.0 H2026.0 M2016.0,342.0 V358.0" class="icon-line" stroke="#6EE66E"/><text x="2042.0" y="348.0874" text-anchor="start" class="card-title" style="font-size:23.2px">Module Assets</text><text x="2042.0" y="371.40459999999996" text-anchor="start" class="card-sub" style="font-size:17.3px">reusable packages</text></g>
<g id="node-evidence" class="card node-card"><rect x="2810.0" y="299.0" width="230.0" height="100.0" rx="6" fill="#FFFFFF" fill-opacity="0.03" stroke="#C9DAF5" stroke-width="1.3"/><path d="M2828.0,339.0 H2842.0 L2848.0,345.0 V359.0 H2828.0 Z" fill="none" stroke="#C9DAF5" stroke-width="1.2"/><path d="M2842.0,339.0 V345.0 H2848.0" class="icon-line" stroke="#C9DAF5"/><text x="2864.0" y="335.5486" text-anchor="start" class="card-title" style="font-size:23.2px">Evidence</text><text x="2864.0" y="360.62620000000004" text-anchor="start" class="card-title" style="font-size:23.2px">Assets</text><text x="2864.0" y="383.9434" text-anchor="start" class="card-sub" style="font-size:17.3px">source-backed pro...</text></g>
<g id="node-domain_map" class="card node-card"><rect x="70.0" y="483.0" width="230.0" height="100.0" rx="6" fill="#FFFFFF" fill-opacity="0.03" stroke="#16D9FF" stroke-width="1.3"/><rect x="88.0" y="526.0" width="20" height="16" rx="3" fill="none" stroke="#16D9FF" stroke-width="1.2"/><path d="M88.0,531.0 H108.0 M98.0,526.0 V542.0" class="icon-line" stroke="#16D9FF"/><text x="124.0" y="522.5834" text-anchor="start" class="card-title" style="font-size:23.2px">Domain Map</text><text x="124.0" y="545.9006" text-anchor="start" class="card-sub" style="font-size:17.3px">systems +</text><text x="124.0" y="564.9086000000001" text-anchor="start" class="card-sub" style="font-size:17.3px">boundaries</text></g>
<g id="node-ownership_map" class="card node-card"><rect x="344.0" y="483.0" width="230.0" height="100.0" rx="6" fill="#FFFFFF" fill-opacity="0.03" stroke="#FF9F2E" stroke-width="1.3"/><path d="M372.0,523.0 L382.0,533.0 L372.0,543.0 L362.0,533.0 Z" fill="none" stroke="#FF9F2E" stroke-width="1.2"/><path d="M368.0,533.0 H376.0" class="icon-line" stroke="#FF9F2E"/><text x="398.0" y="532.0874" text-anchor="start" class="card-title" style="font-size:23.2px">Ownership Map</text><text x="398.0" y="555.4046" text-anchor="start" class="card-sub" style="font-size:17.3px">responsibility</text></g>
<g id="node-flow_overview" class="card node-card"><rect x="618.0" y="483.0" width="230.0" height="100.0" rx="6" fill="#FFFFFF" fill-opacity="0.03" stroke="#FF9F2E" stroke-width="1.3"/><circle cx="640.0" cy="534.0" r="4" fill="none" stroke="#FF9F2E" stroke-width="1.6"/><circle cx="654.0" cy="527.0" r="4" fill="none" stroke="#FF9F2E" stroke-width="1.6"/><circle cx="654.0" cy="541.0" r="4" fill="none" stroke="#FF9F2E" stroke-width="1.6"/><path d="M644.0,534.0 H648.0 M650.0,530.0 L648.0,534.0 L650.0,538.0" class="icon-line" stroke="#FF9F2E"/><text x="672.0" y="519.5486" text-anchor="start" class="card-title" style="font-size:23.2px">Knowledge</text><text x="672.0" y="544.6261999999999" text-anchor="start" class="card-title" style="font-size:23.2px">Flow Overview</text><text x="672.0" y="567.9434" text-anchor="start" class="card-sub" style="font-size:17.3px">high-level moveme...</text></g>
<g id="node-glossary" class="card node-card"><rect x="892.0" y="483.0" width="230.0" height="100.0" rx="6" fill="#FFFFFF" fill-opacity="0.03" stroke="#B56CFF" stroke-width="1.3"/><path d="M910.0,523.0 H926.0 Q930.0,523.0 930.0,527.0 V542.0 H910.0 Z" fill="none" stroke="#B56CFF" stroke-width="1.2"/><path d="M915.0,529.0 H924.0 M915.0,535.0 H924.0" class="icon-line" stroke="#B56CFF"/><text x="946.0" y="532.0874" text-anchor="start" class="card-title" style="font-size:23.2px">Glossary</text><text x="946.0" y="555.4046" text-anchor="start" class="card-sub" style="font-size:17.3px">controlled terms</text></g>
<g id="node-parameter_register" class="card node-card"><rect x="1166.0" y="483.0" width="230.0" height="100.0" rx="6" fill="#FFFFFF" fill-opacity="0.03" stroke="#FFD84D" stroke-width="1.3"/><path d="M1194.0,523.0 L1204.0,541.0 H1184.0 Z" fill="none" stroke="#FFD84D" stroke-width="1.2"/><path d="M1194.0,530.0 V536.0 M1194.0,540.0 V540.0" class="icon-line" stroke="#FFD84D"/><text x="1220.0" y="519.5486" text-anchor="start" class="card-title" style="font-size:23.2px">Parameter</text><text x="1220.0" y="544.6261999999999" text-anchor="start" class="card-title" style="font-size:23.2px">Register</text><text x="1220.0" y="567.9434" text-anchor="start" class="card-sub" style="font-size:17.3px">CTQ families</text></g>
<g id="node-risk_register" class="card node-card"><rect x="1440.0" y="483.0" width="230.0" height="100.0" rx="6" fill="#FFFFFF" fill-opacity="0.03" stroke="#FFD84D" stroke-width="1.3"/><path d="M1468.0,523.0 L1477.0,528.0 V538.0 L1468.0,543.0 L1459.0,538.0 V528.0 Z" fill="none" stroke="#FFD84D" stroke-width="1.2"/><path d="M1464.0,533.0 L1467.0,537.0 L1473.0,529.0" class="icon-line" stroke="#FFD84D"/><text x="1494.0" y="532.0874" text-anchor="start" class="card-title" style="font-size:23.2px">Risk Register</text><text x="1494.0" y="555.4046" text-anchor="start" class="card-sub" style="font-size:17.3px">constraints</text></g>
<g id="node-work_module" class="card node-card"><rect x="1714.0" y="483.0" width="230.0" height="100.0" rx="6" fill="#FFFFFF" fill-opacity="0.03" stroke="#6EE66E" stroke-width="1.3"/><rect x="1732.0" y="526.0" width="20" height="16" rx="3" fill="none" stroke="#6EE66E" stroke-width="1.2"/><path d="M1732.0,531.0 H1752.0 M1742.0,526.0 V542.0" class="icon-line" stroke="#6EE66E"/><text x="1768.0" y="532.0874" text-anchor="start" class="card-title" style="font-size:23.2px">Work Module</text><text x="1768.0" y="555.4046" text-anchor="start" class="card-sub" style="font-size:17.3px">approved package</text></g>
<g id="node-training_module" class="card node-card"><rect x="1988.0" y="483.0" width="230.0" height="100.0" rx="6" fill="#FFFFFF" fill-opacity="0.03" stroke="#6EE66E" stroke-width="1.3"/><rect x="2006.0" y="526.0" width="20" height="16" rx="3" fill="none" stroke="#6EE66E" stroke-width="1.2"/><path d="M2006.0,531.0 H2026.0 M2016.0,526.0 V542.0" class="icon-line" stroke="#6EE66E"/><text x="2042.0" y="519.5486" text-anchor="start" class="card-title" style="font-size:23.2px">Training</text><text x="2042.0" y="544.6261999999999" text-anchor="start" class="card-title" style="font-size:23.2px">Module</text><text x="2042.0" y="567.9434" text-anchor="start" class="card-sub" style="font-size:17.3px">reuse content</text></g>
<g id="node-playbook" class="card node-card"><rect x="2262.0" y="483.0" width="230.0" height="100.0" rx="6" fill="#FFFFFF" fill-opacity="0.03" stroke="#FFD84D" stroke-width="1.3"/><path d="M2290.0,523.0 L2299.0,528.0 V538.0 L2290.0,543.0 L2281.0,538.0 V528.0 Z" fill="none" stroke="#FFD84D" stroke-width="1.2"/><path d="M2286.0,533.0 L2289.0,537.0 L2295.0,529.0" class="icon-line" stroke="#FFD84D"/><text x="2316.0" y="519.5486" text-anchor="start" class="card-title" style="font-size:23.2px">Exception</text><text x="2316.0" y="544.6261999999999" text-anchor="start" class="card-title" style="font-size:23.2px">Playbook</text><text x="2316.0" y="567.9434" text-anchor="start" class="card-sub" style="font-size:17.3px">risk response</text></g>
<g id="node-source_doc" class="card node-card"><rect x="2536.0" y="483.0" width="230.0" height="100.0" rx="6" fill="#FFFFFF" fill-opacity="0.03" stroke="#F4F8FF" stroke-width="1.3"/><path d="M2554.0,523.0 H2568.0 L2574.0,529.0 V543.0 H2554.0 Z" fill="none" stroke="#F4F8FF" stroke-width="1.2"/><path d="M2568.0,523.0 V529.0 H2574.0" class="icon-line" stroke="#F4F8FF"/><text x="2590.0" y="519.5486" text-anchor="start" class="card-title" style="font-size:23.2px">Source</text><text x="2590.0" y="544.6261999999999" text-anchor="start" class="card-title" style="font-size:23.2px">Document</text><text x="2590.0" y="567.9434" text-anchor="start" class="card-sub" style="font-size:17.3px">authority</text></g>
<g id="node-quality_record" class="card node-card"><rect x="2810.0" y="483.0" width="230.0" height="100.0" rx="6" fill="#FFFFFF" fill-opacity="0.03" stroke="#FFD84D" stroke-width="1.3"/><path d="M2838.0,523.0 L2848.0,541.0 H2828.0 Z" fill="none" stroke="#FFD84D" stroke-width="1.2"/><path d="M2838.0,530.0 V536.0 M2838.0,540.0 V540.0" class="icon-line" stroke="#FFD84D"/><text x="2864.0" y="519.5486" text-anchor="start" class="card-title" style="font-size:23.2px">Quality</text><text x="2864.0" y="544.6261999999999" text-anchor="start" class="card-title" style="font-size:23.2px">Record</text><text x="2864.0" y="567.9434" text-anchor="start" class="card-sub" style="font-size:17.3px">approval proof</text></g>
<g id="node-test_result" class="card node-card"><rect x="3084.0" y="483.0" width="230.0" height="100.0" rx="6" fill="#FFFFFF" fill-opacity="0.03" stroke="#C9DAF5" stroke-width="1.3"/><path d="M3102.0,523.0 H3116.0 L3122.0,529.0 V543.0 H3102.0 Z" fill="none" stroke="#C9DAF5" stroke-width="1.2"/><path d="M3116.0,523.0 V529.0 H3122.0" class="icon-line" stroke="#C9DAF5"/><text x="3138.0" y="532.0874" text-anchor="start" class="card-title" style="font-size:23.2px">Test Result</text><text x="3138.0" y="555.4046" text-anchor="start" class="card-sub" style="font-size:17.3px">measured evidence</text></g>
<text x="70" y="101.0" class="tree-level-label">Level 0</text>
<text x="70" y="285.0" class="tree-level-label">Level 1</text>
<text x="70" y="469.0" class="tree-level-label">Level 2</text>
<text x="1692.0" y="665" text-anchor="middle" class="note">Stress template: wide trees should preserve level labels, readable cards, and parent-child connectors.</text>
</svg>
