<svg xmlns="http://www.w3.org/2000/svg" width="1700" height="977" viewBox="0 0 1700 977" role="img" aria-label="Taxonomy Tree Stress" data-style="accent-blueprint" data-diagram-type="taxonomy_tree">
<defs>
  <pattern id="blueprint-grid-small" width="12" height="12" patternUnits="userSpaceOnUse"><path d="M 12 0 H 0 V 12" fill="none" stroke="#FFFFFF" stroke-opacity="0.08" stroke-width="0.7"/></pattern>
  <pattern id="blueprint-grid" width="60" height="60" patternUnits="userSpaceOnUse"><rect width="60" height="60" fill="url(#blueprint-grid-small)"/><path d="M 60 0 H 0 V 60" fill="none" stroke="#FFFFFF" stroke-opacity="0.14" stroke-width="1"/> </pattern>
  <marker id="arrow" markerWidth="10" markerHeight="10" refX="8.5" refY="3" orient="auto" markerUnits="strokeWidth"><path d="M0,0 L0,6 L9,3 z" fill="context-stroke"/></marker>
  <marker id="arrow-fanout" markerWidth="10" markerHeight="10" refX="8.5" refY="3" orient="auto" markerUnits="strokeWidth"><path d="M0,0 L0,6 L9,3 z" fill="context-stroke"/></marker>
  <marker id="arrow-fanin" markerWidth="10" markerHeight="10" refX="8.5" refY="3" orient="auto" markerUnits="strokeWidth"><path d="M0,0 L0,6 L9,3 z" fill="context-stroke"/></marker>
  <style>
    [data-style="accent-blueprint"] .title{font:700 27px IBM Plex Mono,JetBrains Mono,Consolas,monospace;fill:#F4F8FF;letter-spacing:.04em;text-transform:uppercase}
    [data-style="accent-blueprint"] .subtitle{font:400 13px IBM Plex Sans,Inter,Roboto Condensed,DIN,Segoe UI,Aptos,Arial,sans-serif;fill:#C9DAF5}
    [data-style="accent-blueprint"] .group-label{font:700 15px IBM Plex Mono,JetBrains Mono,Consolas,monospace;fill:#C9DAF5;letter-spacing:.08em;text-transform:uppercase}
    [data-style="accent-blueprint"] .card-title{font:700 17px IBM Plex Sans,Inter,Roboto Condensed,DIN,Segoe UI,Aptos,Arial,sans-serif;fill:#F4F8FF}
    [data-style="accent-blueprint"] .card-sub{font:500 13px IBM Plex Sans,Inter,Roboto Condensed,DIN,Segoe UI,Aptos,Arial,sans-serif;fill:#C9DAF5}
    [data-style="accent-blueprint"] .edge{fill:none;stroke:#F4F8FF;stroke-width:1.5;stroke-linecap:round;stroke-linejoin:round;opacity:0.88}
    [data-style="accent-blueprint"] .fanout{stroke:#FF9F2E;opacity:0.9}
    [data-style="accent-blueprint"] .fanin{stroke:#6EE66E;opacity:0.9}
    [data-style="accent-blueprint"] .route-shared{marker-end:none}
    [data-style="accent-blueprint"] .edge-dashed{stroke-dasharray:6 5;opacity:0.68}
    [data-style="accent-blueprint"] .note{font:500 14px IBM Plex Sans,Inter,Roboto Condensed,DIN,Segoe UI,Aptos,Arial,sans-serif;fill:#C9DAF5}
    [data-style="accent-blueprint"] .mono{font-family:IBM Plex Mono,JetBrains Mono,Consolas,monospace}
    [data-style="accent-blueprint"] .table-header{font:700 15.5px IBM Plex Mono,JetBrains Mono,Consolas,monospace;fill:#F4F8FF;letter-spacing:.08em;text-transform:uppercase}
    [data-style="accent-blueprint"] .table-cell{font:500 17px IBM Plex Sans,Inter,Roboto Condensed,DIN,Segoe UI,Aptos,Arial,sans-serif;fill:#F4F8FF}
    [data-style="accent-blueprint"] .table-cell-secondary{font:500 17px IBM Plex Sans,Inter,Roboto Condensed,DIN,Segoe UI,Aptos,Arial,sans-serif;fill:#C9DAF5}
    [data-style="accent-blueprint"] .info-panel-title{font:700 15px IBM Plex Mono,JetBrains Mono,Consolas,monospace;fill:#F4F8FF;letter-spacing:.08em;text-transform:uppercase}
    [data-style="accent-blueprint"] .info-panel-item{font:500 14px IBM Plex Sans,Inter,Roboto Condensed,DIN,Segoe UI,Aptos,Arial,sans-serif;fill:#C9DAF5}
    [data-style="accent-blueprint"] .tree-level-label{font:700 15px IBM Plex Mono,JetBrains Mono,Consolas,monospace;fill:#C9DAF5;letter-spacing:.08em;text-transform:uppercase}
    [data-style="accent-blueprint"] .hub-label{font:700 15px IBM Plex Mono,JetBrains Mono,Consolas,monospace;fill:#C9DAF5;letter-spacing:.08em;text-transform:uppercase}
    [data-style="accent-blueprint"] .icon-line{fill:none;stroke-width:1.3;stroke-linecap:round;stroke-linejoin:round}
  </style>
</defs>
<rect x="0" y="0" width="1700" height="977" rx="0" fill="#062B5F"/>
<rect x="0" y="0" width="1700" height="977" rx="0" fill="url(#blueprint-grid)" opacity="1"/>
<text x="850.0" y="54" text-anchor="middle" class="title">Taxonomy Tree Stress</text>
<text x="850.0" y="80" text-anchor="middle" class="subtitle">Stress contract with multiple levels and many leaf nodes</text>
<path d="M 850.0 215.0 L 850.0 267.0 Q 850.0 281.0 836.0 281.0 L 468.0 281.0 Q 454.0 281.0 454.0 295.0 L 454.0 347.0" class="edge taxonomy-link" marker-end="url(#arrow)" data-parent="root" data-child="maps" data-lane-y="281.0" style="stroke:#16D9FF;opacity:0.92"/>
<path d="M 850.0 215.0 L 850.0 267.0 Q 850.0 281.0 836.0 281.0 L 732.0 281.0 Q 718.0 281.0 718.0 295.0 L 718.0 347.0" class="edge taxonomy-link" marker-end="url(#arrow)" data-parent="root" data-child="registries" data-lane-y="281.0" style="stroke:#16D9FF;opacity:0.92"/>
<path d="M 850.0 215.0 L 850.0 267.0 Q 850.0 281.0 864.0 281.0 L 968.0 281.0 Q 982.0 281.0 982.0 295.0 L 982.0 347.0" class="edge taxonomy-link" marker-end="url(#arrow)" data-parent="root" data-child="modules" data-lane-y="281.0" style="stroke:#16D9FF;opacity:0.92"/>
<path d="M 850.0 215.0 L 850.0 267.0 Q 850.0 281.0 864.0 281.0 L 1232.0 281.0 Q 1246.0 281.0 1246.0 295.0 L 1246.0 347.0" class="edge taxonomy-link" marker-end="url(#arrow)" data-parent="root" data-child="evidence" data-lane-y="281.0" style="stroke:#16D9FF;opacity:0.92"/>
<path d="M 454.0 447.0 L 454.0 472.6 Q 454.0 486.6 440.0 486.6 L 204.0 486.6 Q 190.0 486.6 190.0 500.6 L 190.0 579.0" class="edge taxonomy-link" marker-end="url(#arrow)" data-parent="maps" data-child="domain_map" data-lane-y="486.6" style="stroke:#16D9FF;opacity:0.92"/>
<path d="M 454.0 447.0 L 454.0 579.0" class="edge taxonomy-link" marker-end="url(#arrow)" data-parent="maps" data-child="ownership_map" data-lane-y="486.6" style="stroke:#16D9FF;opacity:0.92"/>
<path d="M 454.0 447.0 L 454.0 472.6 Q 454.0 486.6 468.0 486.6 L 704.0 486.6 Q 718.0 486.6 718.0 500.6 L 718.0 579.0" class="edge taxonomy-link" marker-end="url(#arrow)" data-parent="maps" data-child="flow_overview" data-lane-y="486.6" style="stroke:#16D9FF;opacity:0.92"/>
<path d="M 718.0 447.0 L 718.0 490.2 Q 718.0 504.2 732.0 504.2 L 968.0 504.2 Q 982.0 504.2 982.0 518.2 L 982.0 579.0" class="edge taxonomy-link" marker-end="url(#arrow)" data-parent="registries" data-child="glossary" data-lane-y="504.2" style="stroke:#FFD84D;opacity:0.92"/>
<path d="M 718.0 447.0 L 718.0 490.2 Q 718.0 504.2 732.0 504.2 L 1232.0 504.2 Q 1246.0 504.2 1246.0 518.2 L 1246.0 579.0" class="edge taxonomy-link" marker-end="url(#arrow)" data-parent="registries" data-child="parameter_register" data-lane-y="504.2" style="stroke:#FFD84D;opacity:0.92"/>
<path d="M 718.0 447.0 L 718.0 490.2 Q 718.0 504.2 732.0 504.2 L 1496.0 504.2 Q 1510.0 504.2 1510.0 518.2 L 1510.0 579.0" class="edge taxonomy-link" marker-end="url(#arrow)" data-parent="registries" data-child="risk_register" data-lane-y="504.2" style="stroke:#FFD84D;opacity:0.92"/>
<path d="M 982.0 447.0 L 982.0 507.8 Q 982.0 521.8 968.0 521.8 L 600.0 521.8 Q 586.0 521.8 586.0 535.8 L 586.0 701.0 Q 586.0 715.0 572.0 715.0 L 204.0 715.0 Q 190.0 715.0 190.0 729.0 L 190.0 767.0" class="edge taxonomy-link" marker-end="url(#arrow)" data-parent="modules" data-child="work_module" data-lane-y="521.8" data-corridor-x="586.0" data-row-lane-y="715.0" style="stroke:#6EE66E;opacity:0.92"/>
<path d="M 982.0 447.0 L 982.0 507.8 Q 982.0 521.8 968.0 521.8 L 600.0 521.8 Q 586.0 521.8 586.0 535.8 L 586.0 701.0 Q 586.0 715.0 572.0 715.0 L 468.0 715.0 Q 454.0 715.0 454.0 729.0 L 454.0 767.0" class="edge taxonomy-link" marker-end="url(#arrow)" data-parent="modules" data-child="training_module" data-lane-y="521.8" data-corridor-x="586.0" data-row-lane-y="715.0" style="stroke:#6EE66E;opacity:0.92"/>
<path d="M 982.0 447.0 L 982.0 507.8 Q 982.0 521.8 968.0 521.8 L 600.0 521.8 Q 586.0 521.8 586.0 535.8 L 586.0 701.0 Q 586.0 715.0 600.0 715.0 L 704.0 715.0 Q 718.0 715.0 718.0 729.0 L 718.0 767.0" class="edge taxonomy-link" marker-end="url(#arrow)" data-parent="modules" data-child="playbook" data-lane-y="521.8" data-corridor-x="586.0" data-row-lane-y="715.0" style="stroke:#6EE66E;opacity:0.92"/>
<path d="M 1246.0 447.0 L 1246.0 525.4 Q 1246.0 539.4 1232.0 539.4 L 1128.0 539.4 Q 1114.0 539.4 1114.0 553.4 L 1114.0 717.0 Q 1114.0 731.0 1100.0 731.0 L 996.0 731.0 Q 982.0 731.0 982.0 745.0 L 982.0 767.0" class="edge taxonomy-link" marker-end="url(#arrow)" data-parent="evidence" data-child="source_doc" data-lane-y="539.4" data-corridor-x="1114.0" data-row-lane-y="731.0" style="stroke:#B56CFF;opacity:0.92"/>
<path d="M 1246.0 447.0 L 1246.0 525.4 Q 1246.0 539.4 1232.0 539.4 L 1128.0 539.4 Q 1114.0 539.4 1114.0 553.4 L 1114.0 717.0 Q 1114.0 731.0 1128.0 731.0 L 1232.0 731.0 Q 1246.0 731.0 1246.0 745.0 L 1246.0 767.0" class="edge taxonomy-link" marker-end="url(#arrow)" data-parent="evidence" data-child="quality_record" data-lane-y="539.4" data-corridor-x="1114.0" data-row-lane-y="731.0" style="stroke:#B56CFF;opacity:0.92"/>
<path d="M 1246.0 447.0 L 1246.0 525.4 Q 1246.0 539.4 1232.0 539.4 L 1128.0 539.4 Q 1114.0 539.4 1114.0 553.4 L 1114.0 717.0 Q 1114.0 731.0 1128.0 731.0 L 1496.0 731.0 Q 1510.0 731.0 1510.0 745.0 L 1510.0 767.0" class="edge taxonomy-link" marker-end="url(#arrow)" data-parent="evidence" data-child="test_result" data-lane-y="539.4" data-corridor-x="1114.0" data-row-lane-y="731.0" style="stroke:#B56CFF;opacity:0.92"/>
<g id="node-root" class="card node-card"><rect x="740.0" y="115.0" width="220.0" height="100.0" rx="6" fill="#FFFFFF" fill-opacity="0.03" stroke="#16D9FF" stroke-width="1.3"/><circle cx="768.0" cy="165.0" r="8" fill="none" stroke="#16D9FF" stroke-width="1.2"/><path d="M763.0,165.0 H773.0 M768.0,160.0 V170.0" class="icon-line" stroke="#16D9FF"/><text x="794.0" y="151.5486" text-anchor="start" class="card-title" style="font-size:23.2px">Knowledge</text><text x="794.0" y="176.62619999999998" text-anchor="start" class="card-title" style="font-size:23.2px">Asset System</text><text x="794.0" y="199.9434" text-anchor="start" class="card-sub" style="font-size:17.3px">root class</text></g>
<g id="node-maps" class="card node-card"><rect x="344.0" y="347.0" width="220.0" height="100.0" rx="6" fill="#FFFFFF" fill-opacity="0.03" stroke="#16D9FF" stroke-width="1.3"/><rect x="362.0" y="390.0" width="20" height="16" rx="3" fill="none" stroke="#16D9FF" stroke-width="1.2"/><path d="M362.0,395.0 H382.0 M372.0,390.0 V406.0" class="icon-line" stroke="#16D9FF"/><text x="398.0" y="396.0874" text-anchor="start" class="card-title" style="font-size:23.2px">Map Assets</text><text x="398.0" y="419.40459999999996" text-anchor="start" class="card-sub" style="font-size:17.3px">structured views</text></g>
<g id="node-registries" class="card node-card"><rect x="608.0" y="347.0" width="220.0" height="100.0" rx="6" fill="#FFFFFF" fill-opacity="0.03" stroke="#FFD84D" stroke-width="1.3"/><path d="M636.0,387.0 L646.0,405.0 H626.0 Z" fill="none" stroke="#FFD84D" stroke-width="1.2"/><path d="M636.0,394.0 V400.0 M636.0,404.0 V404.0" class="icon-line" stroke="#FFD84D"/><text x="662.0" y="383.5486" text-anchor="start" class="card-title" style="font-size:23.2px">Registry</text><text x="662.0" y="408.62620000000004" text-anchor="start" class="card-title" style="font-size:23.2px">Assets</text><text x="662.0" y="431.9434" text-anchor="start" class="card-sub" style="font-size:17.3px">controlled tables</text></g>
<g id="node-modules" class="card node-card"><rect x="872.0" y="347.0" width="220.0" height="100.0" rx="6" fill="#FFFFFF" fill-opacity="0.03" stroke="#6EE66E" stroke-width="1.3"/><rect x="890.0" y="390.0" width="20" height="16" rx="3" fill="none" stroke="#6EE66E" stroke-width="1.2"/><path d="M890.0,395.0 H910.0 M900.0,390.0 V406.0" class="icon-line" stroke="#6EE66E"/><text x="926.0" y="383.5486" text-anchor="start" class="card-title" style="font-size:23.2px">Module</text><text x="926.0" y="408.62620000000004" text-anchor="start" class="card-title" style="font-size:23.2px">Assets</text><text x="926.0" y="431.9434" text-anchor="start" class="card-sub" style="font-size:17.3px">reusable packages</text></g>
<g id="node-evidence" class="card node-card"><rect x="1136.0" y="347.0" width="220.0" height="100.0" rx="6" fill="#FFFFFF" fill-opacity="0.03" stroke="#C9DAF5" stroke-width="1.3"/><path d="M1154.0,387.0 H1168.0 L1174.0,393.0 V407.0 H1154.0 Z" fill="none" stroke="#C9DAF5" stroke-width="1.2"/><path d="M1168.0,387.0 V393.0 H1174.0" class="icon-line" stroke="#C9DAF5"/><text x="1190.0" y="383.5486" text-anchor="start" class="card-title" style="font-size:23.2px">Evidence</text><text x="1190.0" y="408.62620000000004" text-anchor="start" class="card-title" style="font-size:23.2px">Assets</text><text x="1190.0" y="431.9434" text-anchor="start" class="card-sub" style="font-size:17.3px">source-backed pr...</text></g>
<g id="node-domain_map" class="card node-card"><rect x="80.0" y="579.0" width="220.0" height="100.0" rx="6" fill="#FFFFFF" fill-opacity="0.03" stroke="#16D9FF" stroke-width="1.3"/><rect x="98.0" y="622.0" width="20" height="16" rx="3" fill="none" stroke="#16D9FF" stroke-width="1.2"/><path d="M98.0,627.0 H118.0 M108.0,622.0 V638.0" class="icon-line" stroke="#16D9FF"/><text x="134.0" y="618.5834" text-anchor="start" class="card-title" style="font-size:23.2px">Domain Map</text><text x="134.0" y="641.9005999999999" text-anchor="start" class="card-sub" style="font-size:17.3px">systems +</text><text x="134.0" y="660.9086" text-anchor="start" class="card-sub" style="font-size:17.3px">boundaries</text></g>
<g id="node-ownership_map" class="card node-card"><rect x="344.0" y="579.0" width="220.0" height="100.0" rx="6" fill="#FFFFFF" fill-opacity="0.03" stroke="#FF9F2E" stroke-width="1.3"/><path d="M372.0,619.0 L382.0,629.0 L372.0,639.0 L362.0,629.0 Z" fill="none" stroke="#FF9F2E" stroke-width="1.2"/><path d="M368.0,629.0 H376.0" class="icon-line" stroke="#FF9F2E"/><text x="398.0" y="615.5486000000001" text-anchor="start" class="card-title" style="font-size:23.2px">Ownership</text><text x="398.0" y="640.6262" text-anchor="start" class="card-title" style="font-size:23.2px">Map</text><text x="398.0" y="663.9434000000001" text-anchor="start" class="card-sub" style="font-size:17.3px">responsibility</text></g>
<g id="node-flow_overview" class="card node-card"><rect x="608.0" y="579.0" width="220.0" height="100.0" rx="6" fill="#FFFFFF" fill-opacity="0.03" stroke="#FF9F2E" stroke-width="1.3"/><circle cx="630.0" cy="630.0" r="4" fill="none" stroke="#FF9F2E" stroke-width="1.6"/><circle cx="644.0" cy="623.0" r="4" fill="none" stroke="#FF9F2E" stroke-width="1.6"/><circle cx="644.0" cy="637.0" r="4" fill="none" stroke="#FF9F2E" stroke-width="1.6"/><path d="M634.0,630.0 H638.0 M640.0,626.0 L638.0,630.0 L640.0,634.0" class="icon-line" stroke="#FF9F2E"/><text x="662.0" y="615.5486000000001" text-anchor="start" class="card-title" style="font-size:23.2px">Knowledge</text><text x="662.0" y="640.6262" text-anchor="start" class="card-title" style="font-size:23.2px">Flow Overvi...</text><text x="662.0" y="663.9434000000001" text-anchor="start" class="card-sub" style="font-size:17.3px">high-level movem...</text></g>
<g id="node-glossary" class="card node-card"><rect x="872.0" y="579.0" width="220.0" height="100.0" rx="6" fill="#FFFFFF" fill-opacity="0.03" stroke="#B56CFF" stroke-width="1.3"/><path d="M890.0,619.0 H906.0 Q910.0,619.0 910.0,623.0 V638.0 H890.0 Z" fill="none" stroke="#B56CFF" stroke-width="1.2"/><path d="M895.0,625.0 H904.0 M895.0,631.0 H904.0" class="icon-line" stroke="#B56CFF"/><text x="926.0" y="628.0874" text-anchor="start" class="card-title" style="font-size:23.2px">Glossary</text><text x="926.0" y="651.4046" text-anchor="start" class="card-sub" style="font-size:17.3px">controlled terms</text></g>
<g id="node-parameter_register" class="card node-card"><rect x="1136.0" y="579.0" width="220.0" height="100.0" rx="6" fill="#FFFFFF" fill-opacity="0.03" stroke="#FFD84D" stroke-width="1.3"/><path d="M1164.0,619.0 L1174.0,637.0 H1154.0 Z" fill="none" stroke="#FFD84D" stroke-width="1.2"/><path d="M1164.0,626.0 V632.0 M1164.0,636.0 V636.0" class="icon-line" stroke="#FFD84D"/><text x="1190.0" y="615.5486000000001" text-anchor="start" class="card-title" style="font-size:23.2px">Parameter</text><text x="1190.0" y="640.6262" text-anchor="start" class="card-title" style="font-size:23.2px">Register</text><text x="1190.0" y="663.9434000000001" text-anchor="start" class="card-sub" style="font-size:17.3px">CTQ families</text></g>
<g id="node-risk_register" class="card node-card"><rect x="1400.0" y="579.0" width="220.0" height="100.0" rx="6" fill="#FFFFFF" fill-opacity="0.03" stroke="#FFD84D" stroke-width="1.3"/><path d="M1428.0,619.0 L1437.0,624.0 V634.0 L1428.0,639.0 L1419.0,634.0 V624.0 Z" fill="none" stroke="#FFD84D" stroke-width="1.2"/><path d="M1424.0,629.0 L1427.0,633.0 L1433.0,625.0" class="icon-line" stroke="#FFD84D"/><text x="1454.0" y="615.5486000000001" text-anchor="start" class="card-title" style="font-size:23.2px">Risk</text><text x="1454.0" y="640.6262" text-anchor="start" class="card-title" style="font-size:23.2px">Register</text><text x="1454.0" y="663.9434000000001" text-anchor="start" class="card-sub" style="font-size:17.3px">constraints</text></g>
<g id="node-work_module" class="card node-card"><rect x="80.0" y="767.0" width="220.0" height="100.0" rx="6" fill="#FFFFFF" fill-opacity="0.03" stroke="#6EE66E" stroke-width="1.3"/><rect x="98.0" y="810.0" width="20" height="16" rx="3" fill="none" stroke="#6EE66E" stroke-width="1.2"/><path d="M98.0,815.0 H118.0 M108.0,810.0 V826.0" class="icon-line" stroke="#6EE66E"/><text x="134.0" y="816.0874" text-anchor="start" class="card-title" style="font-size:23.2px">Work Module</text><text x="134.0" y="839.4046" text-anchor="start" class="card-sub" style="font-size:17.3px">approved package</text></g>
<g id="node-training_module" class="card node-card"><rect x="344.0" y="767.0" width="220.0" height="100.0" rx="6" fill="#FFFFFF" fill-opacity="0.03" stroke="#6EE66E" stroke-width="1.3"/><rect x="362.0" y="810.0" width="20" height="16" rx="3" fill="none" stroke="#6EE66E" stroke-width="1.2"/><path d="M362.0,815.0 H382.0 M372.0,810.0 V826.0" class="icon-line" stroke="#6EE66E"/><text x="398.0" y="803.5486000000001" text-anchor="start" class="card-title" style="font-size:23.2px">Training</text><text x="398.0" y="828.6262" text-anchor="start" class="card-title" style="font-size:23.2px">Module</text><text x="398.0" y="851.9434000000001" text-anchor="start" class="card-sub" style="font-size:17.3px">reuse content</text></g>
<g id="node-playbook" class="card node-card"><rect x="608.0" y="767.0" width="220.0" height="100.0" rx="6" fill="#FFFFFF" fill-opacity="0.03" stroke="#FFD84D" stroke-width="1.3"/><path d="M636.0,807.0 L645.0,812.0 V822.0 L636.0,827.0 L627.0,822.0 V812.0 Z" fill="none" stroke="#FFD84D" stroke-width="1.2"/><path d="M632.0,817.0 L635.0,821.0 L641.0,813.0" class="icon-line" stroke="#FFD84D"/><text x="662.0" y="803.5486000000001" text-anchor="start" class="card-title" style="font-size:23.2px">Exception</text><text x="662.0" y="828.6262" text-anchor="start" class="card-title" style="font-size:23.2px">Playbook</text><text x="662.0" y="851.9434000000001" text-anchor="start" class="card-sub" style="font-size:17.3px">risk response</text></g>
<g id="node-source_doc" class="card node-card"><rect x="872.0" y="767.0" width="220.0" height="100.0" rx="6" fill="#FFFFFF" fill-opacity="0.03" stroke="#F4F8FF" stroke-width="1.3"/><path d="M890.0,807.0 H904.0 L910.0,813.0 V827.0 H890.0 Z" fill="none" stroke="#F4F8FF" stroke-width="1.2"/><path d="M904.0,807.0 V813.0 H910.0" class="icon-line" stroke="#F4F8FF"/><text x="926.0" y="803.5486000000001" text-anchor="start" class="card-title" style="font-size:23.2px">Source</text><text x="926.0" y="828.6262" text-anchor="start" class="card-title" style="font-size:23.2px">Document</text><text x="926.0" y="851.9434000000001" text-anchor="start" class="card-sub" style="font-size:17.3px">authority</text></g>
<g id="node-quality_record" class="card node-card"><rect x="1136.0" y="767.0" width="220.0" height="100.0" rx="6" fill="#FFFFFF" fill-opacity="0.03" stroke="#FFD84D" stroke-width="1.3"/><path d="M1164.0,807.0 L1174.0,825.0 H1154.0 Z" fill="none" stroke="#FFD84D" stroke-width="1.2"/><path d="M1164.0,814.0 V820.0 M1164.0,824.0 V824.0" class="icon-line" stroke="#FFD84D"/><text x="1190.0" y="803.5486000000001" text-anchor="start" class="card-title" style="font-size:23.2px">Quality</text><text x="1190.0" y="828.6262" text-anchor="start" class="card-title" style="font-size:23.2px">Record</text><text x="1190.0" y="851.9434000000001" text-anchor="start" class="card-sub" style="font-size:17.3px">approval proof</text></g>
<g id="node-test_result" class="card node-card"><rect x="1400.0" y="767.0" width="220.0" height="100.0" rx="6" fill="#FFFFFF" fill-opacity="0.03" stroke="#C9DAF5" stroke-width="1.3"/><path d="M1418.0,807.0 H1432.0 L1438.0,813.0 V827.0 H1418.0 Z" fill="none" stroke="#C9DAF5" stroke-width="1.2"/><path d="M1432.0,807.0 V813.0 H1438.0" class="icon-line" stroke="#C9DAF5"/><text x="1454.0" y="816.0874" text-anchor="start" class="card-title" style="font-size:23.2px">Test Result</text><text x="1454.0" y="839.4046" text-anchor="start" class="card-sub" style="font-size:17.3px">measured evidence</text></g>
<text x="70" y="101.0" class="tree-level-label">Level 0</text>
<text x="70" y="333.0" class="tree-level-label">Level 1</text>
<text x="70" y="565.0" class="tree-level-label">Level 2</text>
<text x="850.0" y="949" text-anchor="middle" class="note">Stress template: wide trees should preserve level labels, readable cards, and parent-child connectors.</text>
</svg>
