<svg xmlns="http://www.w3.org/2000/svg" width="1700" height="1179" viewBox="0 0 1700 1179" role="img" aria-label="Boundary Ownership Map Reference" data-style="accent-blueprint" data-diagram-type="boundary_ownership_map" data-variant="domain_ownership_matrix">
<defs>
  <pattern id="blueprint-grid-small" width="12" height="12" patternUnits="userSpaceOnUse"><path d="M 12 0 H 0 V 12" fill="none" stroke="#FFFFFF" stroke-opacity="0.08" stroke-width="0.7"/></pattern>
  <pattern id="blueprint-grid" width="60" height="60" patternUnits="userSpaceOnUse"><rect width="60" height="60" fill="url(#blueprint-grid-small)"/><path d="M 60 0 H 0 V 60" fill="none" stroke="#FFFFFF" stroke-opacity="0.14" stroke-width="1"/> </pattern>
  <marker id="arrow" markerWidth="10" markerHeight="10" refX="8.5" refY="3" orient="auto" markerUnits="strokeWidth"><path d="M0,0 L0,6 L9,3 z" fill="context-stroke"/></marker>
  <marker id="arrow-fanout" markerWidth="10" markerHeight="10" refX="8.5" refY="3" orient="auto" markerUnits="strokeWidth"><path d="M0,0 L0,6 L9,3 z" fill="context-stroke"/></marker>
  <marker id="arrow-fanin" markerWidth="10" markerHeight="10" refX="8.5" refY="3" orient="auto" markerUnits="strokeWidth"><path d="M0,0 L0,6 L9,3 z" fill="context-stroke"/></marker>
  <style>
    [data-style="accent-blueprint"] .title{font:700 27px IBM Plex Mono,JetBrains Mono,Consolas,monospace;fill:#F4F8FF;letter-spacing:.04em;text-transform:uppercase}
    [data-style="accent-blueprint"] .subtitle{font:400 13px IBM Plex Sans,Inter,Roboto Condensed,DIN,Segoe UI,Aptos,Arial,sans-serif;fill:#C9DAF5}
    [data-style="accent-blueprint"] .group-label{font:700 15px IBM Plex Mono,JetBrains Mono,Consolas,monospace;fill:#C9DAF5;letter-spacing:.08em;text-transform:uppercase}
    [data-style="accent-blueprint"] .card-title{font:700 17px IBM Plex Sans,Inter,Roboto Condensed,DIN,Segoe UI,Aptos,Arial,sans-serif;fill:#F4F8FF}
    [data-style="accent-blueprint"] .card-sub{font:500 13px IBM Plex Sans,Inter,Roboto Condensed,DIN,Segoe UI,Aptos,Arial,sans-serif;fill:#C9DAF5}
    [data-style="accent-blueprint"] .edge{fill:none;stroke:#F4F8FF;stroke-width:1.5;stroke-linecap:round;stroke-linejoin:round;opacity:0.88}
    [data-style="accent-blueprint"] .fanout{stroke:#FF9F2E;opacity:0.9}
    [data-style="accent-blueprint"] .fanin{stroke:#6EE66E;opacity:0.9}
    [data-style="accent-blueprint"] .route-shared{marker-end:none}
    [data-style="accent-blueprint"] .edge-dashed{stroke-dasharray:6 5;opacity:0.68}
    [data-style="accent-blueprint"] .note{font:500 14px IBM Plex Sans,Inter,Roboto Condensed,DIN,Segoe UI,Aptos,Arial,sans-serif;fill:#C9DAF5}
    [data-style="accent-blueprint"] .mono{font-family:IBM Plex Mono,JetBrains Mono,Consolas,monospace}
    [data-style="accent-blueprint"] .table-header{font:700 15.5px IBM Plex Mono,JetBrains Mono,Consolas,monospace;fill:#F4F8FF;letter-spacing:.08em;text-transform:uppercase}
    [data-style="accent-blueprint"] .table-cell{font:500 17px IBM Plex Sans,Inter,Roboto Condensed,DIN,Segoe UI,Aptos,Arial,sans-serif;fill:#F4F8FF}
    [data-style="accent-blueprint"] .table-cell-secondary{font:500 17px IBM Plex Sans,Inter,Roboto Condensed,DIN,Segoe UI,Aptos,Arial,sans-serif;fill:#C9DAF5}
    [data-style="accent-blueprint"] .info-panel-title{font:700 15px IBM Plex Mono,JetBrains Mono,Consolas,monospace;fill:#F4F8FF;letter-spacing:.08em;text-transform:uppercase}
    [data-style="accent-blueprint"] .info-panel-item{font:500 14px IBM Plex Sans,Inter,Roboto Condensed,DIN,Segoe UI,Aptos,Arial,sans-serif;fill:#C9DAF5}
    [data-style="accent-blueprint"] .tree-level-label{font:700 15px IBM Plex Mono,JetBrains Mono,Consolas,monospace;fill:#C9DAF5;letter-spacing:.08em;text-transform:uppercase}
    [data-style="accent-blueprint"] .hub-label{font:700 15px IBM Plex Mono,JetBrains Mono,Consolas,monospace;fill:#C9DAF5;letter-spacing:.08em;text-transform:uppercase}
    [data-style="accent-blueprint"] .icon-line{fill:none;stroke-width:1.3;stroke-linecap:round;stroke-linejoin:round}
  </style>
</defs>
<rect x="0" y="0" width="1700" height="1179" rx="0" fill="#062B5F"/>
<rect x="0" y="0" width="1700" height="1179" rx="0" fill="url(#blueprint-grid)" opacity="1"/>
<text x="850.0" y="54" text-anchor="middle" class="title">Boundary Ownership Map Reference</text>
<text x="850.0" y="80.0" text-anchor="middle" class="subtitle">Domain swimlanes, enterprise boundary, external partners, and RACI ownership table</text>
<rect x="70" y="107" width="1560" height="56" rx="6" fill="#FFFFFF" fill-opacity="0.03" stroke="#F4F8FF" stroke-opacity="0.58" stroke-width="1"/>
<rect x="88" y="122" width="28" height="14" rx="3" fill="none" stroke="#16D9FF" stroke-width="1.3"/>
<text x="128" y="133" class="note" style="font-size:14px">Domain</text>
<rect x="216" y="122" width="28" height="14" rx="3" fill="none" stroke="#6EE66E" stroke-width="1.3"/>
<text x="256" y="133" class="note" style="font-size:14px">System / Application</text>
<rect x="446" y="122" width="28" height="14" rx="3" fill="none" stroke="#FFD84D" stroke-width="1.3"/>
<text x="486" y="133" class="note" style="font-size:14px">Data / Asset</text>
<rect x="612" y="122" width="28" height="14" rx="3" fill="none" stroke="#B56CFF" stroke-width="1.3"/>
<text x="652" y="133" class="note" style="font-size:14px">External</text>
<line x1="746" y1="129" x2="776" y2="129" stroke="#F4F8FF" stroke-width="1.4"/>
<text x="786" y="133" class="note" style="font-size:14px">Ownership Boundary</text>
<line x1="960" y1="129" x2="990" y2="129" stroke="#B56CFF" stroke-width="1.4" stroke-dasharray="6 5"/>
<text x="1000" y="133" class="note" style="font-size:14px">Shared Responsibility</text>
<path d="M 1198 129 L 1228 129" class="edge" marker-end="url(#arrow)" style="stroke:#FF9F2E;opacity:0.95"/>
<text x="1238" y="133" class="note" style="font-size:14px">Data Flow</text>
<rect x="70" y="189" width="1560" height="506" rx="8" fill="#FFFFFF" fill-opacity="0.03" stroke="#F4F8FF" stroke-opacity="0.7" stroke-width="1" stroke-dasharray="10 7"/>
<text x="850.0" y="217" text-anchor="middle" class="group-label">Enterprise Boundary</text>
<rect x="98.0" y="247" width="286.4" height="420" rx="6" fill="#FFFFFF" fill-opacity="0.03" stroke="#16D9FF" stroke-opacity="0.7" stroke-width="1"/>
<text x="241.2" y="271" text-anchor="middle" class="group-label" style="fill:#F4F8FF">Customer Domain</text>
<text x="241.2" y="290" text-anchor="middle" class="note" style="font-size:14px">customer data + service</text>
<g id="matrix-item-crm" class="boundary-matrix-item" data-kind="registry"><rect x="116.0" y="305" width="250.39999999999998" height="78" rx="6" fill="#FFFFFF" fill-opacity="0.03" stroke="#FFD84D" stroke-width="1.2"/><path d="M140.0,334.0 L150.0,352.0 H130.0 Z" fill="none" stroke="#FFD84D" stroke-width="1.2"/><path d="M140.0,341.0 V347.0 M140.0,351.0 V351.0" class="icon-line" stroke="#FFD84D"/><text x="158.0" y="342.21999999999997" text-anchor="start" class="matrix-title" style="font-size:19.4px;font-weight:700;fill:#F4F8FF">CRM System</text><text x="158.0" y="363.21999999999997" text-anchor="start" class="matrix-sub" style="font-size:15px;font-weight:500;fill:#C9DAF5">marketing automation</text></g>
<g id="matrix-item-customer_data" class="boundary-matrix-item" data-kind="package"><rect x="116.0" y="393" width="250.39999999999998" height="78" rx="6" fill="#FFFFFF" fill-opacity="0.03" stroke="#6EE66E" stroke-width="1.2"/><rect x="130.0" y="425.0" width="20" height="16" rx="3" fill="none" stroke="#6EE66E" stroke-width="1.2"/><path d="M130.0,430.0 H150.0 M140.0,425.0 V441.0" class="icon-line" stroke="#6EE66E"/><text x="158.0" y="430.21999999999997" text-anchor="start" class="matrix-title" style="font-size:19.4px;font-weight:700;fill:#F4F8FF">Customer Data</text><text x="158.0" y="451.21999999999997" text-anchor="start" class="matrix-sub" style="font-size:15px;font-weight:500;fill:#C9DAF5">golden records</text></g>
<g id="matrix-item-customer_domain_owner" class="boundary-matrix-item" data-kind="quality"><rect x="116.0" y="481" width="250.39999999999998" height="78" rx="6" fill="#FFFFFF" fill-opacity="0.03" stroke="#FFD84D" stroke-width="1.2"/><path d="M140.0,510.0 L150.0,528.0 H130.0 Z" fill="none" stroke="#FFD84D" stroke-width="1.2"/><path d="M140.0,517.0 V523.0 M140.0,527.0 V527.0" class="icon-line" stroke="#FFD84D"/><text x="158.0" y="507.5" text-anchor="start" class="matrix-title" style="font-size:19.4px;font-weight:700;fill:#F4F8FF">Customer Data</text><text x="158.0" y="528.94" text-anchor="start" class="matrix-title" style="font-size:19.4px;font-weight:700;fill:#F4F8FF">Owner</text><text x="158.0" y="549.94" text-anchor="start" class="matrix-sub" style="font-size:15px;font-weight:500;fill:#C9DAF5">owner / steward</text></g>
<rect x="402.4" y="247" width="286.4" height="420" rx="6" fill="#FFFFFF" fill-opacity="0.03" stroke="#16D9FF" stroke-opacity="0.7" stroke-width="1"/>
<text x="545.5999999999999" y="271" text-anchor="middle" class="group-label" style="fill:#F4F8FF">Product Domain</text>
<text x="545.5999999999999" y="290" text-anchor="middle" class="note" style="font-size:14px">portfolio + lifecycle</text>
<g id="matrix-item-plm" class="boundary-matrix-item" data-kind="source"><rect x="420.4" y="305" width="250.39999999999998" height="78" rx="6" fill="#FFFFFF" fill-opacity="0.03" stroke="#F4F8FF" stroke-width="1.2"/><path d="M434.4,334.0 H448.4 L454.4,340.0 V354.0 H434.4 Z" fill="none" stroke="#F4F8FF" stroke-width="1.2"/><path d="M448.4,334.0 V340.0 H454.4" class="icon-line" stroke="#F4F8FF"/><text x="462.4" y="342.21999999999997" text-anchor="start" class="matrix-title" style="font-size:19.4px;font-weight:700;fill:#F4F8FF">PLM System</text><text x="462.4" y="363.21999999999997" text-anchor="start" class="matrix-sub" style="font-size:15px;font-weight:500;fill:#C9DAF5">product records</text></g>
<g id="matrix-item-product_data" class="boundary-matrix-item" data-kind="package"><rect x="420.4" y="393" width="250.39999999999998" height="78" rx="6" fill="#FFFFFF" fill-opacity="0.03" stroke="#6EE66E" stroke-width="1.2"/><rect x="434.4" y="425.0" width="20" height="16" rx="3" fill="none" stroke="#6EE66E" stroke-width="1.2"/><path d="M434.4,430.0 H454.4 M444.4,425.0 V441.0" class="icon-line" stroke="#6EE66E"/><text x="462.4" y="430.21999999999997" text-anchor="start" class="matrix-title" style="font-size:19.4px;font-weight:700;fill:#F4F8FF">Product Data</text><text x="462.4" y="451.21999999999997" text-anchor="start" class="matrix-sub" style="font-size:15px;font-weight:500;fill:#C9DAF5">controlled asset</text></g>
<g id="matrix-item-product_domain_owner" class="boundary-matrix-item" data-kind="quality"><rect x="420.4" y="481" width="250.39999999999998" height="78" rx="6" fill="#FFFFFF" fill-opacity="0.03" stroke="#FFD84D" stroke-width="1.2"/><path d="M444.4,510.0 L454.4,528.0 H434.4 Z" fill="none" stroke="#FFD84D" stroke-width="1.2"/><path d="M444.4,517.0 V523.0 M444.4,527.0 V527.0" class="icon-line" stroke="#FFD84D"/><text x="462.4" y="518.22" text-anchor="start" class="matrix-title" style="font-size:19.4px;font-weight:700;fill:#F4F8FF">Product Data Owner</text><text x="462.4" y="539.22" text-anchor="start" class="matrix-sub" style="font-size:15px;font-weight:500;fill:#C9DAF5">owner / steward</text></g>
<rect x="706.8" y="247" width="286.4" height="420" rx="6" fill="#FFFFFF" fill-opacity="0.03" stroke="#FF9F2E" stroke-opacity="0.7" stroke-width="1"/>
<text x="850.0" y="271" text-anchor="middle" class="group-label" style="fill:#F4F8FF">Operations Domain</text>
<text x="850.0" y="290" text-anchor="middle" class="note" style="font-size:14px">execution + supply</text>
<g id="matrix-item-erp" class="boundary-matrix-item" data-kind="source"><rect x="724.8" y="305" width="250.39999999999998" height="78" rx="6" fill="#FFFFFF" fill-opacity="0.03" stroke="#F4F8FF" stroke-width="1.2"/><path d="M738.8,334.0 H752.8 L758.8,340.0 V354.0 H738.8 Z" fill="none" stroke="#F4F8FF" stroke-width="1.2"/><path d="M752.8,334.0 V340.0 H758.8" class="icon-line" stroke="#F4F8FF"/><text x="766.8" y="342.21999999999997" text-anchor="start" class="matrix-title" style="font-size:19.4px;font-weight:700;fill:#F4F8FF">ERP System</text><text x="766.8" y="363.21999999999997" text-anchor="start" class="matrix-sub" style="font-size:15px;font-weight:500;fill:#C9DAF5">supply chain</text></g>
<g id="matrix-item-mes" class="boundary-matrix-item" data-kind="source"><rect x="724.8" y="393" width="250.39999999999998" height="78" rx="6" fill="#FFFFFF" fill-opacity="0.03" stroke="#F4F8FF" stroke-width="1.2"/><path d="M738.8,422.0 H752.8 L758.8,428.0 V442.0 H738.8 Z" fill="none" stroke="#F4F8FF" stroke-width="1.2"/><path d="M752.8,422.0 V428.0 H758.8" class="icon-line" stroke="#F4F8FF"/><text x="766.8" y="430.21999999999997" text-anchor="start" class="matrix-title" style="font-size:19.4px;font-weight:700;fill:#F4F8FF">MES System</text><text x="766.8" y="451.21999999999997" text-anchor="start" class="matrix-sub" style="font-size:15px;font-weight:500;fill:#C9DAF5">manufacturing</text></g>
<g id="matrix-item-operations_data" class="boundary-matrix-item" data-kind="risk"><rect x="724.8" y="481" width="250.39999999999998" height="78" rx="6" fill="#FFFFFF" fill-opacity="0.03" stroke="#FFD84D" stroke-width="1.2"/><path d="M748.8,510.0 L757.8,515.0 V525.0 L748.8,530.0 L739.8,525.0 V515.0 Z" fill="none" stroke="#FFD84D" stroke-width="1.2"/><path d="M744.8,520.0 L747.8,524.0 L753.8,516.0" class="icon-line" stroke="#FFD84D"/><text x="766.8" y="518.22" text-anchor="start" class="matrix-title" style="font-size:19.4px;font-weight:700;fill:#F4F8FF">Operations Data</text><text x="766.8" y="539.22" text-anchor="start" class="matrix-sub" style="font-size:15px;font-weight:500;fill:#C9DAF5">execution evidence</text></g>
<g id="matrix-item-operations_domain_owner" class="boundary-matrix-item" data-kind="quality"><rect x="724.8" y="569" width="250.39999999999998" height="78" rx="6" fill="#FFFFFF" fill-opacity="0.03" stroke="#FFD84D" stroke-width="1.2"/><path d="M748.8,598.0 L758.8,616.0 H738.8 Z" fill="none" stroke="#FFD84D" stroke-width="1.2"/><path d="M748.8,605.0 V611.0 M748.8,615.0 V615.0" class="icon-line" stroke="#FFD84D"/><text x="766.8" y="595.5" text-anchor="start" class="matrix-title" style="font-size:19.4px;font-weight:700;fill:#F4F8FF">Operations Data</text><text x="766.8" y="616.94" text-anchor="start" class="matrix-title" style="font-size:19.4px;font-weight:700;fill:#F4F8FF">Owner</text><text x="766.8" y="637.9399999999999" text-anchor="start" class="matrix-sub" style="font-size:15px;font-weight:500;fill:#C9DAF5">owner / steward</text></g>
<rect x="1011.1999999999999" y="247" width="286.4" height="420" rx="6" fill="#FFFFFF" fill-opacity="0.03" stroke="#FFD84D" stroke-opacity="0.7" stroke-width="1"/>
<text x="1154.3999999999999" y="271" text-anchor="middle" class="group-label" style="fill:#F4F8FF">Finance Domain</text>
<text x="1154.3999999999999" y="290" text-anchor="middle" class="note" style="font-size:14px">controls + reporting</text>
<g id="matrix-item-finance_planning" class="boundary-matrix-item" data-kind="quality"><rect x="1029.1999999999998" y="305" width="250.39999999999998" height="78" rx="6" fill="#FFFFFF" fill-opacity="0.03" stroke="#FFD84D" stroke-width="1.2"/><path d="M1053.1999999999998,334.0 L1063.1999999999998,352.0 H1043.1999999999998 Z" fill="none" stroke="#FFD84D" stroke-width="1.2"/><path d="M1053.1999999999998,341.0 V347.0 M1053.1999999999998,351.0 V351.0" class="icon-line" stroke="#FFD84D"/><text x="1071.1999999999998" y="342.21999999999997" text-anchor="start" class="matrix-title" style="font-size:19.4px;font-weight:700;fill:#F4F8FF">Financial Planning</text><text x="1071.1999999999998" y="363.21999999999997" text-anchor="start" class="matrix-sub" style="font-size:15px;font-weight:500;fill:#C9DAF5">budget controls</text></g>
<g id="matrix-item-financial_data" class="boundary-matrix-item" data-kind="quality"><rect x="1029.1999999999998" y="393" width="250.39999999999998" height="78" rx="6" fill="#FFFFFF" fill-opacity="0.03" stroke="#FFD84D" stroke-width="1.2"/><path d="M1053.1999999999998,422.0 L1063.1999999999998,440.0 H1043.1999999999998 Z" fill="none" stroke="#FFD84D" stroke-width="1.2"/><path d="M1053.1999999999998,429.0 V435.0 M1053.1999999999998,439.0 V439.0" class="icon-line" stroke="#FFD84D"/><text x="1071.1999999999998" y="430.21999999999997" text-anchor="start" class="matrix-title" style="font-size:19.4px;font-weight:700;fill:#F4F8FF">Financial Data</text><text x="1071.1999999999998" y="451.21999999999997" text-anchor="start" class="matrix-sub" style="font-size:15px;font-weight:500;fill:#C9DAF5">governed asset</text></g>
<g id="matrix-item-finance_domain_owner" class="boundary-matrix-item" data-kind="quality"><rect x="1029.1999999999998" y="481" width="250.39999999999998" height="78" rx="6" fill="#FFFFFF" fill-opacity="0.03" stroke="#FFD84D" stroke-width="1.2"/><path d="M1053.1999999999998,510.0 L1063.1999999999998,528.0 H1043.1999999999998 Z" fill="none" stroke="#FFD84D" stroke-width="1.2"/><path d="M1053.1999999999998,517.0 V523.0 M1053.1999999999998,527.0 V527.0" class="icon-line" stroke="#FFD84D"/><text x="1071.1999999999998" y="518.22" text-anchor="start" class="matrix-title" style="font-size:19.4px;font-weight:700;fill:#F4F8FF">Finance Data Owner</text><text x="1071.1999999999998" y="539.22" text-anchor="start" class="matrix-sub" style="font-size:15px;font-weight:500;fill:#C9DAF5">owner / steward</text></g>
<rect x="1315.6" y="247" width="286.4" height="420" rx="6" fill="#FFFFFF" fill-opacity="0.03" stroke="#6EE66E" stroke-opacity="0.7" stroke-width="1"/>
<text x="1458.8" y="271" text-anchor="middle" class="group-label" style="fill:#F4F8FF">People Domain</text>
<text x="1458.8" y="290" text-anchor="middle" class="note" style="font-size:14px">workforce + learning</text>
<g id="matrix-item-hris" class="boundary-matrix-item" data-kind="registry"><rect x="1333.6" y="305" width="250.39999999999998" height="78" rx="6" fill="#FFFFFF" fill-opacity="0.03" stroke="#FFD84D" stroke-width="1.2"/><path d="M1357.6,334.0 L1367.6,352.0 H1347.6 Z" fill="none" stroke="#FFD84D" stroke-width="1.2"/><path d="M1357.6,341.0 V347.0 M1357.6,351.0 V351.0" class="icon-line" stroke="#FFD84D"/><text x="1375.6" y="342.21999999999997" text-anchor="start" class="matrix-title" style="font-size:19.4px;font-weight:700;fill:#F4F8FF">HRIS System</text><text x="1375.6" y="363.21999999999997" text-anchor="start" class="matrix-sub" style="font-size:15px;font-weight:500;fill:#C9DAF5">talent records</text></g>
<g id="matrix-item-learning_data" class="boundary-matrix-item" data-kind="package"><rect x="1333.6" y="393" width="250.39999999999998" height="78" rx="6" fill="#FFFFFF" fill-opacity="0.03" stroke="#6EE66E" stroke-width="1.2"/><rect x="1347.6" y="425.0" width="20" height="16" rx="3" fill="none" stroke="#6EE66E" stroke-width="1.2"/><path d="M1347.6,430.0 H1367.6 M1357.6,425.0 V441.0" class="icon-line" stroke="#6EE66E"/><text x="1375.6" y="430.21999999999997" text-anchor="start" class="matrix-title" style="font-size:19.4px;font-weight:700;fill:#F4F8FF">Learning Data</text><text x="1375.6" y="451.21999999999997" text-anchor="start" class="matrix-sub" style="font-size:15px;font-weight:500;fill:#C9DAF5">training evidence</text></g>
<g id="matrix-item-people_domain_owner" class="boundary-matrix-item" data-kind="quality"><rect x="1333.6" y="481" width="250.39999999999998" height="78" rx="6" fill="#FFFFFF" fill-opacity="0.03" stroke="#FFD84D" stroke-width="1.2"/><path d="M1357.6,510.0 L1367.6,528.0 H1347.6 Z" fill="none" stroke="#FFD84D" stroke-width="1.2"/><path d="M1357.6,517.0 V523.0 M1357.6,527.0 V527.0" class="icon-line" stroke="#FFD84D"/><text x="1375.6" y="518.22" text-anchor="start" class="matrix-title" style="font-size:19.4px;font-weight:700;fill:#F4F8FF">People Data Owner</text><text x="1375.6" y="539.22" text-anchor="start" class="matrix-sub" style="font-size:15px;font-weight:500;fill:#C9DAF5">owner / steward</text></g>
<rect x="70" y="719" width="1560" height="164" rx="8" fill="#FFFFFF" fill-opacity="0.03" stroke="#B56CFF" stroke-opacity="0.78" stroke-width="1"/>
<text x="850.0" y="749" text-anchor="middle" class="group-label" style="fill:#F4F8FF">EXTERNAL PARTNERS</text>
<g id="matrix-item-payment_gateway" class="boundary-matrix-item" data-kind="object"><rect x="303.0" y="781" width="260" height="78" rx="6" fill="#FFFFFF" fill-opacity="0.03" stroke="#B56CFF" stroke-width="1.2"/><circle cx="327.0" cy="820.0" r="8" fill="none" stroke="#B56CFF" stroke-width="1.2"/><path d="M322.0,820.0 H332.0 M327.0,815.0 V825.0" class="icon-line" stroke="#B56CFF"/><text x="345.0" y="818.22" text-anchor="start" class="matrix-title" style="font-size:19.4px;font-weight:700;fill:#F4F8FF">Payment Gateway</text><text x="345.0" y="839.22" text-anchor="start" class="matrix-sub" style="font-size:15px;font-weight:500;fill:#C9DAF5">external processor</text></g>
<g id="matrix-item-logistics_provider" class="boundary-matrix-item" data-kind="object"><rect x="581.0" y="781" width="260" height="78" rx="6" fill="#FFFFFF" fill-opacity="0.03" stroke="#B56CFF" stroke-width="1.2"/><circle cx="605.0" cy="820.0" r="8" fill="none" stroke="#B56CFF" stroke-width="1.2"/><path d="M600.0,820.0 H610.0 M605.0,815.0 V825.0" class="icon-line" stroke="#B56CFF"/><text x="623.0" y="818.22" text-anchor="start" class="matrix-title" style="font-size:19.4px;font-weight:700;fill:#F4F8FF">Logistics Provider</text><text x="623.0" y="839.22" text-anchor="start" class="matrix-sub" style="font-size:15px;font-weight:500;fill:#C9DAF5">shipping events</text></g>
<g id="matrix-item-cloud_provider" class="boundary-matrix-item" data-kind="object"><rect x="859.0" y="781" width="260" height="78" rx="6" fill="#FFFFFF" fill-opacity="0.03" stroke="#B56CFF" stroke-width="1.2"/><circle cx="883.0" cy="820.0" r="8" fill="none" stroke="#B56CFF" stroke-width="1.2"/><path d="M878.0,820.0 H888.0 M883.0,815.0 V825.0" class="icon-line" stroke="#B56CFF"/><text x="901.0" y="818.22" text-anchor="start" class="matrix-title" style="font-size:19.4px;font-weight:700;fill:#F4F8FF">Cloud Provider</text><text x="901.0" y="839.22" text-anchor="start" class="matrix-sub" style="font-size:15px;font-weight:500;fill:#C9DAF5">platform boundary</text></g>
<g id="matrix-item-regulatory_authority" class="boundary-matrix-item" data-kind="risk"><rect x="1137.0" y="781" width="260" height="78" rx="6" fill="#FFFFFF" fill-opacity="0.03" stroke="#B56CFF" stroke-width="1.2"/><path d="M1161.0,810.0 L1170.0,815.0 V825.0 L1161.0,830.0 L1152.0,825.0 V815.0 Z" fill="none" stroke="#B56CFF" stroke-width="1.2"/><path d="M1157.0,820.0 L1160.0,824.0 L1166.0,816.0" class="icon-line" stroke="#B56CFF"/><text x="1179.0" y="807.5" text-anchor="start" class="matrix-title" style="font-size:19.4px;font-weight:700;fill:#F4F8FF">Regulatory</text><text x="1179.0" y="828.94" text-anchor="start" class="matrix-title" style="font-size:19.4px;font-weight:700;fill:#F4F8FF">Authority</text><text x="1179.0" y="849.9399999999999" text-anchor="start" class="matrix-sub" style="font-size:15px;font-weight:500;fill:#C9DAF5">external audit</text></g>
<path d="M 366.4 432.0 L 379.9 432.0 Q 393.4 432.0 393.4 445.5 L 393.4 693.0 Q 393.4 707.0 407.4 707.0 L 419.0 707.0 Q 433.0 707.0 433.0 721.0 L 433.0 781.0" class="edge boundary-matrix-link" marker-end="url(#arrow)" style="stroke:#B56CFF;opacity:0.86" stroke-dasharray="6 5" data-from="customer_data" data-to="payment_gateway" data-corridor-x="393.4"/>
<path d="M 724.8 520.0 L 711.3 520.0 Q 697.8 520.0 697.8 533.5 L 697.8 700.4 Q 697.8 707.0 704.4 707.0 L 704.4 707.0 Q 711.0 707.0 711.0 713.6 L 711.0 781.0" class="edge boundary-matrix-link" marker-end="url(#arrow)" style="stroke:#FF9F2E;opacity:0.86" data-from="operations_data" data-to="logistics_provider" data-corridor-x="697.8"/>
<path d="M 1029.2 432.0 L 1015.7 432.0 Q 1002.2 432.0 1002.2 445.5 L 1002.2 700.4 Q 1002.2 707.0 995.6 707.0 L 995.6 707.0 Q 989.0 707.0 989.0 713.6 L 989.0 781.0" class="edge boundary-matrix-link" marker-end="url(#arrow)" style="stroke:#B56CFF;opacity:0.86" stroke-dasharray="6 5" data-from="financial_data" data-to="cloud_provider" data-corridor-x="1002.2"/>
<path d="M 1279.6 432.0 L 1293.1 432.0 Q 1306.6 432.0 1306.6 445.5 L 1306.6 693.0 Q 1306.6 707.0 1292.6 707.0 L 1281.0 707.0 Q 1267.0 707.0 1267.0 721.0 L 1267.0 781.0" class="edge boundary-matrix-link" marker-end="url(#arrow)" style="stroke:#FFD84D;opacity:0.86" stroke-dasharray="6 5" data-from="financial_data" data-to="regulatory_authority" data-corridor-x="1306.6"/>
<rect x="70" y="909" width="430" height="198" rx="6" fill="#FFFFFF" fill-opacity="0.03" stroke="#F4F8FF" stroke-opacity="0.58" stroke-width="1"/>
<text x="88" y="935" class="table-header">OWNERSHIP KEY (RACI)</text>
<text x="92" y="965" class="table-cell" style="font-size:16px;font-weight:700">R</text>
<text x="125" y="965" class="table-cell-secondary" style="font-size:16px">Responsible - Executes / ensures</text>
<text x="92" y="990" class="table-cell" style="font-size:16px;font-weight:700">A</text>
<text x="125" y="990" class="table-cell-secondary" style="font-size:16px">Accountable - Owns outcome</text>
<text x="92" y="1015" class="table-cell" style="font-size:16px;font-weight:700">C</text>
<text x="125" y="1015" class="table-cell-secondary" style="font-size:16px">Consulted - Provides input</text>
<text x="92" y="1040" class="table-cell" style="font-size:16px;font-weight:700">I</text>
<text x="125" y="1040" class="table-cell-secondary" style="font-size:16px">Informed - Kept updated</text>
<rect x="522" y="909" width="1108" height="198" rx="6" fill="#FFFFFF" fill-opacity="0.03" stroke="#F4F8FF" stroke-opacity="0.58" stroke-width="1"/>
<text x="1076.0" y="929" text-anchor="middle" class="table-header" style="font-size:16px">OWNERSHIP ASSIGNMENTS</text>
<line x1="534" y1="937" x2="1618" y2="937" stroke="#F4F8FF" stroke-opacity="0.58" stroke-width="1"/>
<text x="544.0" y="959" text-anchor="start" class="table-header" style="font-size:16px">Data / Asset</text>
<line x1="744.0" y1="937" x2="744.0" y2="1107" stroke="#F4F8FF" stroke-opacity="0.58" stroke-width="1"/>
<text x="754.0" y="959" text-anchor="start" class="table-header" style="font-size:16px">Business Owner</text>
<line x1="934.0" y1="937" x2="934.0" y2="1107" stroke="#F4F8FF" stroke-opacity="0.58" stroke-width="1"/>
<text x="944.0" y="959" text-anchor="start" class="table-header" style="font-size:16px">Data Owner</text>
<line x1="1124.0" y1="937" x2="1124.0" y2="1107" stroke="#F4F8FF" stroke-opacity="0.58" stroke-width="1"/>
<text x="1134.0" y="959" text-anchor="start" class="table-header" style="font-size:16px">System Owner</text>
<line x1="1314.0" y1="937" x2="1314.0" y2="1107" stroke="#F4F8FF" stroke-opacity="0.58" stroke-width="1"/>
<text x="1324.0" y="959" text-anchor="start" class="table-header" style="font-size:16px">Data Steward</text>
<line x1="534" y1="971" x2="1618" y2="971" stroke="#F4F8FF" stroke-opacity="0.58" stroke-width="1"/>
<text x="544.0" y="993" text-anchor="start" class="table-cell" style="font-size:16px">Customer Data</text>
<text x="754.0" y="993" text-anchor="start" class="table-cell-secondary" style="font-size:16px">CRO</text>
<text x="944.0" y="993" text-anchor="start" class="table-cell-secondary" style="font-size:16px">Head of Customer Ops</text>
<text x="1134.0" y="993" text-anchor="start" class="table-cell-secondary" style="font-size:16px">CRM System Owner</text>
<text x="1324.0" y="993" text-anchor="start" class="table-cell-secondary" style="font-size:16px">Customer Data Stewa...</text>
<line x1="534" y1="1005" x2="1618" y2="1005" stroke="#F4F8FF" stroke-opacity="0.58" stroke-width="1"/>
<text x="544.0" y="1027" text-anchor="start" class="table-cell" style="font-size:16px">Product Data</text>
<text x="754.0" y="1027" text-anchor="start" class="table-cell-secondary" style="font-size:16px">CPO</text>
<text x="944.0" y="1027" text-anchor="start" class="table-cell-secondary" style="font-size:16px">Product Data Owner</text>
<text x="1134.0" y="1027" text-anchor="start" class="table-cell-secondary" style="font-size:16px">PLM System Owner</text>
<text x="1324.0" y="1027" text-anchor="start" class="table-cell-secondary" style="font-size:16px">Product Data Steward</text>
<line x1="534" y1="1039" x2="1618" y2="1039" stroke="#F4F8FF" stroke-opacity="0.58" stroke-width="1"/>
<text x="544.0" y="1061" text-anchor="start" class="table-cell" style="font-size:16px">Operations Data</text>
<text x="754.0" y="1061" text-anchor="start" class="table-cell-secondary" style="font-size:16px">COO</text>
<text x="944.0" y="1061" text-anchor="start" class="table-cell-secondary" style="font-size:16px">Operations Data Own...</text>
<text x="1134.0" y="1061" text-anchor="start" class="table-cell-secondary" style="font-size:16px">MES System Owner</text>
<text x="1324.0" y="1061" text-anchor="start" class="table-cell-secondary" style="font-size:16px">Operations Data Ste...</text>
<line x1="534" y1="1073" x2="1618" y2="1073" stroke="#F4F8FF" stroke-opacity="0.58" stroke-width="1"/>
<text x="544.0" y="1095" text-anchor="start" class="table-cell" style="font-size:16px">Financial Data</text>
<text x="754.0" y="1095" text-anchor="start" class="table-cell-secondary" style="font-size:16px">CFO</text>
<text x="944.0" y="1095" text-anchor="start" class="table-cell-secondary" style="font-size:16px">Finance Data Owner</text>
<text x="1134.0" y="1095" text-anchor="start" class="table-cell-secondary" style="font-size:16px">Finance System Owner</text>
<text x="1324.0" y="1095" text-anchor="start" class="table-cell-secondary" style="font-size:16px">Finance Data Steward</text>
<text x="850.0" y="1151" text-anchor="middle" class="note">Reference template: boundary ownership maps can use domain swimlanes plus a compact ownership matrix.</text>
</svg>
