<svg xmlns="http://www.w3.org/2000/svg" width="1536" height="1067" viewBox="0 0 1536 1067" role="img" aria-label="Boundary Ownership Map Reference" data-style="accent-blueprint" data-diagram-type="boundary_ownership_map">
<defs>
  <pattern id="blueprint-grid-small" width="12" height="12" patternUnits="userSpaceOnUse"><path d="M 12 0 H 0 V 12" fill="none" stroke="#FFFFFF" stroke-opacity="0.08" stroke-width="0.7"/></pattern>
  <pattern id="blueprint-grid" width="60" height="60" patternUnits="userSpaceOnUse"><rect width="60" height="60" fill="url(#blueprint-grid-small)"/><path d="M 60 0 H 0 V 60" fill="none" stroke="#FFFFFF" stroke-opacity="0.14" stroke-width="1"/> </pattern>
  <marker id="arrow" markerWidth="10" markerHeight="10" refX="8.5" refY="3" orient="auto" markerUnits="strokeWidth"><path d="M0,0 L0,6 L9,3 z" fill="context-stroke"/></marker>
  <marker id="arrow-fanout" markerWidth="10" markerHeight="10" refX="8.5" refY="3" orient="auto" markerUnits="strokeWidth"><path d="M0,0 L0,6 L9,3 z" fill="context-stroke"/></marker>
  <marker id="arrow-fanin" markerWidth="10" markerHeight="10" refX="8.5" refY="3" orient="auto" markerUnits="strokeWidth"><path d="M0,0 L0,6 L9,3 z" fill="context-stroke"/></marker>
  <style>
    [data-style="accent-blueprint"] .title{font:700 27px IBM Plex Mono,JetBrains Mono,Consolas,monospace;fill:#F4F8FF;letter-spacing:.04em;text-transform:uppercase}
    [data-style="accent-blueprint"] .subtitle{font:400 13px IBM Plex Sans,Inter,Roboto Condensed,DIN,Segoe UI,Aptos,Arial,sans-serif;fill:#C9DAF5}
    [data-style="accent-blueprint"] .group-label{font:700 15px IBM Plex Mono,JetBrains Mono,Consolas,monospace;fill:#C9DAF5;letter-spacing:.08em;text-transform:uppercase}
    [data-style="accent-blueprint"] .card-title{font:700 17px IBM Plex Sans,Inter,Roboto Condensed,DIN,Segoe UI,Aptos,Arial,sans-serif;fill:#F4F8FF}
    [data-style="accent-blueprint"] .card-sub{font:500 13px IBM Plex Sans,Inter,Roboto Condensed,DIN,Segoe UI,Aptos,Arial,sans-serif;fill:#C9DAF5}
    [data-style="accent-blueprint"] .edge{fill:none;stroke:#F4F8FF;stroke-width:1.5;stroke-linecap:round;stroke-linejoin:round;opacity:0.88}
    [data-style="accent-blueprint"] .fanout{stroke:#FF9F2E;opacity:0.9}
    [data-style="accent-blueprint"] .fanin{stroke:#6EE66E;opacity:0.9}
    [data-style="accent-blueprint"] .route-shared{marker-end:none}
    [data-style="accent-blueprint"] .edge-dashed{stroke-dasharray:6 5;opacity:0.68}
    [data-style="accent-blueprint"] .note{font:500 14px IBM Plex Sans,Inter,Roboto Condensed,DIN,Segoe UI,Aptos,Arial,sans-serif;fill:#C9DAF5}
    [data-style="accent-blueprint"] .mono{font-family:IBM Plex Mono,JetBrains Mono,Consolas,monospace}
    [data-style="accent-blueprint"] .table-header{font:700 15.5px IBM Plex Mono,JetBrains Mono,Consolas,monospace;fill:#F4F8FF;letter-spacing:.08em;text-transform:uppercase}
    [data-style="accent-blueprint"] .table-cell{font:500 17px IBM Plex Sans,Inter,Roboto Condensed,DIN,Segoe UI,Aptos,Arial,sans-serif;fill:#F4F8FF}
    [data-style="accent-blueprint"] .table-cell-secondary{font:500 17px IBM Plex Sans,Inter,Roboto Condensed,DIN,Segoe UI,Aptos,Arial,sans-serif;fill:#C9DAF5}
    [data-style="accent-blueprint"] .tree-level-label{font:700 15px IBM Plex Mono,JetBrains Mono,Consolas,monospace;fill:#C9DAF5;letter-spacing:.08em;text-transform:uppercase}
    [data-style="accent-blueprint"] .hub-label{font:700 15px IBM Plex Mono,JetBrains Mono,Consolas,monospace;fill:#C9DAF5;letter-spacing:.08em;text-transform:uppercase}
    [data-style="accent-blueprint"] .icon-line{fill:none;stroke-width:1.3;stroke-linecap:round;stroke-linejoin:round}
  </style>
</defs>
<rect x="0" y="0" width="1536" height="1067" rx="0" fill="#062B5F"/>
<rect x="0" y="0" width="1536" height="1067" rx="0" fill="url(#blueprint-grid)" opacity="1"/>
<text x="768.0" y="54" text-anchor="middle" class="title">Boundary Ownership Map Reference</text>
<text x="768.0" y="80" text-anchor="middle" class="subtitle">Reference contract for domains, systems, owners, and assets</text>
<rect x="70" y="115" width="1396" height="196" class="group-panel" rx="8" fill="#FFFFFF" fill-opacity="0.03" stroke="#F4F8FF" stroke-opacity="0.7" stroke-width="1"/>
<rect x="70" y="343" width="1396" height="196" class="group-panel" rx="8" fill="#FFFFFF" fill-opacity="0.03" stroke="#F4F8FF" stroke-opacity="0.7" stroke-width="1"/>
<rect x="70" y="571" width="1396" height="196" class="group-panel" rx="8" fill="#FFFFFF" fill-opacity="0.03" stroke="#F4F8FF" stroke-opacity="0.7" stroke-width="1"/>
<rect x="70" y="799" width="1396" height="196" class="group-panel" rx="8" fill="#FFFFFF" fill-opacity="0.03" stroke="#F4F8FF" stroke-opacity="0.7" stroke-width="1"/>
<path d="M 352.0 279 L 352.0 407" class="edge" marker-end="url(#arrow)"/>
<path d="M 768.0 279 L 768.0 407" class="edge" marker-end="url(#arrow)"/>
<path d="M 1184.0 279 L 1184.0 407" class="edge" marker-end="url(#arrow)"/>
<path d="M 352.0 507 L 352.0 635" class="edge" marker-end="url(#arrow)"/>
<path d="M 768.0 507 L 768.0 635" class="edge" marker-end="url(#arrow)"/>
<path d="M 1184.0 507 L 1184.0 635" class="edge" marker-end="url(#arrow)"/>
<path d="M 352.0 735 L 352.0 863" class="edge" marker-end="url(#arrow)"/>
<path d="M 768.0 735 L 768.0 863" class="edge" marker-end="url(#arrow)"/>
<path d="M 1184.0 735 L 1184.0 863" class="edge" marker-end="url(#arrow)"/>
<g class="group-label-wrap"><rect x="88" y="121" width="175.20000000000002" height="30" rx="7" fill="#062B5F" fill-opacity="0.78"/><text x="98" y="141" class="group-label">Enterprise domains</text></g>
<g class="group-label-wrap"><rect x="88" y="349" width="208.8" height="30" rx="7" fill="#062B5F" fill-opacity="0.78"/><text x="98" y="369" class="group-label">Systems / applications</text></g>
<g class="group-label-wrap"><rect x="88" y="577" width="217.20000000000002" height="30" rx="7" fill="#062B5F" fill-opacity="0.78"/><text x="98" y="597" class="group-label">Data / knowledge assets</text></g>
<g class="group-label-wrap"><rect x="88" y="805" width="234.0" height="30" rx="7" fill="#062B5F" fill-opacity="0.78"/><text x="98" y="825" class="group-label">Ownership and stewardship</text></g>
<g id="node-customer_domain" class="card node-card"><rect x="172.0" y="179" width="360" height="100" rx="6" fill="#FFFFFF" fill-opacity="0.03" stroke="#16D9FF" stroke-width="1.3"/><rect x="190.0" y="222.0" width="20" height="16" rx="3" fill="none" stroke="#16D9FF" stroke-width="1.2"/><path d="M190.0,227.0 H210.0 M200.0,222.0 V238.0" class="icon-line" stroke="#16D9FF"/><text x="226.0" y="228.13472" text-anchor="start" class="card-title" style="font-size:22px">Customer Domain</text><text x="226.0" y="250.24288" text-anchor="start" class="card-sub" style="font-size:16.4px">market + service</text></g>
<g id="node-product_domain" class="card node-card"><rect x="588.0" y="179" width="360" height="100" rx="6" fill="#FFFFFF" fill-opacity="0.03" stroke="#16D9FF" stroke-width="1.3"/><rect x="606.0" y="222.0" width="20" height="16" rx="3" fill="none" stroke="#16D9FF" stroke-width="1.2"/><path d="M606.0,227.0 H626.0 M616.0,222.0 V238.0" class="icon-line" stroke="#16D9FF"/><text x="642.0" y="228.13472" text-anchor="start" class="card-title" style="font-size:22px">Product Domain</text><text x="642.0" y="250.24288" text-anchor="start" class="card-sub" style="font-size:16.4px">portfolio</text></g>
<g id="node-ops_domain" class="card node-card"><rect x="1004.0" y="179" width="360" height="100" rx="6" fill="#FFFFFF" fill-opacity="0.03" stroke="#FF9F2E" stroke-width="1.3"/><circle cx="1026.0" cy="230.0" r="4" fill="none" stroke="#FF9F2E" stroke-width="1.6"/><circle cx="1040.0" cy="223.0" r="4" fill="none" stroke="#FF9F2E" stroke-width="1.6"/><circle cx="1040.0" cy="237.0" r="4" fill="none" stroke="#FF9F2E" stroke-width="1.6"/><path d="M1030.0,230.0 H1034.0 M1036.0,226.0 L1034.0,230.0 L1036.0,234.0" class="icon-line" stroke="#FF9F2E"/><text x="1058.0" y="228.13472" text-anchor="start" class="card-title" style="font-size:22px">Operations Domain</text><text x="1058.0" y="250.24288" text-anchor="start" class="card-sub" style="font-size:16.4px">execution</text></g>
<g id="node-crm" class="card node-card"><rect x="172.0" y="407" width="360" height="100" rx="6" fill="#FFFFFF" fill-opacity="0.03" stroke="#FFD84D" stroke-width="1.3"/><path d="M200.0,447.0 L210.0,465.0 H190.0 Z" fill="none" stroke="#FFD84D" stroke-width="1.2"/><path d="M200.0,454.0 V460.0 M200.0,464.0 V464.0" class="icon-line" stroke="#FFD84D"/><text x="226.0" y="456.13472" text-anchor="start" class="card-title" style="font-size:22px">CRM System</text><text x="226.0" y="478.24288" text-anchor="start" class="card-sub" style="font-size:16.4px">customer records</text></g>
<g id="node-plm" class="card node-card"><rect x="588.0" y="407" width="360" height="100" rx="6" fill="#FFFFFF" fill-opacity="0.03" stroke="#F4F8FF" stroke-width="1.3"/><path d="M606.0,447.0 H620.0 L626.0,453.0 V467.0 H606.0 Z" fill="none" stroke="#F4F8FF" stroke-width="1.2"/><path d="M620.0,447.0 V453.0 H626.0" class="icon-line" stroke="#F4F8FF"/><text x="642.0" y="456.13472" text-anchor="start" class="card-title" style="font-size:22px">PLM System</text><text x="642.0" y="478.24288" text-anchor="start" class="card-sub" style="font-size:16.4px">product records</text></g>
<g id="node-erp" class="card node-card"><rect x="1004.0" y="407" width="360" height="100" rx="6" fill="#FFFFFF" fill-opacity="0.03" stroke="#F4F8FF" stroke-width="1.3"/><path d="M1022.0,447.0 H1036.0 L1042.0,453.0 V467.0 H1022.0 Z" fill="none" stroke="#F4F8FF" stroke-width="1.2"/><path d="M1036.0,447.0 V453.0 H1042.0" class="icon-line" stroke="#F4F8FF"/><text x="1058.0" y="456.13472" text-anchor="start" class="card-title" style="font-size:22px">ERP System</text><text x="1058.0" y="478.24288" text-anchor="start" class="card-sub" style="font-size:16.4px">execution data</text></g>
<g id="node-customer_asset" class="card node-card"><rect x="172.0" y="635" width="360" height="100" rx="6" fill="#FFFFFF" fill-opacity="0.03" stroke="#6EE66E" stroke-width="1.3"/><rect x="190.0" y="678.0" width="20" height="16" rx="3" fill="none" stroke="#6EE66E" stroke-width="1.2"/><path d="M190.0,683.0 H210.0 M200.0,678.0 V694.0" class="icon-line" stroke="#6EE66E"/><text x="226.0" y="684.1347199999999" text-anchor="start" class="card-title" style="font-size:22px">Customer Data</text><text x="226.0" y="706.24288" text-anchor="start" class="card-sub" style="font-size:16.4px">shared asset</text></g>
<g id="node-product_asset" class="card node-card"><rect x="588.0" y="635" width="360" height="100" rx="6" fill="#FFFFFF" fill-opacity="0.03" stroke="#6EE66E" stroke-width="1.3"/><rect x="606.0" y="678.0" width="20" height="16" rx="3" fill="none" stroke="#6EE66E" stroke-width="1.2"/><path d="M606.0,683.0 H626.0 M616.0,678.0 V694.0" class="icon-line" stroke="#6EE66E"/><text x="642.0" y="684.1347199999999" text-anchor="start" class="card-title" style="font-size:22px">Product Data</text><text x="642.0" y="706.24288" text-anchor="start" class="card-sub" style="font-size:16.4px">controlled asset</text></g>
<g id="node-ops_asset" class="card node-card"><rect x="1004.0" y="635" width="360" height="100" rx="6" fill="#FFFFFF" fill-opacity="0.03" stroke="#FFD84D" stroke-width="1.3"/><path d="M1032.0,675.0 L1041.0,680.0 V690.0 L1032.0,695.0 L1023.0,690.0 V680.0 Z" fill="none" stroke="#FFD84D" stroke-width="1.2"/><path d="M1028.0,685.0 L1031.0,689.0 L1037.0,681.0" class="icon-line" stroke="#FFD84D"/><text x="1058.0" y="684.1347199999999" text-anchor="start" class="card-title" style="font-size:22px">Operations Data</text><text x="1058.0" y="706.24288" text-anchor="start" class="card-sub" style="font-size:16.4px">regulated asset</text></g>
<g id="node-data_owner" class="card node-card"><rect x="172.0" y="863" width="360" height="100" rx="6" fill="#FFFFFF" fill-opacity="0.03" stroke="#FFD84D" stroke-width="1.3"/><path d="M200.0,903.0 L210.0,921.0 H190.0 Z" fill="none" stroke="#FFD84D" stroke-width="1.2"/><path d="M200.0,910.0 V916.0 M200.0,920.0 V920.0" class="icon-line" stroke="#FFD84D"/><text x="226.0" y="912.1347199999999" text-anchor="start" class="card-title" style="font-size:22px">Data Owner</text><text x="226.0" y="934.24288" text-anchor="start" class="card-sub" style="font-size:16.4px">accountable</text></g>
<g id="node-system_owner" class="card node-card"><rect x="588.0" y="863" width="360" height="100" rx="6" fill="#FFFFFF" fill-opacity="0.03" stroke="#FFD84D" stroke-width="1.3"/><path d="M616.0,903.0 L626.0,921.0 H606.0 Z" fill="none" stroke="#FFD84D" stroke-width="1.2"/><path d="M616.0,910.0 V916.0 M616.0,920.0 V920.0" class="icon-line" stroke="#FFD84D"/><text x="642.0" y="912.1347199999999" text-anchor="start" class="card-title" style="font-size:22px">System Owner</text><text x="642.0" y="934.24288" text-anchor="start" class="card-sub" style="font-size:16.4px">responsible</text></g>
<g id="node-steward" class="card node-card"><rect x="1004.0" y="863" width="360" height="100" rx="6" fill="#FFFFFF" fill-opacity="0.03" stroke="#FFD84D" stroke-width="1.3"/><path d="M1032.0,903.0 L1041.0,908.0 V918.0 L1032.0,923.0 L1023.0,918.0 V908.0 Z" fill="none" stroke="#FFD84D" stroke-width="1.2"/><path d="M1028.0,913.0 L1031.0,917.0 L1037.0,909.0" class="icon-line" stroke="#FFD84D"/><text x="1058.0" y="912.1347199999999" text-anchor="start" class="card-title" style="font-size:22px">Data Steward</text><text x="1058.0" y="934.24288" text-anchor="start" class="card-sub" style="font-size:16.4px">quality guardrail</text></g>
<text x="1206" y="955" class="note legend-note" fill="#FFD84D">yellow = ownership / governance</text>
<text x="1206" y="979" class="note legend-note" fill="#6EE66E">green = reusable assets</text>
<text x="768.0" y="1039" text-anchor="middle" class="note">Reference template: use containment first, then add only essential ownership links.</text>
</svg>
