<svg xmlns="http://www.w3.org/2000/svg" width="1900" height="1247" viewBox="0 0 1900 1247" role="img" aria-label="Boundary Ownership Map Stress" data-style="accent-blueprint" data-diagram-type="boundary_ownership_map" data-variant="domain_ownership_matrix">
<defs>
  <pattern id="blueprint-grid-small" width="12" height="12" patternUnits="userSpaceOnUse"><path d="M 12 0 H 0 V 12" fill="none" stroke="#FFFFFF" stroke-opacity="0.08" stroke-width="0.7"/></pattern>
  <pattern id="blueprint-grid" width="60" height="60" patternUnits="userSpaceOnUse"><rect width="60" height="60" fill="url(#blueprint-grid-small)"/><path d="M 60 0 H 0 V 60" fill="none" stroke="#FFFFFF" stroke-opacity="0.14" stroke-width="1"/> </pattern>
  <marker id="arrow" markerWidth="10" markerHeight="10" refX="8.5" refY="3" orient="auto" markerUnits="strokeWidth"><path d="M0,0 L0,6 L9,3 z" fill="context-stroke"/></marker>
  <marker id="arrow-fanout" markerWidth="10" markerHeight="10" refX="8.5" refY="3" orient="auto" markerUnits="strokeWidth"><path d="M0,0 L0,6 L9,3 z" fill="context-stroke"/></marker>
  <marker id="arrow-fanin" markerWidth="10" markerHeight="10" refX="8.5" refY="3" orient="auto" markerUnits="strokeWidth"><path d="M0,0 L0,6 L9,3 z" fill="context-stroke"/></marker>
  <style>
    [data-style="accent-blueprint"] .title{font:700 27px IBM Plex Mono,JetBrains Mono,Consolas,monospace;fill:#F4F8FF;letter-spacing:.04em;text-transform:uppercase}
    [data-style="accent-blueprint"] .subtitle{font:400 13px IBM Plex Sans,Inter,Roboto Condensed,DIN,Segoe UI,Aptos,Arial,sans-serif;fill:#C9DAF5}
    [data-style="accent-blueprint"] .group-label{font:700 15px IBM Plex Mono,JetBrains Mono,Consolas,monospace;fill:#C9DAF5;letter-spacing:.08em;text-transform:uppercase}
    [data-style="accent-blueprint"] .card-title{font:700 17px IBM Plex Sans,Inter,Roboto Condensed,DIN,Segoe UI,Aptos,Arial,sans-serif;fill:#F4F8FF}
    [data-style="accent-blueprint"] .card-sub{font:500 13px IBM Plex Sans,Inter,Roboto Condensed,DIN,Segoe UI,Aptos,Arial,sans-serif;fill:#C9DAF5}
    [data-style="accent-blueprint"] .edge{fill:none;stroke:#F4F8FF;stroke-width:1.5;stroke-linecap:round;stroke-linejoin:round;opacity:0.88}
    [data-style="accent-blueprint"] .fanout{stroke:#FF9F2E;opacity:0.9}
    [data-style="accent-blueprint"] .fanin{stroke:#6EE66E;opacity:0.9}
    [data-style="accent-blueprint"] .route-shared{marker-end:none}
    [data-style="accent-blueprint"] .edge-dashed{stroke-dasharray:6 5;opacity:0.68}
    [data-style="accent-blueprint"] .note{font:500 14px IBM Plex Sans,Inter,Roboto Condensed,DIN,Segoe UI,Aptos,Arial,sans-serif;fill:#C9DAF5}
    [data-style="accent-blueprint"] .mono{font-family:IBM Plex Mono,JetBrains Mono,Consolas,monospace}
    [data-style="accent-blueprint"] .table-header{font:700 15.5px IBM Plex Mono,JetBrains Mono,Consolas,monospace;fill:#F4F8FF;letter-spacing:.08em;text-transform:uppercase}
    [data-style="accent-blueprint"] .table-cell{font:500 17px IBM Plex Sans,Inter,Roboto Condensed,DIN,Segoe UI,Aptos,Arial,sans-serif;fill:#F4F8FF}
    [data-style="accent-blueprint"] .table-cell-secondary{font:500 17px IBM Plex Sans,Inter,Roboto Condensed,DIN,Segoe UI,Aptos,Arial,sans-serif;fill:#C9DAF5}
    [data-style="accent-blueprint"] .info-panel-title{font:700 15px IBM Plex Mono,JetBrains Mono,Consolas,monospace;fill:#F4F8FF;letter-spacing:.08em;text-transform:uppercase}
    [data-style="accent-blueprint"] .info-panel-item{font:500 14px IBM Plex Sans,Inter,Roboto Condensed,DIN,Segoe UI,Aptos,Arial,sans-serif;fill:#C9DAF5}
    [data-style="accent-blueprint"] .tree-level-label{font:700 15px IBM Plex Mono,JetBrains Mono,Consolas,monospace;fill:#C9DAF5;letter-spacing:.08em;text-transform:uppercase}
    [data-style="accent-blueprint"] .hub-label{font:700 15px IBM Plex Mono,JetBrains Mono,Consolas,monospace;fill:#C9DAF5;letter-spacing:.08em;text-transform:uppercase}
    [data-style="accent-blueprint"] .icon-line{fill:none;stroke-width:1.3;stroke-linecap:round;stroke-linejoin:round}
  </style>
</defs>
<rect x="0" y="0" width="1900" height="1247" rx="0" fill="#062B5F"/>
<rect x="0" y="0" width="1900" height="1247" rx="0" fill="url(#blueprint-grid)" opacity="1"/>
<text x="950.0" y="54" text-anchor="middle" class="title">Boundary Ownership Map Stress</text>
<text x="950.0" y="80.0" text-anchor="middle" class="subtitle">Stress contract for dense domain swimlanes, external parties, and ownership assignments</text>
<rect x="70" y="107" width="1760" height="56" rx="6" fill="#FFFFFF" fill-opacity="0.03" stroke="#F4F8FF" stroke-opacity="0.58" stroke-width="1"/>
<rect x="88" y="122" width="28" height="14" rx="3" fill="none" stroke="#16D9FF" stroke-width="1.3"/>
<text x="128" y="133" class="note" style="font-size:14px">Domain</text>
<rect x="216" y="122" width="28" height="14" rx="3" fill="none" stroke="#6EE66E" stroke-width="1.3"/>
<text x="256" y="133" class="note" style="font-size:14px">System / Application</text>
<rect x="446" y="122" width="28" height="14" rx="3" fill="none" stroke="#FFD84D" stroke-width="1.3"/>
<text x="486" y="133" class="note" style="font-size:14px">Data / Asset</text>
<rect x="612" y="122" width="28" height="14" rx="3" fill="none" stroke="#B56CFF" stroke-width="1.3"/>
<text x="652" y="133" class="note" style="font-size:14px">External</text>
<line x1="746" y1="129" x2="776" y2="129" stroke="#F4F8FF" stroke-width="1.4"/>
<text x="786" y="133" class="note" style="font-size:14px">Ownership Boundary</text>
<line x1="960" y1="129" x2="990" y2="129" stroke="#B56CFF" stroke-width="1.4" stroke-dasharray="6 5"/>
<text x="1000" y="133" class="note" style="font-size:14px">Shared Responsibility</text>
<path d="M 1198 129 L 1228 129" class="edge" marker-end="url(#arrow)" style="stroke:#FF9F2E;opacity:0.95"/>
<text x="1238" y="133" class="note" style="font-size:14px">Data Flow</text>
<rect x="70" y="189" width="1760" height="506" rx="8" fill="#FFFFFF" fill-opacity="0.03" stroke="#F4F8FF" stroke-opacity="0.7" stroke-width="1" stroke-dasharray="10 7"/>
<text x="950.0" y="217" text-anchor="middle" class="group-label">Enterprise Boundary</text>
<rect x="98.0" y="247" width="269.0" height="420" rx="6" fill="#FFFFFF" fill-opacity="0.03" stroke="#16D9FF" stroke-opacity="0.7" stroke-width="1"/>
<text x="232.5" y="271" text-anchor="middle" class="group-label" style="fill:#F4F8FF">Customer Domain</text>
<text x="232.5" y="290" text-anchor="middle" class="note" style="font-size:14px">market + service</text>
<g id="matrix-item-crm" class="boundary-matrix-item" data-kind="registry"><rect x="116.0" y="305" width="233.0" height="78" rx="6" fill="#FFFFFF" fill-opacity="0.03" stroke="#FFD84D" stroke-width="1.2"/><path d="M140.0,334.0 L150.0,352.0 H130.0 Z" fill="none" stroke="#FFD84D" stroke-width="1.2"/><path d="M140.0,341.0 V347.0 M140.0,351.0 V351.0" class="icon-line" stroke="#FFD84D"/><text x="158.0" y="342.21999999999997" text-anchor="start" class="matrix-title" style="font-size:19.4px;font-weight:700;fill:#F4F8FF">CRM System</text><text x="158.0" y="363.21999999999997" text-anchor="start" class="matrix-sub" style="font-size:15px;font-weight:500;fill:#C9DAF5">customer records</text></g>
<g id="matrix-item-marketing" class="boundary-matrix-item" data-kind="query"><rect x="116.0" y="393" width="233.0" height="78" rx="6" fill="#FFFFFF" fill-opacity="0.03" stroke="#16D9FF" stroke-width="1.2"/><circle cx="138.0" cy="430.0" r="7" fill="none" stroke="#16D9FF" stroke-width="1.2"/><path d="M144.0,436.0 L150.0,442.0" class="icon-line" stroke="#16D9FF"/><text x="158.0" y="419.5" text-anchor="start" class="matrix-title" style="font-size:19.4px;font-weight:700;fill:#F4F8FF">Marketing</text><text x="158.0" y="440.94" text-anchor="start" class="matrix-title" style="font-size:19.4px;font-weight:700;fill:#F4F8FF">Automation</text><text x="158.0" y="461.94" text-anchor="start" class="matrix-sub" style="font-size:15px;font-weight:500;fill:#C9DAF5">campaign events</text></g>
<g id="matrix-item-customer_data" class="boundary-matrix-item" data-kind="package"><rect x="116.0" y="481" width="233.0" height="78" rx="6" fill="#FFFFFF" fill-opacity="0.03" stroke="#6EE66E" stroke-width="1.2"/><rect x="130.0" y="513.0" width="20" height="16" rx="3" fill="none" stroke="#6EE66E" stroke-width="1.2"/><path d="M130.0,518.0 H150.0 M140.0,513.0 V529.0" class="icon-line" stroke="#6EE66E"/><text x="158.0" y="518.22" text-anchor="start" class="matrix-title" style="font-size:19.4px;font-weight:700;fill:#F4F8FF">Customer Data</text><text x="158.0" y="539.22" text-anchor="start" class="matrix-sub" style="font-size:15px;font-weight:500;fill:#C9DAF5">golden records</text></g>
<g id="matrix-item-customer_owner" class="boundary-matrix-item" data-kind="quality"><rect x="116.0" y="569" width="233.0" height="78" rx="6" fill="#FFFFFF" fill-opacity="0.03" stroke="#FFD84D" stroke-width="1.2"/><path d="M140.0,598.0 L150.0,616.0 H130.0 Z" fill="none" stroke="#FFD84D" stroke-width="1.2"/><path d="M140.0,605.0 V611.0 M140.0,615.0 V615.0" class="icon-line" stroke="#FFD84D"/><text x="158.0" y="595.5" text-anchor="start" class="matrix-title" style="font-size:19.4px;font-weight:700;fill:#F4F8FF">Customer Data</text><text x="158.0" y="616.94" text-anchor="start" class="matrix-title" style="font-size:19.4px;font-weight:700;fill:#F4F8FF">Owner</text><text x="158.0" y="637.9399999999999" text-anchor="start" class="matrix-sub" style="font-size:15px;font-weight:500;fill:#C9DAF5">owner / steward</text></g>
<rect x="385.0" y="247" width="269.0" height="420" rx="6" fill="#FFFFFF" fill-opacity="0.03" stroke="#16D9FF" stroke-opacity="0.7" stroke-width="1"/>
<text x="519.5" y="271" text-anchor="middle" class="group-label" style="fill:#F4F8FF">Product Domain</text>
<text x="519.5" y="290" text-anchor="middle" class="note" style="font-size:14px">portfolio + lifecycle</text>
<g id="matrix-item-plm" class="boundary-matrix-item" data-kind="source"><rect x="403.0" y="305" width="233.0" height="78" rx="6" fill="#FFFFFF" fill-opacity="0.03" stroke="#F4F8FF" stroke-width="1.2"/><path d="M417.0,334.0 H431.0 L437.0,340.0 V354.0 H417.0 Z" fill="none" stroke="#F4F8FF" stroke-width="1.2"/><path d="M431.0,334.0 V340.0 H437.0" class="icon-line" stroke="#F4F8FF"/><text x="445.0" y="342.21999999999997" text-anchor="start" class="matrix-title" style="font-size:19.4px;font-weight:700;fill:#F4F8FF">PLM System</text><text x="445.0" y="363.21999999999997" text-anchor="start" class="matrix-sub" style="font-size:15px;font-weight:500;fill:#C9DAF5">product master</text></g>
<g id="matrix-item-product_catalog" class="boundary-matrix-item" data-kind="registry"><rect x="403.0" y="393" width="233.0" height="78" rx="6" fill="#FFFFFF" fill-opacity="0.03" stroke="#FFD84D" stroke-width="1.2"/><path d="M427.0,422.0 L437.0,440.0 H417.0 Z" fill="none" stroke="#FFD84D" stroke-width="1.2"/><path d="M427.0,429.0 V435.0 M427.0,439.0 V439.0" class="icon-line" stroke="#FFD84D"/><text x="445.0" y="430.21999999999997" text-anchor="start" class="matrix-title" style="font-size:19.4px;font-weight:700;fill:#F4F8FF">Product Catalog</text><text x="445.0" y="451.21999999999997" text-anchor="start" class="matrix-sub" style="font-size:15px;font-weight:500;fill:#C9DAF5">commercial view</text></g>
<g id="matrix-item-product_data" class="boundary-matrix-item" data-kind="package"><rect x="403.0" y="481" width="233.0" height="78" rx="6" fill="#FFFFFF" fill-opacity="0.03" stroke="#6EE66E" stroke-width="1.2"/><rect x="417.0" y="513.0" width="20" height="16" rx="3" fill="none" stroke="#6EE66E" stroke-width="1.2"/><path d="M417.0,518.0 H437.0 M427.0,513.0 V529.0" class="icon-line" stroke="#6EE66E"/><text x="445.0" y="518.22" text-anchor="start" class="matrix-title" style="font-size:19.4px;font-weight:700;fill:#F4F8FF">Product Data</text><text x="445.0" y="539.22" text-anchor="start" class="matrix-sub" style="font-size:15px;font-weight:500;fill:#C9DAF5">controlled asset</text></g>
<g id="matrix-item-product_owner" class="boundary-matrix-item" data-kind="quality"><rect x="403.0" y="569" width="233.0" height="78" rx="6" fill="#FFFFFF" fill-opacity="0.03" stroke="#FFD84D" stroke-width="1.2"/><path d="M427.0,598.0 L437.0,616.0 H417.0 Z" fill="none" stroke="#FFD84D" stroke-width="1.2"/><path d="M427.0,605.0 V611.0 M427.0,615.0 V615.0" class="icon-line" stroke="#FFD84D"/><text x="445.0" y="595.5" text-anchor="start" class="matrix-title" style="font-size:19.4px;font-weight:700;fill:#F4F8FF">Product Data</text><text x="445.0" y="616.94" text-anchor="start" class="matrix-title" style="font-size:19.4px;font-weight:700;fill:#F4F8FF">Owner</text><text x="445.0" y="637.9399999999999" text-anchor="start" class="matrix-sub" style="font-size:15px;font-weight:500;fill:#C9DAF5">owner / steward</text></g>
<rect x="672.0" y="247" width="269.0" height="420" rx="6" fill="#FFFFFF" fill-opacity="0.03" stroke="#FF9F2E" stroke-opacity="0.7" stroke-width="1"/>
<text x="806.5" y="271" text-anchor="middle" class="group-label" style="fill:#F4F8FF">Operations Domain</text>
<text x="806.5" y="290" text-anchor="middle" class="note" style="font-size:14px">execution + supply</text>
<g id="matrix-item-erp" class="boundary-matrix-item" data-kind="source"><rect x="690.0" y="305" width="233.0" height="78" rx="6" fill="#FFFFFF" fill-opacity="0.03" stroke="#F4F8FF" stroke-width="1.2"/><path d="M704.0,334.0 H718.0 L724.0,340.0 V354.0 H704.0 Z" fill="none" stroke="#F4F8FF" stroke-width="1.2"/><path d="M718.0,334.0 V340.0 H724.0" class="icon-line" stroke="#F4F8FF"/><text x="732.0" y="342.21999999999997" text-anchor="start" class="matrix-title" style="font-size:19.4px;font-weight:700;fill:#F4F8FF">ERP System</text><text x="732.0" y="363.21999999999997" text-anchor="start" class="matrix-sub" style="font-size:15px;font-weight:500;fill:#C9DAF5">planning records</text></g>
<g id="matrix-item-mes" class="boundary-matrix-item" data-kind="source"><rect x="690.0" y="393" width="233.0" height="78" rx="6" fill="#FFFFFF" fill-opacity="0.03" stroke="#F4F8FF" stroke-width="1.2"/><path d="M704.0,422.0 H718.0 L724.0,428.0 V442.0 H704.0 Z" fill="none" stroke="#F4F8FF" stroke-width="1.2"/><path d="M718.0,422.0 V428.0 H724.0" class="icon-line" stroke="#F4F8FF"/><text x="732.0" y="430.21999999999997" text-anchor="start" class="matrix-title" style="font-size:19.4px;font-weight:700;fill:#F4F8FF">MES System</text><text x="732.0" y="451.21999999999997" text-anchor="start" class="matrix-sub" style="font-size:15px;font-weight:500;fill:#C9DAF5">manufacturing evidence</text></g>
<g id="matrix-item-operations_data" class="boundary-matrix-item" data-kind="risk"><rect x="690.0" y="481" width="233.0" height="78" rx="6" fill="#FFFFFF" fill-opacity="0.03" stroke="#FFD84D" stroke-width="1.2"/><path d="M714.0,510.0 L723.0,515.0 V525.0 L714.0,530.0 L705.0,525.0 V515.0 Z" fill="none" stroke="#FFD84D" stroke-width="1.2"/><path d="M710.0,520.0 L713.0,524.0 L719.0,516.0" class="icon-line" stroke="#FFD84D"/><text x="732.0" y="518.22" text-anchor="start" class="matrix-title" style="font-size:19.4px;font-weight:700;fill:#F4F8FF">Operations Data</text><text x="732.0" y="539.22" text-anchor="start" class="matrix-sub" style="font-size:15px;font-weight:500;fill:#C9DAF5">execution evidence</text></g>
<g id="matrix-item-operations_owner" class="boundary-matrix-item" data-kind="quality"><rect x="690.0" y="569" width="233.0" height="78" rx="6" fill="#FFFFFF" fill-opacity="0.03" stroke="#FFD84D" stroke-width="1.2"/><path d="M714.0,598.0 L724.0,616.0 H704.0 Z" fill="none" stroke="#FFD84D" stroke-width="1.2"/><path d="M714.0,605.0 V611.0 M714.0,615.0 V615.0" class="icon-line" stroke="#FFD84D"/><text x="732.0" y="595.5" text-anchor="start" class="matrix-title" style="font-size:19.4px;font-weight:700;fill:#F4F8FF">Operations Data</text><text x="732.0" y="616.94" text-anchor="start" class="matrix-title" style="font-size:19.4px;font-weight:700;fill:#F4F8FF">Owner</text><text x="732.0" y="637.9399999999999" text-anchor="start" class="matrix-sub" style="font-size:15px;font-weight:500;fill:#C9DAF5">owner / steward</text></g>
<rect x="959.0" y="247" width="269.0" height="420" rx="6" fill="#FFFFFF" fill-opacity="0.03" stroke="#FFD84D" stroke-opacity="0.7" stroke-width="1"/>
<text x="1093.5" y="271" text-anchor="middle" class="group-label" style="fill:#F4F8FF">Finance Domain</text>
<text x="1093.5" y="290" text-anchor="middle" class="note" style="font-size:14px">controls + reporting</text>
<g id="matrix-item-accounting" class="boundary-matrix-item" data-kind="quality"><rect x="977.0" y="305" width="233.0" height="78" rx="6" fill="#FFFFFF" fill-opacity="0.03" stroke="#FFD84D" stroke-width="1.2"/><path d="M1001.0,334.0 L1011.0,352.0 H991.0 Z" fill="none" stroke="#FFD84D" stroke-width="1.2"/><path d="M1001.0,341.0 V347.0 M1001.0,351.0 V351.0" class="icon-line" stroke="#FFD84D"/><text x="1019.0" y="342.21999999999997" text-anchor="start" class="matrix-title" style="font-size:19.4px;font-weight:700;fill:#F4F8FF">Accounting</text><text x="1019.0" y="363.21999999999997" text-anchor="start" class="matrix-sub" style="font-size:15px;font-weight:500;fill:#C9DAF5">ledger controls</text></g>
<g id="matrix-item-finance_planning" class="boundary-matrix-item" data-kind="quality"><rect x="977.0" y="393" width="233.0" height="78" rx="6" fill="#FFFFFF" fill-opacity="0.03" stroke="#FFD84D" stroke-width="1.2"/><path d="M1001.0,422.0 L1011.0,440.0 H991.0 Z" fill="none" stroke="#FFD84D" stroke-width="1.2"/><path d="M1001.0,429.0 V435.0 M1001.0,439.0 V439.0" class="icon-line" stroke="#FFD84D"/><text x="1019.0" y="419.5" text-anchor="start" class="matrix-title" style="font-size:19.4px;font-weight:700;fill:#F4F8FF">Financial</text><text x="1019.0" y="440.94" text-anchor="start" class="matrix-title" style="font-size:19.4px;font-weight:700;fill:#F4F8FF">Planning</text><text x="1019.0" y="461.94" text-anchor="start" class="matrix-sub" style="font-size:15px;font-weight:500;fill:#C9DAF5">forecast + budget</text></g>
<g id="matrix-item-financial_data" class="boundary-matrix-item" data-kind="quality"><rect x="977.0" y="481" width="233.0" height="78" rx="6" fill="#FFFFFF" fill-opacity="0.03" stroke="#FFD84D" stroke-width="1.2"/><path d="M1001.0,510.0 L1011.0,528.0 H991.0 Z" fill="none" stroke="#FFD84D" stroke-width="1.2"/><path d="M1001.0,517.0 V523.0 M1001.0,527.0 V527.0" class="icon-line" stroke="#FFD84D"/><text x="1019.0" y="518.22" text-anchor="start" class="matrix-title" style="font-size:19.4px;font-weight:700;fill:#F4F8FF">Financial Data</text><text x="1019.0" y="539.22" text-anchor="start" class="matrix-sub" style="font-size:15px;font-weight:500;fill:#C9DAF5">governed asset</text></g>
<g id="matrix-item-finance_owner" class="boundary-matrix-item" data-kind="quality"><rect x="977.0" y="569" width="233.0" height="78" rx="6" fill="#FFFFFF" fill-opacity="0.03" stroke="#FFD84D" stroke-width="1.2"/><path d="M1001.0,598.0 L1011.0,616.0 H991.0 Z" fill="none" stroke="#FFD84D" stroke-width="1.2"/><path d="M1001.0,605.0 V611.0 M1001.0,615.0 V615.0" class="icon-line" stroke="#FFD84D"/><text x="1019.0" y="595.5" text-anchor="start" class="matrix-title" style="font-size:19.4px;font-weight:700;fill:#F4F8FF">Finance Data</text><text x="1019.0" y="616.94" text-anchor="start" class="matrix-title" style="font-size:19.4px;font-weight:700;fill:#F4F8FF">Owner</text><text x="1019.0" y="637.9399999999999" text-anchor="start" class="matrix-sub" style="font-size:15px;font-weight:500;fill:#C9DAF5">owner / steward</text></g>
<rect x="1246.0" y="247" width="269.0" height="420" rx="6" fill="#FFFFFF" fill-opacity="0.03" stroke="#6EE66E" stroke-opacity="0.7" stroke-width="1"/>
<text x="1380.5" y="271" text-anchor="middle" class="group-label" style="fill:#F4F8FF">People Domain</text>
<text x="1380.5" y="290" text-anchor="middle" class="note" style="font-size:14px">talent + learning</text>
<g id="matrix-item-hris" class="boundary-matrix-item" data-kind="registry"><rect x="1264.0" y="305" width="233.0" height="78" rx="6" fill="#FFFFFF" fill-opacity="0.03" stroke="#FFD84D" stroke-width="1.2"/><path d="M1288.0,334.0 L1298.0,352.0 H1278.0 Z" fill="none" stroke="#FFD84D" stroke-width="1.2"/><path d="M1288.0,341.0 V347.0 M1288.0,351.0 V351.0" class="icon-line" stroke="#FFD84D"/><text x="1306.0" y="342.21999999999997" text-anchor="start" class="matrix-title" style="font-size:19.4px;font-weight:700;fill:#F4F8FF">HRIS System</text><text x="1306.0" y="363.21999999999997" text-anchor="start" class="matrix-sub" style="font-size:15px;font-weight:500;fill:#C9DAF5">talent records</text></g>
<g id="matrix-item-lms" class="boundary-matrix-item" data-kind="package"><rect x="1264.0" y="393" width="233.0" height="78" rx="6" fill="#FFFFFF" fill-opacity="0.03" stroke="#6EE66E" stroke-width="1.2"/><rect x="1278.0" y="425.0" width="20" height="16" rx="3" fill="none" stroke="#6EE66E" stroke-width="1.2"/><path d="M1278.0,430.0 H1298.0 M1288.0,425.0 V441.0" class="icon-line" stroke="#6EE66E"/><text x="1306.0" y="430.21999999999997" text-anchor="start" class="matrix-title" style="font-size:19.4px;font-weight:700;fill:#F4F8FF">Learning System</text><text x="1306.0" y="451.21999999999997" text-anchor="start" class="matrix-sub" style="font-size:15px;font-weight:500;fill:#C9DAF5">training records</text></g>
<g id="matrix-item-people_data" class="boundary-matrix-item" data-kind="risk"><rect x="1264.0" y="481" width="233.0" height="78" rx="6" fill="#FFFFFF" fill-opacity="0.03" stroke="#FFD84D" stroke-width="1.2"/><path d="M1288.0,510.0 L1297.0,515.0 V525.0 L1288.0,530.0 L1279.0,525.0 V515.0 Z" fill="none" stroke="#FFD84D" stroke-width="1.2"/><path d="M1284.0,520.0 L1287.0,524.0 L1293.0,516.0" class="icon-line" stroke="#FFD84D"/><text x="1306.0" y="518.22" text-anchor="start" class="matrix-title" style="font-size:19.4px;font-weight:700;fill:#F4F8FF">People Data</text><text x="1306.0" y="539.22" text-anchor="start" class="matrix-sub" style="font-size:15px;font-weight:500;fill:#C9DAF5">restricted asset</text></g>
<g id="matrix-item-people_owner" class="boundary-matrix-item" data-kind="quality"><rect x="1264.0" y="569" width="233.0" height="78" rx="6" fill="#FFFFFF" fill-opacity="0.03" stroke="#FFD84D" stroke-width="1.2"/><path d="M1288.0,598.0 L1298.0,616.0 H1278.0 Z" fill="none" stroke="#FFD84D" stroke-width="1.2"/><path d="M1288.0,605.0 V611.0 M1288.0,615.0 V615.0" class="icon-line" stroke="#FFD84D"/><text x="1306.0" y="595.5" text-anchor="start" class="matrix-title" style="font-size:19.4px;font-weight:700;fill:#F4F8FF">People Data</text><text x="1306.0" y="616.94" text-anchor="start" class="matrix-title" style="font-size:19.4px;font-weight:700;fill:#F4F8FF">Owner</text><text x="1306.0" y="637.9399999999999" text-anchor="start" class="matrix-sub" style="font-size:15px;font-weight:500;fill:#C9DAF5">owner / steward</text></g>
<rect x="1533.0" y="247" width="269.0" height="420" rx="6" fill="#FFFFFF" fill-opacity="0.03" stroke="#B56CFF" stroke-opacity="0.7" stroke-width="1"/>
<text x="1667.5" y="271" text-anchor="middle" class="group-label" style="fill:#F4F8FF">Technology Domain</text>
<text x="1667.5" y="290" text-anchor="middle" class="note" style="font-size:14px">platform + access</text>
<g id="matrix-item-iam" class="boundary-matrix-item" data-kind="risk"><rect x="1551.0" y="305" width="233.0" height="78" rx="6" fill="#FFFFFF" fill-opacity="0.03" stroke="#FFD84D" stroke-width="1.2"/><path d="M1575.0,334.0 L1584.0,339.0 V349.0 L1575.0,354.0 L1566.0,349.0 V339.0 Z" fill="none" stroke="#FFD84D" stroke-width="1.2"/><path d="M1571.0,344.0 L1574.0,348.0 L1580.0,340.0" class="icon-line" stroke="#FFD84D"/><text x="1593.0" y="342.21999999999997" text-anchor="start" class="matrix-title" style="font-size:19.4px;font-weight:700;fill:#F4F8FF">IAM Platform</text><text x="1593.0" y="363.21999999999997" text-anchor="start" class="matrix-sub" style="font-size:15px;font-weight:500;fill:#C9DAF5">access control</text></g>
<g id="matrix-item-data_platform" class="boundary-matrix-item" data-kind="hub"><rect x="1551.0" y="393" width="233.0" height="78" rx="6" fill="#FFFFFF" fill-opacity="0.03" stroke="#16D9FF" stroke-width="1.2"/><circle cx="1575.0" cy="432.0" r="8" fill="none" stroke="#16D9FF" stroke-width="1.2"/><path d="M1570.0,432.0 H1580.0 M1575.0,427.0 V437.0" class="icon-line" stroke="#16D9FF"/><text x="1593.0" y="430.21999999999997" text-anchor="start" class="matrix-title" style="font-size:19.4px;font-weight:700;fill:#F4F8FF">Data Platform</text><text x="1593.0" y="451.21999999999997" text-anchor="start" class="matrix-sub" style="font-size:15px;font-weight:500;fill:#C9DAF5">shared services</text></g>
<g id="matrix-item-security_data" class="boundary-matrix-item" data-kind="evidence"><rect x="1551.0" y="481" width="233.0" height="78" rx="6" fill="#FFFFFF" fill-opacity="0.03" stroke="#C9DAF5" stroke-width="1.2"/><path d="M1565.0,510.0 H1579.0 L1585.0,516.0 V530.0 H1565.0 Z" fill="none" stroke="#C9DAF5" stroke-width="1.2"/><path d="M1579.0,510.0 V516.0 H1585.0" class="icon-line" stroke="#C9DAF5"/><text x="1593.0" y="518.22" text-anchor="start" class="matrix-title" style="font-size:19.4px;font-weight:700;fill:#F4F8FF">Security Data</text><text x="1593.0" y="539.22" text-anchor="start" class="matrix-sub" style="font-size:15px;font-weight:500;fill:#C9DAF5">audit evidence</text></g>
<g id="matrix-item-technology_owner" class="boundary-matrix-item" data-kind="quality"><rect x="1551.0" y="569" width="233.0" height="78" rx="6" fill="#FFFFFF" fill-opacity="0.03" stroke="#FFD84D" stroke-width="1.2"/><path d="M1575.0,598.0 L1585.0,616.0 H1565.0 Z" fill="none" stroke="#FFD84D" stroke-width="1.2"/><path d="M1575.0,605.0 V611.0 M1575.0,615.0 V615.0" class="icon-line" stroke="#FFD84D"/><text x="1593.0" y="606.22" text-anchor="start" class="matrix-title" style="font-size:19.4px;font-weight:700;fill:#F4F8FF">Technology Owner</text><text x="1593.0" y="627.22" text-anchor="start" class="matrix-sub" style="font-size:15px;font-weight:500;fill:#C9DAF5">owner / steward</text></g>
<rect x="70" y="719" width="1760" height="164" rx="8" fill="#FFFFFF" fill-opacity="0.03" stroke="#B56CFF" stroke-opacity="0.78" stroke-width="1"/>
<text x="950.0" y="749" text-anchor="middle" class="group-label" style="fill:#F4F8FF">EXTERNAL PARTNERS</text>
<g id="matrix-item-payment_gateway" class="boundary-matrix-item" data-kind="object"><rect x="264.0" y="781" width="260" height="78" rx="6" fill="#FFFFFF" fill-opacity="0.03" stroke="#B56CFF" stroke-width="1.2"/><circle cx="288.0" cy="820.0" r="8" fill="none" stroke="#B56CFF" stroke-width="1.2"/><path d="M283.0,820.0 H293.0 M288.0,815.0 V825.0" class="icon-line" stroke="#B56CFF"/><text x="306.0" y="818.22" text-anchor="start" class="matrix-title" style="font-size:19.4px;font-weight:700;fill:#F4F8FF">Payment Gateway</text><text x="306.0" y="839.22" text-anchor="start" class="matrix-sub" style="font-size:15px;font-weight:500;fill:#C9DAF5">transaction processor</text></g>
<g id="matrix-item-logistics_provider" class="boundary-matrix-item" data-kind="object"><rect x="542.0" y="781" width="260" height="78" rx="6" fill="#FFFFFF" fill-opacity="0.03" stroke="#B56CFF" stroke-width="1.2"/><circle cx="566.0" cy="820.0" r="8" fill="none" stroke="#B56CFF" stroke-width="1.2"/><path d="M561.0,820.0 H571.0 M566.0,815.0 V825.0" class="icon-line" stroke="#B56CFF"/><text x="584.0" y="818.22" text-anchor="start" class="matrix-title" style="font-size:19.4px;font-weight:700;fill:#F4F8FF">Logistics Provider</text><text x="584.0" y="839.22" text-anchor="start" class="matrix-sub" style="font-size:15px;font-weight:500;fill:#C9DAF5">shipment events</text></g>
<g id="matrix-item-cloud_provider" class="boundary-matrix-item" data-kind="hub"><rect x="820.0" y="781" width="260" height="78" rx="6" fill="#FFFFFF" fill-opacity="0.03" stroke="#B56CFF" stroke-width="1.2"/><circle cx="844.0" cy="820.0" r="8" fill="none" stroke="#B56CFF" stroke-width="1.2"/><path d="M839.0,820.0 H849.0 M844.0,815.0 V825.0" class="icon-line" stroke="#B56CFF"/><text x="862.0" y="818.22" text-anchor="start" class="matrix-title" style="font-size:19.4px;font-weight:700;fill:#F4F8FF">Cloud Provider</text><text x="862.0" y="839.22" text-anchor="start" class="matrix-sub" style="font-size:15px;font-weight:500;fill:#C9DAF5">platform services</text></g>
<g id="matrix-item-regulator" class="boundary-matrix-item" data-kind="risk"><rect x="1098.0" y="781" width="260" height="78" rx="6" fill="#FFFFFF" fill-opacity="0.03" stroke="#B56CFF" stroke-width="1.2"/><path d="M1122.0,810.0 L1131.0,815.0 V825.0 L1122.0,830.0 L1113.0,825.0 V815.0 Z" fill="none" stroke="#B56CFF" stroke-width="1.2"/><path d="M1118.0,820.0 L1121.0,824.0 L1127.0,816.0" class="icon-line" stroke="#B56CFF"/><text x="1140.0" y="807.5" text-anchor="start" class="matrix-title" style="font-size:19.4px;font-weight:700;fill:#F4F8FF">Regulatory</text><text x="1140.0" y="828.94" text-anchor="start" class="matrix-title" style="font-size:19.4px;font-weight:700;fill:#F4F8FF">Authority</text><text x="1140.0" y="849.9399999999999" text-anchor="start" class="matrix-sub" style="font-size:15px;font-weight:500;fill:#C9DAF5">audit boundary</text></g>
<g id="matrix-item-identity_provider" class="boundary-matrix-item" data-kind="object"><rect x="1376.0" y="781" width="260" height="78" rx="6" fill="#FFFFFF" fill-opacity="0.03" stroke="#B56CFF" stroke-width="1.2"/><circle cx="1400.0" cy="820.0" r="8" fill="none" stroke="#B56CFF" stroke-width="1.2"/><path d="M1395.0,820.0 H1405.0 M1400.0,815.0 V825.0" class="icon-line" stroke="#B56CFF"/><text x="1418.0" y="818.22" text-anchor="start" class="matrix-title" style="font-size:19.4px;font-weight:700;fill:#F4F8FF">Identity Provider</text><text x="1418.0" y="839.22" text-anchor="start" class="matrix-sub" style="font-size:15px;font-weight:500;fill:#C9DAF5">federated access</text></g>
<path d="M 349.0 520.0 L 362.5 520.0 Q 376.0 520.0 376.0 533.5 L 376.0 698.0 Q 376.0 707.0 385.0 707.0 L 385.0 707.0 Q 394.0 707.0 394.0 716.0 L 394.0 781.0" class="edge boundary-matrix-link" marker-end="url(#arrow)" style="stroke:#B56CFF;opacity:0.86" stroke-dasharray="6 5" data-from="customer_data" data-to="payment_gateway" data-corridor-x="376.0"/>
<path d="M 690.0 520.0 L 676.5 520.0 Q 663.0 520.0 663.0 533.5 L 663.0 702.5 Q 663.0 707.0 667.5 707.0 L 667.5 707.0 Q 672.0 707.0 672.0 711.5 L 672.0 781.0" class="edge boundary-matrix-link" marker-end="url(#arrow)" style="stroke:#FF9F2E;opacity:0.86" data-from="operations_data" data-to="logistics_provider" data-corridor-x="663.0"/>
<path d="M 1210.0 520.0 L 1223.5 520.0 Q 1237.0 520.0 1237.0 533.5 L 1237.0 702.5 Q 1237.0 707.0 1232.5 707.0 L 1232.5 707.0 Q 1228.0 707.0 1228.0 711.5 L 1228.0 781.0" class="edge boundary-matrix-link" marker-end="url(#arrow)" style="stroke:#FFD84D;opacity:0.86" stroke-dasharray="6 5" data-from="financial_data" data-to="regulator" data-corridor-x="1237.0"/>
<path d="M 1551.0 432.0 L 1537.5 432.0 Q 1524.0 432.0 1524.0 445.5 L 1524.0 693.0 Q 1524.0 707.0 1510.0 707.0 L 964.0 707.0 Q 950.0 707.0 950.0 721.0 L 950.0 781.0" class="edge boundary-matrix-link" marker-end="url(#arrow)" style="stroke:#B56CFF;opacity:0.86" stroke-dasharray="6 5" data-from="data_platform" data-to="cloud_provider" data-corridor-x="1524.0"/>
<path d="M 1551.0 344.0 L 1533.0 344.0 Q 1519.0 344.0 1519.0 358.0 L 1519.0 700.5 Q 1519.0 707.0 1512.5 707.0 L 1512.5 707.0 Q 1506.0 707.0 1506.0 713.5 L 1506.0 781.0" class="edge boundary-matrix-link" marker-end="url(#arrow)" style="stroke:#B56CFF;opacity:0.86" stroke-dasharray="6 5" data-from="iam" data-to="identity_provider" data-corridor-x="1519.0"/>
<rect x="70" y="909" width="430" height="266" rx="6" fill="#FFFFFF" fill-opacity="0.03" stroke="#F4F8FF" stroke-opacity="0.58" stroke-width="1"/>
<text x="88" y="935" class="table-header">OWNERSHIP KEY (RACI)</text>
<text x="92" y="965" class="table-cell" style="font-size:16px;font-weight:700">R</text>
<text x="125" y="965" class="table-cell-secondary" style="font-size:16px">Responsible - Executes / ensures</text>
<text x="92" y="990" class="table-cell" style="font-size:16px;font-weight:700">A</text>
<text x="125" y="990" class="table-cell-secondary" style="font-size:16px">Accountable - Owns outcome</text>
<text x="92" y="1015" class="table-cell" style="font-size:16px;font-weight:700">C</text>
<text x="125" y="1015" class="table-cell-secondary" style="font-size:16px">Consulted - Provides input</text>
<text x="92" y="1040" class="table-cell" style="font-size:16px;font-weight:700">I</text>
<text x="125" y="1040" class="table-cell-secondary" style="font-size:16px">Informed - Kept updated</text>
<rect x="522" y="909" width="1308" height="266" rx="6" fill="#FFFFFF" fill-opacity="0.03" stroke="#F4F8FF" stroke-opacity="0.58" stroke-width="1"/>
<text x="1176.0" y="929" text-anchor="middle" class="table-header" style="font-size:16px">OWNERSHIP ASSIGNMENTS</text>
<line x1="534" y1="937" x2="1818" y2="937" stroke="#F4F8FF" stroke-opacity="0.58" stroke-width="1"/>
<text x="544.0" y="959" text-anchor="start" class="table-header" style="font-size:16px">Data / Asset</text>
<line x1="754.0" y1="937" x2="754.0" y2="1175" stroke="#F4F8FF" stroke-opacity="0.58" stroke-width="1"/>
<text x="764.0" y="959" text-anchor="start" class="table-header" style="font-size:16px">Business Owner</text>
<line x1="944.0" y1="937" x2="944.0" y2="1175" stroke="#F4F8FF" stroke-opacity="0.58" stroke-width="1"/>
<text x="954.0" y="959" text-anchor="start" class="table-header" style="font-size:16px">Data Owner</text>
<line x1="1154.0" y1="937" x2="1154.0" y2="1175" stroke="#F4F8FF" stroke-opacity="0.58" stroke-width="1"/>
<text x="1164.0" y="959" text-anchor="start" class="table-header" style="font-size:16px">System Owner</text>
<line x1="1364.0" y1="937" x2="1364.0" y2="1175" stroke="#F4F8FF" stroke-opacity="0.58" stroke-width="1"/>
<text x="1374.0" y="959" text-anchor="start" class="table-header" style="font-size:16px">Steward</text>
<line x1="1574.0" y1="937" x2="1574.0" y2="1175" stroke="#F4F8FF" stroke-opacity="0.58" stroke-width="1"/>
<text x="1629.0" y="959" text-anchor="middle" class="table-header" style="font-size:16px">RACI</text>
<line x1="534" y1="971" x2="1818" y2="971" stroke="#F4F8FF" stroke-opacity="0.58" stroke-width="1"/>
<text x="544.0" y="993" text-anchor="start" class="table-cell" style="font-size:16px">Customer Data</text>
<text x="764.0" y="993" text-anchor="start" class="table-cell-secondary" style="font-size:16px">CRO</text>
<text x="954.0" y="993" text-anchor="start" class="table-cell-secondary" style="font-size:16px">Head of Customer Ops</text>
<text x="1164.0" y="993" text-anchor="start" class="table-cell-secondary" style="font-size:16px">CRM Owner</text>
<text x="1374.0" y="993" text-anchor="start" class="table-cell-secondary" style="font-size:16px">Customer Data Steward</text>
<text x="1629.0" y="993" text-anchor="middle" class="table-cell-secondary" style="font-size:16px">A/R</text>
<line x1="534" y1="1005" x2="1818" y2="1005" stroke="#F4F8FF" stroke-opacity="0.58" stroke-width="1"/>
<text x="544.0" y="1027" text-anchor="start" class="table-cell" style="font-size:16px">Product Data</text>
<text x="764.0" y="1027" text-anchor="start" class="table-cell-secondary" style="font-size:16px">CPO</text>
<text x="954.0" y="1027" text-anchor="start" class="table-cell-secondary" style="font-size:16px">Product Data Owner</text>
<text x="1164.0" y="1027" text-anchor="start" class="table-cell-secondary" style="font-size:16px">PLM Owner</text>
<text x="1374.0" y="1027" text-anchor="start" class="table-cell-secondary" style="font-size:16px">Product Steward</text>
<text x="1629.0" y="1027" text-anchor="middle" class="table-cell-secondary" style="font-size:16px">A/R</text>
<line x1="534" y1="1039" x2="1818" y2="1039" stroke="#F4F8FF" stroke-opacity="0.58" stroke-width="1"/>
<text x="544.0" y="1061" text-anchor="start" class="table-cell" style="font-size:16px">Operations Data</text>
<text x="764.0" y="1061" text-anchor="start" class="table-cell-secondary" style="font-size:16px">COO</text>
<text x="954.0" y="1061" text-anchor="start" class="table-cell-secondary" style="font-size:16px">Operations Data Owner</text>
<text x="1164.0" y="1061" text-anchor="start" class="table-cell-secondary" style="font-size:16px">MES Owner</text>
<text x="1374.0" y="1061" text-anchor="start" class="table-cell-secondary" style="font-size:16px">Ops Steward</text>
<text x="1629.0" y="1061" text-anchor="middle" class="table-cell-secondary" style="font-size:16px">A/R</text>
<line x1="534" y1="1073" x2="1818" y2="1073" stroke="#F4F8FF" stroke-opacity="0.58" stroke-width="1"/>
<text x="544.0" y="1095" text-anchor="start" class="table-cell" style="font-size:16px">Financial Data</text>
<text x="764.0" y="1095" text-anchor="start" class="table-cell-secondary" style="font-size:16px">CFO</text>
<text x="954.0" y="1095" text-anchor="start" class="table-cell-secondary" style="font-size:16px">Finance Data Owner</text>
<text x="1164.0" y="1095" text-anchor="start" class="table-cell-secondary" style="font-size:16px">Finance Owner</text>
<text x="1374.0" y="1095" text-anchor="start" class="table-cell-secondary" style="font-size:16px">Finance Steward</text>
<text x="1629.0" y="1095" text-anchor="middle" class="table-cell-secondary" style="font-size:16px">A/R</text>
<line x1="534" y1="1107" x2="1818" y2="1107" stroke="#F4F8FF" stroke-opacity="0.58" stroke-width="1"/>
<text x="544.0" y="1129" text-anchor="start" class="table-cell" style="font-size:16px">People Data</text>
<text x="764.0" y="1129" text-anchor="start" class="table-cell-secondary" style="font-size:16px">CHRO</text>
<text x="954.0" y="1129" text-anchor="start" class="table-cell-secondary" style="font-size:16px">People Data Owner</text>
<text x="1164.0" y="1129" text-anchor="start" class="table-cell-secondary" style="font-size:16px">HRIS Owner</text>
<text x="1374.0" y="1129" text-anchor="start" class="table-cell-secondary" style="font-size:16px">People Steward</text>
<text x="1629.0" y="1129" text-anchor="middle" class="table-cell-secondary" style="font-size:16px">A/R</text>
<line x1="534" y1="1141" x2="1818" y2="1141" stroke="#F4F8FF" stroke-opacity="0.58" stroke-width="1"/>
<text x="544.0" y="1163" text-anchor="start" class="table-cell" style="font-size:16px">Security Data</text>
<text x="764.0" y="1163" text-anchor="start" class="table-cell-secondary" style="font-size:16px">CIO</text>
<text x="954.0" y="1163" text-anchor="start" class="table-cell-secondary" style="font-size:16px">Security Owner</text>
<text x="1164.0" y="1163" text-anchor="start" class="table-cell-secondary" style="font-size:16px">IAM Owner</text>
<text x="1374.0" y="1163" text-anchor="start" class="table-cell-secondary" style="font-size:16px">Security Steward</text>
<text x="1629.0" y="1163" text-anchor="middle" class="table-cell-secondary" style="font-size:16px">A/R</text>
<text x="950.0" y="1219" text-anchor="middle" class="note">Stress template: dense ownership maps should keep domain lanes, external boundaries, and RACI assignments readable.</text>
</svg>
