<svg xmlns="http://www.w3.org/2000/svg" width="1900" height="1067" viewBox="0 0 1900 1067" role="img" aria-label="Boundary Ownership Map Stress" data-style="accent-blueprint" data-diagram-type="boundary_ownership_map">
<defs>
  <pattern id="blueprint-grid-small" width="12" height="12" patternUnits="userSpaceOnUse"><path d="M 12 0 H 0 V 12" fill="none" stroke="#FFFFFF" stroke-opacity="0.08" stroke-width="0.7"/></pattern>
  <pattern id="blueprint-grid" width="60" height="60" patternUnits="userSpaceOnUse"><rect width="60" height="60" fill="url(#blueprint-grid-small)"/><path d="M 60 0 H 0 V 60" fill="none" stroke="#FFFFFF" stroke-opacity="0.14" stroke-width="1"/> </pattern>
  <marker id="arrow" markerWidth="10" markerHeight="10" refX="8.5" refY="3" orient="auto" markerUnits="strokeWidth"><path d="M0,0 L0,6 L9,3 z" fill="context-stroke"/></marker>
  <marker id="arrow-fanout" markerWidth="10" markerHeight="10" refX="8.5" refY="3" orient="auto" markerUnits="strokeWidth"><path d="M0,0 L0,6 L9,3 z" fill="context-stroke"/></marker>
  <marker id="arrow-fanin" markerWidth="10" markerHeight="10" refX="8.5" refY="3" orient="auto" markerUnits="strokeWidth"><path d="M0,0 L0,6 L9,3 z" fill="context-stroke"/></marker>
  <style>
    [data-style="accent-blueprint"] .title{font:700 27px IBM Plex Mono,JetBrains Mono,Consolas,monospace;fill:#F4F8FF;letter-spacing:.04em;text-transform:uppercase}
    [data-style="accent-blueprint"] .subtitle{font:400 13px IBM Plex Sans,Inter,Roboto Condensed,DIN,Segoe UI,Aptos,Arial,sans-serif;fill:#C9DAF5}
    [data-style="accent-blueprint"] .group-label{font:700 15px IBM Plex Mono,JetBrains Mono,Consolas,monospace;fill:#C9DAF5;letter-spacing:.08em;text-transform:uppercase}
    [data-style="accent-blueprint"] .card-title{font:700 17px IBM Plex Sans,Inter,Roboto Condensed,DIN,Segoe UI,Aptos,Arial,sans-serif;fill:#F4F8FF}
    [data-style="accent-blueprint"] .card-sub{font:500 13px IBM Plex Sans,Inter,Roboto Condensed,DIN,Segoe UI,Aptos,Arial,sans-serif;fill:#C9DAF5}
    [data-style="accent-blueprint"] .edge{fill:none;stroke:#F4F8FF;stroke-width:1.5;stroke-linecap:round;stroke-linejoin:round;opacity:0.88}
    [data-style="accent-blueprint"] .fanout{stroke:#FF9F2E;opacity:0.9}
    [data-style="accent-blueprint"] .fanin{stroke:#6EE66E;opacity:0.9}
    [data-style="accent-blueprint"] .route-shared{marker-end:none}
    [data-style="accent-blueprint"] .edge-dashed{stroke-dasharray:6 5;opacity:0.68}
    [data-style="accent-blueprint"] .note{font:500 14px IBM Plex Sans,Inter,Roboto Condensed,DIN,Segoe UI,Aptos,Arial,sans-serif;fill:#C9DAF5}
    [data-style="accent-blueprint"] .mono{font-family:IBM Plex Mono,JetBrains Mono,Consolas,monospace}
    [data-style="accent-blueprint"] .table-header{font:700 15.5px IBM Plex Mono,JetBrains Mono,Consolas,monospace;fill:#F4F8FF;letter-spacing:.08em;text-transform:uppercase}
    [data-style="accent-blueprint"] .table-cell{font:500 17px IBM Plex Sans,Inter,Roboto Condensed,DIN,Segoe UI,Aptos,Arial,sans-serif;fill:#F4F8FF}
    [data-style="accent-blueprint"] .table-cell-secondary{font:500 17px IBM Plex Sans,Inter,Roboto Condensed,DIN,Segoe UI,Aptos,Arial,sans-serif;fill:#C9DAF5}
    [data-style="accent-blueprint"] .tree-level-label{font:700 15px IBM Plex Mono,JetBrains Mono,Consolas,monospace;fill:#C9DAF5;letter-spacing:.08em;text-transform:uppercase}
    [data-style="accent-blueprint"] .hub-label{font:700 15px IBM Plex Mono,JetBrains Mono,Consolas,monospace;fill:#C9DAF5;letter-spacing:.08em;text-transform:uppercase}
    [data-style="accent-blueprint"] .icon-line{fill:none;stroke-width:1.3;stroke-linecap:round;stroke-linejoin:round}
  </style>
</defs>
<rect x="0" y="0" width="1900" height="1067" rx="0" fill="#062B5F"/>
<rect x="0" y="0" width="1900" height="1067" rx="0" fill="url(#blueprint-grid)" opacity="1"/>
<text x="950.0" y="54" text-anchor="middle" class="title">Boundary Ownership Map Stress</text>
<text x="950.0" y="80" text-anchor="middle" class="subtitle">Stress contract with domains, systems, assets, and owner assignments</text>
<rect x="70" y="115" width="1760" height="196" class="group-panel" rx="8" fill="#FFFFFF" fill-opacity="0.03" stroke="#F4F8FF" stroke-opacity="0.7" stroke-width="1"/>
<rect x="70" y="343" width="1760" height="196" class="group-panel" rx="8" fill="#FFFFFF" fill-opacity="0.03" stroke="#F4F8FF" stroke-opacity="0.7" stroke-width="1"/>
<rect x="70" y="571" width="1760" height="196" class="group-panel" rx="8" fill="#FFFFFF" fill-opacity="0.03" stroke="#F4F8FF" stroke-opacity="0.7" stroke-width="1"/>
<rect x="70" y="799" width="1760" height="196" class="group-panel" rx="8" fill="#FFFFFF" fill-opacity="0.03" stroke="#F4F8FF" stroke-opacity="0.7" stroke-width="1"/>
<path d="M 326.0 279 L 326.0 407" class="edge" marker-end="url(#arrow)"/>
<path d="M 742.0 279 L 742.0 407" class="edge" marker-end="url(#arrow)"/>
<path d="M 1158.0 279 L 1158.0 407" class="edge" marker-end="url(#arrow)"/>
<path d="M 1574.0 279 L 1574.0 407" class="edge" marker-end="url(#arrow)"/>
<path d="M 326.0 507 L 326.0 635" class="edge" marker-end="url(#arrow)"/>
<path d="M 742.0 507 L 742.0 635" class="edge" marker-end="url(#arrow)"/>
<path d="M 1158.0 507 L 1158.0 635" class="edge" marker-end="url(#arrow)"/>
<path d="M 1574.0 507 L 1574.0 635" class="edge" marker-end="url(#arrow)"/>
<path d="M 326.0 735 L 326.0 863" class="edge" marker-end="url(#arrow)"/>
<path d="M 742.0 735 L 742.0 863" class="edge" marker-end="url(#arrow)"/>
<path d="M 1158.0 735 L 1158.0 863" class="edge" marker-end="url(#arrow)"/>
<path d="M 1574.0 735 L 1574.0 863" class="edge" marker-end="url(#arrow)"/>
<g class="group-label-wrap"><rect x="88" y="121" width="175.20000000000002" height="30" rx="7" fill="#062B5F" fill-opacity="0.78"/><text x="98" y="141" class="group-label">Enterprise domains</text></g>
<g class="group-label-wrap"><rect x="88" y="349" width="225.60000000000002" height="30" rx="7" fill="#062B5F" fill-opacity="0.78"/><text x="98" y="369" class="group-label">Systems and applications</text></g>
<g class="group-label-wrap"><rect x="88" y="577" width="234.0" height="30" rx="7" fill="#062B5F" fill-opacity="0.78"/><text x="98" y="597" class="group-label">Data and knowledge assets</text></g>
<g class="group-label-wrap"><rect x="88" y="805" width="234.0" height="30" rx="7" fill="#062B5F" fill-opacity="0.78"/><text x="98" y="825" class="group-label">Ownership and stewardship</text></g>
<g id="node-customer" class="card node-card"><rect x="146.0" y="179" width="360" height="100" rx="6" fill="#FFFFFF" fill-opacity="0.03" stroke="#16D9FF" stroke-width="1.3"/><rect x="164.0" y="222.0" width="20" height="16" rx="3" fill="none" stroke="#16D9FF" stroke-width="1.2"/><path d="M164.0,227.0 H184.0 M174.0,222.0 V238.0" class="icon-line" stroke="#16D9FF"/><text x="200.0" y="228.0874" text-anchor="start" class="card-title" style="font-size:23.2px">Customer Domain</text><text x="200.0" y="251.4046" text-anchor="start" class="card-sub" style="font-size:17.3px">market + service</text></g>
<g id="node-product" class="card node-card"><rect x="562.0" y="179" width="360" height="100" rx="6" fill="#FFFFFF" fill-opacity="0.03" stroke="#16D9FF" stroke-width="1.3"/><rect x="580.0" y="222.0" width="20" height="16" rx="3" fill="none" stroke="#16D9FF" stroke-width="1.2"/><path d="M580.0,227.0 H600.0 M590.0,222.0 V238.0" class="icon-line" stroke="#16D9FF"/><text x="616.0" y="228.0874" text-anchor="start" class="card-title" style="font-size:23.2px">Product Domain</text><text x="616.0" y="251.4046" text-anchor="start" class="card-sub" style="font-size:17.3px">portfolio</text></g>
<g id="node-operations" class="card node-card"><rect x="978.0" y="179" width="360" height="100" rx="6" fill="#FFFFFF" fill-opacity="0.03" stroke="#FF9F2E" stroke-width="1.3"/><circle cx="1000.0" cy="230.0" r="4" fill="none" stroke="#FF9F2E" stroke-width="1.6"/><circle cx="1014.0" cy="223.0" r="4" fill="none" stroke="#FF9F2E" stroke-width="1.6"/><circle cx="1014.0" cy="237.0" r="4" fill="none" stroke="#FF9F2E" stroke-width="1.6"/><path d="M1004.0,230.0 H1008.0 M1010.0,226.0 L1008.0,230.0 L1010.0,234.0" class="icon-line" stroke="#FF9F2E"/><text x="1032.0" y="228.0874" text-anchor="start" class="card-title" style="font-size:23.2px">Operations Domain</text><text x="1032.0" y="251.4046" text-anchor="start" class="card-sub" style="font-size:17.3px">execution</text></g>
<g id="node-finance" class="card node-card"><rect x="1394.0" y="179" width="360" height="100" rx="6" fill="#FFFFFF" fill-opacity="0.03" stroke="#FFD84D" stroke-width="1.3"/><path d="M1422.0,219.0 L1432.0,237.0 H1412.0 Z" fill="none" stroke="#FFD84D" stroke-width="1.2"/><path d="M1422.0,226.0 V232.0 M1422.0,236.0 V236.0" class="icon-line" stroke="#FFD84D"/><text x="1448.0" y="228.0874" text-anchor="start" class="card-title" style="font-size:23.2px">Finance Domain</text><text x="1448.0" y="251.4046" text-anchor="start" class="card-sub" style="font-size:17.3px">controls</text></g>
<g id="node-crm" class="card node-card"><rect x="146.0" y="407" width="360" height="100" rx="6" fill="#FFFFFF" fill-opacity="0.03" stroke="#FFD84D" stroke-width="1.3"/><path d="M174.0,447.0 L184.0,465.0 H164.0 Z" fill="none" stroke="#FFD84D" stroke-width="1.2"/><path d="M174.0,454.0 V460.0 M174.0,464.0 V464.0" class="icon-line" stroke="#FFD84D"/><text x="200.0" y="456.0874" text-anchor="start" class="card-title" style="font-size:23.2px">CRM System</text><text x="200.0" y="479.40459999999996" text-anchor="start" class="card-sub" style="font-size:17.3px">customer records</text></g>
<g id="node-plm" class="card node-card"><rect x="562.0" y="407" width="360" height="100" rx="6" fill="#FFFFFF" fill-opacity="0.03" stroke="#F4F8FF" stroke-width="1.3"/><path d="M580.0,447.0 H594.0 L600.0,453.0 V467.0 H580.0 Z" fill="none" stroke="#F4F8FF" stroke-width="1.2"/><path d="M594.0,447.0 V453.0 H600.0" class="icon-line" stroke="#F4F8FF"/><text x="616.0" y="456.0874" text-anchor="start" class="card-title" style="font-size:23.2px">PLM System</text><text x="616.0" y="479.40459999999996" text-anchor="start" class="card-sub" style="font-size:17.3px">product records</text></g>
<g id="node-mes" class="card node-card"><rect x="978.0" y="407" width="360" height="100" rx="6" fill="#FFFFFF" fill-opacity="0.03" stroke="#F4F8FF" stroke-width="1.3"/><path d="M996.0,447.0 H1010.0 L1016.0,453.0 V467.0 H996.0 Z" fill="none" stroke="#F4F8FF" stroke-width="1.2"/><path d="M1010.0,447.0 V453.0 H1016.0" class="icon-line" stroke="#F4F8FF"/><text x="1032.0" y="456.0874" text-anchor="start" class="card-title" style="font-size:23.2px">MES System</text><text x="1032.0" y="479.40459999999996" text-anchor="start" class="card-sub" style="font-size:17.3px">execution records</text></g>
<g id="node-erp" class="card node-card"><rect x="1394.0" y="407" width="360" height="100" rx="6" fill="#FFFFFF" fill-opacity="0.03" stroke="#F4F8FF" stroke-width="1.3"/><path d="M1412.0,447.0 H1426.0 L1432.0,453.0 V467.0 H1412.0 Z" fill="none" stroke="#F4F8FF" stroke-width="1.2"/><path d="M1426.0,447.0 V453.0 H1432.0" class="icon-line" stroke="#F4F8FF"/><text x="1448.0" y="456.0874" text-anchor="start" class="card-title" style="font-size:23.2px">ERP System</text><text x="1448.0" y="479.40459999999996" text-anchor="start" class="card-sub" style="font-size:17.3px">financial controls</text></g>
<g id="node-customer_data" class="card node-card"><rect x="146.0" y="635" width="360" height="100" rx="6" fill="#FFFFFF" fill-opacity="0.03" stroke="#6EE66E" stroke-width="1.3"/><rect x="164.0" y="678.0" width="20" height="16" rx="3" fill="none" stroke="#6EE66E" stroke-width="1.2"/><path d="M164.0,683.0 H184.0 M174.0,678.0 V694.0" class="icon-line" stroke="#6EE66E"/><text x="200.0" y="684.0874" text-anchor="start" class="card-title" style="font-size:23.2px">Customer Data</text><text x="200.0" y="707.4046" text-anchor="start" class="card-sub" style="font-size:17.3px">shared asset</text></g>
<g id="node-product_data" class="card node-card"><rect x="562.0" y="635" width="360" height="100" rx="6" fill="#FFFFFF" fill-opacity="0.03" stroke="#6EE66E" stroke-width="1.3"/><rect x="580.0" y="678.0" width="20" height="16" rx="3" fill="none" stroke="#6EE66E" stroke-width="1.2"/><path d="M580.0,683.0 H600.0 M590.0,678.0 V694.0" class="icon-line" stroke="#6EE66E"/><text x="616.0" y="684.0874" text-anchor="start" class="card-title" style="font-size:23.2px">Product Data</text><text x="616.0" y="707.4046" text-anchor="start" class="card-sub" style="font-size:17.3px">controlled asset</text></g>
<g id="node-operations_data" class="card node-card"><rect x="978.0" y="635" width="360" height="100" rx="6" fill="#FFFFFF" fill-opacity="0.03" stroke="#FFD84D" stroke-width="1.3"/><path d="M1006.0,675.0 L1015.0,680.0 V690.0 L1006.0,695.0 L997.0,690.0 V680.0 Z" fill="none" stroke="#FFD84D" stroke-width="1.2"/><path d="M1002.0,685.0 L1005.0,689.0 L1011.0,681.0" class="icon-line" stroke="#FFD84D"/><text x="1032.0" y="684.0874" text-anchor="start" class="card-title" style="font-size:23.2px">Operations Data</text><text x="1032.0" y="707.4046" text-anchor="start" class="card-sub" style="font-size:17.3px">regulated asset</text></g>
<g id="node-finance_data" class="card node-card"><rect x="1394.0" y="635" width="360" height="100" rx="6" fill="#FFFFFF" fill-opacity="0.03" stroke="#FFD84D" stroke-width="1.3"/><path d="M1422.0,675.0 L1432.0,693.0 H1412.0 Z" fill="none" stroke="#FFD84D" stroke-width="1.2"/><path d="M1422.0,682.0 V688.0 M1422.0,692.0 V692.0" class="icon-line" stroke="#FFD84D"/><text x="1448.0" y="684.0874" text-anchor="start" class="card-title" style="font-size:23.2px">Financial Data</text><text x="1448.0" y="707.4046" text-anchor="start" class="card-sub" style="font-size:17.3px">governed asset</text></g>
<g id="node-business_owner" class="card node-card"><rect x="146.0" y="863" width="360" height="100" rx="6" fill="#FFFFFF" fill-opacity="0.03" stroke="#FFD84D" stroke-width="1.3"/><path d="M174.0,903.0 L184.0,921.0 H164.0 Z" fill="none" stroke="#FFD84D" stroke-width="1.2"/><path d="M174.0,910.0 V916.0 M174.0,920.0 V920.0" class="icon-line" stroke="#FFD84D"/><text x="200.0" y="912.0874" text-anchor="start" class="card-title" style="font-size:23.2px">Business Owner</text><text x="200.0" y="935.4046" text-anchor="start" class="card-sub" style="font-size:17.3px">accountable</text></g>
<g id="node-system_owner" class="card node-card"><rect x="562.0" y="863" width="360" height="100" rx="6" fill="#FFFFFF" fill-opacity="0.03" stroke="#FFD84D" stroke-width="1.3"/><path d="M590.0,903.0 L600.0,921.0 H580.0 Z" fill="none" stroke="#FFD84D" stroke-width="1.2"/><path d="M590.0,910.0 V916.0 M590.0,920.0 V920.0" class="icon-line" stroke="#FFD84D"/><text x="616.0" y="912.0874" text-anchor="start" class="card-title" style="font-size:23.2px">System Owner</text><text x="616.0" y="935.4046" text-anchor="start" class="card-sub" style="font-size:17.3px">responsible</text></g>
<g id="node-data_steward" class="card node-card"><rect x="978.0" y="863" width="360" height="100" rx="6" fill="#FFFFFF" fill-opacity="0.03" stroke="#FFD84D" stroke-width="1.3"/><path d="M1006.0,903.0 L1015.0,908.0 V918.0 L1006.0,923.0 L997.0,918.0 V908.0 Z" fill="none" stroke="#FFD84D" stroke-width="1.2"/><path d="M1002.0,913.0 L1005.0,917.0 L1011.0,909.0" class="icon-line" stroke="#FFD84D"/><text x="1032.0" y="912.0874" text-anchor="start" class="card-title" style="font-size:23.2px">Data Steward</text><text x="1032.0" y="935.4046" text-anchor="start" class="card-sub" style="font-size:17.3px">quality guardrail</text></g>
<g id="node-security_owner" class="card node-card"><rect x="1394.0" y="863" width="360" height="100" rx="6" fill="#FFFFFF" fill-opacity="0.03" stroke="#FFD84D" stroke-width="1.3"/><path d="M1422.0,903.0 L1431.0,908.0 V918.0 L1422.0,923.0 L1413.0,918.0 V908.0 Z" fill="none" stroke="#FFD84D" stroke-width="1.2"/><path d="M1418.0,913.0 L1421.0,917.0 L1427.0,909.0" class="icon-line" stroke="#FFD84D"/><text x="1448.0" y="912.0874" text-anchor="start" class="card-title" style="font-size:23.2px">Security Owner</text><text x="1448.0" y="935.4046" text-anchor="start" class="card-sub" style="font-size:17.3px">access guardrail</text></g>
<text x="950.0" y="1039" text-anchor="middle" class="note">Stress template: repeated boundary rows should keep spacing and ownership links readable.</text>
</svg>
