<svg xmlns="http://www.w3.org/2000/svg" width="1900" height="1307" viewBox="0 0 1900 1307" role="img" aria-label="Source Boundary Map Stress" data-style="accent-blueprint" data-diagram-type="source_boundary_map">
<defs>
  <pattern id="blueprint-grid-small" width="15.2" height="15.2" patternUnits="userSpaceOnUse"><path d="M 15.2 0 H 0 V 15.2" fill="none" stroke="#FFFFFF" stroke-opacity="0.08" stroke-width="0.89"/></pattern>
  <pattern id="blueprint-grid" width="76" height="76" patternUnits="userSpaceOnUse"><rect width="76" height="76" fill="url(#blueprint-grid-small)"/><path d="M 76 0 H 0 V 76" fill="none" stroke="#FFFFFF" stroke-opacity="0.14" stroke-width="1.27"/> </pattern>
  <marker id="arrow" markerWidth="10" markerHeight="10" refX="8.5" refY="3" orient="auto" markerUnits="strokeWidth"><path d="M0,0 L0,6 L9,3 z" fill="context-stroke"/></marker>
  <marker id="arrow-fanout" markerWidth="10" markerHeight="10" refX="8.5" refY="3" orient="auto" markerUnits="strokeWidth"><path d="M0,0 L0,6 L9,3 z" fill="context-stroke"/></marker>
  <marker id="arrow-fanin" markerWidth="10" markerHeight="10" refX="8.5" refY="3" orient="auto" markerUnits="strokeWidth"><path d="M0,0 L0,6 L9,3 z" fill="context-stroke"/></marker>
  <style>
    [data-style="accent-blueprint"] .title{font:700 27px IBM Plex Mono,JetBrains Mono,Consolas,monospace;fill:#F4F8FF;letter-spacing:.04em;text-transform:uppercase}
    [data-style="accent-blueprint"] .subtitle{font:400 13px IBM Plex Sans,Inter,Roboto Condensed,DIN,Segoe UI,Aptos,Arial,sans-serif;fill:#C9DAF5}
    [data-style="accent-blueprint"] .group-label{font:700 15px IBM Plex Mono,JetBrains Mono,Consolas,monospace;fill:#C9DAF5;letter-spacing:.08em;text-transform:uppercase}
    [data-style="accent-blueprint"] .card-title{font:700 17px IBM Plex Sans,Inter,Roboto Condensed,DIN,Segoe UI,Aptos,Arial,sans-serif;fill:#F4F8FF}
    [data-style="accent-blueprint"] .card-sub{font:500 13px IBM Plex Sans,Inter,Roboto Condensed,DIN,Segoe UI,Aptos,Arial,sans-serif;fill:#C9DAF5}
    [data-style="accent-blueprint"] .edge{fill:none;stroke:#F4F8FF;stroke-width:1.5;stroke-linecap:round;stroke-linejoin:round;opacity:0.88}
    [data-style="accent-blueprint"] .fanout{stroke:#FF9F2E;opacity:0.9}
    [data-style="accent-blueprint"] .fanin{stroke:#6EE66E;opacity:0.9}
    [data-style="accent-blueprint"] .route-shared{marker-end:none}
    [data-style="accent-blueprint"] .edge-dashed{stroke-dasharray:6 5;opacity:0.68}
    [data-style="accent-blueprint"] .note{font:500 14px IBM Plex Sans,Inter,Roboto Condensed,DIN,Segoe UI,Aptos,Arial,sans-serif;fill:#C9DAF5}
    [data-style="accent-blueprint"] .mono{font-family:IBM Plex Mono,JetBrains Mono,Consolas,monospace}
    [data-style="accent-blueprint"] .table-header{font:700 15.5px IBM Plex Mono,JetBrains Mono,Consolas,monospace;fill:#F4F8FF;letter-spacing:.08em;text-transform:uppercase}
    [data-style="accent-blueprint"] .table-cell{font:500 17px IBM Plex Sans,Inter,Roboto Condensed,DIN,Segoe UI,Aptos,Arial,sans-serif;fill:#F4F8FF}
    [data-style="accent-blueprint"] .table-cell-secondary{font:500 17px IBM Plex Sans,Inter,Roboto Condensed,DIN,Segoe UI,Aptos,Arial,sans-serif;fill:#C9DAF5}
    [data-style="accent-blueprint"] .info-panel-title{font:700 15px IBM Plex Mono,JetBrains Mono,Consolas,monospace;fill:#F4F8FF;letter-spacing:.08em;text-transform:uppercase}
    [data-style="accent-blueprint"] .info-panel-item{font:500 14px IBM Plex Sans,Inter,Roboto Condensed,DIN,Segoe UI,Aptos,Arial,sans-serif;fill:#C9DAF5}
    [data-style="accent-blueprint"] .tree-level-label{font:700 15px IBM Plex Mono,JetBrains Mono,Consolas,monospace;fill:#C9DAF5;letter-spacing:.08em;text-transform:uppercase}
    [data-style="accent-blueprint"] .hub-label{font:700 15px IBM Plex Mono,JetBrains Mono,Consolas,monospace;fill:#C9DAF5;letter-spacing:.08em;text-transform:uppercase}
    [data-style="accent-blueprint"] .icon-line{fill:none;stroke-width:1.3;stroke-linecap:round;stroke-linejoin:round}
  </style>
</defs>
<rect x="0" y="0" width="1900" height="1307" rx="0" fill="#062B5F"/>
<rect x="0" y="0" width="1900" height="1307" rx="0" fill="url(#blueprint-grid)" opacity="1"/>
<text x="950.0" y="54" text-anchor="middle" class="title">Source Boundary Map Stress</text>
<text x="950.0" y="80.0" text-anchor="middle" class="subtitle">Stress contract with multiple derived packages and authority targets</text>
<rect x="70" y="115" width="1760" height="196" class="group-panel" rx="8" fill="#FFFFFF" fill-opacity="0.03" stroke="#F4F8FF" stroke-opacity="0.7" stroke-width="1"/>
<rect x="70" y="343" width="1760" height="196" class="group-panel" rx="8" fill="#FFFFFF" fill-opacity="0.03" stroke="#F4F8FF" stroke-opacity="0.7" stroke-width="1"/>
<rect x="70" y="571" width="1760" height="436" class="group-panel" rx="8" fill="#FFFFFF" fill-opacity="0.03" stroke="#F4F8FF" stroke-opacity="0.7" stroke-width="1"/>
<rect x="70" y="1039" width="1760" height="196" class="group-panel" rx="8" fill="#FFFFFF" fill-opacity="0.03" stroke="#F4F8FF" stroke-opacity="0.7" stroke-width="1"/>
<path d="M 534.0 507.0 L 534.0 606.0 Q 534.0 613.0 527.0 613.0 L 520.0 613.0" class="edge fanout route-shared branch"/>
<path d="M 534.0 507.0 L 534.0 606.0 Q 534.0 613.0 541.0 613.0 L 548.0 613.0" class="edge fanout route-shared branch"/>
<path d="M 1731.0 613.0 L 1738.0 613.0 Q 1745.0 613.0 1745.0 620.0 L 1745.0 818.0 Q 1745.0 825.0 1738.0 825.0 L 1731.0 825.0" class="edge fanout route-shared trunk"/>
<path d="M 410.5 613.0 L 520.0 613.0" class="edge fanout route-shared bus"/>
<path d="M 548.0 613.0 L 1731.0 613.0" class="edge fanout route-shared bus"/>
<path d="M 410.5 613.0 L 403.5 613.0 Q 396.5 613.0 396.5 620.0 L 396.5 645.0" class="edge fanout terminal" marker-end="url(#arrow-fanout)"/>
<path d="M 751.5 613.0 L 758.5 613.0 Q 765.5 613.0 765.5 620.0 L 765.5 645.0" class="edge fanout terminal" marker-end="url(#arrow-fanout)"/>
<path d="M 1120.5 613.0 L 1127.5 613.0 Q 1134.5 613.0 1134.5 620.0 L 1134.5 645.0" class="edge fanout terminal" marker-end="url(#arrow-fanout)"/>
<path d="M 1489.5 613.0 L 1496.5 613.0 Q 1503.5 613.0 1503.5 620.0 L 1503.5 645.0" class="edge fanout terminal" marker-end="url(#arrow-fanout)"/>
<path d="M 964.0 825.0 L 1731.0 825.0" class="edge fanout route-shared bus"/>
<path d="M 964.0 825.0 L 957.0 825.0 Q 950.0 825.0 950.0 832.0 L 950.0 857.0" class="edge fanout terminal" marker-end="url(#arrow-fanout)"/>
<path d="M 1380.0 825.0 L 1373.0 825.0 Q 1366.0 825.0 1366.0 832.0 L 1366.0 857.0" class="edge fanout terminal" marker-end="url(#arrow-fanout)"/>
<path d="M 396.5 745.0 L 396.5 770.0 Q 396.5 777.0 389.5 777.0 L 382.5 777.0" class="edge fanin route-shared branch"/>
<path d="M 765.5 745.0 L 765.5 770.0 Q 765.5 777.0 758.5 777.0 L 751.5 777.0" class="edge fanin route-shared branch"/>
<path d="M 1503.5 745.0 L 1503.5 770.0 Q 1503.5 777.0 1496.5 777.0 L 1489.5 777.0" class="edge fanin route-shared branch"/>
<path d="M 169.0 777.0 L 728.0 777.0" class="edge fanin route-shared bus"/>
<path d="M 756.0 777.0 L 1489.5 777.0" class="edge fanin route-shared bus"/>
<path d="M 728.0 777.0 L 735.0 777.0 Q 742.0 777.0 742.0 784.0 L 742.0 791.0" class="edge fanin route-shared merge"/>
<path d="M 756.0 777.0 L 749.0 777.0 Q 742.0 777.0 742.0 784.0 L 742.0 791.0" class="edge fanin route-shared merge"/>
<path d="M 742.0 791.0 L 742.0 1103.0" class="edge fanin terminal" marker-end="url(#arrow-fanin)"/>
<path d="M 169.0 777.0 L 162.0 777.0 Q 155.0 777.0 155.0 784.0 L 155.0 982.0 Q 155.0 989.0 162.0 989.0 L 169.0 989.0" class="edge fanin route-shared trunk"/>
<path d="M 1134.5 745.0 L 1134.5 770.0 Q 1134.5 777.0 1127.5 777.0 L 1120.5 777.0" class="edge fanin route-shared branch"/>
<path d="M 169.0 777.0 L 1120.5 777.0" class="edge fanin route-shared bus"/>
<path d="M 950.0 957.0 L 950.0 982.0 Q 950.0 989.0 943.0 989.0 L 936.0 989.0" class="edge fanin route-shared branch"/>
<path d="M 1366.0 957.0 L 1366.0 982.0 Q 1366.0 989.0 1359.0 989.0 L 1352.0 989.0" class="edge fanin route-shared branch"/>
<path d="M 169.0 989.0 L 1144.0 989.0" class="edge fanin route-shared bus"/>
<path d="M 1172.0 989.0 L 1352.0 989.0" class="edge fanin route-shared bus"/>
<path d="M 1144.0 989.0 L 1151.0 989.0 Q 1158.0 989.0 1158.0 996.0 L 1158.0 1003.0" class="edge fanin route-shared merge"/>
<path d="M 1172.0 989.0 L 1165.0 989.0 Q 1158.0 989.0 1158.0 996.0 L 1158.0 1003.0" class="edge fanin route-shared merge"/>
<path d="M 1158.0 1003.0 L 1158.0 1103.0" class="edge fanin terminal" marker-end="url(#arrow-fanin)"/>
<path d="M 922.0 229.0 L 978.0 229.0" class="edge edge-dashed" marker-end="url(#arrow)"/>
<path d="M 742.0 279 L 742.0 329.0 Q 742.0 343.0 728.0 343.0 L 548.0 343.0 Q 534.0 343.0 534.0 357.0 L 534.0 407" class="edge" marker-end="url(#arrow)"/>
<path d="M 742.0 279 L 742.0 329.0 Q 742.0 343.0 756.0 343.0 L 936.0 343.0 Q 950.0 343.0 950.0 357.0 L 950.0 407" class="edge" marker-end="url(#arrow)"/>
<path d="M 742.0 279 L 742.0 329.0 Q 742.0 343.0 756.0 343.0 L 1352.0 343.0 Q 1366.0 343.0 1366.0 357.0 L 1366.0 407" class="edge" marker-end="url(#arrow)"/>
<g class="group-label-wrap"><rect x="88" y="121" width="284.40000000000003" height="30" rx="7" fill="#062B5F" fill-opacity="0.78"/><text x="98" y="141" class="group-label">Access and interpretation layer</text></g>
<g class="group-label-wrap"><rect x="88" y="349" width="183.6" height="30" rx="7" fill="#062B5F" fill-opacity="0.78"/><text x="98" y="369" class="group-label">Derived model layer</text></g>
<g class="group-label-wrap"><rect x="88" y="577" width="217.20000000000002" height="30" rx="7" fill="#062B5F" fill-opacity="0.78"/><text x="98" y="597" class="group-label">Reusable derived assets</text></g>
<g class="group-label-wrap"><rect x="88" y="1045" width="242.4" height="30" rx="7" fill="#062B5F" fill-opacity="0.78"/><text x="98" y="1065" class="group-label">Controlled-source boundary</text></g>
<g id="node-portal" class="card node-card"><rect x="562.0" y="179" width="360" height="100" rx="6" fill="#FFFFFF" fill-opacity="0.03" stroke="#16D9FF" stroke-width="1.3"/><rect x="580.0" y="219.0" width="18" height="20" rx="3" fill="none" stroke="#16D9FF" stroke-width="1.2"/><path d="M584.0,225.0 H594.0 M584.0,230.0 H594.0 M584.0,235.0 H591.0" class="icon-line" stroke="#16D9FF"/><text x="616.0" y="228.0874" text-anchor="start" class="card-title" style="font-size:23.2px">Knowledge Portal</text><text x="616.0" y="251.4046" text-anchor="start" class="card-sub" style="font-size:17.3px">entry and routing</text></g>
<g id="node-glossary" class="card node-card"><rect x="978.0" y="179" width="360" height="100" rx="6" fill="#FFFFFF" fill-opacity="0.03" stroke="#B56CFF" stroke-width="1.3"/><path d="M996.0,219.0 H1012.0 Q1016.0,219.0 1016.0,223.0 V238.0 H996.0 Z" fill="none" stroke="#B56CFF" stroke-width="1.2"/><path d="M1001.0,225.0 H1010.0 M1001.0,231.0 H1010.0" class="icon-line" stroke="#B56CFF"/><text x="1032.0" y="228.0874" text-anchor="start" class="card-title" style="font-size:23.2px">Glossary Register</text><text x="1032.0" y="251.4046" text-anchor="start" class="card-sub" style="font-size:17.3px">controlled terms</text></g>
<g id="node-domain_model" class="card node-card"><rect x="354.0" y="407" width="360" height="100" rx="6" fill="#FFFFFF" fill-opacity="0.03" stroke="#16D9FF" stroke-width="1.3"/><rect x="372.0" y="450.0" width="20" height="16" rx="3" fill="none" stroke="#16D9FF" stroke-width="1.2"/><path d="M372.0,455.0 H392.0 M382.0,450.0 V466.0" class="icon-line" stroke="#16D9FF"/><text x="408.0" y="456.0874" text-anchor="start" class="card-title" style="font-size:23.2px">Domain Model</text><text x="408.0" y="479.40459999999996" text-anchor="start" class="card-sub" style="font-size:17.3px">interfaces + boundaries</text></g>
<g id="node-risk_taxonomy" class="card node-card"><rect x="770.0" y="407" width="360" height="100" rx="6" fill="#FFFFFF" fill-opacity="0.03" stroke="#FFD84D" stroke-width="1.3"/><path d="M798.0,447.0 L807.0,452.0 V462.0 L798.0,467.0 L789.0,462.0 V452.0 Z" fill="none" stroke="#FFD84D" stroke-width="1.2"/><path d="M794.0,457.0 L797.0,461.0 L803.0,453.0" class="icon-line" stroke="#FFD84D"/><text x="824.0" y="456.0874" text-anchor="start" class="card-title" style="font-size:23.2px">Risk Taxonomy</text><text x="824.0" y="479.40459999999996" text-anchor="start" class="card-sub" style="font-size:17.3px">constraint model</text></g>
<g id="node-ownership_rules" class="card node-card"><rect x="1186.0" y="407" width="360" height="100" rx="6" fill="#FFFFFF" fill-opacity="0.03" stroke="#FFD84D" stroke-width="1.3"/><path d="M1214.0,447.0 L1224.0,465.0 H1204.0 Z" fill="none" stroke="#FFD84D" stroke-width="1.2"/><path d="M1214.0,454.0 V460.0 M1214.0,464.0 V464.0" class="icon-line" stroke="#FFD84D"/><text x="1240.0" y="456.0874" text-anchor="start" class="card-title" style="font-size:23.2px">Ownership Rules</text><text x="1240.0" y="479.40459999999996" text-anchor="start" class="card-sub" style="font-size:17.3px">shared governance</text></g>
<g id="node-asset_a" class="card node-card"><rect x="240.0" y="645" width="313.0" height="100" rx="6" fill="#FFFFFF" fill-opacity="0.03" stroke="#6EE66E" stroke-width="1.3"/><rect x="258.0" y="688.0" width="20" height="16" rx="3" fill="none" stroke="#6EE66E" stroke-width="1.2"/><path d="M258.0,693.0 H278.0 M268.0,688.0 V704.0" class="icon-line" stroke="#6EE66E"/><text x="294.0" y="681.5486000000001" text-anchor="start" class="card-title" style="font-size:23.2px">Assembly</text><text x="294.0" y="706.6262" text-anchor="start" class="card-title" style="font-size:23.2px">Knowledge Package</text><text x="294.0" y="729.9434000000001" text-anchor="start" class="card-sub" style="font-size:17.3px">approved module</text></g>
<g id="node-asset_b" class="card node-card"><rect x="609.0" y="645" width="313.0" height="100" rx="6" fill="#FFFFFF" fill-opacity="0.03" stroke="#FFD84D" stroke-width="1.3"/><path d="M637.0,685.0 L647.0,703.0 H627.0 Z" fill="none" stroke="#FFD84D" stroke-width="1.2"/><path d="M637.0,692.0 V698.0 M637.0,702.0 V702.0" class="icon-line" stroke="#FFD84D"/><text x="663.0" y="681.5486000000001" text-anchor="start" class="card-title" style="font-size:23.2px">Inspection</text><text x="663.0" y="706.6262" text-anchor="start" class="card-title" style="font-size:23.2px">Parameter Package</text><text x="663.0" y="729.9434000000001" text-anchor="start" class="card-sub" style="font-size:17.3px">CTQ family</text></g>
<g id="node-asset_c" class="card node-card"><rect x="978.0" y="645" width="313.0" height="100" rx="6" fill="#FFFFFF" fill-opacity="0.03" stroke="#FFD84D" stroke-width="1.3"/><path d="M1006.0,685.0 L1015.0,690.0 V700.0 L1006.0,705.0 L997.0,700.0 V690.0 Z" fill="none" stroke="#FFD84D" stroke-width="1.2"/><path d="M1002.0,695.0 L1005.0,699.0 L1011.0,691.0" class="icon-line" stroke="#FFD84D"/><text x="1032.0" y="681.5486000000001" text-anchor="start" class="card-title" style="font-size:23.2px">Exception</text><text x="1032.0" y="706.6262" text-anchor="start" class="card-title" style="font-size:23.2px">Handling Playbook</text><text x="1032.0" y="729.9434000000001" text-anchor="start" class="card-sub" style="font-size:17.3px">risk response</text></g>
<g id="node-asset_d" class="card node-card"><rect x="1347.0" y="645" width="313.0" height="100" rx="6" fill="#FFFFFF" fill-opacity="0.03" stroke="#B56CFF" stroke-width="1.3"/><path d="M1365.0,685.0 H1381.0 Q1385.0,685.0 1385.0,689.0 V704.0 H1365.0 Z" fill="none" stroke="#B56CFF" stroke-width="1.2"/><path d="M1370.0,691.0 H1379.0 M1370.0,697.0 H1379.0" class="icon-line" stroke="#B56CFF"/><text x="1401.0" y="681.5486000000001" text-anchor="start" class="card-title" style="font-size:23.2px">External Supplier</text><text x="1401.0" y="706.6262" text-anchor="start" class="card-title" style="font-size:23.2px">Boundary</text><text x="1401.0" y="729.9434000000001" text-anchor="start" class="card-sub" style="font-size:17.3px">optional link</text></g>
<g id="node-asset_e" class="card node-card"><rect x="770.0" y="857" width="360" height="100" rx="6" fill="#FFFFFF" fill-opacity="0.03" stroke="#6EE66E" stroke-width="1.3"/><rect x="788.0" y="900.0" width="20" height="16" rx="3" fill="none" stroke="#6EE66E" stroke-width="1.2"/><path d="M788.0,905.0 H808.0 M798.0,900.0 V916.0" class="icon-line" stroke="#6EE66E"/><text x="824.0" y="893.5486000000001" text-anchor="start" class="card-title" style="font-size:23.2px">Reusable Training</text><text x="824.0" y="918.6262" text-anchor="start" class="card-title" style="font-size:23.2px">Module</text><text x="824.0" y="941.9434000000001" text-anchor="start" class="card-sub" style="font-size:17.3px">approved asset</text></g>
<g id="node-asset_f" class="card node-card"><rect x="1186.0" y="857" width="360" height="100" rx="6" fill="#FFFFFF" fill-opacity="0.03" stroke="#FF9F2E" stroke-width="1.3"/><circle cx="1208.0" cy="908.0" r="4" fill="none" stroke="#FF9F2E" stroke-width="1.6"/><circle cx="1222.0" cy="901.0" r="4" fill="none" stroke="#FF9F2E" stroke-width="1.6"/><circle cx="1222.0" cy="915.0" r="4" fill="none" stroke="#FF9F2E" stroke-width="1.6"/><path d="M1212.0,908.0 H1216.0 M1218.0,904.0 L1216.0,908.0 L1218.0,912.0" class="icon-line" stroke="#FF9F2E"/><text x="1240.0" y="893.5486000000001" text-anchor="start" class="card-title" style="font-size:23.2px">Change Impact</text><text x="1240.0" y="918.6262" text-anchor="start" class="card-title" style="font-size:23.2px">Checklist</text><text x="1240.0" y="941.9434000000001" text-anchor="start" class="card-sub" style="font-size:17.3px">transformation path</text></g>
<g id="node-controlled_docs" class="card node-card"><rect x="562.0" y="1103" width="360" height="100" rx="6" fill="#FFFFFF" fill-opacity="0.03" stroke="#F4F8FF" stroke-width="1.3"/><path d="M580.0,1143.0 H594.0 L600.0,1149.0 V1163.0 H580.0 Z" fill="none" stroke="#F4F8FF" stroke-width="1.2"/><path d="M594.0,1143.0 V1149.0 H600.0" class="icon-line" stroke="#F4F8FF"/><text x="616.0" y="1139.5486" text-anchor="start" class="card-title" style="font-size:23.2px">Controlled Procedure</text><text x="616.0" y="1164.6262000000002" text-anchor="start" class="card-title" style="font-size:23.2px">Documents</text><text x="616.0" y="1187.9433999999999" text-anchor="start" class="card-sub" style="font-size:17.3px">execution authority</text></g>
<g id="node-record_system" class="card node-card"><rect x="978.0" y="1103" width="360" height="100" rx="6" fill="#FFFFFF" fill-opacity="0.03" stroke="#C9DAF5" stroke-width="1.3"/><path d="M996.0,1143.0 H1010.0 L1016.0,1149.0 V1163.0 H996.0 Z" fill="none" stroke="#C9DAF5" stroke-width="1.2"/><path d="M1010.0,1143.0 V1149.0 H1016.0" class="icon-line" stroke="#C9DAF5"/><text x="1032.0" y="1152.0874000000001" text-anchor="start" class="card-title" style="font-size:23.2px">Quality Record System</text><text x="1032.0" y="1175.4046" text-anchor="start" class="card-sub" style="font-size:17.3px">evidence authority</text></g>
<text x="950.0" y="1279" text-anchor="middle" class="note">Stress template: derived assets may map to different authority targets without crossing card interiors.</text>
</svg>
